%TF.GenerationSoftware,KiCad,Pcbnew,(5.1.7)-1*%
%TF.CreationDate,2021-01-13T20:34:28+01:00*%
%TF.ProjectId,HotPlateController,486f7450-6c61-4746-9543-6f6e74726f6c,rev?*%
%TF.SameCoordinates,Original*%
%TF.FileFunction,Copper,L2,Bot*%
%TF.FilePolarity,Positive*%
%FSLAX46Y46*%
G04 Gerber Fmt 4.6, Leading zero omitted, Abs format (unit mm)*
G04 Created by KiCad (PCBNEW (5.1.7)-1) date 2021-01-13 20:34:28*
%MOMM*%
%LPD*%
G01*
G04 APERTURE LIST*
%TA.AperFunction,ComponentPad*%
%ADD10C,2.300000*%
%TD*%
%TA.AperFunction,ComponentPad*%
%ADD11R,2.300000X2.000000*%
%TD*%
%TA.AperFunction,ComponentPad*%
%ADD12C,3.000000*%
%TD*%
%TA.AperFunction,ComponentPad*%
%ADD13R,2.600000X2.600000*%
%TD*%
%TA.AperFunction,ComponentPad*%
%ADD14C,2.600000*%
%TD*%
%TA.AperFunction,ComponentPad*%
%ADD15O,1.700000X1.700000*%
%TD*%
%TA.AperFunction,ComponentPad*%
%ADD16R,1.700000X1.700000*%
%TD*%
%TA.AperFunction,ViaPad*%
%ADD17C,0.800000*%
%TD*%
%TA.AperFunction,Conductor*%
%ADD18C,3.000000*%
%TD*%
%TA.AperFunction,Conductor*%
%ADD19C,0.500000*%
%TD*%
%TA.AperFunction,Conductor*%
%ADD20C,0.200000*%
%TD*%
%TA.AperFunction,Conductor*%
%ADD21C,0.100000*%
%TD*%
G04 APERTURE END LIST*
D10*
%TO.P,PS1,4*%
%TO.N,+5V*%
X46400000Y-24200000D03*
%TO.P,PS1,2*%
%TO.N,Net-(J3-Pad2)*%
X17000000Y-19000000D03*
D11*
%TO.P,PS1,1*%
%TO.N,Net-(J3-Pad1)*%
X17000000Y-14000000D03*
D10*
%TO.P,PS1,3*%
%TO.N,GND*%
X46400000Y-8800000D03*
%TD*%
D12*
%TO.P,J4,3*%
%TO.N,Net-(J4-Pad3)*%
X66000000Y-12840000D03*
%TO.P,J4,2*%
%TO.N,Net-(J3-Pad2)*%
X66000000Y-17920000D03*
%TO.P,J4,1*%
%TO.N,Earth*%
X65900000Y-23100000D03*
%TD*%
%TO.P,J3,3*%
%TO.N,Earth*%
X9000000Y-23160000D03*
%TO.P,J3,2*%
%TO.N,Net-(J3-Pad2)*%
X9000000Y-18080000D03*
%TO.P,J3,1*%
%TO.N,Net-(J3-Pad1)*%
X9100000Y-12900000D03*
%TD*%
D13*
%TO.P,J1,1*%
%TO.N,Net-(J1-Pad1)*%
X8500000Y-41500000D03*
D14*
%TO.P,J1,2*%
%TO.N,+5V*%
X8500000Y-36500000D03*
%TD*%
D13*
%TO.P,J6,1*%
%TO.N,Net-(J6-Pad1)*%
X8500000Y-54500000D03*
D14*
%TO.P,J6,2*%
%TO.N,Net-(J6-Pad2)*%
X8500000Y-49500000D03*
%TD*%
D15*
%TO.P,J2,8*%
%TO.N,/USB_RX*%
X70540000Y-44620000D03*
%TO.P,J2,7*%
%TO.N,+5V*%
X68000000Y-44620000D03*
%TO.P,J2,6*%
%TO.N,/USB_TX*%
X70540000Y-42080000D03*
%TO.P,J2,5*%
%TO.N,GND*%
X68000000Y-42080000D03*
%TO.P,J2,4*%
%TO.N,UserSwitch*%
X70540000Y-39540000D03*
%TO.P,J2,3*%
%TO.N,GND*%
X68000000Y-39540000D03*
%TO.P,J2,2*%
%TO.N,/EN*%
X70540000Y-37000000D03*
D16*
%TO.P,J2,1*%
%TO.N,GND*%
X68000000Y-37000000D03*
%TD*%
D17*
%TO.N,+5V*%
X48006000Y-39116000D03*
%TO.N,GND*%
X58420000Y-32512000D03*
X56642000Y-35814000D03*
X49784000Y-34798000D03*
X45720000Y-34290000D03*
X34798000Y-41402000D03*
X28448000Y-42926000D03*
X14478000Y-48514000D03*
X21082000Y-56388000D03*
X29210000Y-67310000D03*
X53594000Y-62230000D03*
X66294000Y-48006000D03*
X53848000Y-53340000D03*
X55626000Y-57150000D03*
%TO.N,+3V3*%
X57150000Y-62230000D03*
X54610000Y-59690000D03*
%TO.N,/USB_RX*%
X34798000Y-64389000D03*
%TO.N,/USB_TX*%
X36195000Y-66548000D03*
%TO.N,/EN*%
X63754000Y-60960000D03*
X67818000Y-60872000D03*
%TO.N,/ESP32_SPI_SCK*%
X24892000Y-55118000D03*
X37338000Y-56134000D03*
%TO.N,StatusLED*%
X48006000Y-47244000D03*
X54864000Y-42926000D03*
%TO.N,HotLED*%
X49276000Y-43180000D03*
X44449992Y-46482000D03*
%TO.N,UserSwitch*%
X73152000Y-50165000D03*
X45847000Y-51943000D03*
X62865000Y-56007000D03*
%TO.N,V_Current_adj*%
X55372000Y-45720000D03*
X51816000Y-46736000D03*
%TO.N,Net-(J3-Pad1)*%
X13462000Y-13970000D03*
X12446000Y-13970000D03*
X11430000Y-13970000D03*
X13462000Y-12954000D03*
X12446000Y-12954000D03*
X11430000Y-12954000D03*
X13462000Y-11938000D03*
X12446000Y-11938000D03*
X11430000Y-11938000D03*
%TO.N,Net-(J4-Pad3)*%
X66040000Y-10668000D03*
X68072000Y-12954000D03*
X66040000Y-14986000D03*
X64008000Y-12954000D03*
X64516000Y-11176000D03*
X67564000Y-11176000D03*
X67564000Y-14478000D03*
X64516000Y-14478000D03*
%TD*%
D18*
%TO.N,Earth*%
X36530000Y-23160000D02*
X9000000Y-23160000D01*
X40132000Y-19558000D02*
X36530000Y-23160000D01*
X49276000Y-19558000D02*
X40132000Y-19558000D01*
X52832000Y-23114000D02*
X49276000Y-19558000D01*
X65886000Y-23114000D02*
X52832000Y-23114000D01*
X65900000Y-23100000D02*
X65886000Y-23114000D01*
D19*
%TO.N,+5V*%
X48006000Y-39116000D02*
X59366000Y-39116000D01*
X64870000Y-44620000D02*
X68000000Y-44620000D01*
X59366000Y-39116000D02*
X64870000Y-44620000D01*
%TO.N,+3V3*%
X57150000Y-62230000D02*
X54610000Y-59690000D01*
%TO.N,/USB_RX*%
X34798000Y-64389000D02*
X35433000Y-65024000D01*
X35433000Y-65024000D02*
X67691000Y-65024000D01*
X70540000Y-62175000D02*
X70540000Y-44620000D01*
X67691000Y-65024000D02*
X70540000Y-62175000D01*
%TO.N,/USB_TX*%
X70540000Y-42080000D02*
X71544000Y-42080000D01*
X71544000Y-42080000D02*
X72136000Y-42672000D01*
X72136000Y-42672000D02*
X72136000Y-52578000D01*
X72136000Y-52578000D02*
X72136000Y-62230000D01*
X72136000Y-62230000D02*
X68453000Y-65913000D01*
X36830000Y-65913000D02*
X36195000Y-66548000D01*
X68453000Y-65913000D02*
X36830000Y-65913000D01*
%TO.N,/EN*%
X63754000Y-60960000D02*
X67818000Y-60960000D01*
X67818000Y-60960000D02*
X67818000Y-60872000D01*
%TO.N,/ESP32_SPI_SCK*%
X36322000Y-55118000D02*
X37338000Y-56134000D01*
X24892000Y-55118000D02*
X36322000Y-55118000D01*
%TO.N,StatusLED*%
X52324000Y-42926000D02*
X54864000Y-42926000D01*
X48006000Y-47244000D02*
X52324000Y-42926000D01*
%TO.N,HotLED*%
X49276000Y-43180000D02*
X45974000Y-46482000D01*
X45974000Y-46482000D02*
X44449992Y-46482000D01*
%TO.N,UserSwitch*%
X73152000Y-50165000D02*
X73152000Y-40513000D01*
X72179000Y-39540000D02*
X73152000Y-40513000D01*
X70540000Y-39540000D02*
X72179000Y-39540000D01*
X45847000Y-51943000D02*
X58801000Y-51943000D01*
X58801000Y-51943000D02*
X62865000Y-56007000D01*
%TO.N,V_Current_adj*%
X55372000Y-45720000D02*
X53594000Y-45720000D01*
X53594000Y-45720000D02*
X52832000Y-45720000D01*
X52832000Y-45720000D02*
X51816000Y-46736000D01*
D18*
%TO.N,Net-(J3-Pad2)*%
X16080000Y-18080000D02*
X17000000Y-19000000D01*
X9000000Y-18080000D02*
X16080000Y-18080000D01*
X30784000Y-19000000D02*
X17000000Y-19000000D01*
X35814000Y-13970000D02*
X30784000Y-19000000D01*
X56896000Y-13970000D02*
X35814000Y-13970000D01*
X60846000Y-17920000D02*
X56896000Y-13970000D01*
X66000000Y-17920000D02*
X60846000Y-17920000D01*
%TO.N,Net-(J3-Pad1)*%
X15900000Y-12900000D02*
X17000000Y-14000000D01*
X9100000Y-12900000D02*
X15900000Y-12900000D01*
%TD*%
D20*
%TO.N,Net-(J4-Pad3)*%
X68480000Y-11471422D02*
X68480000Y-14182578D01*
X67268578Y-15394000D01*
X64811422Y-15394000D01*
X63600000Y-14182578D01*
X63600000Y-11471422D01*
X64811422Y-10260000D01*
X67268578Y-10260000D01*
X68480000Y-11471422D01*
%TA.AperFunction,Conductor*%
D21*
G36*
X68480000Y-11471422D02*
G01*
X68480000Y-14182578D01*
X67268578Y-15394000D01*
X64811422Y-15394000D01*
X63600000Y-14182578D01*
X63600000Y-11471422D01*
X64811422Y-10260000D01*
X67268578Y-10260000D01*
X68480000Y-11471422D01*
G37*
%TD.AperFunction*%
%TD*%
D20*
%TO.N,GND*%
X74675000Y-71865380D02*
X71865382Y-74675000D01*
X65134619Y-74675000D01*
X60272485Y-69812866D01*
X68100000Y-69812866D01*
X68100000Y-70187134D01*
X68173016Y-70554209D01*
X68316242Y-70899987D01*
X68524174Y-71211179D01*
X68788821Y-71475826D01*
X69100013Y-71683758D01*
X69445791Y-71826984D01*
X69812866Y-71900000D01*
X70187134Y-71900000D01*
X70554209Y-71826984D01*
X70899987Y-71683758D01*
X71211179Y-71475826D01*
X71475826Y-71211179D01*
X71683758Y-70899987D01*
X71826984Y-70554209D01*
X71900000Y-70187134D01*
X71900000Y-69812866D01*
X71826984Y-69445791D01*
X71683758Y-69100013D01*
X71475826Y-68788821D01*
X71211179Y-68524174D01*
X70899987Y-68316242D01*
X70554209Y-68173016D01*
X70187134Y-68100000D01*
X69812866Y-68100000D01*
X69445791Y-68173016D01*
X69100013Y-68316242D01*
X68788821Y-68524174D01*
X68524174Y-68788821D01*
X68316242Y-69100013D01*
X68173016Y-69445791D01*
X68100000Y-69812866D01*
X60272485Y-69812866D01*
X60241101Y-69781483D01*
X60230921Y-69769079D01*
X60181434Y-69728465D01*
X60124974Y-69698287D01*
X60063711Y-69679703D01*
X60015961Y-69675000D01*
X60015953Y-69675000D01*
X60000000Y-69673429D01*
X59984047Y-69675000D01*
X20015953Y-69675000D01*
X20000000Y-69673429D01*
X19984047Y-69675000D01*
X19984039Y-69675000D01*
X19936289Y-69679703D01*
X19875026Y-69698287D01*
X19818566Y-69728465D01*
X19769079Y-69769079D01*
X19758904Y-69781477D01*
X14865382Y-74675000D01*
X3134620Y-74675000D01*
X325000Y-71865382D01*
X325000Y-69812866D01*
X3100000Y-69812866D01*
X3100000Y-70187134D01*
X3173016Y-70554209D01*
X3316242Y-70899987D01*
X3524174Y-71211179D01*
X3788821Y-71475826D01*
X4100013Y-71683758D01*
X4445791Y-71826984D01*
X4812866Y-71900000D01*
X5187134Y-71900000D01*
X5554209Y-71826984D01*
X5899987Y-71683758D01*
X6211179Y-71475826D01*
X6475826Y-71211179D01*
X6683758Y-70899987D01*
X6826984Y-70554209D01*
X6900000Y-70187134D01*
X6900000Y-69812866D01*
X6826984Y-69445791D01*
X6683758Y-69100013D01*
X6475826Y-68788821D01*
X6211179Y-68524174D01*
X5899987Y-68316242D01*
X5554209Y-68173016D01*
X5187134Y-68100000D01*
X4812866Y-68100000D01*
X4445791Y-68173016D01*
X4100013Y-68316242D01*
X3788821Y-68524174D01*
X3524174Y-68788821D01*
X3316242Y-69100013D01*
X3173016Y-69445791D01*
X3100000Y-69812866D01*
X325000Y-69812866D01*
X325000Y-64320056D01*
X34098000Y-64320056D01*
X34098000Y-64457944D01*
X34124901Y-64593182D01*
X34177668Y-64720574D01*
X34254274Y-64835224D01*
X34351776Y-64932726D01*
X34466426Y-65009332D01*
X34593818Y-65062099D01*
X34717980Y-65086797D01*
X35024987Y-65393804D01*
X35042210Y-65414790D01*
X35125958Y-65483521D01*
X35221506Y-65534592D01*
X35325181Y-65566042D01*
X35405982Y-65574000D01*
X35405989Y-65574000D01*
X35433000Y-65576660D01*
X35460011Y-65574000D01*
X36391183Y-65574000D01*
X36114980Y-65850203D01*
X35990818Y-65874901D01*
X35863426Y-65927668D01*
X35748776Y-66004274D01*
X35651274Y-66101776D01*
X35574668Y-66216426D01*
X35521901Y-66343818D01*
X35495000Y-66479056D01*
X35495000Y-66616944D01*
X35521901Y-66752182D01*
X35574668Y-66879574D01*
X35651274Y-66994224D01*
X35748776Y-67091726D01*
X35863426Y-67168332D01*
X35990818Y-67221099D01*
X36126056Y-67248000D01*
X36263944Y-67248000D01*
X36399182Y-67221099D01*
X36526574Y-67168332D01*
X36641224Y-67091726D01*
X36738726Y-66994224D01*
X36815332Y-66879574D01*
X36868099Y-66752182D01*
X36892797Y-66628020D01*
X37057817Y-66463000D01*
X68425992Y-66463000D01*
X68453000Y-66465660D01*
X68480008Y-66463000D01*
X68480018Y-66463000D01*
X68560819Y-66455042D01*
X68664494Y-66423592D01*
X68760042Y-66372521D01*
X68843790Y-66303790D01*
X68861013Y-66282804D01*
X72505804Y-62638013D01*
X72526790Y-62620790D01*
X72595521Y-62537042D01*
X72646592Y-62441494D01*
X72678042Y-62337819D01*
X72686000Y-62257018D01*
X72686000Y-62257011D01*
X72688660Y-62230000D01*
X72686000Y-62202989D01*
X72686000Y-50688950D01*
X72705776Y-50708726D01*
X72820426Y-50785332D01*
X72947818Y-50838099D01*
X73083056Y-50865000D01*
X73220944Y-50865000D01*
X73356182Y-50838099D01*
X73483574Y-50785332D01*
X73598224Y-50708726D01*
X73695726Y-50611224D01*
X73772332Y-50496574D01*
X73825099Y-50369182D01*
X73852000Y-50233944D01*
X73852000Y-50096056D01*
X73825099Y-49960818D01*
X73772332Y-49833426D01*
X73702000Y-49728166D01*
X73702000Y-40540011D01*
X73704660Y-40513000D01*
X73702000Y-40485989D01*
X73702000Y-40485982D01*
X73694042Y-40405181D01*
X73662592Y-40301506D01*
X73662592Y-40301505D01*
X73611521Y-40205958D01*
X73560013Y-40143196D01*
X73542790Y-40122210D01*
X73521804Y-40104987D01*
X72587013Y-39170196D01*
X72569790Y-39149210D01*
X72486042Y-39080479D01*
X72390494Y-39029408D01*
X72286819Y-38997958D01*
X72206018Y-38990000D01*
X72206008Y-38990000D01*
X72179000Y-38987340D01*
X72151992Y-38990000D01*
X71555594Y-38990000D01*
X71433263Y-38806918D01*
X71273082Y-38646737D01*
X71084729Y-38520884D01*
X70875443Y-38434194D01*
X70653265Y-38390000D01*
X70426735Y-38390000D01*
X70204557Y-38434194D01*
X69995271Y-38520884D01*
X69806918Y-38646737D01*
X69646737Y-38806918D01*
X69520884Y-38995271D01*
X69434194Y-39204557D01*
X69390000Y-39426735D01*
X69390000Y-39653265D01*
X69434194Y-39875443D01*
X69520884Y-40084729D01*
X69646737Y-40273082D01*
X69806918Y-40433263D01*
X69995271Y-40559116D01*
X70204557Y-40645806D01*
X70426735Y-40690000D01*
X70653265Y-40690000D01*
X70875443Y-40645806D01*
X71084729Y-40559116D01*
X71273082Y-40433263D01*
X71433263Y-40273082D01*
X71555594Y-40090000D01*
X71951183Y-40090000D01*
X72602001Y-40740818D01*
X72602001Y-42377081D01*
X72595521Y-42364958D01*
X72561982Y-42324091D01*
X72544013Y-42302195D01*
X72544008Y-42302190D01*
X72526790Y-42281210D01*
X72505809Y-42263992D01*
X71952013Y-41710195D01*
X71934790Y-41689210D01*
X71851042Y-41620479D01*
X71755494Y-41569408D01*
X71651819Y-41537958D01*
X71571018Y-41530000D01*
X71571008Y-41530000D01*
X71554508Y-41528375D01*
X71433263Y-41346918D01*
X71273082Y-41186737D01*
X71084729Y-41060884D01*
X70875443Y-40974194D01*
X70653265Y-40930000D01*
X70426735Y-40930000D01*
X70204557Y-40974194D01*
X69995271Y-41060884D01*
X69806918Y-41186737D01*
X69646737Y-41346918D01*
X69520884Y-41535271D01*
X69434194Y-41744557D01*
X69390000Y-41966735D01*
X69390000Y-42193265D01*
X69434194Y-42415443D01*
X69520884Y-42624729D01*
X69646737Y-42813082D01*
X69806918Y-42973263D01*
X69995271Y-43099116D01*
X70204557Y-43185806D01*
X70426735Y-43230000D01*
X70653265Y-43230000D01*
X70875443Y-43185806D01*
X71084729Y-43099116D01*
X71273082Y-42973263D01*
X71433263Y-42813082D01*
X71459699Y-42773517D01*
X71586000Y-42899818D01*
X71586000Y-44140174D01*
X71559116Y-44075271D01*
X71433263Y-43886918D01*
X71273082Y-43726737D01*
X71084729Y-43600884D01*
X70875443Y-43514194D01*
X70653265Y-43470000D01*
X70426735Y-43470000D01*
X70204557Y-43514194D01*
X69995271Y-43600884D01*
X69806918Y-43726737D01*
X69646737Y-43886918D01*
X69520884Y-44075271D01*
X69434194Y-44284557D01*
X69390000Y-44506735D01*
X69390000Y-44733265D01*
X69434194Y-44955443D01*
X69520884Y-45164729D01*
X69646737Y-45353082D01*
X69806918Y-45513263D01*
X69990001Y-45635595D01*
X69990000Y-61947182D01*
X67463183Y-64474000D01*
X35660817Y-64474000D01*
X35495797Y-64308980D01*
X35471099Y-64184818D01*
X35418332Y-64057426D01*
X35341726Y-63942776D01*
X35244224Y-63845274D01*
X35129574Y-63768668D01*
X35002182Y-63715901D01*
X34866944Y-63689000D01*
X34729056Y-63689000D01*
X34593818Y-63715901D01*
X34466426Y-63768668D01*
X34351776Y-63845274D01*
X34254274Y-63942776D01*
X34177668Y-64057426D01*
X34124901Y-64184818D01*
X34098000Y-64320056D01*
X325000Y-64320056D01*
X325000Y-59621056D01*
X53910000Y-59621056D01*
X53910000Y-59758944D01*
X53936901Y-59894182D01*
X53989668Y-60021574D01*
X54066274Y-60136224D01*
X54163776Y-60233726D01*
X54278426Y-60310332D01*
X54405818Y-60363099D01*
X54529980Y-60387797D01*
X56452203Y-62310021D01*
X56476901Y-62434182D01*
X56529668Y-62561574D01*
X56606274Y-62676224D01*
X56703776Y-62773726D01*
X56818426Y-62850332D01*
X56945818Y-62903099D01*
X57081056Y-62930000D01*
X57218944Y-62930000D01*
X57354182Y-62903099D01*
X57481574Y-62850332D01*
X57596224Y-62773726D01*
X57693726Y-62676224D01*
X57770332Y-62561574D01*
X57823099Y-62434182D01*
X57850000Y-62298944D01*
X57850000Y-62161056D01*
X57823099Y-62025818D01*
X57770332Y-61898426D01*
X57693726Y-61783776D01*
X57596224Y-61686274D01*
X57481574Y-61609668D01*
X57354182Y-61556901D01*
X57230021Y-61532203D01*
X56588874Y-60891056D01*
X63054000Y-60891056D01*
X63054000Y-61028944D01*
X63080901Y-61164182D01*
X63133668Y-61291574D01*
X63210274Y-61406224D01*
X63307776Y-61503726D01*
X63422426Y-61580332D01*
X63549818Y-61633099D01*
X63685056Y-61660000D01*
X63822944Y-61660000D01*
X63958182Y-61633099D01*
X64085574Y-61580332D01*
X64190834Y-61510000D01*
X67529081Y-61510000D01*
X67613818Y-61545099D01*
X67749056Y-61572000D01*
X67886944Y-61572000D01*
X68022182Y-61545099D01*
X68149574Y-61492332D01*
X68264224Y-61415726D01*
X68361726Y-61318224D01*
X68438332Y-61203574D01*
X68491099Y-61076182D01*
X68518000Y-60940944D01*
X68518000Y-60803056D01*
X68491099Y-60667818D01*
X68438332Y-60540426D01*
X68361726Y-60425776D01*
X68264224Y-60328274D01*
X68149574Y-60251668D01*
X68022182Y-60198901D01*
X67886944Y-60172000D01*
X67749056Y-60172000D01*
X67613818Y-60198901D01*
X67486426Y-60251668D01*
X67371776Y-60328274D01*
X67290050Y-60410000D01*
X64190834Y-60410000D01*
X64085574Y-60339668D01*
X63958182Y-60286901D01*
X63822944Y-60260000D01*
X63685056Y-60260000D01*
X63549818Y-60286901D01*
X63422426Y-60339668D01*
X63307776Y-60416274D01*
X63210274Y-60513776D01*
X63133668Y-60628426D01*
X63080901Y-60755818D01*
X63054000Y-60891056D01*
X56588874Y-60891056D01*
X55307797Y-59609980D01*
X55283099Y-59485818D01*
X55230332Y-59358426D01*
X55153726Y-59243776D01*
X55056224Y-59146274D01*
X54941574Y-59069668D01*
X54814182Y-59016901D01*
X54678944Y-58990000D01*
X54541056Y-58990000D01*
X54405818Y-59016901D01*
X54278426Y-59069668D01*
X54163776Y-59146274D01*
X54066274Y-59243776D01*
X53989668Y-59358426D01*
X53936901Y-59485818D01*
X53910000Y-59621056D01*
X325000Y-59621056D01*
X325000Y-53200000D01*
X6898549Y-53200000D01*
X6898549Y-55800000D01*
X6904341Y-55858810D01*
X6921496Y-55915360D01*
X6949353Y-55967477D01*
X6986842Y-56013158D01*
X7032523Y-56050647D01*
X7084640Y-56078504D01*
X7141190Y-56095659D01*
X7200000Y-56101451D01*
X9800000Y-56101451D01*
X9858810Y-56095659D01*
X9915360Y-56078504D01*
X9967477Y-56050647D01*
X10013158Y-56013158D01*
X10050647Y-55967477D01*
X10078504Y-55915360D01*
X10095659Y-55858810D01*
X10101451Y-55800000D01*
X10101451Y-55049056D01*
X24192000Y-55049056D01*
X24192000Y-55186944D01*
X24218901Y-55322182D01*
X24271668Y-55449574D01*
X24348274Y-55564224D01*
X24445776Y-55661726D01*
X24560426Y-55738332D01*
X24687818Y-55791099D01*
X24823056Y-55818000D01*
X24960944Y-55818000D01*
X25096182Y-55791099D01*
X25223574Y-55738332D01*
X25328834Y-55668000D01*
X36094183Y-55668000D01*
X36640203Y-56214021D01*
X36664901Y-56338182D01*
X36717668Y-56465574D01*
X36794274Y-56580224D01*
X36891776Y-56677726D01*
X37006426Y-56754332D01*
X37133818Y-56807099D01*
X37269056Y-56834000D01*
X37406944Y-56834000D01*
X37542182Y-56807099D01*
X37669574Y-56754332D01*
X37784224Y-56677726D01*
X37881726Y-56580224D01*
X37958332Y-56465574D01*
X38011099Y-56338182D01*
X38038000Y-56202944D01*
X38038000Y-56065056D01*
X38011099Y-55929818D01*
X37958332Y-55802426D01*
X37881726Y-55687776D01*
X37784224Y-55590274D01*
X37669574Y-55513668D01*
X37542182Y-55460901D01*
X37418021Y-55436203D01*
X36730013Y-54748196D01*
X36712790Y-54727210D01*
X36629042Y-54658479D01*
X36533494Y-54607408D01*
X36429819Y-54575958D01*
X36349018Y-54568000D01*
X36349008Y-54568000D01*
X36322000Y-54565340D01*
X36294992Y-54568000D01*
X25328834Y-54568000D01*
X25223574Y-54497668D01*
X25096182Y-54444901D01*
X24960944Y-54418000D01*
X24823056Y-54418000D01*
X24687818Y-54444901D01*
X24560426Y-54497668D01*
X24445776Y-54574274D01*
X24348274Y-54671776D01*
X24271668Y-54786426D01*
X24218901Y-54913818D01*
X24192000Y-55049056D01*
X10101451Y-55049056D01*
X10101451Y-53200000D01*
X10095659Y-53141190D01*
X10078504Y-53084640D01*
X10050647Y-53032523D01*
X10013158Y-52986842D01*
X9967477Y-52949353D01*
X9915360Y-52921496D01*
X9858810Y-52904341D01*
X9800000Y-52898549D01*
X7200000Y-52898549D01*
X7141190Y-52904341D01*
X7084640Y-52921496D01*
X7032523Y-52949353D01*
X6986842Y-52986842D01*
X6949353Y-53032523D01*
X6921496Y-53084640D01*
X6904341Y-53141190D01*
X6898549Y-53200000D01*
X325000Y-53200000D01*
X325000Y-51874056D01*
X45147000Y-51874056D01*
X45147000Y-52011944D01*
X45173901Y-52147182D01*
X45226668Y-52274574D01*
X45303274Y-52389224D01*
X45400776Y-52486726D01*
X45515426Y-52563332D01*
X45642818Y-52616099D01*
X45778056Y-52643000D01*
X45915944Y-52643000D01*
X46051182Y-52616099D01*
X46178574Y-52563332D01*
X46283834Y-52493000D01*
X58573183Y-52493000D01*
X62167203Y-56087021D01*
X62191901Y-56211182D01*
X62244668Y-56338574D01*
X62321274Y-56453224D01*
X62418776Y-56550726D01*
X62533426Y-56627332D01*
X62660818Y-56680099D01*
X62796056Y-56707000D01*
X62933944Y-56707000D01*
X63069182Y-56680099D01*
X63196574Y-56627332D01*
X63311224Y-56550726D01*
X63408726Y-56453224D01*
X63485332Y-56338574D01*
X63538099Y-56211182D01*
X63565000Y-56075944D01*
X63565000Y-55938056D01*
X63538099Y-55802818D01*
X63485332Y-55675426D01*
X63408726Y-55560776D01*
X63311224Y-55463274D01*
X63196574Y-55386668D01*
X63069182Y-55333901D01*
X62945021Y-55309203D01*
X59209013Y-51573196D01*
X59191790Y-51552210D01*
X59108042Y-51483479D01*
X59012494Y-51432408D01*
X58908819Y-51400958D01*
X58828018Y-51393000D01*
X58828008Y-51393000D01*
X58801000Y-51390340D01*
X58773992Y-51393000D01*
X46283834Y-51393000D01*
X46178574Y-51322668D01*
X46051182Y-51269901D01*
X45915944Y-51243000D01*
X45778056Y-51243000D01*
X45642818Y-51269901D01*
X45515426Y-51322668D01*
X45400776Y-51399274D01*
X45303274Y-51496776D01*
X45226668Y-51611426D01*
X45173901Y-51738818D01*
X45147000Y-51874056D01*
X325000Y-51874056D01*
X325000Y-49342414D01*
X6900000Y-49342414D01*
X6900000Y-49657586D01*
X6961487Y-49966703D01*
X7082098Y-50257884D01*
X7257199Y-50519941D01*
X7480059Y-50742801D01*
X7742116Y-50917902D01*
X8033297Y-51038513D01*
X8342414Y-51100000D01*
X8657586Y-51100000D01*
X8966703Y-51038513D01*
X9257884Y-50917902D01*
X9519941Y-50742801D01*
X9742801Y-50519941D01*
X9917902Y-50257884D01*
X10038513Y-49966703D01*
X10100000Y-49657586D01*
X10100000Y-49342414D01*
X10038513Y-49033297D01*
X9917902Y-48742116D01*
X9742801Y-48480059D01*
X9519941Y-48257199D01*
X9257884Y-48082098D01*
X8966703Y-47961487D01*
X8657586Y-47900000D01*
X8342414Y-47900000D01*
X8033297Y-47961487D01*
X7742116Y-48082098D01*
X7480059Y-48257199D01*
X7257199Y-48480059D01*
X7082098Y-48742116D01*
X6961487Y-49033297D01*
X6900000Y-49342414D01*
X325000Y-49342414D01*
X325000Y-46413056D01*
X43749992Y-46413056D01*
X43749992Y-46550944D01*
X43776893Y-46686182D01*
X43829660Y-46813574D01*
X43906266Y-46928224D01*
X44003768Y-47025726D01*
X44118418Y-47102332D01*
X44245810Y-47155099D01*
X44381048Y-47182000D01*
X44518936Y-47182000D01*
X44553845Y-47175056D01*
X47306000Y-47175056D01*
X47306000Y-47312944D01*
X47332901Y-47448182D01*
X47385668Y-47575574D01*
X47462274Y-47690224D01*
X47559776Y-47787726D01*
X47674426Y-47864332D01*
X47801818Y-47917099D01*
X47937056Y-47944000D01*
X48074944Y-47944000D01*
X48210182Y-47917099D01*
X48337574Y-47864332D01*
X48452224Y-47787726D01*
X48549726Y-47690224D01*
X48626332Y-47575574D01*
X48679099Y-47448182D01*
X48703797Y-47324020D01*
X49360761Y-46667056D01*
X51116000Y-46667056D01*
X51116000Y-46804944D01*
X51142901Y-46940182D01*
X51195668Y-47067574D01*
X51272274Y-47182224D01*
X51369776Y-47279726D01*
X51484426Y-47356332D01*
X51611818Y-47409099D01*
X51747056Y-47436000D01*
X51884944Y-47436000D01*
X52020182Y-47409099D01*
X52147574Y-47356332D01*
X52262224Y-47279726D01*
X52359726Y-47182224D01*
X52436332Y-47067574D01*
X52489099Y-46940182D01*
X52513797Y-46816021D01*
X53059818Y-46270000D01*
X54935166Y-46270000D01*
X55040426Y-46340332D01*
X55167818Y-46393099D01*
X55303056Y-46420000D01*
X55440944Y-46420000D01*
X55576182Y-46393099D01*
X55703574Y-46340332D01*
X55818224Y-46263726D01*
X55915726Y-46166224D01*
X55992332Y-46051574D01*
X56045099Y-45924182D01*
X56072000Y-45788944D01*
X56072000Y-45651056D01*
X56045099Y-45515818D01*
X55992332Y-45388426D01*
X55915726Y-45273776D01*
X55818224Y-45176274D01*
X55703574Y-45099668D01*
X55576182Y-45046901D01*
X55440944Y-45020000D01*
X55303056Y-45020000D01*
X55167818Y-45046901D01*
X55040426Y-45099668D01*
X54935166Y-45170000D01*
X52859008Y-45170000D01*
X52832000Y-45167340D01*
X52804992Y-45170000D01*
X52804982Y-45170000D01*
X52724181Y-45177958D01*
X52620506Y-45209408D01*
X52576028Y-45233182D01*
X52524957Y-45260479D01*
X52462195Y-45311987D01*
X52462190Y-45311992D01*
X52441210Y-45329210D01*
X52423992Y-45350190D01*
X51735979Y-46038203D01*
X51611818Y-46062901D01*
X51484426Y-46115668D01*
X51369776Y-46192274D01*
X51272274Y-46289776D01*
X51195668Y-46404426D01*
X51142901Y-46531818D01*
X51116000Y-46667056D01*
X49360761Y-46667056D01*
X52551818Y-43476000D01*
X54427166Y-43476000D01*
X54532426Y-43546332D01*
X54659818Y-43599099D01*
X54795056Y-43626000D01*
X54932944Y-43626000D01*
X55068182Y-43599099D01*
X55195574Y-43546332D01*
X55310224Y-43469726D01*
X55407726Y-43372224D01*
X55484332Y-43257574D01*
X55537099Y-43130182D01*
X55564000Y-42994944D01*
X55564000Y-42857056D01*
X55537099Y-42721818D01*
X55484332Y-42594426D01*
X55407726Y-42479776D01*
X55310224Y-42382274D01*
X55195574Y-42305668D01*
X55068182Y-42252901D01*
X54932944Y-42226000D01*
X54795056Y-42226000D01*
X54659818Y-42252901D01*
X54532426Y-42305668D01*
X54427166Y-42376000D01*
X52351007Y-42376000D01*
X52323999Y-42373340D01*
X52296991Y-42376000D01*
X52296982Y-42376000D01*
X52216181Y-42383958D01*
X52112506Y-42415408D01*
X52112441Y-42415443D01*
X52016957Y-42466479D01*
X51954195Y-42517987D01*
X51954190Y-42517992D01*
X51933210Y-42535210D01*
X51915992Y-42556190D01*
X47925980Y-46546203D01*
X47801818Y-46570901D01*
X47674426Y-46623668D01*
X47559776Y-46700274D01*
X47462274Y-46797776D01*
X47385668Y-46912426D01*
X47332901Y-47039818D01*
X47306000Y-47175056D01*
X44553845Y-47175056D01*
X44654174Y-47155099D01*
X44781566Y-47102332D01*
X44886826Y-47032000D01*
X45946992Y-47032000D01*
X45974000Y-47034660D01*
X46001008Y-47032000D01*
X46001018Y-47032000D01*
X46081819Y-47024042D01*
X46185494Y-46992592D01*
X46281042Y-46941521D01*
X46364790Y-46872790D01*
X46382013Y-46851804D01*
X49356021Y-43877797D01*
X49480182Y-43853099D01*
X49607574Y-43800332D01*
X49722224Y-43723726D01*
X49819726Y-43626224D01*
X49896332Y-43511574D01*
X49949099Y-43384182D01*
X49976000Y-43248944D01*
X49976000Y-43111056D01*
X49949099Y-42975818D01*
X49896332Y-42848426D01*
X49819726Y-42733776D01*
X49722224Y-42636274D01*
X49607574Y-42559668D01*
X49480182Y-42506901D01*
X49344944Y-42480000D01*
X49207056Y-42480000D01*
X49071818Y-42506901D01*
X48944426Y-42559668D01*
X48829776Y-42636274D01*
X48732274Y-42733776D01*
X48655668Y-42848426D01*
X48602901Y-42975818D01*
X48578203Y-43099979D01*
X45746183Y-45932000D01*
X44886826Y-45932000D01*
X44781566Y-45861668D01*
X44654174Y-45808901D01*
X44518936Y-45782000D01*
X44381048Y-45782000D01*
X44245810Y-45808901D01*
X44118418Y-45861668D01*
X44003768Y-45938274D01*
X43906266Y-46035776D01*
X43829660Y-46150426D01*
X43776893Y-46277818D01*
X43749992Y-46413056D01*
X325000Y-46413056D01*
X325000Y-40200000D01*
X6898549Y-40200000D01*
X6898549Y-42800000D01*
X6904341Y-42858810D01*
X6921496Y-42915360D01*
X6949353Y-42967477D01*
X6986842Y-43013158D01*
X7032523Y-43050647D01*
X7084640Y-43078504D01*
X7141190Y-43095659D01*
X7200000Y-43101451D01*
X9800000Y-43101451D01*
X9858810Y-43095659D01*
X9915360Y-43078504D01*
X9967477Y-43050647D01*
X10013158Y-43013158D01*
X10050647Y-42967477D01*
X10078504Y-42915360D01*
X10095659Y-42858810D01*
X10101451Y-42800000D01*
X10101451Y-40200000D01*
X10095659Y-40141190D01*
X10078504Y-40084640D01*
X10050647Y-40032523D01*
X10013158Y-39986842D01*
X9967477Y-39949353D01*
X9915360Y-39921496D01*
X9858810Y-39904341D01*
X9800000Y-39898549D01*
X7200000Y-39898549D01*
X7141190Y-39904341D01*
X7084640Y-39921496D01*
X7032523Y-39949353D01*
X6986842Y-39986842D01*
X6949353Y-40032523D01*
X6921496Y-40084640D01*
X6904341Y-40141190D01*
X6898549Y-40200000D01*
X325000Y-40200000D01*
X325000Y-39047056D01*
X47306000Y-39047056D01*
X47306000Y-39184944D01*
X47332901Y-39320182D01*
X47385668Y-39447574D01*
X47462274Y-39562224D01*
X47559776Y-39659726D01*
X47674426Y-39736332D01*
X47801818Y-39789099D01*
X47937056Y-39816000D01*
X48074944Y-39816000D01*
X48210182Y-39789099D01*
X48337574Y-39736332D01*
X48442834Y-39666000D01*
X59138183Y-39666000D01*
X64461992Y-44989810D01*
X64479210Y-45010790D01*
X64500190Y-45028008D01*
X64500195Y-45028013D01*
X64552097Y-45070607D01*
X64562958Y-45079521D01*
X64658506Y-45130592D01*
X64762181Y-45162042D01*
X64842982Y-45170000D01*
X64842991Y-45170000D01*
X64869999Y-45172660D01*
X64897007Y-45170000D01*
X66984406Y-45170000D01*
X67106737Y-45353082D01*
X67266918Y-45513263D01*
X67455271Y-45639116D01*
X67664557Y-45725806D01*
X67886735Y-45770000D01*
X68113265Y-45770000D01*
X68335443Y-45725806D01*
X68544729Y-45639116D01*
X68733082Y-45513263D01*
X68893263Y-45353082D01*
X69019116Y-45164729D01*
X69105806Y-44955443D01*
X69150000Y-44733265D01*
X69150000Y-44506735D01*
X69105806Y-44284557D01*
X69019116Y-44075271D01*
X68893263Y-43886918D01*
X68733082Y-43726737D01*
X68544729Y-43600884D01*
X68335443Y-43514194D01*
X68113265Y-43470000D01*
X67886735Y-43470000D01*
X67664557Y-43514194D01*
X67455271Y-43600884D01*
X67266918Y-43726737D01*
X67106737Y-43886918D01*
X66984406Y-44070000D01*
X65097818Y-44070000D01*
X63312367Y-42284549D01*
X66868338Y-42284549D01*
X66876203Y-42324091D01*
X66945416Y-42538643D01*
X67055156Y-42735569D01*
X67201206Y-42907302D01*
X67377953Y-43047243D01*
X67578605Y-43150013D01*
X67795451Y-43211663D01*
X67975000Y-43154729D01*
X67975000Y-42105000D01*
X68025000Y-42105000D01*
X68025000Y-43154729D01*
X68204549Y-43211663D01*
X68421395Y-43150013D01*
X68622047Y-43047243D01*
X68798794Y-42907302D01*
X68944844Y-42735569D01*
X69054584Y-42538643D01*
X69123797Y-42324091D01*
X69131662Y-42284549D01*
X69074709Y-42105000D01*
X68025000Y-42105000D01*
X67975000Y-42105000D01*
X66925291Y-42105000D01*
X66868338Y-42284549D01*
X63312367Y-42284549D01*
X62903269Y-41875451D01*
X66868338Y-41875451D01*
X66925291Y-42055000D01*
X67975000Y-42055000D01*
X67975000Y-41005271D01*
X68025000Y-41005271D01*
X68025000Y-42055000D01*
X69074709Y-42055000D01*
X69131662Y-41875451D01*
X69123797Y-41835909D01*
X69054584Y-41621357D01*
X68944844Y-41424431D01*
X68798794Y-41252698D01*
X68622047Y-41112757D01*
X68421395Y-41009987D01*
X68204549Y-40948337D01*
X68025000Y-41005271D01*
X67975000Y-41005271D01*
X67795451Y-40948337D01*
X67578605Y-41009987D01*
X67377953Y-41112757D01*
X67201206Y-41252698D01*
X67055156Y-41424431D01*
X66945416Y-41621357D01*
X66876203Y-41835909D01*
X66868338Y-41875451D01*
X62903269Y-41875451D01*
X60772367Y-39744549D01*
X66868338Y-39744549D01*
X66876203Y-39784091D01*
X66945416Y-39998643D01*
X67055156Y-40195569D01*
X67201206Y-40367302D01*
X67377953Y-40507243D01*
X67578605Y-40610013D01*
X67795451Y-40671663D01*
X67975000Y-40614729D01*
X67975000Y-39565000D01*
X68025000Y-39565000D01*
X68025000Y-40614729D01*
X68204549Y-40671663D01*
X68421395Y-40610013D01*
X68622047Y-40507243D01*
X68798794Y-40367302D01*
X68944844Y-40195569D01*
X69054584Y-39998643D01*
X69123797Y-39784091D01*
X69131662Y-39744549D01*
X69074709Y-39565000D01*
X68025000Y-39565000D01*
X67975000Y-39565000D01*
X66925291Y-39565000D01*
X66868338Y-39744549D01*
X60772367Y-39744549D01*
X60363269Y-39335451D01*
X66868338Y-39335451D01*
X66925291Y-39515000D01*
X67975000Y-39515000D01*
X67975000Y-38465271D01*
X68025000Y-38465271D01*
X68025000Y-39515000D01*
X69074709Y-39515000D01*
X69131662Y-39335451D01*
X69123797Y-39295909D01*
X69054584Y-39081357D01*
X68944844Y-38884431D01*
X68798794Y-38712698D01*
X68622047Y-38572757D01*
X68421395Y-38469987D01*
X68204549Y-38408337D01*
X68025000Y-38465271D01*
X67975000Y-38465271D01*
X67795451Y-38408337D01*
X67578605Y-38469987D01*
X67377953Y-38572757D01*
X67201206Y-38712698D01*
X67055156Y-38884431D01*
X66945416Y-39081357D01*
X66876203Y-39295909D01*
X66868338Y-39335451D01*
X60363269Y-39335451D01*
X59774013Y-38746196D01*
X59756790Y-38725210D01*
X59673042Y-38656479D01*
X59577494Y-38605408D01*
X59473819Y-38573958D01*
X59393018Y-38566000D01*
X59393008Y-38566000D01*
X59366000Y-38563340D01*
X59338992Y-38566000D01*
X48442834Y-38566000D01*
X48337574Y-38495668D01*
X48210182Y-38442901D01*
X48074944Y-38416000D01*
X47937056Y-38416000D01*
X47801818Y-38442901D01*
X47674426Y-38495668D01*
X47559776Y-38572274D01*
X47462274Y-38669776D01*
X47385668Y-38784426D01*
X47332901Y-38911818D01*
X47306000Y-39047056D01*
X325000Y-39047056D01*
X325000Y-36342414D01*
X6900000Y-36342414D01*
X6900000Y-36657586D01*
X6961487Y-36966703D01*
X7082098Y-37257884D01*
X7257199Y-37519941D01*
X7480059Y-37742801D01*
X7742116Y-37917902D01*
X8033297Y-38038513D01*
X8342414Y-38100000D01*
X8657586Y-38100000D01*
X8966703Y-38038513D01*
X9257884Y-37917902D01*
X9359506Y-37850000D01*
X66848548Y-37850000D01*
X66854340Y-37908810D01*
X66871495Y-37965361D01*
X66899352Y-38017478D01*
X66936841Y-38063159D01*
X66982522Y-38100648D01*
X67034639Y-38128505D01*
X67091190Y-38145660D01*
X67150000Y-38151452D01*
X67900000Y-38150000D01*
X67975000Y-38075000D01*
X67975000Y-37025000D01*
X68025000Y-37025000D01*
X68025000Y-38075000D01*
X68100000Y-38150000D01*
X68850000Y-38151452D01*
X68908810Y-38145660D01*
X68965361Y-38128505D01*
X69017478Y-38100648D01*
X69063159Y-38063159D01*
X69100648Y-38017478D01*
X69128505Y-37965361D01*
X69145660Y-37908810D01*
X69151452Y-37850000D01*
X69150000Y-37100000D01*
X69075000Y-37025000D01*
X68025000Y-37025000D01*
X67975000Y-37025000D01*
X66925000Y-37025000D01*
X66850000Y-37100000D01*
X66848548Y-37850000D01*
X9359506Y-37850000D01*
X9519941Y-37742801D01*
X9742801Y-37519941D01*
X9917902Y-37257884D01*
X10038513Y-36966703D01*
X10100000Y-36657586D01*
X10100000Y-36342414D01*
X10061727Y-36150000D01*
X66848548Y-36150000D01*
X66850000Y-36900000D01*
X66925000Y-36975000D01*
X67975000Y-36975000D01*
X67975000Y-35925000D01*
X68025000Y-35925000D01*
X68025000Y-36975000D01*
X69075000Y-36975000D01*
X69150000Y-36900000D01*
X69150025Y-36886735D01*
X69390000Y-36886735D01*
X69390000Y-37113265D01*
X69434194Y-37335443D01*
X69520884Y-37544729D01*
X69646737Y-37733082D01*
X69806918Y-37893263D01*
X69995271Y-38019116D01*
X70204557Y-38105806D01*
X70426735Y-38150000D01*
X70653265Y-38150000D01*
X70875443Y-38105806D01*
X71084729Y-38019116D01*
X71273082Y-37893263D01*
X71433263Y-37733082D01*
X71559116Y-37544729D01*
X71645806Y-37335443D01*
X71690000Y-37113265D01*
X71690000Y-36886735D01*
X71645806Y-36664557D01*
X71559116Y-36455271D01*
X71433263Y-36266918D01*
X71273082Y-36106737D01*
X71084729Y-35980884D01*
X70875443Y-35894194D01*
X70653265Y-35850000D01*
X70426735Y-35850000D01*
X70204557Y-35894194D01*
X69995271Y-35980884D01*
X69806918Y-36106737D01*
X69646737Y-36266918D01*
X69520884Y-36455271D01*
X69434194Y-36664557D01*
X69390000Y-36886735D01*
X69150025Y-36886735D01*
X69151452Y-36150000D01*
X69145660Y-36091190D01*
X69128505Y-36034639D01*
X69100648Y-35982522D01*
X69063159Y-35936841D01*
X69017478Y-35899352D01*
X68965361Y-35871495D01*
X68908810Y-35854340D01*
X68850000Y-35848548D01*
X68100000Y-35850000D01*
X68025000Y-35925000D01*
X67975000Y-35925000D01*
X67900000Y-35850000D01*
X67150000Y-35848548D01*
X67091190Y-35854340D01*
X67034639Y-35871495D01*
X66982522Y-35899352D01*
X66936841Y-35936841D01*
X66899352Y-35982522D01*
X66871495Y-36034639D01*
X66854340Y-36091190D01*
X66848548Y-36150000D01*
X10061727Y-36150000D01*
X10038513Y-36033297D01*
X9917902Y-35742116D01*
X9742801Y-35480059D01*
X9519941Y-35257199D01*
X9257884Y-35082098D01*
X8966703Y-34961487D01*
X8657586Y-34900000D01*
X8342414Y-34900000D01*
X8033297Y-34961487D01*
X7742116Y-35082098D01*
X7480059Y-35257199D01*
X7257199Y-35480059D01*
X7082098Y-35742116D01*
X6961487Y-36033297D01*
X6900000Y-36342414D01*
X325000Y-36342414D01*
X325000Y-28040000D01*
X74675001Y-28040000D01*
X74675000Y-71865380D01*
%TA.AperFunction,Conductor*%
D21*
G36*
X74675000Y-71865380D02*
G01*
X71865382Y-74675000D01*
X65134619Y-74675000D01*
X60272485Y-69812866D01*
X68100000Y-69812866D01*
X68100000Y-70187134D01*
X68173016Y-70554209D01*
X68316242Y-70899987D01*
X68524174Y-71211179D01*
X68788821Y-71475826D01*
X69100013Y-71683758D01*
X69445791Y-71826984D01*
X69812866Y-71900000D01*
X70187134Y-71900000D01*
X70554209Y-71826984D01*
X70899987Y-71683758D01*
X71211179Y-71475826D01*
X71475826Y-71211179D01*
X71683758Y-70899987D01*
X71826984Y-70554209D01*
X71900000Y-70187134D01*
X71900000Y-69812866D01*
X71826984Y-69445791D01*
X71683758Y-69100013D01*
X71475826Y-68788821D01*
X71211179Y-68524174D01*
X70899987Y-68316242D01*
X70554209Y-68173016D01*
X70187134Y-68100000D01*
X69812866Y-68100000D01*
X69445791Y-68173016D01*
X69100013Y-68316242D01*
X68788821Y-68524174D01*
X68524174Y-68788821D01*
X68316242Y-69100013D01*
X68173016Y-69445791D01*
X68100000Y-69812866D01*
X60272485Y-69812866D01*
X60241101Y-69781483D01*
X60230921Y-69769079D01*
X60181434Y-69728465D01*
X60124974Y-69698287D01*
X60063711Y-69679703D01*
X60015961Y-69675000D01*
X60015953Y-69675000D01*
X60000000Y-69673429D01*
X59984047Y-69675000D01*
X20015953Y-69675000D01*
X20000000Y-69673429D01*
X19984047Y-69675000D01*
X19984039Y-69675000D01*
X19936289Y-69679703D01*
X19875026Y-69698287D01*
X19818566Y-69728465D01*
X19769079Y-69769079D01*
X19758904Y-69781477D01*
X14865382Y-74675000D01*
X3134620Y-74675000D01*
X325000Y-71865382D01*
X325000Y-69812866D01*
X3100000Y-69812866D01*
X3100000Y-70187134D01*
X3173016Y-70554209D01*
X3316242Y-70899987D01*
X3524174Y-71211179D01*
X3788821Y-71475826D01*
X4100013Y-71683758D01*
X4445791Y-71826984D01*
X4812866Y-71900000D01*
X5187134Y-71900000D01*
X5554209Y-71826984D01*
X5899987Y-71683758D01*
X6211179Y-71475826D01*
X6475826Y-71211179D01*
X6683758Y-70899987D01*
X6826984Y-70554209D01*
X6900000Y-70187134D01*
X6900000Y-69812866D01*
X6826984Y-69445791D01*
X6683758Y-69100013D01*
X6475826Y-68788821D01*
X6211179Y-68524174D01*
X5899987Y-68316242D01*
X5554209Y-68173016D01*
X5187134Y-68100000D01*
X4812866Y-68100000D01*
X4445791Y-68173016D01*
X4100013Y-68316242D01*
X3788821Y-68524174D01*
X3524174Y-68788821D01*
X3316242Y-69100013D01*
X3173016Y-69445791D01*
X3100000Y-69812866D01*
X325000Y-69812866D01*
X325000Y-64320056D01*
X34098000Y-64320056D01*
X34098000Y-64457944D01*
X34124901Y-64593182D01*
X34177668Y-64720574D01*
X34254274Y-64835224D01*
X34351776Y-64932726D01*
X34466426Y-65009332D01*
X34593818Y-65062099D01*
X34717980Y-65086797D01*
X35024987Y-65393804D01*
X35042210Y-65414790D01*
X35125958Y-65483521D01*
X35221506Y-65534592D01*
X35325181Y-65566042D01*
X35405982Y-65574000D01*
X35405989Y-65574000D01*
X35433000Y-65576660D01*
X35460011Y-65574000D01*
X36391183Y-65574000D01*
X36114980Y-65850203D01*
X35990818Y-65874901D01*
X35863426Y-65927668D01*
X35748776Y-66004274D01*
X35651274Y-66101776D01*
X35574668Y-66216426D01*
X35521901Y-66343818D01*
X35495000Y-66479056D01*
X35495000Y-66616944D01*
X35521901Y-66752182D01*
X35574668Y-66879574D01*
X35651274Y-66994224D01*
X35748776Y-67091726D01*
X35863426Y-67168332D01*
X35990818Y-67221099D01*
X36126056Y-67248000D01*
X36263944Y-67248000D01*
X36399182Y-67221099D01*
X36526574Y-67168332D01*
X36641224Y-67091726D01*
X36738726Y-66994224D01*
X36815332Y-66879574D01*
X36868099Y-66752182D01*
X36892797Y-66628020D01*
X37057817Y-66463000D01*
X68425992Y-66463000D01*
X68453000Y-66465660D01*
X68480008Y-66463000D01*
X68480018Y-66463000D01*
X68560819Y-66455042D01*
X68664494Y-66423592D01*
X68760042Y-66372521D01*
X68843790Y-66303790D01*
X68861013Y-66282804D01*
X72505804Y-62638013D01*
X72526790Y-62620790D01*
X72595521Y-62537042D01*
X72646592Y-62441494D01*
X72678042Y-62337819D01*
X72686000Y-62257018D01*
X72686000Y-62257011D01*
X72688660Y-62230000D01*
X72686000Y-62202989D01*
X72686000Y-50688950D01*
X72705776Y-50708726D01*
X72820426Y-50785332D01*
X72947818Y-50838099D01*
X73083056Y-50865000D01*
X73220944Y-50865000D01*
X73356182Y-50838099D01*
X73483574Y-50785332D01*
X73598224Y-50708726D01*
X73695726Y-50611224D01*
X73772332Y-50496574D01*
X73825099Y-50369182D01*
X73852000Y-50233944D01*
X73852000Y-50096056D01*
X73825099Y-49960818D01*
X73772332Y-49833426D01*
X73702000Y-49728166D01*
X73702000Y-40540011D01*
X73704660Y-40513000D01*
X73702000Y-40485989D01*
X73702000Y-40485982D01*
X73694042Y-40405181D01*
X73662592Y-40301506D01*
X73662592Y-40301505D01*
X73611521Y-40205958D01*
X73560013Y-40143196D01*
X73542790Y-40122210D01*
X73521804Y-40104987D01*
X72587013Y-39170196D01*
X72569790Y-39149210D01*
X72486042Y-39080479D01*
X72390494Y-39029408D01*
X72286819Y-38997958D01*
X72206018Y-38990000D01*
X72206008Y-38990000D01*
X72179000Y-38987340D01*
X72151992Y-38990000D01*
X71555594Y-38990000D01*
X71433263Y-38806918D01*
X71273082Y-38646737D01*
X71084729Y-38520884D01*
X70875443Y-38434194D01*
X70653265Y-38390000D01*
X70426735Y-38390000D01*
X70204557Y-38434194D01*
X69995271Y-38520884D01*
X69806918Y-38646737D01*
X69646737Y-38806918D01*
X69520884Y-38995271D01*
X69434194Y-39204557D01*
X69390000Y-39426735D01*
X69390000Y-39653265D01*
X69434194Y-39875443D01*
X69520884Y-40084729D01*
X69646737Y-40273082D01*
X69806918Y-40433263D01*
X69995271Y-40559116D01*
X70204557Y-40645806D01*
X70426735Y-40690000D01*
X70653265Y-40690000D01*
X70875443Y-40645806D01*
X71084729Y-40559116D01*
X71273082Y-40433263D01*
X71433263Y-40273082D01*
X71555594Y-40090000D01*
X71951183Y-40090000D01*
X72602001Y-40740818D01*
X72602001Y-42377081D01*
X72595521Y-42364958D01*
X72561982Y-42324091D01*
X72544013Y-42302195D01*
X72544008Y-42302190D01*
X72526790Y-42281210D01*
X72505809Y-42263992D01*
X71952013Y-41710195D01*
X71934790Y-41689210D01*
X71851042Y-41620479D01*
X71755494Y-41569408D01*
X71651819Y-41537958D01*
X71571018Y-41530000D01*
X71571008Y-41530000D01*
X71554508Y-41528375D01*
X71433263Y-41346918D01*
X71273082Y-41186737D01*
X71084729Y-41060884D01*
X70875443Y-40974194D01*
X70653265Y-40930000D01*
X70426735Y-40930000D01*
X70204557Y-40974194D01*
X69995271Y-41060884D01*
X69806918Y-41186737D01*
X69646737Y-41346918D01*
X69520884Y-41535271D01*
X69434194Y-41744557D01*
X69390000Y-41966735D01*
X69390000Y-42193265D01*
X69434194Y-42415443D01*
X69520884Y-42624729D01*
X69646737Y-42813082D01*
X69806918Y-42973263D01*
X69995271Y-43099116D01*
X70204557Y-43185806D01*
X70426735Y-43230000D01*
X70653265Y-43230000D01*
X70875443Y-43185806D01*
X71084729Y-43099116D01*
X71273082Y-42973263D01*
X71433263Y-42813082D01*
X71459699Y-42773517D01*
X71586000Y-42899818D01*
X71586000Y-44140174D01*
X71559116Y-44075271D01*
X71433263Y-43886918D01*
X71273082Y-43726737D01*
X71084729Y-43600884D01*
X70875443Y-43514194D01*
X70653265Y-43470000D01*
X70426735Y-43470000D01*
X70204557Y-43514194D01*
X69995271Y-43600884D01*
X69806918Y-43726737D01*
X69646737Y-43886918D01*
X69520884Y-44075271D01*
X69434194Y-44284557D01*
X69390000Y-44506735D01*
X69390000Y-44733265D01*
X69434194Y-44955443D01*
X69520884Y-45164729D01*
X69646737Y-45353082D01*
X69806918Y-45513263D01*
X69990001Y-45635595D01*
X69990000Y-61947182D01*
X67463183Y-64474000D01*
X35660817Y-64474000D01*
X35495797Y-64308980D01*
X35471099Y-64184818D01*
X35418332Y-64057426D01*
X35341726Y-63942776D01*
X35244224Y-63845274D01*
X35129574Y-63768668D01*
X35002182Y-63715901D01*
X34866944Y-63689000D01*
X34729056Y-63689000D01*
X34593818Y-63715901D01*
X34466426Y-63768668D01*
X34351776Y-63845274D01*
X34254274Y-63942776D01*
X34177668Y-64057426D01*
X34124901Y-64184818D01*
X34098000Y-64320056D01*
X325000Y-64320056D01*
X325000Y-59621056D01*
X53910000Y-59621056D01*
X53910000Y-59758944D01*
X53936901Y-59894182D01*
X53989668Y-60021574D01*
X54066274Y-60136224D01*
X54163776Y-60233726D01*
X54278426Y-60310332D01*
X54405818Y-60363099D01*
X54529980Y-60387797D01*
X56452203Y-62310021D01*
X56476901Y-62434182D01*
X56529668Y-62561574D01*
X56606274Y-62676224D01*
X56703776Y-62773726D01*
X56818426Y-62850332D01*
X56945818Y-62903099D01*
X57081056Y-62930000D01*
X57218944Y-62930000D01*
X57354182Y-62903099D01*
X57481574Y-62850332D01*
X57596224Y-62773726D01*
X57693726Y-62676224D01*
X57770332Y-62561574D01*
X57823099Y-62434182D01*
X57850000Y-62298944D01*
X57850000Y-62161056D01*
X57823099Y-62025818D01*
X57770332Y-61898426D01*
X57693726Y-61783776D01*
X57596224Y-61686274D01*
X57481574Y-61609668D01*
X57354182Y-61556901D01*
X57230021Y-61532203D01*
X56588874Y-60891056D01*
X63054000Y-60891056D01*
X63054000Y-61028944D01*
X63080901Y-61164182D01*
X63133668Y-61291574D01*
X63210274Y-61406224D01*
X63307776Y-61503726D01*
X63422426Y-61580332D01*
X63549818Y-61633099D01*
X63685056Y-61660000D01*
X63822944Y-61660000D01*
X63958182Y-61633099D01*
X64085574Y-61580332D01*
X64190834Y-61510000D01*
X67529081Y-61510000D01*
X67613818Y-61545099D01*
X67749056Y-61572000D01*
X67886944Y-61572000D01*
X68022182Y-61545099D01*
X68149574Y-61492332D01*
X68264224Y-61415726D01*
X68361726Y-61318224D01*
X68438332Y-61203574D01*
X68491099Y-61076182D01*
X68518000Y-60940944D01*
X68518000Y-60803056D01*
X68491099Y-60667818D01*
X68438332Y-60540426D01*
X68361726Y-60425776D01*
X68264224Y-60328274D01*
X68149574Y-60251668D01*
X68022182Y-60198901D01*
X67886944Y-60172000D01*
X67749056Y-60172000D01*
X67613818Y-60198901D01*
X67486426Y-60251668D01*
X67371776Y-60328274D01*
X67290050Y-60410000D01*
X64190834Y-60410000D01*
X64085574Y-60339668D01*
X63958182Y-60286901D01*
X63822944Y-60260000D01*
X63685056Y-60260000D01*
X63549818Y-60286901D01*
X63422426Y-60339668D01*
X63307776Y-60416274D01*
X63210274Y-60513776D01*
X63133668Y-60628426D01*
X63080901Y-60755818D01*
X63054000Y-60891056D01*
X56588874Y-60891056D01*
X55307797Y-59609980D01*
X55283099Y-59485818D01*
X55230332Y-59358426D01*
X55153726Y-59243776D01*
X55056224Y-59146274D01*
X54941574Y-59069668D01*
X54814182Y-59016901D01*
X54678944Y-58990000D01*
X54541056Y-58990000D01*
X54405818Y-59016901D01*
X54278426Y-59069668D01*
X54163776Y-59146274D01*
X54066274Y-59243776D01*
X53989668Y-59358426D01*
X53936901Y-59485818D01*
X53910000Y-59621056D01*
X325000Y-59621056D01*
X325000Y-53200000D01*
X6898549Y-53200000D01*
X6898549Y-55800000D01*
X6904341Y-55858810D01*
X6921496Y-55915360D01*
X6949353Y-55967477D01*
X6986842Y-56013158D01*
X7032523Y-56050647D01*
X7084640Y-56078504D01*
X7141190Y-56095659D01*
X7200000Y-56101451D01*
X9800000Y-56101451D01*
X9858810Y-56095659D01*
X9915360Y-56078504D01*
X9967477Y-56050647D01*
X10013158Y-56013158D01*
X10050647Y-55967477D01*
X10078504Y-55915360D01*
X10095659Y-55858810D01*
X10101451Y-55800000D01*
X10101451Y-55049056D01*
X24192000Y-55049056D01*
X24192000Y-55186944D01*
X24218901Y-55322182D01*
X24271668Y-55449574D01*
X24348274Y-55564224D01*
X24445776Y-55661726D01*
X24560426Y-55738332D01*
X24687818Y-55791099D01*
X24823056Y-55818000D01*
X24960944Y-55818000D01*
X25096182Y-55791099D01*
X25223574Y-55738332D01*
X25328834Y-55668000D01*
X36094183Y-55668000D01*
X36640203Y-56214021D01*
X36664901Y-56338182D01*
X36717668Y-56465574D01*
X36794274Y-56580224D01*
X36891776Y-56677726D01*
X37006426Y-56754332D01*
X37133818Y-56807099D01*
X37269056Y-56834000D01*
X37406944Y-56834000D01*
X37542182Y-56807099D01*
X37669574Y-56754332D01*
X37784224Y-56677726D01*
X37881726Y-56580224D01*
X37958332Y-56465574D01*
X38011099Y-56338182D01*
X38038000Y-56202944D01*
X38038000Y-56065056D01*
X38011099Y-55929818D01*
X37958332Y-55802426D01*
X37881726Y-55687776D01*
X37784224Y-55590274D01*
X37669574Y-55513668D01*
X37542182Y-55460901D01*
X37418021Y-55436203D01*
X36730013Y-54748196D01*
X36712790Y-54727210D01*
X36629042Y-54658479D01*
X36533494Y-54607408D01*
X36429819Y-54575958D01*
X36349018Y-54568000D01*
X36349008Y-54568000D01*
X36322000Y-54565340D01*
X36294992Y-54568000D01*
X25328834Y-54568000D01*
X25223574Y-54497668D01*
X25096182Y-54444901D01*
X24960944Y-54418000D01*
X24823056Y-54418000D01*
X24687818Y-54444901D01*
X24560426Y-54497668D01*
X24445776Y-54574274D01*
X24348274Y-54671776D01*
X24271668Y-54786426D01*
X24218901Y-54913818D01*
X24192000Y-55049056D01*
X10101451Y-55049056D01*
X10101451Y-53200000D01*
X10095659Y-53141190D01*
X10078504Y-53084640D01*
X10050647Y-53032523D01*
X10013158Y-52986842D01*
X9967477Y-52949353D01*
X9915360Y-52921496D01*
X9858810Y-52904341D01*
X9800000Y-52898549D01*
X7200000Y-52898549D01*
X7141190Y-52904341D01*
X7084640Y-52921496D01*
X7032523Y-52949353D01*
X6986842Y-52986842D01*
X6949353Y-53032523D01*
X6921496Y-53084640D01*
X6904341Y-53141190D01*
X6898549Y-53200000D01*
X325000Y-53200000D01*
X325000Y-51874056D01*
X45147000Y-51874056D01*
X45147000Y-52011944D01*
X45173901Y-52147182D01*
X45226668Y-52274574D01*
X45303274Y-52389224D01*
X45400776Y-52486726D01*
X45515426Y-52563332D01*
X45642818Y-52616099D01*
X45778056Y-52643000D01*
X45915944Y-52643000D01*
X46051182Y-52616099D01*
X46178574Y-52563332D01*
X46283834Y-52493000D01*
X58573183Y-52493000D01*
X62167203Y-56087021D01*
X62191901Y-56211182D01*
X62244668Y-56338574D01*
X62321274Y-56453224D01*
X62418776Y-56550726D01*
X62533426Y-56627332D01*
X62660818Y-56680099D01*
X62796056Y-56707000D01*
X62933944Y-56707000D01*
X63069182Y-56680099D01*
X63196574Y-56627332D01*
X63311224Y-56550726D01*
X63408726Y-56453224D01*
X63485332Y-56338574D01*
X63538099Y-56211182D01*
X63565000Y-56075944D01*
X63565000Y-55938056D01*
X63538099Y-55802818D01*
X63485332Y-55675426D01*
X63408726Y-55560776D01*
X63311224Y-55463274D01*
X63196574Y-55386668D01*
X63069182Y-55333901D01*
X62945021Y-55309203D01*
X59209013Y-51573196D01*
X59191790Y-51552210D01*
X59108042Y-51483479D01*
X59012494Y-51432408D01*
X58908819Y-51400958D01*
X58828018Y-51393000D01*
X58828008Y-51393000D01*
X58801000Y-51390340D01*
X58773992Y-51393000D01*
X46283834Y-51393000D01*
X46178574Y-51322668D01*
X46051182Y-51269901D01*
X45915944Y-51243000D01*
X45778056Y-51243000D01*
X45642818Y-51269901D01*
X45515426Y-51322668D01*
X45400776Y-51399274D01*
X45303274Y-51496776D01*
X45226668Y-51611426D01*
X45173901Y-51738818D01*
X45147000Y-51874056D01*
X325000Y-51874056D01*
X325000Y-49342414D01*
X6900000Y-49342414D01*
X6900000Y-49657586D01*
X6961487Y-49966703D01*
X7082098Y-50257884D01*
X7257199Y-50519941D01*
X7480059Y-50742801D01*
X7742116Y-50917902D01*
X8033297Y-51038513D01*
X8342414Y-51100000D01*
X8657586Y-51100000D01*
X8966703Y-51038513D01*
X9257884Y-50917902D01*
X9519941Y-50742801D01*
X9742801Y-50519941D01*
X9917902Y-50257884D01*
X10038513Y-49966703D01*
X10100000Y-49657586D01*
X10100000Y-49342414D01*
X10038513Y-49033297D01*
X9917902Y-48742116D01*
X9742801Y-48480059D01*
X9519941Y-48257199D01*
X9257884Y-48082098D01*
X8966703Y-47961487D01*
X8657586Y-47900000D01*
X8342414Y-47900000D01*
X8033297Y-47961487D01*
X7742116Y-48082098D01*
X7480059Y-48257199D01*
X7257199Y-48480059D01*
X7082098Y-48742116D01*
X6961487Y-49033297D01*
X6900000Y-49342414D01*
X325000Y-49342414D01*
X325000Y-46413056D01*
X43749992Y-46413056D01*
X43749992Y-46550944D01*
X43776893Y-46686182D01*
X43829660Y-46813574D01*
X43906266Y-46928224D01*
X44003768Y-47025726D01*
X44118418Y-47102332D01*
X44245810Y-47155099D01*
X44381048Y-47182000D01*
X44518936Y-47182000D01*
X44553845Y-47175056D01*
X47306000Y-47175056D01*
X47306000Y-47312944D01*
X47332901Y-47448182D01*
X47385668Y-47575574D01*
X47462274Y-47690224D01*
X47559776Y-47787726D01*
X47674426Y-47864332D01*
X47801818Y-47917099D01*
X47937056Y-47944000D01*
X48074944Y-47944000D01*
X48210182Y-47917099D01*
X48337574Y-47864332D01*
X48452224Y-47787726D01*
X48549726Y-47690224D01*
X48626332Y-47575574D01*
X48679099Y-47448182D01*
X48703797Y-47324020D01*
X49360761Y-46667056D01*
X51116000Y-46667056D01*
X51116000Y-46804944D01*
X51142901Y-46940182D01*
X51195668Y-47067574D01*
X51272274Y-47182224D01*
X51369776Y-47279726D01*
X51484426Y-47356332D01*
X51611818Y-47409099D01*
X51747056Y-47436000D01*
X51884944Y-47436000D01*
X52020182Y-47409099D01*
X52147574Y-47356332D01*
X52262224Y-47279726D01*
X52359726Y-47182224D01*
X52436332Y-47067574D01*
X52489099Y-46940182D01*
X52513797Y-46816021D01*
X53059818Y-46270000D01*
X54935166Y-46270000D01*
X55040426Y-46340332D01*
X55167818Y-46393099D01*
X55303056Y-46420000D01*
X55440944Y-46420000D01*
X55576182Y-46393099D01*
X55703574Y-46340332D01*
X55818224Y-46263726D01*
X55915726Y-46166224D01*
X55992332Y-46051574D01*
X56045099Y-45924182D01*
X56072000Y-45788944D01*
X56072000Y-45651056D01*
X56045099Y-45515818D01*
X55992332Y-45388426D01*
X55915726Y-45273776D01*
X55818224Y-45176274D01*
X55703574Y-45099668D01*
X55576182Y-45046901D01*
X55440944Y-45020000D01*
X55303056Y-45020000D01*
X55167818Y-45046901D01*
X55040426Y-45099668D01*
X54935166Y-45170000D01*
X52859008Y-45170000D01*
X52832000Y-45167340D01*
X52804992Y-45170000D01*
X52804982Y-45170000D01*
X52724181Y-45177958D01*
X52620506Y-45209408D01*
X52576028Y-45233182D01*
X52524957Y-45260479D01*
X52462195Y-45311987D01*
X52462190Y-45311992D01*
X52441210Y-45329210D01*
X52423992Y-45350190D01*
X51735979Y-46038203D01*
X51611818Y-46062901D01*
X51484426Y-46115668D01*
X51369776Y-46192274D01*
X51272274Y-46289776D01*
X51195668Y-46404426D01*
X51142901Y-46531818D01*
X51116000Y-46667056D01*
X49360761Y-46667056D01*
X52551818Y-43476000D01*
X54427166Y-43476000D01*
X54532426Y-43546332D01*
X54659818Y-43599099D01*
X54795056Y-43626000D01*
X54932944Y-43626000D01*
X55068182Y-43599099D01*
X55195574Y-43546332D01*
X55310224Y-43469726D01*
X55407726Y-43372224D01*
X55484332Y-43257574D01*
X55537099Y-43130182D01*
X55564000Y-42994944D01*
X55564000Y-42857056D01*
X55537099Y-42721818D01*
X55484332Y-42594426D01*
X55407726Y-42479776D01*
X55310224Y-42382274D01*
X55195574Y-42305668D01*
X55068182Y-42252901D01*
X54932944Y-42226000D01*
X54795056Y-42226000D01*
X54659818Y-42252901D01*
X54532426Y-42305668D01*
X54427166Y-42376000D01*
X52351007Y-42376000D01*
X52323999Y-42373340D01*
X52296991Y-42376000D01*
X52296982Y-42376000D01*
X52216181Y-42383958D01*
X52112506Y-42415408D01*
X52112441Y-42415443D01*
X52016957Y-42466479D01*
X51954195Y-42517987D01*
X51954190Y-42517992D01*
X51933210Y-42535210D01*
X51915992Y-42556190D01*
X47925980Y-46546203D01*
X47801818Y-46570901D01*
X47674426Y-46623668D01*
X47559776Y-46700274D01*
X47462274Y-46797776D01*
X47385668Y-46912426D01*
X47332901Y-47039818D01*
X47306000Y-47175056D01*
X44553845Y-47175056D01*
X44654174Y-47155099D01*
X44781566Y-47102332D01*
X44886826Y-47032000D01*
X45946992Y-47032000D01*
X45974000Y-47034660D01*
X46001008Y-47032000D01*
X46001018Y-47032000D01*
X46081819Y-47024042D01*
X46185494Y-46992592D01*
X46281042Y-46941521D01*
X46364790Y-46872790D01*
X46382013Y-46851804D01*
X49356021Y-43877797D01*
X49480182Y-43853099D01*
X49607574Y-43800332D01*
X49722224Y-43723726D01*
X49819726Y-43626224D01*
X49896332Y-43511574D01*
X49949099Y-43384182D01*
X49976000Y-43248944D01*
X49976000Y-43111056D01*
X49949099Y-42975818D01*
X49896332Y-42848426D01*
X49819726Y-42733776D01*
X49722224Y-42636274D01*
X49607574Y-42559668D01*
X49480182Y-42506901D01*
X49344944Y-42480000D01*
X49207056Y-42480000D01*
X49071818Y-42506901D01*
X48944426Y-42559668D01*
X48829776Y-42636274D01*
X48732274Y-42733776D01*
X48655668Y-42848426D01*
X48602901Y-42975818D01*
X48578203Y-43099979D01*
X45746183Y-45932000D01*
X44886826Y-45932000D01*
X44781566Y-45861668D01*
X44654174Y-45808901D01*
X44518936Y-45782000D01*
X44381048Y-45782000D01*
X44245810Y-45808901D01*
X44118418Y-45861668D01*
X44003768Y-45938274D01*
X43906266Y-46035776D01*
X43829660Y-46150426D01*
X43776893Y-46277818D01*
X43749992Y-46413056D01*
X325000Y-46413056D01*
X325000Y-40200000D01*
X6898549Y-40200000D01*
X6898549Y-42800000D01*
X6904341Y-42858810D01*
X6921496Y-42915360D01*
X6949353Y-42967477D01*
X6986842Y-43013158D01*
X7032523Y-43050647D01*
X7084640Y-43078504D01*
X7141190Y-43095659D01*
X7200000Y-43101451D01*
X9800000Y-43101451D01*
X9858810Y-43095659D01*
X9915360Y-43078504D01*
X9967477Y-43050647D01*
X10013158Y-43013158D01*
X10050647Y-42967477D01*
X10078504Y-42915360D01*
X10095659Y-42858810D01*
X10101451Y-42800000D01*
X10101451Y-40200000D01*
X10095659Y-40141190D01*
X10078504Y-40084640D01*
X10050647Y-40032523D01*
X10013158Y-39986842D01*
X9967477Y-39949353D01*
X9915360Y-39921496D01*
X9858810Y-39904341D01*
X9800000Y-39898549D01*
X7200000Y-39898549D01*
X7141190Y-39904341D01*
X7084640Y-39921496D01*
X7032523Y-39949353D01*
X6986842Y-39986842D01*
X6949353Y-40032523D01*
X6921496Y-40084640D01*
X6904341Y-40141190D01*
X6898549Y-40200000D01*
X325000Y-40200000D01*
X325000Y-39047056D01*
X47306000Y-39047056D01*
X47306000Y-39184944D01*
X47332901Y-39320182D01*
X47385668Y-39447574D01*
X47462274Y-39562224D01*
X47559776Y-39659726D01*
X47674426Y-39736332D01*
X47801818Y-39789099D01*
X47937056Y-39816000D01*
X48074944Y-39816000D01*
X48210182Y-39789099D01*
X48337574Y-39736332D01*
X48442834Y-39666000D01*
X59138183Y-39666000D01*
X64461992Y-44989810D01*
X64479210Y-45010790D01*
X64500190Y-45028008D01*
X64500195Y-45028013D01*
X64552097Y-45070607D01*
X64562958Y-45079521D01*
X64658506Y-45130592D01*
X64762181Y-45162042D01*
X64842982Y-45170000D01*
X64842991Y-45170000D01*
X64869999Y-45172660D01*
X64897007Y-45170000D01*
X66984406Y-45170000D01*
X67106737Y-45353082D01*
X67266918Y-45513263D01*
X67455271Y-45639116D01*
X67664557Y-45725806D01*
X67886735Y-45770000D01*
X68113265Y-45770000D01*
X68335443Y-45725806D01*
X68544729Y-45639116D01*
X68733082Y-45513263D01*
X68893263Y-45353082D01*
X69019116Y-45164729D01*
X69105806Y-44955443D01*
X69150000Y-44733265D01*
X69150000Y-44506735D01*
X69105806Y-44284557D01*
X69019116Y-44075271D01*
X68893263Y-43886918D01*
X68733082Y-43726737D01*
X68544729Y-43600884D01*
X68335443Y-43514194D01*
X68113265Y-43470000D01*
X67886735Y-43470000D01*
X67664557Y-43514194D01*
X67455271Y-43600884D01*
X67266918Y-43726737D01*
X67106737Y-43886918D01*
X66984406Y-44070000D01*
X65097818Y-44070000D01*
X63312367Y-42284549D01*
X66868338Y-42284549D01*
X66876203Y-42324091D01*
X66945416Y-42538643D01*
X67055156Y-42735569D01*
X67201206Y-42907302D01*
X67377953Y-43047243D01*
X67578605Y-43150013D01*
X67795451Y-43211663D01*
X67975000Y-43154729D01*
X67975000Y-42105000D01*
X68025000Y-42105000D01*
X68025000Y-43154729D01*
X68204549Y-43211663D01*
X68421395Y-43150013D01*
X68622047Y-43047243D01*
X68798794Y-42907302D01*
X68944844Y-42735569D01*
X69054584Y-42538643D01*
X69123797Y-42324091D01*
X69131662Y-42284549D01*
X69074709Y-42105000D01*
X68025000Y-42105000D01*
X67975000Y-42105000D01*
X66925291Y-42105000D01*
X66868338Y-42284549D01*
X63312367Y-42284549D01*
X62903269Y-41875451D01*
X66868338Y-41875451D01*
X66925291Y-42055000D01*
X67975000Y-42055000D01*
X67975000Y-41005271D01*
X68025000Y-41005271D01*
X68025000Y-42055000D01*
X69074709Y-42055000D01*
X69131662Y-41875451D01*
X69123797Y-41835909D01*
X69054584Y-41621357D01*
X68944844Y-41424431D01*
X68798794Y-41252698D01*
X68622047Y-41112757D01*
X68421395Y-41009987D01*
X68204549Y-40948337D01*
X68025000Y-41005271D01*
X67975000Y-41005271D01*
X67795451Y-40948337D01*
X67578605Y-41009987D01*
X67377953Y-41112757D01*
X67201206Y-41252698D01*
X67055156Y-41424431D01*
X66945416Y-41621357D01*
X66876203Y-41835909D01*
X66868338Y-41875451D01*
X62903269Y-41875451D01*
X60772367Y-39744549D01*
X66868338Y-39744549D01*
X66876203Y-39784091D01*
X66945416Y-39998643D01*
X67055156Y-40195569D01*
X67201206Y-40367302D01*
X67377953Y-40507243D01*
X67578605Y-40610013D01*
X67795451Y-40671663D01*
X67975000Y-40614729D01*
X67975000Y-39565000D01*
X68025000Y-39565000D01*
X68025000Y-40614729D01*
X68204549Y-40671663D01*
X68421395Y-40610013D01*
X68622047Y-40507243D01*
X68798794Y-40367302D01*
X68944844Y-40195569D01*
X69054584Y-39998643D01*
X69123797Y-39784091D01*
X69131662Y-39744549D01*
X69074709Y-39565000D01*
X68025000Y-39565000D01*
X67975000Y-39565000D01*
X66925291Y-39565000D01*
X66868338Y-39744549D01*
X60772367Y-39744549D01*
X60363269Y-39335451D01*
X66868338Y-39335451D01*
X66925291Y-39515000D01*
X67975000Y-39515000D01*
X67975000Y-38465271D01*
X68025000Y-38465271D01*
X68025000Y-39515000D01*
X69074709Y-39515000D01*
X69131662Y-39335451D01*
X69123797Y-39295909D01*
X69054584Y-39081357D01*
X68944844Y-38884431D01*
X68798794Y-38712698D01*
X68622047Y-38572757D01*
X68421395Y-38469987D01*
X68204549Y-38408337D01*
X68025000Y-38465271D01*
X67975000Y-38465271D01*
X67795451Y-38408337D01*
X67578605Y-38469987D01*
X67377953Y-38572757D01*
X67201206Y-38712698D01*
X67055156Y-38884431D01*
X66945416Y-39081357D01*
X66876203Y-39295909D01*
X66868338Y-39335451D01*
X60363269Y-39335451D01*
X59774013Y-38746196D01*
X59756790Y-38725210D01*
X59673042Y-38656479D01*
X59577494Y-38605408D01*
X59473819Y-38573958D01*
X59393018Y-38566000D01*
X59393008Y-38566000D01*
X59366000Y-38563340D01*
X59338992Y-38566000D01*
X48442834Y-38566000D01*
X48337574Y-38495668D01*
X48210182Y-38442901D01*
X48074944Y-38416000D01*
X47937056Y-38416000D01*
X47801818Y-38442901D01*
X47674426Y-38495668D01*
X47559776Y-38572274D01*
X47462274Y-38669776D01*
X47385668Y-38784426D01*
X47332901Y-38911818D01*
X47306000Y-39047056D01*
X325000Y-39047056D01*
X325000Y-36342414D01*
X6900000Y-36342414D01*
X6900000Y-36657586D01*
X6961487Y-36966703D01*
X7082098Y-37257884D01*
X7257199Y-37519941D01*
X7480059Y-37742801D01*
X7742116Y-37917902D01*
X8033297Y-38038513D01*
X8342414Y-38100000D01*
X8657586Y-38100000D01*
X8966703Y-38038513D01*
X9257884Y-37917902D01*
X9359506Y-37850000D01*
X66848548Y-37850000D01*
X66854340Y-37908810D01*
X66871495Y-37965361D01*
X66899352Y-38017478D01*
X66936841Y-38063159D01*
X66982522Y-38100648D01*
X67034639Y-38128505D01*
X67091190Y-38145660D01*
X67150000Y-38151452D01*
X67900000Y-38150000D01*
X67975000Y-38075000D01*
X67975000Y-37025000D01*
X68025000Y-37025000D01*
X68025000Y-38075000D01*
X68100000Y-38150000D01*
X68850000Y-38151452D01*
X68908810Y-38145660D01*
X68965361Y-38128505D01*
X69017478Y-38100648D01*
X69063159Y-38063159D01*
X69100648Y-38017478D01*
X69128505Y-37965361D01*
X69145660Y-37908810D01*
X69151452Y-37850000D01*
X69150000Y-37100000D01*
X69075000Y-37025000D01*
X68025000Y-37025000D01*
X67975000Y-37025000D01*
X66925000Y-37025000D01*
X66850000Y-37100000D01*
X66848548Y-37850000D01*
X9359506Y-37850000D01*
X9519941Y-37742801D01*
X9742801Y-37519941D01*
X9917902Y-37257884D01*
X10038513Y-36966703D01*
X10100000Y-36657586D01*
X10100000Y-36342414D01*
X10061727Y-36150000D01*
X66848548Y-36150000D01*
X66850000Y-36900000D01*
X66925000Y-36975000D01*
X67975000Y-36975000D01*
X67975000Y-35925000D01*
X68025000Y-35925000D01*
X68025000Y-36975000D01*
X69075000Y-36975000D01*
X69150000Y-36900000D01*
X69150025Y-36886735D01*
X69390000Y-36886735D01*
X69390000Y-37113265D01*
X69434194Y-37335443D01*
X69520884Y-37544729D01*
X69646737Y-37733082D01*
X69806918Y-37893263D01*
X69995271Y-38019116D01*
X70204557Y-38105806D01*
X70426735Y-38150000D01*
X70653265Y-38150000D01*
X70875443Y-38105806D01*
X71084729Y-38019116D01*
X71273082Y-37893263D01*
X71433263Y-37733082D01*
X71559116Y-37544729D01*
X71645806Y-37335443D01*
X71690000Y-37113265D01*
X71690000Y-36886735D01*
X71645806Y-36664557D01*
X71559116Y-36455271D01*
X71433263Y-36266918D01*
X71273082Y-36106737D01*
X71084729Y-35980884D01*
X70875443Y-35894194D01*
X70653265Y-35850000D01*
X70426735Y-35850000D01*
X70204557Y-35894194D01*
X69995271Y-35980884D01*
X69806918Y-36106737D01*
X69646737Y-36266918D01*
X69520884Y-36455271D01*
X69434194Y-36664557D01*
X69390000Y-36886735D01*
X69150025Y-36886735D01*
X69151452Y-36150000D01*
X69145660Y-36091190D01*
X69128505Y-36034639D01*
X69100648Y-35982522D01*
X69063159Y-35936841D01*
X69017478Y-35899352D01*
X68965361Y-35871495D01*
X68908810Y-35854340D01*
X68850000Y-35848548D01*
X68100000Y-35850000D01*
X68025000Y-35925000D01*
X67975000Y-35925000D01*
X67900000Y-35850000D01*
X67150000Y-35848548D01*
X67091190Y-35854340D01*
X67034639Y-35871495D01*
X66982522Y-35899352D01*
X66936841Y-35936841D01*
X66899352Y-35982522D01*
X66871495Y-36034639D01*
X66854340Y-36091190D01*
X66848548Y-36150000D01*
X10061727Y-36150000D01*
X10038513Y-36033297D01*
X9917902Y-35742116D01*
X9742801Y-35480059D01*
X9519941Y-35257199D01*
X9257884Y-35082098D01*
X8966703Y-34961487D01*
X8657586Y-34900000D01*
X8342414Y-34900000D01*
X8033297Y-34961487D01*
X7742116Y-35082098D01*
X7480059Y-35257199D01*
X7257199Y-35480059D01*
X7082098Y-35742116D01*
X6961487Y-36033297D01*
X6900000Y-36342414D01*
X325000Y-36342414D01*
X325000Y-28040000D01*
X74675001Y-28040000D01*
X74675000Y-71865380D01*
G37*
%TD.AperFunction*%
%TD*%
M02*
