<?xml version="1.0" standalone="no"?>
 <!DOCTYPE svg PUBLIC "-//W3C//DTD SVG 1.1//EN" 
 "http://www.w3.org/Graphics/SVG/1.1/DTD/svg11.dtd"> 
<svg
  xmlns:svg="http://www.w3.org/2000/svg"
  xmlns="http://www.w3.org/2000/svg"
  xmlns:xlink="http://www.w3.org/1999/xlink"
  version="1.1"
  width="29.700220cm" height="21.000720cm" viewBox="0 0 116930 82680">
<title>SVG Picture created as HotPlateController-B_Cu.svg date 2021/01/13 20:23:05 </title>
  <desc>Picture generated by PCBNEW </desc>
<g style="fill:#000000; fill-opacity:1;stroke:#000000; stroke-opacity:1;
stroke-linecap:round; stroke-linejoin:round;"
 transform="translate(0 0) scale(1 1)">
</g>
<g style="fill:#000000; fill-opacity:0.0; 
stroke:#000000; stroke-width:-0.000393701; stroke-opacity:1; 
stroke-linecap:round; stroke-linejoin:round;">
<g >
</g>
<g >
</g>
<g >
</g>
<g >
</g>
<g >
</g>
<g style="fill:#000000; fill-opacity:0.0; 
stroke:#000000; stroke-width:-0.000393701; stroke-opacity:1; 
stroke-linecap:round; stroke-linejoin:round;">
</g>
<g style="fill:#000000; fill-opacity:1.0; 
stroke:#000000; stroke-width:0; stroke-opacity:1; 
stroke-linecap:round; stroke-linejoin:round;">
<circle cx="18267.7" cy="9527.56" r="452.756" /> 
</g>
<g style="fill:#000000; fill-opacity:1.0; 
stroke:#000000; stroke-width:39.3701; stroke-opacity:1; 
stroke-linecap:round; stroke-linejoin:round;">
</g>
<g style="fill:#000000; fill-opacity:1.0; 
stroke:#000000; stroke-width:0; stroke-opacity:1; 
stroke-linecap:round; stroke-linejoin:round;">
<circle cx="6692.91" cy="7480.31" r="452.756" /> 
</g>
<g style="fill:#000000; fill-opacity:1.0; 
stroke:#000000; stroke-width:39.3701; stroke-opacity:1; 
stroke-linecap:round; stroke-linejoin:round;">
</g>
<g style="fill:#000000; fill-opacity:1.0; 
stroke:#000000; stroke-width:0; stroke-opacity:1; 
stroke-linecap:round; stroke-linejoin:round;">
<path style="fill:#000000; fill-opacity:1.0; 
stroke:#000000; stroke-width:0; stroke-opacity:1; 
stroke-linecap:round; stroke-linejoin:round;fill-rule:evenodd;"
d="M 6240.16,5905.51
6240.16,5118.11
7145.67,5118.11
7145.67,5905.51
Z" /> 
<circle cx="18267.7" cy="3464.57" r="452.756" /> 
</g>
<g style="fill:#000000; fill-opacity:1.0; 
stroke:#000000; stroke-width:39.3701; stroke-opacity:1; 
stroke-linecap:round; stroke-linejoin:round;">
</g>
<g >
</g>
<g >
</g>
<g >
</g>
<g >
</g>
<g >
</g>
<g style="fill:#000000; fill-opacity:1.0; 
stroke:#000000; stroke-width:39.3701; stroke-opacity:1; 
stroke-linecap:round; stroke-linejoin:round;">
</g>
<g style="fill:#000000; fill-opacity:1.0; 
stroke:#000000; stroke-width:0; stroke-opacity:1; 
stroke-linecap:round; stroke-linejoin:round;">
<circle cx="25984.3" cy="5055.12" r="590.551" /> 
</g>
<g style="fill:#000000; fill-opacity:1.0; 
stroke:#000000; stroke-width:39.3701; stroke-opacity:1; 
stroke-linecap:round; stroke-linejoin:round;">
</g>
<g style="fill:#000000; fill-opacity:1.0; 
stroke:#000000; stroke-width:0; stroke-opacity:1; 
stroke-linecap:round; stroke-linejoin:round;">
<circle cx="25984.3" cy="7055.12" r="590.551" /> 
</g>
<g style="fill:#000000; fill-opacity:1.0; 
stroke:#000000; stroke-width:39.3701; stroke-opacity:1; 
stroke-linecap:round; stroke-linejoin:round;">
</g>
<g style="fill:#000000; fill-opacity:1.0; 
stroke:#000000; stroke-width:0; stroke-opacity:1; 
stroke-linecap:round; stroke-linejoin:round;">
<circle cx="25944.9" cy="9094.49" r="590.551" /> 
</g>
<g style="fill:#000000; fill-opacity:1.0; 
stroke:#000000; stroke-width:39.3701; stroke-opacity:1; 
stroke-linecap:round; stroke-linejoin:round;">
</g>
<g >
</g>
<g style="fill:#000000; fill-opacity:1.0; 
stroke:#000000; stroke-width:39.3701; stroke-opacity:1; 
stroke-linecap:round; stroke-linejoin:round;">
</g>
<g style="fill:#000000; fill-opacity:1.0; 
stroke:#000000; stroke-width:0; stroke-opacity:1; 
stroke-linecap:round; stroke-linejoin:round;">
<circle cx="3543.31" cy="9118.11" r="590.551" /> 
</g>
<g style="fill:#000000; fill-opacity:1.0; 
stroke:#000000; stroke-width:39.3701; stroke-opacity:1; 
stroke-linecap:round; stroke-linejoin:round;">
</g>
<g style="fill:#000000; fill-opacity:1.0; 
stroke:#000000; stroke-width:0; stroke-opacity:1; 
stroke-linecap:round; stroke-linejoin:round;">
<circle cx="3543.31" cy="7118.11" r="590.551" /> 
</g>
<g style="fill:#000000; fill-opacity:1.0; 
stroke:#000000; stroke-width:39.3701; stroke-opacity:1; 
stroke-linecap:round; stroke-linejoin:round;">
</g>
<g style="fill:#000000; fill-opacity:1.0; 
stroke:#000000; stroke-width:0; stroke-opacity:1; 
stroke-linecap:round; stroke-linejoin:round;">
<circle cx="3582.68" cy="5078.74" r="590.551" /> 
</g>
<g style="fill:#000000; fill-opacity:1.0; 
stroke:#000000; stroke-width:39.3701; stroke-opacity:1; 
stroke-linecap:round; stroke-linejoin:round;">
</g>
<g >
</g>
<g >
</g>
<g >
</g>
<g >
</g>
<g >
</g>
<g >
</g>
<g >
</g>
<g >
</g>
<g style="fill:#000000; fill-opacity:1.0; 
stroke:#000000; stroke-width:39.3701; stroke-opacity:1; 
stroke-linecap:round; stroke-linejoin:round;">
</g>
<g style="fill:#000000; fill-opacity:1.0; 
stroke:#000000; stroke-width:0; stroke-opacity:1; 
stroke-linecap:round; stroke-linejoin:round;">
<path style="fill:#000000; fill-opacity:1.0; 
stroke:#000000; stroke-width:0; stroke-opacity:1; 
stroke-linecap:round; stroke-linejoin:round;fill-rule:evenodd;"
d="M 3858.27,16850.4
2834.65,16850.4
2834.65,15826.8
3858.27,15826.8
Z" /> 
<circle cx="3346.46" cy="14370.1" r="511.811" /> 
</g>
<g style="fill:#000000; fill-opacity:1.0; 
stroke:#000000; stroke-width:39.3701; stroke-opacity:1; 
stroke-linecap:round; stroke-linejoin:round;">
</g>
<g >
</g>
<g style="fill:#000000; fill-opacity:1.0; 
stroke:#000000; stroke-width:39.3701; stroke-opacity:1; 
stroke-linecap:round; stroke-linejoin:round;">
</g>
<g style="fill:#000000; fill-opacity:1.0; 
stroke:#000000; stroke-width:0; stroke-opacity:1; 
stroke-linecap:round; stroke-linejoin:round;">
<path style="fill:#000000; fill-opacity:1.0; 
stroke:#000000; stroke-width:0; stroke-opacity:1; 
stroke-linecap:round; stroke-linejoin:round;fill-rule:evenodd;"
d="M 3858.27,21968.5
2834.65,21968.5
2834.65,20944.9
3858.27,20944.9
Z" /> 
<circle cx="3346.46" cy="19488.2" r="511.811" /> 
</g>
<g style="fill:#000000; fill-opacity:1.0; 
stroke:#000000; stroke-width:39.3701; stroke-opacity:1; 
stroke-linecap:round; stroke-linejoin:round;">
</g>
<g >
</g>
<g >
</g>
<g >
</g>
<g >
</g>
<g >
</g>
<g >
</g>
<g >
</g>
<g >
</g>
<g >
</g>
<g >
</g>
<g >
</g>
<g >
</g>
<g >
</g>
<g >
</g>
<g >
</g>
<g >
</g>
<g >
</g>
<g >
</g>
<g style="fill:#000000; fill-opacity:1.0; 
stroke:#000000; stroke-width:39.3701; stroke-opacity:1; 
stroke-linecap:round; stroke-linejoin:round;">
</g>
<g style="fill:#000000; fill-opacity:1.0; 
stroke:#000000; stroke-width:0; stroke-opacity:1; 
stroke-linecap:round; stroke-linejoin:round;">
<circle cx="27771.7" cy="17566.9" r="334.646" /> 
<circle cx="26771.7" cy="17566.9" r="334.646" /> 
<circle cx="27771.7" cy="16566.9" r="334.646" /> 
<circle cx="26771.7" cy="16566.9" r="334.646" /> 
<circle cx="27771.7" cy="15566.9" r="334.646" /> 
<circle cx="26771.7" cy="15566.9" r="334.646" /> 
<circle cx="27771.7" cy="14566.9" r="334.646" /> 
<path style="fill:#000000; fill-opacity:1.0; 
stroke:#000000; stroke-width:0; stroke-opacity:1; 
stroke-linecap:round; stroke-linejoin:round;fill-rule:evenodd;"
d="M 26437,14901.6
26437,14232.3
27106.3,14232.3
27106.3,14901.6
Z" /> 
</g>
<g >
</g>
<g >
</g>
<g >
</g>
<g style="fill:#000000; fill-opacity:1.0; 
stroke:#000000; stroke-width:0; stroke-opacity:1; 
stroke-linecap:round; stroke-linejoin:round;">
<circle cx="18900" cy="15400" r="157.48" /> 
</g>
<g style="fill:#000000; fill-opacity:1.0; 
stroke:#000000; stroke-width:39.3701; stroke-opacity:1; 
stroke-linecap:round; stroke-linejoin:round;">
</g>
<g style="fill:#000000; fill-opacity:1.0; 
stroke:#000000; stroke-width:0; stroke-opacity:1; 
stroke-linecap:round; stroke-linejoin:round;">
<circle cx="23000" cy="12800" r="157.48" /> 
</g>
<g style="fill:#000000; fill-opacity:1.0; 
stroke:#000000; stroke-width:39.3701; stroke-opacity:1; 
stroke-linecap:round; stroke-linejoin:round;">
</g>
<g style="fill:#000000; fill-opacity:1.0; 
stroke:#000000; stroke-width:0; stroke-opacity:1; 
stroke-linecap:round; stroke-linejoin:round;">
<circle cx="22300" cy="14100" r="157.48" /> 
</g>
<g style="fill:#000000; fill-opacity:1.0; 
stroke:#000000; stroke-width:39.3701; stroke-opacity:1; 
stroke-linecap:round; stroke-linejoin:round;">
</g>
<g style="fill:#000000; fill-opacity:1.0; 
stroke:#000000; stroke-width:0; stroke-opacity:1; 
stroke-linecap:round; stroke-linejoin:round;">
<circle cx="19600" cy="13700" r="157.48" /> 
</g>
<g style="fill:#000000; fill-opacity:1.0; 
stroke:#000000; stroke-width:39.3701; stroke-opacity:1; 
stroke-linecap:round; stroke-linejoin:round;">
</g>
<g style="fill:#000000; fill-opacity:1.0; 
stroke:#000000; stroke-width:0; stroke-opacity:1; 
stroke-linecap:round; stroke-linejoin:round;">
<circle cx="18000" cy="13500" r="157.48" /> 
</g>
<g style="fill:#000000; fill-opacity:1.0; 
stroke:#000000; stroke-width:39.3701; stroke-opacity:1; 
stroke-linecap:round; stroke-linejoin:round;">
</g>
<g style="fill:#000000; fill-opacity:1.0; 
stroke:#000000; stroke-width:0; stroke-opacity:1; 
stroke-linecap:round; stroke-linejoin:round;">
<circle cx="13700" cy="16300" r="157.48" /> 
</g>
<g style="fill:#000000; fill-opacity:1.0; 
stroke:#000000; stroke-width:39.3701; stroke-opacity:1; 
stroke-linecap:round; stroke-linejoin:round;">
</g>
<g style="fill:#000000; fill-opacity:1.0; 
stroke:#000000; stroke-width:0; stroke-opacity:1; 
stroke-linecap:round; stroke-linejoin:round;">
<circle cx="11200" cy="16900" r="157.48" /> 
</g>
<g style="fill:#000000; fill-opacity:1.0; 
stroke:#000000; stroke-width:39.3701; stroke-opacity:1; 
stroke-linecap:round; stroke-linejoin:round;">
</g>
<g style="fill:#000000; fill-opacity:1.0; 
stroke:#000000; stroke-width:0; stroke-opacity:1; 
stroke-linecap:round; stroke-linejoin:round;">
<circle cx="5700" cy="19100" r="157.48" /> 
</g>
<g style="fill:#000000; fill-opacity:1.0; 
stroke:#000000; stroke-width:39.3701; stroke-opacity:1; 
stroke-linecap:round; stroke-linejoin:round;">
</g>
<g style="fill:#000000; fill-opacity:1.0; 
stroke:#000000; stroke-width:0; stroke-opacity:1; 
stroke-linecap:round; stroke-linejoin:round;">
<circle cx="8300" cy="22200" r="157.48" /> 
</g>
<g style="fill:#000000; fill-opacity:1.0; 
stroke:#000000; stroke-width:39.3701; stroke-opacity:1; 
stroke-linecap:round; stroke-linejoin:round;">
</g>
<g style="fill:#000000; fill-opacity:1.0; 
stroke:#000000; stroke-width:0; stroke-opacity:1; 
stroke-linecap:round; stroke-linejoin:round;">
<circle cx="11500" cy="26500" r="157.48" /> 
</g>
<g style="fill:#000000; fill-opacity:1.0; 
stroke:#000000; stroke-width:39.3701; stroke-opacity:1; 
stroke-linecap:round; stroke-linejoin:round;">
</g>
<g style="fill:#000000; fill-opacity:1.0; 
stroke:#000000; stroke-width:0; stroke-opacity:1; 
stroke-linecap:round; stroke-linejoin:round;">
<circle cx="21100" cy="24500" r="157.48" /> 
</g>
<g style="fill:#000000; fill-opacity:1.0; 
stroke:#000000; stroke-width:39.3701; stroke-opacity:1; 
stroke-linecap:round; stroke-linejoin:round;">
</g>
<g style="fill:#000000; fill-opacity:1.0; 
stroke:#000000; stroke-width:0; stroke-opacity:1; 
stroke-linecap:round; stroke-linejoin:round;">
<circle cx="26100" cy="18900" r="157.48" /> 
</g>
<g style="fill:#000000; fill-opacity:1.0; 
stroke:#000000; stroke-width:39.3701; stroke-opacity:1; 
stroke-linecap:round; stroke-linejoin:round;">
</g>
<g style="fill:#000000; fill-opacity:1.0; 
stroke:#000000; stroke-width:0; stroke-opacity:1; 
stroke-linecap:round; stroke-linejoin:round;">
<circle cx="21200" cy="21000" r="157.48" /> 
</g>
<g style="fill:#000000; fill-opacity:1.0; 
stroke:#000000; stroke-width:39.3701; stroke-opacity:1; 
stroke-linecap:round; stroke-linejoin:round;">
</g>
<g style="fill:#000000; fill-opacity:1.0; 
stroke:#000000; stroke-width:0; stroke-opacity:1; 
stroke-linecap:round; stroke-linejoin:round;">
<circle cx="21900" cy="22500" r="157.48" /> 
</g>
<g style="fill:#000000; fill-opacity:1.0; 
stroke:#000000; stroke-width:39.3701; stroke-opacity:1; 
stroke-linecap:round; stroke-linejoin:round;">
</g>
<g style="fill:#000000; fill-opacity:1.0; 
stroke:#000000; stroke-width:0; stroke-opacity:1; 
stroke-linecap:round; stroke-linejoin:round;">
<circle cx="22500" cy="24500" r="157.48" /> 
</g>
<g style="fill:#000000; fill-opacity:1.0; 
stroke:#000000; stroke-width:39.3701; stroke-opacity:1; 
stroke-linecap:round; stroke-linejoin:round;">
</g>
<g style="fill:#000000; fill-opacity:1.0; 
stroke:#000000; stroke-width:0; stroke-opacity:1; 
stroke-linecap:round; stroke-linejoin:round;">
<circle cx="21500" cy="23500" r="157.48" /> 
</g>
<g style="fill:#000000; fill-opacity:1.0; 
stroke:#000000; stroke-width:39.3701; stroke-opacity:1; 
stroke-linecap:round; stroke-linejoin:round;">
</g>
<g style="fill:#000000; fill-opacity:1.0; 
stroke:#000000; stroke-width:0; stroke-opacity:1; 
stroke-linecap:round; stroke-linejoin:round;">
<circle cx="13700" cy="25350" r="157.48" /> 
</g>
<g style="fill:#000000; fill-opacity:1.0; 
stroke:#000000; stroke-width:39.3701; stroke-opacity:1; 
stroke-linecap:round; stroke-linejoin:round;">
</g>
<g style="fill:#000000; fill-opacity:1.0; 
stroke:#000000; stroke-width:0; stroke-opacity:1; 
stroke-linecap:round; stroke-linejoin:round;">
<circle cx="14250" cy="26200" r="157.48" /> 
</g>
<g style="fill:#000000; fill-opacity:1.0; 
stroke:#000000; stroke-width:39.3701; stroke-opacity:1; 
stroke-linecap:round; stroke-linejoin:round;">
</g>
<g style="fill:#000000; fill-opacity:1.0; 
stroke:#000000; stroke-width:0; stroke-opacity:1; 
stroke-linecap:round; stroke-linejoin:round;">
<circle cx="25100" cy="24000" r="157.48" /> 
</g>
<g style="fill:#000000; fill-opacity:1.0; 
stroke:#000000; stroke-width:39.3701; stroke-opacity:1; 
stroke-linecap:round; stroke-linejoin:round;">
</g>
<g style="fill:#000000; fill-opacity:1.0; 
stroke:#000000; stroke-width:0; stroke-opacity:1; 
stroke-linecap:round; stroke-linejoin:round;">
<circle cx="26700" cy="23965.4" r="157.48" /> 
</g>
<g style="fill:#000000; fill-opacity:1.0; 
stroke:#000000; stroke-width:39.3701; stroke-opacity:1; 
stroke-linecap:round; stroke-linejoin:round;">
</g>
<g style="fill:#000000; fill-opacity:1.0; 
stroke:#000000; stroke-width:0; stroke-opacity:1; 
stroke-linecap:round; stroke-linejoin:round;">
<circle cx="9800" cy="21700" r="157.48" /> 
</g>
<g style="fill:#000000; fill-opacity:1.0; 
stroke:#000000; stroke-width:39.3701; stroke-opacity:1; 
stroke-linecap:round; stroke-linejoin:round;">
</g>
<g style="fill:#000000; fill-opacity:1.0; 
stroke:#000000; stroke-width:0; stroke-opacity:1; 
stroke-linecap:round; stroke-linejoin:round;">
<circle cx="14700" cy="22100" r="157.48" /> 
</g>
<g style="fill:#000000; fill-opacity:1.0; 
stroke:#000000; stroke-width:39.3701; stroke-opacity:1; 
stroke-linecap:round; stroke-linejoin:round;">
</g>
<g style="fill:#000000; fill-opacity:1.0; 
stroke:#000000; stroke-width:0; stroke-opacity:1; 
stroke-linecap:round; stroke-linejoin:round;">
<circle cx="18900" cy="18600" r="157.48" /> 
</g>
<g style="fill:#000000; fill-opacity:1.0; 
stroke:#000000; stroke-width:39.3701; stroke-opacity:1; 
stroke-linecap:round; stroke-linejoin:round;">
</g>
<g style="fill:#000000; fill-opacity:1.0; 
stroke:#000000; stroke-width:0; stroke-opacity:1; 
stroke-linecap:round; stroke-linejoin:round;">
<circle cx="21600" cy="16900" r="157.48" /> 
</g>
<g style="fill:#000000; fill-opacity:1.0; 
stroke:#000000; stroke-width:39.3701; stroke-opacity:1; 
stroke-linecap:round; stroke-linejoin:round;">
</g>
<g style="fill:#000000; fill-opacity:1.0; 
stroke:#000000; stroke-width:0; stroke-opacity:1; 
stroke-linecap:round; stroke-linejoin:round;">
<circle cx="19400" cy="17000" r="157.48" /> 
</g>
<g style="fill:#000000; fill-opacity:1.0; 
stroke:#000000; stroke-width:39.3701; stroke-opacity:1; 
stroke-linecap:round; stroke-linejoin:round;">
</g>
<g style="fill:#000000; fill-opacity:1.0; 
stroke:#000000; stroke-width:0; stroke-opacity:1; 
stroke-linecap:round; stroke-linejoin:round;">
<circle cx="17500" cy="18300" r="157.48" /> 
</g>
<g style="fill:#000000; fill-opacity:1.0; 
stroke:#000000; stroke-width:39.3701; stroke-opacity:1; 
stroke-linecap:round; stroke-linejoin:round;">
</g>
<g style="fill:#000000; fill-opacity:1.0; 
stroke:#000000; stroke-width:0; stroke-opacity:1; 
stroke-linecap:round; stroke-linejoin:round;">
<circle cx="28800" cy="19750" r="157.48" /> 
</g>
<g style="fill:#000000; fill-opacity:1.0; 
stroke:#000000; stroke-width:39.3701; stroke-opacity:1; 
stroke-linecap:round; stroke-linejoin:round;">
</g>
<g style="fill:#000000; fill-opacity:1.0; 
stroke:#000000; stroke-width:0; stroke-opacity:1; 
stroke-linecap:round; stroke-linejoin:round;">
<circle cx="18050" cy="20450" r="157.48" /> 
</g>
<g style="fill:#000000; fill-opacity:1.0; 
stroke:#000000; stroke-width:39.3701; stroke-opacity:1; 
stroke-linecap:round; stroke-linejoin:round;">
</g>
<g style="fill:#000000; fill-opacity:1.0; 
stroke:#000000; stroke-width:0; stroke-opacity:1; 
stroke-linecap:round; stroke-linejoin:round;">
<circle cx="24750" cy="22050" r="157.48" /> 
</g>
<g style="fill:#000000; fill-opacity:1.0; 
stroke:#000000; stroke-width:39.3701; stroke-opacity:1; 
stroke-linecap:round; stroke-linejoin:round;">
</g>
<g style="fill:#000000; fill-opacity:1.0; 
stroke:#000000; stroke-width:0; stroke-opacity:1; 
stroke-linecap:round; stroke-linejoin:round;">
<circle cx="21800" cy="18000" r="157.48" /> 
</g>
<g style="fill:#000000; fill-opacity:1.0; 
stroke:#000000; stroke-width:39.3701; stroke-opacity:1; 
stroke-linecap:round; stroke-linejoin:round;">
</g>
<g style="fill:#000000; fill-opacity:1.0; 
stroke:#000000; stroke-width:0; stroke-opacity:1; 
stroke-linecap:round; stroke-linejoin:round;">
<circle cx="20400" cy="18400" r="157.48" /> 
</g>
<g style="fill:#000000; fill-opacity:1.0; 
stroke:#000000; stroke-width:39.3701; stroke-opacity:1; 
stroke-linecap:round; stroke-linejoin:round;">
</g>
<g style="fill:#000000; fill-opacity:1.0; 
stroke:#000000; stroke-width:0; stroke-opacity:1; 
stroke-linecap:round; stroke-linejoin:round;">
<circle cx="5300" cy="5500" r="157.48" /> 
</g>
<g style="fill:#000000; fill-opacity:1.0; 
stroke:#000000; stroke-width:39.3701; stroke-opacity:1; 
stroke-linecap:round; stroke-linejoin:round;">
</g>
<g style="fill:#000000; fill-opacity:1.0; 
stroke:#000000; stroke-width:0; stroke-opacity:1; 
stroke-linecap:round; stroke-linejoin:round;">
<circle cx="4900" cy="5500" r="157.48" /> 
</g>
<g style="fill:#000000; fill-opacity:1.0; 
stroke:#000000; stroke-width:39.3701; stroke-opacity:1; 
stroke-linecap:round; stroke-linejoin:round;">
</g>
<g style="fill:#000000; fill-opacity:1.0; 
stroke:#000000; stroke-width:0; stroke-opacity:1; 
stroke-linecap:round; stroke-linejoin:round;">
<circle cx="4500" cy="5500" r="157.48" /> 
</g>
<g style="fill:#000000; fill-opacity:1.0; 
stroke:#000000; stroke-width:39.3701; stroke-opacity:1; 
stroke-linecap:round; stroke-linejoin:round;">
</g>
<g style="fill:#000000; fill-opacity:1.0; 
stroke:#000000; stroke-width:0; stroke-opacity:1; 
stroke-linecap:round; stroke-linejoin:round;">
<circle cx="5300" cy="5100" r="157.48" /> 
</g>
<g style="fill:#000000; fill-opacity:1.0; 
stroke:#000000; stroke-width:39.3701; stroke-opacity:1; 
stroke-linecap:round; stroke-linejoin:round;">
</g>
<g style="fill:#000000; fill-opacity:1.0; 
stroke:#000000; stroke-width:0; stroke-opacity:1; 
stroke-linecap:round; stroke-linejoin:round;">
<circle cx="4900" cy="5100" r="157.48" /> 
</g>
<g style="fill:#000000; fill-opacity:1.0; 
stroke:#000000; stroke-width:39.3701; stroke-opacity:1; 
stroke-linecap:round; stroke-linejoin:round;">
</g>
<g style="fill:#000000; fill-opacity:1.0; 
stroke:#000000; stroke-width:0; stroke-opacity:1; 
stroke-linecap:round; stroke-linejoin:round;">
<circle cx="4500" cy="5100" r="157.48" /> 
</g>
<g style="fill:#000000; fill-opacity:1.0; 
stroke:#000000; stroke-width:39.3701; stroke-opacity:1; 
stroke-linecap:round; stroke-linejoin:round;">
</g>
<g style="fill:#000000; fill-opacity:1.0; 
stroke:#000000; stroke-width:0; stroke-opacity:1; 
stroke-linecap:round; stroke-linejoin:round;">
<circle cx="5300" cy="4700" r="157.48" /> 
</g>
<g style="fill:#000000; fill-opacity:1.0; 
stroke:#000000; stroke-width:39.3701; stroke-opacity:1; 
stroke-linecap:round; stroke-linejoin:round;">
</g>
<g style="fill:#000000; fill-opacity:1.0; 
stroke:#000000; stroke-width:0; stroke-opacity:1; 
stroke-linecap:round; stroke-linejoin:round;">
<circle cx="4900" cy="4700" r="157.48" /> 
</g>
<g style="fill:#000000; fill-opacity:1.0; 
stroke:#000000; stroke-width:39.3701; stroke-opacity:1; 
stroke-linecap:round; stroke-linejoin:round;">
</g>
<g style="fill:#000000; fill-opacity:1.0; 
stroke:#000000; stroke-width:0; stroke-opacity:1; 
stroke-linecap:round; stroke-linejoin:round;">
<circle cx="4500" cy="4700" r="157.48" /> 
</g>
<g style="fill:#000000; fill-opacity:1.0; 
stroke:#000000; stroke-width:39.3701; stroke-opacity:1; 
stroke-linecap:round; stroke-linejoin:round;">
</g>
<g style="fill:#000000; fill-opacity:1.0; 
stroke:#000000; stroke-width:0; stroke-opacity:1; 
stroke-linecap:round; stroke-linejoin:round;">
<circle cx="26000" cy="4200" r="157.48" /> 
</g>
<g style="fill:#000000; fill-opacity:1.0; 
stroke:#000000; stroke-width:39.3701; stroke-opacity:1; 
stroke-linecap:round; stroke-linejoin:round;">
</g>
<g style="fill:#000000; fill-opacity:1.0; 
stroke:#000000; stroke-width:0; stroke-opacity:1; 
stroke-linecap:round; stroke-linejoin:round;">
<circle cx="26800" cy="5100" r="157.48" /> 
</g>
<g style="fill:#000000; fill-opacity:1.0; 
stroke:#000000; stroke-width:39.3701; stroke-opacity:1; 
stroke-linecap:round; stroke-linejoin:round;">
</g>
<g style="fill:#000000; fill-opacity:1.0; 
stroke:#000000; stroke-width:0; stroke-opacity:1; 
stroke-linecap:round; stroke-linejoin:round;">
<circle cx="26000" cy="5900" r="157.48" /> 
</g>
<g style="fill:#000000; fill-opacity:1.0; 
stroke:#000000; stroke-width:39.3701; stroke-opacity:1; 
stroke-linecap:round; stroke-linejoin:round;">
</g>
<g style="fill:#000000; fill-opacity:1.0; 
stroke:#000000; stroke-width:0; stroke-opacity:1; 
stroke-linecap:round; stroke-linejoin:round;">
<circle cx="25200" cy="5100" r="157.48" /> 
</g>
<g style="fill:#000000; fill-opacity:1.0; 
stroke:#000000; stroke-width:39.3701; stroke-opacity:1; 
stroke-linecap:round; stroke-linejoin:round;">
</g>
<g style="fill:#000000; fill-opacity:1.0; 
stroke:#000000; stroke-width:0; stroke-opacity:1; 
stroke-linecap:round; stroke-linejoin:round;">
<circle cx="25400" cy="4400" r="157.48" /> 
</g>
<g style="fill:#000000; fill-opacity:1.0; 
stroke:#000000; stroke-width:39.3701; stroke-opacity:1; 
stroke-linecap:round; stroke-linejoin:round;">
</g>
<g style="fill:#000000; fill-opacity:1.0; 
stroke:#000000; stroke-width:0; stroke-opacity:1; 
stroke-linecap:round; stroke-linejoin:round;">
<circle cx="26600" cy="4400" r="157.48" /> 
</g>
<g style="fill:#000000; fill-opacity:1.0; 
stroke:#000000; stroke-width:39.3701; stroke-opacity:1; 
stroke-linecap:round; stroke-linejoin:round;">
</g>
<g style="fill:#000000; fill-opacity:1.0; 
stroke:#000000; stroke-width:0; stroke-opacity:1; 
stroke-linecap:round; stroke-linejoin:round;">
<circle cx="26600" cy="5700" r="157.48" /> 
</g>
<g style="fill:#000000; fill-opacity:1.0; 
stroke:#000000; stroke-width:39.3701; stroke-opacity:1; 
stroke-linecap:round; stroke-linejoin:round;">
</g>
<g style="fill:#000000; fill-opacity:1.0; 
stroke:#000000; stroke-width:0; stroke-opacity:1; 
stroke-linecap:round; stroke-linejoin:round;">
<circle cx="25400" cy="5700" r="157.48" /> 
</g>
<g style="fill:#000000; fill-opacity:1.0; 
stroke:#000000; stroke-width:39.3701; stroke-opacity:1; 
stroke-linecap:round; stroke-linejoin:round;">
</g>
<g >
</g>
<g style="fill:#000000; fill-opacity:1.0; 
stroke:#000000; stroke-width:39.3701; stroke-opacity:1; 
stroke-linecap:round; stroke-linejoin:round;">
</g>
<g style="fill:#000000; fill-opacity:1.0; 
stroke:#000000; stroke-width:1181.1; stroke-opacity:1; 
stroke-linecap:round; stroke-linejoin:round;">
</g>
<g style="fill:#000000; fill-opacity:0.0; 
stroke:#000000; stroke-width:1181.1; stroke-opacity:1; 
stroke-linecap:round; stroke-linejoin:round;">
<path d="M14381 9118
L3543 9118
" />
<path d="M15800 7700
L14381 9118
" />
<path d="M19400 7700
L15800 7700
" />
<path d="M20800 9100
L19400 7700
" />
<path d="M25939 9100
L20800 9100
" />
<path d="M25944 9094
L25939 9100
" />
</g>
<g style="fill:#000000; fill-opacity:0.0; 
stroke:#000000; stroke-width:196.85; stroke-opacity:1; 
stroke-linecap:round; stroke-linejoin:round;">
<path d="M18900 15400
L23372 15400
" />
<path d="M25539 17566
L26771 17566
" />
<path d="M23372 15400
L25539 17566
" />
<path d="M22500 24500
L21500 23500
" />
<path d="M13700 25350
L13950 25600
" />
<path d="M13950 25600
L26650 25600
" />
<path d="M27771 24478
L27771 17566
" />
<path d="M26650 25600
L27771 24478
" />
<path d="M27771 16566
L28166 16566
" />
<path d="M28166 16566
L28400 16800
" />
<path d="M28400 16800
L28400 20700
" />
<path d="M28400 20700
L28400 24500
" />
<path d="M28400 24500
L26950 25950
" />
<path d="M14500 25950
L14250 26200
" />
<path d="M26950 25950
L14500 25950
" />
<path d="M25100 24000
L26700 24000
" />
<path d="M26700 24000
L26700 23965
" />
<path d="M14300 21700
L14700 22100
" />
<path d="M9800 21700
L14300 21700
" />
<path d="M20600 16900
L21600 16900
" />
<path d="M18900 18600
L20600 16900
" />
<path d="M19400 17000
L18100 18300
" />
<path d="M18100 18300
L17499 18300
" />
<path d="M28800 19750
L28800 15950
" />
<path d="M28416 15566
L28800 15950
" />
<path d="M27771 15566
L28416 15566
" />
<path d="M18050 20450
L23150 20450
" />
<path d="M23150 20450
L24750 22050
" />
<path d="M21800 18000
L21100 18000
" />
<path d="M21100 18000
L20800 18000
" />
<path d="M20800 18000
L20400 18400
" />
</g>
<g style="fill:#000000; fill-opacity:0.0; 
stroke:#000000; stroke-width:1181.1; stroke-opacity:1; 
stroke-linecap:round; stroke-linejoin:round;">
<path d="M6330 7118
L6692 7480
" />
<path d="M3543 7118
L6330 7118
" />
<path d="M12119 7480
L6692 7480
" />
<path d="M14100 5500
L12119 7480
" />
<path d="M22400 5500
L14100 5500
" />
<path d="M23955 7055
L22400 5500
" />
<path d="M25984 7055
L23955 7055
" />
<path d="M6259 5078
L6692 5511
" />
<path d="M3582 5078
L6259 5078
" />
</g>
<g >
</g>
<g style="fill:#000000; fill-opacity:0.0; 
stroke:#000000; stroke-width:1181.1; stroke-opacity:1; 
stroke-linecap:round; stroke-linejoin:round;">
<g >
</g>
<g style="fill:#000000; fill-opacity:1.0; 
stroke:#000000; stroke-width:78.7402; stroke-opacity:1; 
stroke-linecap:round; stroke-linejoin:round;">
<path style="fill:#000000; fill-opacity:1.0; 
stroke:#000000; stroke-width:78.7402; stroke-opacity:1; 
stroke-linecap:round; stroke-linejoin:round;fill-rule:evenodd;"
d="M 26960.6,4516.31
26960.6,5583.69
26483.7,6060.63
25516.3,6060.63
25039.4,5583.69
25039.4,4516.31
25516.3,4039.37
26483.7,4039.37
Z" /> 
</g>
</g>
<g style="fill:#000000; fill-opacity:1.0; 
stroke:#000000; stroke-width:78.7402; stroke-opacity:1; 
stroke-linecap:round; stroke-linejoin:round;">
<g >
<path style="fill:#000000; fill-opacity:1.0; 
stroke:#000000; stroke-width:78.7402; stroke-opacity:1; 
stroke-linecap:round; stroke-linejoin:round;fill-rule:evenodd;"
d="M 29399.6,28293.5
28293.5,29399.6
25643.6,29399.6
23729.3,27485.4
26811,27485.4
26811,27632.7
26839.8,27777.2
26896.2,27913.4
26978,28035.9
27082.2,28140.1
27204.7,28222
27340.9,28278.3
27485.4,28307.1
27632.7,28307.1
27777.2,28278.3
27913.4,28222
28035.9,28140.1
28140.1,28035.9
28222,27913.4
28278.3,27777.2
28307.1,27632.7
28307.1,27485.4
28278.3,27340.9
28222,27204.7
28140.1,27082.2
28035.9,26978
27913.4,26896.2
27777.2,26839.8
27632.7,26811
27485.4,26811
27340.9,26839.8
27204.7,26896.2
27082.2,26978
26978,27082.2
26896.2,27204.7
26839.8,27340.9
26811,27485.4
23729.3,27485.4
23717,27473
23713,27468.1
23693.5,27452.2
23671.2,27440.3
23647.1,27433
23628.3,27431.1
23628.3,27431.1
23622,27430.5
23615.8,27431.1
7880.3,27431.1
7874.02,27430.5
7867.74,27431.1
7867.73,27431.1
7848.93,27433
7824.81,27440.3
7802.59,27452.2
7783.1,27468.1
7779.1,27473
5852.51,29399.6
1234.1,29399.6
127.953,28293.5
127.953,27485.4
1220.47,27485.4
1220.47,27632.7
1249.22,27777.2
1305.61,27913.4
1387.47,28035.9
1491.66,28140.1
1614.18,28222
1750.31,28278.3
1894.83,28307.1
2042.18,28307.1
2186.7,28278.3
2322.83,28222
2445.35,28140.1
2549.54,28035.9
2631.4,27913.4
2687.79,27777.2
2716.54,27632.7
2716.54,27485.4
2687.79,27340.9
2631.4,27204.7
2549.54,27082.2
2445.35,26978
2322.83,26896.2
2186.7,26839.8
2042.18,26811
1894.83,26811
1750.31,26839.8
1614.18,26896.2
1491.66,26978
1387.47,27082.2
1305.61,27204.7
1249.22,27340.9
1220.47,27485.4
127.953,27485.4
127.953,25322.9
13424.4,25322.9
13424.4,25377.1
13435,25430.4
13455.8,25480.5
13485.9,25525.7
13524.3,25564.1
13569.5,25594.2
13619.6,25615
13668.5,25624.7
13789.4,25745.6
13796.1,25753.9
13829.1,25780.9
13866.7,25801
13907.6,25813.4
13939.4,25816.5
13939.4,25816.5
13950,25817.6
13960.6,25816.5
14327.2,25816.5
14218.5,25925.3
14169.6,25935
14119.5,25955.8
14074.3,25985.9
14035.9,26024.3
14005.8,26069.5
13985,26119.6
13974.4,26172.9
13974.4,26227.1
13985,26280.4
14005.8,26330.5
14035.9,26375.7
14074.3,26414.1
14119.5,26444.2
14169.6,26465
14222.9,26475.6
14277.1,26475.6
14330.4,26465
14380.5,26444.2
14425.7,26414.1
14464.1,26375.7
14494.2,26330.5
14515,26280.4
14524.7,26231.5
14589.7,26166.5
26939.4,26166.5
26950,26167.6
26960.6,26166.5
26960.6,26166.5
26992.4,26163.4
27033.3,26151
27070.9,26130.9
27103.9,26103.9
27110.6,26095.6
28545.6,24660.6
28553.9,24653.9
28580.9,24620.9
28601,24583.3
28613.4,24542.4
28616.5,24510.6
28616.5,24510.6
28617.6,24500
28616.5,24489.4
28616.5,19956.3
28624.3,19964.1
28669.5,19994.2
28719.6,20015
28772.9,20025.6
28827.1,20025.6
28880.4,20015
28930.5,19994.2
28975.7,19964.1
29014.1,19925.7
29044.2,19880.5
29065,19830.4
29075.6,19777.1
29075.6,19722.9
29065,19669.6
29044.2,19619.5
29016.5,19578
29016.5,15960.6
29017.6,15950
29016.5,15939.4
29016.5,15939.4
29013.4,15907.6
29001,15866.7
29001,15866.7
28980.9,15829.1
28960.6,15804.4
28953.9,15796.1
28945.6,15789.4
28577.6,15421.3
28570.8,15413.1
28537.8,15386
28500.2,15365.9
28459.4,15353.5
28427.6,15350.4
28427.6,15350.4
28416.9,15349.3
28406.3,15350.4
28171.5,15350.4
28123.3,15278.3
28060.3,15215.3
27986.1,15165.7
27903.7,15131.6
27816.2,15114.2
27727.1,15114.2
27639.6,15131.6
27557.2,15165.7
27483,15215.3
27420,15278.3
27370.4,15352.5
27336.3,15434.9
27318.9,15522.3
27318.9,15611.5
27336.3,15699
27370.4,15781.4
27420,15855.5
27483,15918.6
27557.2,15968.2
27639.6,16002.3
27727.1,16019.7
27816.2,16019.7
27903.7,16002.3
27986.1,15968.2
28060.3,15918.6
28123.3,15855.5
28171.5,15783.5
28327.2,15783.5
28583.5,16039.7
28583.5,16683.9
28580.9,16679.1
28567.7,16663
28560.6,16654.4
28560.6,16654.4
28553.9,16646.1
28545.6,16639.4
28327.6,16421.3
28320.8,16413.1
28287.8,16386
28250.2,16365.9
28209.4,16353.5
28177.6,16350.4
28177.6,16350.4
28171.1,16349.8
28123.3,16278.3
28060.3,16215.3
27986.1,16165.7
27903.7,16131.6
27816.2,16114.2
27727.1,16114.2
27639.6,16131.6
27557.2,16165.7
27483,16215.3
27420,16278.3
27370.4,16352.5
27336.3,16434.9
27318.9,16522.3
27318.9,16611.5
27336.3,16699
27370.4,16781.4
27420,16855.5
27483,16918.6
27557.2,16968.2
27639.6,17002.3
27727.1,17019.7
27816.2,17019.7
27903.7,17002.3
27986.1,16968.2
28060.3,16918.6
28123.3,16855.5
28133.7,16840
28183.5,16889.7
28183.5,17378
28172.9,17352.5
28123.3,17278.3
28060.3,17215.3
27986.1,17165.7
27903.7,17131.6
27816.2,17114.2
27727.1,17114.2
27639.6,17131.6
27557.2,17165.7
27483,17215.3
27420,17278.3
27370.4,17352.5
27336.3,17434.9
27318.9,17522.3
27318.9,17611.5
27336.3,17699
27370.4,17781.4
27420,17855.5
27483,17918.6
27555.1,17966.8
27555.1,24388.7
26560.3,25383.5
14039.7,25383.5
13974.7,25318.5
13965,25269.6
13944.2,25219.5
13914.1,25174.3
13875.7,25135.9
13830.5,25105.8
13780.4,25085
13727.1,25074.4
13672.9,25074.4
13619.6,25085
13569.5,25105.8
13524.3,25135.9
13485.9,25174.3
13455.8,25219.5
13435,25269.6
13424.4,25322.9
127.953,25322.9
127.953,23472.9
21224.4,23472.9
21224.4,23527.1
21235,23580.4
21255.8,23630.5
21285.9,23675.7
21324.3,23714.1
21369.5,23744.2
21419.6,23765
21468.5,23774.7
22225.3,24531.5
22235,24580.4
22255.8,24630.5
22285.9,24675.7
22324.3,24714.1
22369.5,24744.2
22419.6,24765
22472.9,24775.6
22527.1,24775.6
22580.4,24765
22630.5,24744.2
22675.7,24714.1
22714.1,24675.7
22744.2,24630.5
22765,24580.4
22775.6,24527.1
22775.6,24472.9
22765,24419.6
22744.2,24369.5
22714.1,24324.3
22675.7,24285.9
22630.5,24255.8
22580.4,24235
22531.5,24225.3
22279.1,23972.9
24824.4,23972.9
24824.4,24027.1
24835,24080.4
24855.8,24130.5
24885.9,24175.7
24924.3,24214.1
24969.5,24244.2
25019.6,24265
25072.9,24275.6
25127.1,24275.6
25180.4,24265
25230.5,24244.2
25272,24216.5
26586.3,24216.5
26619.6,24230.4
26672.9,24240.9
26727.1,24240.9
26780.4,24230.4
26830.5,24209.6
26875.7,24179.4
26914.1,24141
26944.2,24095.9
26965,24045.7
26975.6,23992.5
26975.6,23938.2
26965,23885
26944.2,23834.8
26914.1,23789.7
26875.7,23751.3
26830.5,23721.1
26780.4,23700.4
26727.1,23689.8
26672.9,23689.8
26619.6,23700.4
26569.5,23721.1
26524.3,23751.3
26492.1,23783.5
25272,23783.5
25230.5,23755.8
25180.4,23735
25127.1,23724.4
25072.9,23724.4
25019.6,23735
24969.5,23755.8
24924.3,23785.9
24885.9,23824.3
24855.8,23869.5
24835,23919.6
24824.4,23972.9
22279.1,23972.9
21774.7,23468.5
21765,23419.6
21744.2,23369.5
21714.1,23324.3
21675.7,23285.9
21630.5,23255.8
21580.4,23235
21527.1,23224.4
21472.9,23224.4
21419.6,23235
21369.5,23255.8
21324.3,23285.9
21285.9,23324.3
21255.8,23369.5
21235,23419.6
21224.4,23472.9
127.953,23472.9
127.953,20944.9
2715.96,20944.9
2715.96,21968.5
2718.24,21991.7
2725,22013.9
2735.97,22034.4
2750.73,22052.4
2768.71,22067.2
2789.23,22078.2
2811.49,22084.9
2834.65,22087.2
3858.27,22087.2
3881.42,22084.9
3903.69,22078.2
3924.2,22067.2
3942.19,22052.4
3956.95,22034.4
3967.91,22013.9
3974.67,21991.7
3976.95,21968.5
3976.95,21672.9
9524.41,21672.9
9524.41,21727.1
9535,21780.4
9555.77,21830.5
9585.93,21875.7
9624.32,21914.1
9669.46,21944.2
9719.61,21965
9772.86,21975.6
9827.14,21975.6
9880.39,21965
9930.54,21944.2
9971.98,21916.5
14210.3,21916.5
14425.3,22131.5
14435,22180.4
14455.8,22230.5
14485.9,22275.7
14524.3,22314.1
14569.5,22344.2
14619.6,22365
14672.9,22375.6
14727.1,22375.6
14780.4,22365
14830.5,22344.2
14875.7,22314.1
14914.1,22275.7
14944.2,22230.5
14965,22180.4
14975.6,22127.1
14975.6,22072.9
14965,22019.6
14944.2,21969.5
14914.1,21924.3
14875.7,21885.9
14830.5,21855.8
14780.4,21835
14731.5,21825.3
14460.6,21554.4
14453.9,21546.1
14420.9,21519.1
14383.3,21499
14342.4,21486.6
14310.6,21483.5
14310.6,21483.5
14300,21482.4
14289.4,21483.5
9971.98,21483.5
9930.54,21455.8
9880.39,21435
9827.14,21424.4
9772.86,21424.4
9719.61,21435
9669.46,21455.8
9624.32,21485.9
9585.93,21524.3
9555.77,21569.5
9535,21619.6
9524.41,21672.9
3976.95,21672.9
3976.95,20944.9
3974.67,20921.7
3967.91,20899.5
3956.95,20878.9
3942.19,20861
3924.2,20846.2
3903.69,20835.2
3881.42,20828.5
3858.27,20826.2
2834.65,20826.2
2811.49,20828.5
2789.23,20835.2
2768.71,20846.2
2750.73,20861
2735.97,20878.9
2725,20899.5
2718.24,20921.7
2715.96,20944.9
127.953,20944.9
127.953,20422.9
17774.4,20422.9
17774.4,20477.1
17785,20530.4
17805.8,20580.5
17835.9,20625.7
17874.3,20664.1
17919.5,20694.2
17969.6,20715
18022.9,20725.6
18077.1,20725.6
18130.4,20715
18180.5,20694.2
18222,20666.5
23060.3,20666.5
24475.3,22081.5
24485,22130.4
24505.8,22180.5
24535.9,22225.7
24574.3,22264.1
24619.5,22294.2
24669.6,22315
24722.9,22325.6
24777.1,22325.6
24830.4,22315
24880.5,22294.2
24925.7,22264.1
24964.1,22225.7
24994.2,22180.5
25015,22130.4
25025.6,22077.1
25025.6,22022.9
25015,21969.6
24994.2,21919.5
24964.1,21874.3
24925.7,21835.9
24880.5,21805.8
24830.4,21785
24781.5,21775.3
23310.6,20304.4
23303.9,20296.1
23270.9,20269.1
23233.3,20249
23192.4,20236.6
23160.6,20233.5
23160.6,20233.5
23150,20232.4
23139.4,20233.5
18222,20233.5
18180.5,20205.8
18130.4,20185
18077.1,20174.4
18022.9,20174.4
17969.6,20185
17919.5,20205.8
17874.3,20235.9
17835.9,20274.3
17805.8,20319.5
17785,20369.6
17774.4,20422.9
127.953,20422.9
127.953,19426.1
2716.54,19426.1
2716.54,19550.2
2740.74,19671.9
2788.23,19786.6
2857.16,19889.7
2944.91,19977.5
3048.08,20046.4
3162.72,20093.9
3284.41,20118.1
3408.5,20118.1
3530.2,20093.9
3644.84,20046.4
3748.01,19977.5
3835.75,19889.7
3904.69,19786.6
3952.17,19671.9
3976.38,19550.2
3976.38,19426.1
3952.17,19304.4
3904.69,19189.8
3835.75,19086.6
3748.01,18998.9
3644.84,18930
3530.2,18882.5
3408.5,18858.3
3284.41,18858.3
3162.72,18882.5
3048.08,18930
2944.91,18998.9
2857.16,19086.6
2788.23,19189.8
2740.74,19304.4
2716.54,19426.1
127.953,19426.1
127.953,18272.9
17224.4,18272.9
17224.4,18327.1
17235,18380.4
17255.8,18430.5
17285.9,18475.7
17324.3,18514.1
17369.5,18544.2
17419.6,18565
17472.9,18575.6
17527.1,18575.6
17540.9,18572.9
18624.4,18572.9
18624.4,18627.1
18635,18680.4
18655.8,18730.5
18685.9,18775.7
18724.3,18814.1
18769.5,18844.2
18819.6,18865
18872.9,18875.6
18927.1,18875.6
18980.4,18865
19030.5,18844.2
19075.7,18814.1
19114.1,18775.7
19144.2,18730.5
19165,18680.4
19174.7,18631.5
19433.4,18372.9
20124.4,18372.9
20124.4,18427.1
20135,18480.4
20155.8,18530.5
20185.9,18575.7
20224.3,18614.1
20269.5,18644.2
20319.6,18665
20372.9,18675.6
20427.1,18675.6
20480.4,18665
20530.5,18644.2
20575.7,18614.1
20614.1,18575.7
20644.2,18530.5
20665,18480.4
20674.7,18431.5
20889.7,18216.5
21628,18216.5
21669.5,18244.2
21719.6,18265
21772.9,18275.6
21827.1,18275.6
21880.4,18265
21930.5,18244.2
21975.7,18214.1
22014.1,18175.7
22044.2,18130.5
22065,18080.4
22075.6,18027.1
22075.6,17972.9
22065,17919.6
22044.2,17869.5
22014.1,17824.3
21975.7,17785.9
21930.5,17755.8
21880.4,17735
21827.1,17724.4
21772.9,17724.4
21719.6,17735
21669.5,17755.8
21628,17783.5
20810.6,17783.5
20800,17782.4
20789.4,17783.5
20789.4,17783.5
20757.6,17786.6
20716.7,17799
20699.2,17808.3
20679.1,17819.1
20654.4,17839.4
20654.4,17839.4
20646.1,17846.1
20639.4,17854.4
20368.5,18125.3
20319.6,18135
20269.5,18155.8
20224.3,18185.9
20185.9,18224.3
20155.8,18269.5
20135,18319.6
20124.4,18372.9
19433.4,18372.9
20689.7,17116.5
21428,17116.5
21469.5,17144.2
21519.6,17165
21572.9,17175.6
21627.1,17175.6
21680.4,17165
21730.5,17144.2
21775.7,17114.1
21814.1,17075.7
21844.2,17030.5
21865,16980.4
21875.6,16927.1
21875.6,16872.9
21865,16819.6
21844.2,16769.5
21814.1,16724.3
21775.7,16685.9
21730.5,16655.8
21680.4,16635
21627.1,16624.4
21572.9,16624.4
21519.6,16635
21469.5,16655.8
21428,16683.5
20610.6,16683.5
20600,16682.4
20589.4,16683.5
20589.4,16683.5
20557.6,16686.6
20516.7,16699
20516.7,16699
20479.1,16719.1
20454.4,16739.4
20454.4,16739.4
20446.1,16746.1
20439.4,16754.4
18868.5,18325.3
18819.6,18335
18769.5,18355.8
18724.3,18385.9
18685.9,18424.3
18655.8,18469.5
18635,18519.6
18624.4,18572.9
17540.9,18572.9
17580.4,18565
17630.5,18544.2
17672,18516.5
18089.4,18516.5
18100,18517.6
18110.6,18516.5
18110.6,18516.5
18142.4,18513.4
18183.3,18501
18220.9,18480.9
18253.9,18453.9
18260.6,18445.6
19431.5,17274.7
19480.4,17265
19530.5,17244.2
19575.7,17214.1
19614.1,17175.7
19644.2,17130.5
19665,17080.4
19675.6,17027.1
19675.6,16972.9
19665,16919.6
19644.2,16869.5
19614.1,16824.3
19575.7,16785.9
19530.5,16755.8
19480.4,16735
19427.1,16724.4
19372.9,16724.4
19319.6,16735
19269.5,16755.8
19224.3,16785.9
19185.9,16824.3
19155.8,16869.5
19135,16919.6
19125.3,16968.5
18010.3,18083.5
17672,18083.5
17630.5,18055.8
17580.4,18035
17527.1,18024.4
17472.9,18024.4
17419.6,18035
17369.5,18055.8
17324.3,18085.9
17285.9,18124.3
17255.8,18169.5
17235,18219.6
17224.4,18272.9
127.953,18272.9
127.953,15826.8
2715.96,15826.8
2715.96,16850.4
2718.24,16873.5
2725,16895.8
2735.97,16916.3
2750.73,16934.3
2768.71,16949.1
2789.23,16960
2811.49,16966.8
2834.65,16969.1
3858.27,16969.1
3881.42,16966.8
3903.69,16960
3924.2,16949.1
3942.19,16934.3
3956.95,16916.3
3967.91,16895.8
3974.67,16873.5
3976.95,16850.4
3976.95,15826.8
3974.67,15803.6
3967.91,15781.4
3956.95,15760.8
3942.19,15742.9
3924.2,15728.1
3903.69,15717.1
3881.42,15710.4
3858.27,15708.1
2834.65,15708.1
2811.49,15710.4
2789.23,15717.1
2768.71,15728.1
2750.73,15742.9
2735.97,15760.8
2725,15781.4
2718.24,15803.6
2715.96,15826.8
127.953,15826.8
127.953,15372.9
18624.4,15372.9
18624.4,15427.1
18635,15480.4
18655.8,15530.5
18685.9,15575.7
18724.3,15614.1
18769.5,15644.2
18819.6,15665
18872.9,15675.6
18927.1,15675.6
18980.4,15665
19030.5,15644.2
19072,15616.5
23282.7,15616.5
25378.7,17712.5
25385.5,17720.8
25393.8,17727.6
25393.8,17727.6
25414.2,17744.3
25418.5,17747.8
25456.1,17767.9
25496.9,17780.3
25528.7,17783.5
25528.7,17783.5
25539.4,17784.5
25550,17783.5
26371.8,17783.5
26420,17855.5
26483,17918.6
26557.2,17968.2
26639.6,18002.3
26727.1,18019.7
26816.2,18019.7
26903.7,18002.3
26986.1,17968.2
27060.3,17918.6
27123.3,17855.5
27172.9,17781.4
27207,17699
27224.4,17611.5
27224.4,17522.3
27207,17434.9
27172.9,17352.5
27123.3,17278.3
27060.3,17215.3
26986.1,17165.7
26903.7,17131.6
26816.2,17114.2
26727.1,17114.2
26639.6,17131.6
26557.2,17165.7
26483,17215.3
26420,17278.3
26371.8,17350.4
25629.1,17350.4
24926.1,16647.5
26326.1,16647.5
26329.2,16663
26356.5,16747.5
26399.7,16825
26457.2,16892.6
26526.8,16947.7
26605.8,16988.2
26691.1,17012.5
26761.8,16990.1
26761.8,16576.8
26781.5,16576.8
26781.5,16990.1
26852.2,17012.5
26937.6,16988.2
27016.6,16947.7
27086.1,16892.6
27143.6,16825
27186.8,16747.5
27214.1,16663
27217.2,16647.5
27194.8,16576.8
26781.5,16576.8
26761.8,16576.8
26348.5,16576.8
26326.1,16647.5
24926.1,16647.5
24765.1,16486.4
26326.1,16486.4
26348.5,16557.1
26761.8,16557.1
26761.8,16143.8
26781.5,16143.8
26781.5,16557.1
27194.8,16557.1
27217.2,16486.4
27214.1,16470.8
27186.8,16386.4
27143.6,16308.8
27086.1,16241.2
27016.6,16186.1
26937.6,16145.7
26852.2,16121.4
26781.5,16143.8
26761.8,16143.8
26691.1,16121.4
26605.8,16145.7
26526.8,16186.1
26457.2,16241.2
26399.7,16308.8
26356.5,16386.4
26329.2,16470.8
26326.1,16486.4
24765.1,16486.4
23926.1,15647.5
26326.1,15647.5
26329.2,15663
26356.5,15747.5
26399.7,15825
26457.2,15892.6
26526.8,15947.7
26605.8,15988.2
26691.1,16012.5
26761.8,15990.1
26761.8,15576.8
26781.5,15576.8
26781.5,15990.1
26852.2,16012.5
26937.6,15988.2
27016.6,15947.7
27086.1,15892.6
27143.6,15825
27186.8,15747.5
27214.1,15663
27217.2,15647.5
27194.8,15576.8
26781.5,15576.8
26761.8,15576.8
26348.5,15576.8
26326.1,15647.5
23926.1,15647.5
23765.1,15486.4
26326.1,15486.4
26348.5,15557.1
26761.8,15557.1
26761.8,15143.8
26781.5,15143.8
26781.5,15557.1
27194.8,15557.1
27217.2,15486.4
27214.1,15470.8
27186.8,15386.4
27143.6,15308.8
27086.1,15241.2
27016.6,15186.1
26937.6,15145.7
26852.2,15121.4
26781.5,15143.8
26761.8,15143.8
26691.1,15121.4
26605.8,15145.7
26526.8,15186.1
26457.2,15241.2
26399.7,15308.8
26356.5,15386.4
26329.2,15470.8
26326.1,15486.4
23765.1,15486.4
23533.1,15254.4
23526.3,15246.1
23493.3,15219.1
23455.7,15199
23414.9,15186.6
23383.1,15183.5
23383.1,15183.5
23372.4,15182.4
23361.8,15183.5
19072,15183.5
19030.5,15155.8
18980.4,15135
18927.1,15124.4
18872.9,15124.4
18819.6,15135
18769.5,15155.8
18724.3,15185.9
18685.9,15224.3
18655.8,15269.5
18635,15319.6
18624.4,15372.9
127.953,15372.9
127.953,14308
2716.54,14308
2716.54,14432.1
2740.74,14553.8
2788.23,14668.5
2857.16,14771.6
2944.91,14859.4
3048.08,14928.3
3162.72,14975.8
3284.41,15000
3408.5,15000
3530.2,14975.8
3644.84,14928.3
3684.84,14901.6
26318.3,14901.6
26320.6,14924.7
26327.4,14947
26338.3,14967.5
26353.1,14985.5
26371.1,15000.3
26391.6,15011.2
26413.9,15018
26437,15020.3
26732.3,15019.7
26761.8,14990.2
26761.8,14576.8
26781.5,14576.8
26781.5,14990.2
26811,15019.7
27106.3,15020.3
27129.5,15018
27151.7,15011.2
27172.2,15000.3
27190.2,14985.5
27205,14967.5
27215.9,14947
27222.7,14924.7
27225,14901.6
27224.4,14606.3
27194.9,14576.8
26781.5,14576.8
26761.8,14576.8
26348.4,14576.8
26318.9,14606.3
26318.3,14901.6
3684.84,14901.6
3748.01,14859.4
3835.75,14771.6
3904.69,14668.5
3952.17,14553.8
3976.38,14432.1
3976.38,14308
3961.31,14232.3
26318.3,14232.3
26318.9,14527.6
26348.4,14557.1
26761.8,14557.1
26761.8,14143.7
26781.5,14143.7
26781.5,14557.1
27194.9,14557.1
27224.4,14527.6
27224.4,14522.3
27318.9,14522.3
27318.9,14611.5
27336.3,14699
27370.4,14781.4
27420,14855.5
27483,14918.6
27557.2,14968.2
27639.6,15002.3
27727.1,15019.7
27816.2,15019.7
27903.7,15002.3
27986.1,14968.2
28060.3,14918.6
28123.3,14855.5
28172.9,14781.4
28207,14699
28224.4,14611.5
28224.4,14522.3
28207,14434.9
28172.9,14352.5
28123.3,14278.3
28060.3,14215.3
27986.1,14165.7
27903.7,14131.6
27816.2,14114.2
27727.1,14114.2
27639.6,14131.6
27557.2,14165.7
27483,14215.3
27420,14278.3
27370.4,14352.5
27336.3,14434.9
27318.9,14522.3
27224.4,14522.3
27225,14232.3
27222.7,14209.1
27215.9,14186.9
27205,14166.3
27190.2,14148.4
27172.2,14133.6
27151.7,14122.6
27129.5,14115.9
27106.3,14113.6
26811,14114.2
26781.5,14143.7
26761.8,14143.7
26732.3,14114.2
26437,14113.6
26413.9,14115.9
26391.6,14122.6
26371.1,14133.6
26353.1,14148.4
26338.3,14166.3
26327.4,14186.9
26320.6,14209.1
26318.3,14232.3
3961.31,14232.3
3952.17,14186.3
3904.69,14071.7
3835.75,13968.5
3748.01,13880.8
3644.84,13811.8
3530.2,13764.4
3408.5,13740.2
3284.41,13740.2
3162.72,13764.4
3048.08,13811.8
2944.91,13880.8
2857.16,13968.5
2788.23,14071.7
2740.74,14186.3
2716.54,14308
127.953,14308
127.953,11039.4
29399.6,11039.4
Z" /> 
</g>
</g>
</g> 
</svg>
