%TF.GenerationSoftware,KiCad,Pcbnew,(5.1.7)-1*%
%TF.CreationDate,2021-01-13T20:34:28+01:00*%
%TF.ProjectId,HotPlateController,486f7450-6c61-4746-9543-6f6e74726f6c,rev?*%
%TF.SameCoordinates,Original*%
%TF.FileFunction,Soldermask,Top*%
%TF.FilePolarity,Negative*%
%FSLAX46Y46*%
G04 Gerber Fmt 4.6, Leading zero omitted, Abs format (unit mm)*
G04 Created by KiCad (PCBNEW (5.1.7)-1) date 2021-01-13 20:34:28*
%MOMM*%
%LPD*%
G01*
G04 APERTURE LIST*
%ADD10C,2.400000*%
%ADD11C,3.100000*%
%ADD12C,3.300000*%
%ADD13C,2.700000*%
%ADD14O,1.800000X1.800000*%
G04 APERTURE END LIST*
%TO.C,R9*%
G36*
G01*
X58688000Y-14157144D02*
X58688000Y-11242856D01*
G75*
G02*
X58955856Y-10975000I267856J0D01*
G01*
X59920144Y-10975000D01*
G75*
G02*
X60188000Y-11242856I0J-267856D01*
G01*
X60188000Y-14157144D01*
G75*
G02*
X59920144Y-14425000I-267856J0D01*
G01*
X58955856Y-14425000D01*
G75*
G02*
X58688000Y-14157144I0J267856D01*
G01*
G37*
G36*
G01*
X52588000Y-14157144D02*
X52588000Y-11242856D01*
G75*
G02*
X52855856Y-10975000I267856J0D01*
G01*
X53820144Y-10975000D01*
G75*
G02*
X54088000Y-11242856I0J-267856D01*
G01*
X54088000Y-14157144D01*
G75*
G02*
X53820144Y-14425000I-267856J0D01*
G01*
X52855856Y-14425000D01*
G75*
G02*
X52588000Y-14157144I0J267856D01*
G01*
G37*
%TD*%
%TO.C,C9*%
G36*
G01*
X18376000Y-57066262D02*
X18376000Y-55709738D01*
G75*
G02*
X18647738Y-55438000I271738J0D01*
G01*
X19354262Y-55438000D01*
G75*
G02*
X19626000Y-55709738I0J-271738D01*
G01*
X19626000Y-57066262D01*
G75*
G02*
X19354262Y-57338000I-271738J0D01*
G01*
X18647738Y-57338000D01*
G75*
G02*
X18376000Y-57066262I0J271738D01*
G01*
G37*
G36*
G01*
X15426000Y-57066262D02*
X15426000Y-55709738D01*
G75*
G02*
X15697738Y-55438000I271738J0D01*
G01*
X16404262Y-55438000D01*
G75*
G02*
X16676000Y-55709738I0J-271738D01*
G01*
X16676000Y-57066262D01*
G75*
G02*
X16404262Y-57338000I-271738J0D01*
G01*
X15697738Y-57338000D01*
G75*
G02*
X15426000Y-57066262I0J271738D01*
G01*
G37*
%TD*%
D10*
%TO.C,PS1*%
X46400000Y-24200000D03*
X17000000Y-19000000D03*
G36*
G01*
X15800000Y-15000000D02*
X15800000Y-13000000D01*
G75*
G02*
X15850000Y-12950000I50000J0D01*
G01*
X18150000Y-12950000D01*
G75*
G02*
X18200000Y-13000000I0J-50000D01*
G01*
X18200000Y-15000000D01*
G75*
G02*
X18150000Y-15050000I-50000J0D01*
G01*
X15850000Y-15050000D01*
G75*
G02*
X15800000Y-15000000I0J50000D01*
G01*
G37*
X46400000Y-8800000D03*
%TD*%
%TO.C,SW2*%
G36*
G01*
X71960000Y-57220000D02*
X71960000Y-59620000D01*
G75*
G02*
X71910000Y-59670000I-50000J0D01*
G01*
X69810000Y-59670000D01*
G75*
G02*
X69760000Y-59620000I0J50000D01*
G01*
X69760000Y-57220000D01*
G75*
G02*
X69810000Y-57170000I50000J0D01*
G01*
X71910000Y-57170000D01*
G75*
G02*
X71960000Y-57220000I0J-50000D01*
G01*
G37*
G36*
G01*
X71960000Y-49420000D02*
X71960000Y-51820000D01*
G75*
G02*
X71910000Y-51870000I-50000J0D01*
G01*
X69810000Y-51870000D01*
G75*
G02*
X69760000Y-51820000I0J50000D01*
G01*
X69760000Y-49420000D01*
G75*
G02*
X69810000Y-49370000I50000J0D01*
G01*
X71910000Y-49370000D01*
G75*
G02*
X71960000Y-49420000I0J-50000D01*
G01*
G37*
%TD*%
%TO.C,SW1*%
G36*
G01*
X67140000Y-57220000D02*
X67140000Y-59620000D01*
G75*
G02*
X67090000Y-59670000I-50000J0D01*
G01*
X64990000Y-59670000D01*
G75*
G02*
X64940000Y-59620000I0J50000D01*
G01*
X64940000Y-57220000D01*
G75*
G02*
X64990000Y-57170000I50000J0D01*
G01*
X67090000Y-57170000D01*
G75*
G02*
X67140000Y-57220000I0J-50000D01*
G01*
G37*
G36*
G01*
X67140000Y-49420000D02*
X67140000Y-51820000D01*
G75*
G02*
X67090000Y-51870000I-50000J0D01*
G01*
X64990000Y-51870000D01*
G75*
G02*
X64940000Y-51820000I0J50000D01*
G01*
X64940000Y-49420000D01*
G75*
G02*
X64990000Y-49370000I50000J0D01*
G01*
X67090000Y-49370000D01*
G75*
G02*
X67140000Y-49420000I0J-50000D01*
G01*
G37*
%TD*%
%TO.C,D2*%
G36*
G01*
X50775000Y-39342543D02*
X50775000Y-40657457D01*
G75*
G02*
X50507457Y-40925000I-267543J0D01*
G01*
X49517543Y-40925000D01*
G75*
G02*
X49250000Y-40657457I0J267543D01*
G01*
X49250000Y-39342543D01*
G75*
G02*
X49517543Y-39075000I267543J0D01*
G01*
X50507457Y-39075000D01*
G75*
G02*
X50775000Y-39342543I0J-267543D01*
G01*
G37*
G36*
G01*
X53750000Y-39342543D02*
X53750000Y-40657457D01*
G75*
G02*
X53482457Y-40925000I-267543J0D01*
G01*
X52492543Y-40925000D01*
G75*
G02*
X52225000Y-40657457I0J267543D01*
G01*
X52225000Y-39342543D01*
G75*
G02*
X52492543Y-39075000I267543J0D01*
G01*
X53482457Y-39075000D01*
G75*
G02*
X53750000Y-39342543I0J-267543D01*
G01*
G37*
%TD*%
%TO.C,D1*%
G36*
G01*
X58775000Y-39342543D02*
X58775000Y-40657457D01*
G75*
G02*
X58507457Y-40925000I-267543J0D01*
G01*
X57517543Y-40925000D01*
G75*
G02*
X57250000Y-40657457I0J267543D01*
G01*
X57250000Y-39342543D01*
G75*
G02*
X57517543Y-39075000I267543J0D01*
G01*
X58507457Y-39075000D01*
G75*
G02*
X58775000Y-39342543I0J-267543D01*
G01*
G37*
G36*
G01*
X61750000Y-39342543D02*
X61750000Y-40657457D01*
G75*
G02*
X61482457Y-40925000I-267543J0D01*
G01*
X60492543Y-40925000D01*
G75*
G02*
X60225000Y-40657457I0J267543D01*
G01*
X60225000Y-39342543D01*
G75*
G02*
X60492543Y-39075000I267543J0D01*
G01*
X61482457Y-39075000D01*
G75*
G02*
X61750000Y-39342543I0J-267543D01*
G01*
G37*
%TD*%
D11*
%TO.C,J4*%
X66000000Y-12840000D03*
X66000000Y-17920000D03*
X65900000Y-23100000D03*
%TD*%
%TO.C,J3*%
X9000000Y-23160000D03*
X9000000Y-18080000D03*
X9100000Y-12900000D03*
%TD*%
D12*
%TO.C,M4*%
X70000000Y-70000000D03*
%TD*%
%TO.C,M3*%
X70000000Y-5000000D03*
%TD*%
%TO.C,M2*%
X5000000Y-70000000D03*
%TD*%
%TO.C,M1*%
X5000000Y-5000000D03*
%TD*%
%TO.C,R1*%
G36*
G01*
X18120000Y-43152779D02*
X18120000Y-41847221D01*
G75*
G02*
X18392221Y-41575000I272221J0D01*
G01*
X19072779Y-41575000D01*
G75*
G02*
X19345000Y-41847221I0J-272221D01*
G01*
X19345000Y-43152779D01*
G75*
G02*
X19072779Y-43425000I-272221J0D01*
G01*
X18392221Y-43425000D01*
G75*
G02*
X18120000Y-43152779I0J272221D01*
G01*
G37*
G36*
G01*
X15195000Y-43152779D02*
X15195000Y-41847221D01*
G75*
G02*
X15467221Y-41575000I272221J0D01*
G01*
X16147779Y-41575000D01*
G75*
G02*
X16420000Y-41847221I0J-272221D01*
G01*
X16420000Y-43152779D01*
G75*
G02*
X16147779Y-43425000I-272221J0D01*
G01*
X15467221Y-43425000D01*
G75*
G02*
X15195000Y-43152779I0J272221D01*
G01*
G37*
%TD*%
%TO.C,Q2*%
G36*
G01*
X27170000Y-40650000D02*
X21370000Y-40650000D01*
G75*
G02*
X21320000Y-40600000I0J50000D01*
G01*
X21320000Y-34200000D01*
G75*
G02*
X21370000Y-34150000I50000J0D01*
G01*
X27170000Y-34150000D01*
G75*
G02*
X27220000Y-34200000I0J-50000D01*
G01*
X27220000Y-40600000D01*
G75*
G02*
X27170000Y-40650000I-50000J0D01*
G01*
G37*
G36*
G01*
X27150000Y-44850000D02*
X25950000Y-44850000D01*
G75*
G02*
X25900000Y-44800000I0J50000D01*
G01*
X25900000Y-42600000D01*
G75*
G02*
X25950000Y-42550000I50000J0D01*
G01*
X27150000Y-42550000D01*
G75*
G02*
X27200000Y-42600000I0J-50000D01*
G01*
X27200000Y-44800000D01*
G75*
G02*
X27150000Y-44850000I-50000J0D01*
G01*
G37*
G36*
G01*
X24870000Y-44850000D02*
X23670000Y-44850000D01*
G75*
G02*
X23620000Y-44800000I0J50000D01*
G01*
X23620000Y-42600000D01*
G75*
G02*
X23670000Y-42550000I50000J0D01*
G01*
X24870000Y-42550000D01*
G75*
G02*
X24920000Y-42600000I0J-50000D01*
G01*
X24920000Y-44800000D01*
G75*
G02*
X24870000Y-44850000I-50000J0D01*
G01*
G37*
G36*
G01*
X22590000Y-44850000D02*
X21390000Y-44850000D01*
G75*
G02*
X21340000Y-44800000I0J50000D01*
G01*
X21340000Y-42600000D01*
G75*
G02*
X21390000Y-42550000I50000J0D01*
G01*
X22590000Y-42550000D01*
G75*
G02*
X22640000Y-42600000I0J-50000D01*
G01*
X22640000Y-44800000D01*
G75*
G02*
X22590000Y-44850000I-50000J0D01*
G01*
G37*
%TD*%
%TO.C,Q1*%
G36*
G01*
X16770000Y-36100000D02*
X16770000Y-36900000D01*
G75*
G02*
X16720000Y-36950000I-50000J0D01*
G01*
X15820000Y-36950000D01*
G75*
G02*
X15770000Y-36900000I0J50000D01*
G01*
X15770000Y-36100000D01*
G75*
G02*
X15820000Y-36050000I50000J0D01*
G01*
X16720000Y-36050000D01*
G75*
G02*
X16770000Y-36100000I0J-50000D01*
G01*
G37*
G36*
G01*
X18770000Y-35150000D02*
X18770000Y-35950000D01*
G75*
G02*
X18720000Y-36000000I-50000J0D01*
G01*
X17820000Y-36000000D01*
G75*
G02*
X17770000Y-35950000I0J50000D01*
G01*
X17770000Y-35150000D01*
G75*
G02*
X17820000Y-35100000I50000J0D01*
G01*
X18720000Y-35100000D01*
G75*
G02*
X18770000Y-35150000I0J-50000D01*
G01*
G37*
G36*
G01*
X18770000Y-37050000D02*
X18770000Y-37850000D01*
G75*
G02*
X18720000Y-37900000I-50000J0D01*
G01*
X17820000Y-37900000D01*
G75*
G02*
X17770000Y-37850000I0J50000D01*
G01*
X17770000Y-37050000D01*
G75*
G02*
X17820000Y-37000000I50000J0D01*
G01*
X18720000Y-37000000D01*
G75*
G02*
X18770000Y-37050000I0J-50000D01*
G01*
G37*
%TD*%
%TO.C,J1*%
G36*
G01*
X9800000Y-42850000D02*
X7200000Y-42850000D01*
G75*
G02*
X7150000Y-42800000I0J50000D01*
G01*
X7150000Y-40200000D01*
G75*
G02*
X7200000Y-40150000I50000J0D01*
G01*
X9800000Y-40150000D01*
G75*
G02*
X9850000Y-40200000I0J-50000D01*
G01*
X9850000Y-42800000D01*
G75*
G02*
X9800000Y-42850000I-50000J0D01*
G01*
G37*
D13*
X8500000Y-36500000D03*
%TD*%
%TO.C,J6*%
G36*
G01*
X9800000Y-55850000D02*
X7200000Y-55850000D01*
G75*
G02*
X7150000Y-55800000I0J50000D01*
G01*
X7150000Y-53200000D01*
G75*
G02*
X7200000Y-53150000I50000J0D01*
G01*
X9800000Y-53150000D01*
G75*
G02*
X9850000Y-53200000I0J-50000D01*
G01*
X9850000Y-55800000D01*
G75*
G02*
X9800000Y-55850000I-50000J0D01*
G01*
G37*
X8500000Y-49500000D03*
%TD*%
%TO.C,R8*%
G36*
G01*
X50650000Y-36847221D02*
X50650000Y-38152779D01*
G75*
G02*
X50377779Y-38425000I-272221J0D01*
G01*
X49697221Y-38425000D01*
G75*
G02*
X49425000Y-38152779I0J272221D01*
G01*
X49425000Y-36847221D01*
G75*
G02*
X49697221Y-36575000I272221J0D01*
G01*
X50377779Y-36575000D01*
G75*
G02*
X50650000Y-36847221I0J-272221D01*
G01*
G37*
G36*
G01*
X53575000Y-36847221D02*
X53575000Y-38152779D01*
G75*
G02*
X53302779Y-38425000I-272221J0D01*
G01*
X52622221Y-38425000D01*
G75*
G02*
X52350000Y-38152779I0J272221D01*
G01*
X52350000Y-36847221D01*
G75*
G02*
X52622221Y-36575000I272221J0D01*
G01*
X53302779Y-36575000D01*
G75*
G02*
X53575000Y-36847221I0J-272221D01*
G01*
G37*
%TD*%
%TO.C,R7*%
G36*
G01*
X25650000Y-49847221D02*
X25650000Y-51152779D01*
G75*
G02*
X25377779Y-51425000I-272221J0D01*
G01*
X24697221Y-51425000D01*
G75*
G02*
X24425000Y-51152779I0J272221D01*
G01*
X24425000Y-49847221D01*
G75*
G02*
X24697221Y-49575000I272221J0D01*
G01*
X25377779Y-49575000D01*
G75*
G02*
X25650000Y-49847221I0J-272221D01*
G01*
G37*
G36*
G01*
X28575000Y-49847221D02*
X28575000Y-51152779D01*
G75*
G02*
X28302779Y-51425000I-272221J0D01*
G01*
X27622221Y-51425000D01*
G75*
G02*
X27350000Y-51152779I0J272221D01*
G01*
X27350000Y-49847221D01*
G75*
G02*
X27622221Y-49575000I272221J0D01*
G01*
X28302779Y-49575000D01*
G75*
G02*
X28575000Y-49847221I0J-272221D01*
G01*
G37*
%TD*%
%TO.C,R6*%
G36*
G01*
X58650000Y-36847221D02*
X58650000Y-38152779D01*
G75*
G02*
X58377779Y-38425000I-272221J0D01*
G01*
X57697221Y-38425000D01*
G75*
G02*
X57425000Y-38152779I0J272221D01*
G01*
X57425000Y-36847221D01*
G75*
G02*
X57697221Y-36575000I272221J0D01*
G01*
X58377779Y-36575000D01*
G75*
G02*
X58650000Y-36847221I0J-272221D01*
G01*
G37*
G36*
G01*
X61575000Y-36847221D02*
X61575000Y-38152779D01*
G75*
G02*
X61302779Y-38425000I-272221J0D01*
G01*
X60622221Y-38425000D01*
G75*
G02*
X60350000Y-38152779I0J272221D01*
G01*
X60350000Y-36847221D01*
G75*
G02*
X60622221Y-36575000I272221J0D01*
G01*
X61302779Y-36575000D01*
G75*
G02*
X61575000Y-36847221I0J-272221D01*
G01*
G37*
%TD*%
%TO.C,R5*%
G36*
G01*
X59810000Y-56652779D02*
X59810000Y-55347221D01*
G75*
G02*
X60082221Y-55075000I272221J0D01*
G01*
X60762779Y-55075000D01*
G75*
G02*
X61035000Y-55347221I0J-272221D01*
G01*
X61035000Y-56652779D01*
G75*
G02*
X60762779Y-56925000I-272221J0D01*
G01*
X60082221Y-56925000D01*
G75*
G02*
X59810000Y-56652779I0J272221D01*
G01*
G37*
G36*
G01*
X56885000Y-56652779D02*
X56885000Y-55347221D01*
G75*
G02*
X57157221Y-55075000I272221J0D01*
G01*
X57837779Y-55075000D01*
G75*
G02*
X58110000Y-55347221I0J-272221D01*
G01*
X58110000Y-56652779D01*
G75*
G02*
X57837779Y-56925000I-272221J0D01*
G01*
X57157221Y-56925000D01*
G75*
G02*
X56885000Y-56652779I0J272221D01*
G01*
G37*
%TD*%
%TO.C,R4*%
G36*
G01*
X59810000Y-51652779D02*
X59810000Y-50347221D01*
G75*
G02*
X60082221Y-50075000I272221J0D01*
G01*
X60762779Y-50075000D01*
G75*
G02*
X61035000Y-50347221I0J-272221D01*
G01*
X61035000Y-51652779D01*
G75*
G02*
X60762779Y-51925000I-272221J0D01*
G01*
X60082221Y-51925000D01*
G75*
G02*
X59810000Y-51652779I0J272221D01*
G01*
G37*
G36*
G01*
X56885000Y-51652779D02*
X56885000Y-50347221D01*
G75*
G02*
X57157221Y-50075000I272221J0D01*
G01*
X57837779Y-50075000D01*
G75*
G02*
X58110000Y-50347221I0J-272221D01*
G01*
X58110000Y-51652779D01*
G75*
G02*
X57837779Y-51925000I-272221J0D01*
G01*
X57157221Y-51925000D01*
G75*
G02*
X56885000Y-51652779I0J272221D01*
G01*
G37*
%TD*%
%TO.C,R3*%
G36*
G01*
X62339221Y-31584000D02*
X63644779Y-31584000D01*
G75*
G02*
X63917000Y-31856221I0J-272221D01*
G01*
X63917000Y-32536779D01*
G75*
G02*
X63644779Y-32809000I-272221J0D01*
G01*
X62339221Y-32809000D01*
G75*
G02*
X62067000Y-32536779I0J272221D01*
G01*
X62067000Y-31856221D01*
G75*
G02*
X62339221Y-31584000I272221J0D01*
G01*
G37*
G36*
G01*
X62339221Y-28659000D02*
X63644779Y-28659000D01*
G75*
G02*
X63917000Y-28931221I0J-272221D01*
G01*
X63917000Y-29611779D01*
G75*
G02*
X63644779Y-29884000I-272221J0D01*
G01*
X62339221Y-29884000D01*
G75*
G02*
X62067000Y-29611779I0J272221D01*
G01*
X62067000Y-28931221D01*
G75*
G02*
X62339221Y-28659000I272221J0D01*
G01*
G37*
%TD*%
%TO.C,R2*%
G36*
G01*
X66184779Y-29884000D02*
X64879221Y-29884000D01*
G75*
G02*
X64607000Y-29611779I0J272221D01*
G01*
X64607000Y-28931221D01*
G75*
G02*
X64879221Y-28659000I272221J0D01*
G01*
X66184779Y-28659000D01*
G75*
G02*
X66457000Y-28931221I0J-272221D01*
G01*
X66457000Y-29611779D01*
G75*
G02*
X66184779Y-29884000I-272221J0D01*
G01*
G37*
G36*
G01*
X66184779Y-32809000D02*
X64879221Y-32809000D01*
G75*
G02*
X64607000Y-32536779I0J272221D01*
G01*
X64607000Y-31856221D01*
G75*
G02*
X64879221Y-31584000I272221J0D01*
G01*
X66184779Y-31584000D01*
G75*
G02*
X66457000Y-31856221I0J-272221D01*
G01*
X66457000Y-32536779D01*
G75*
G02*
X66184779Y-32809000I-272221J0D01*
G01*
G37*
%TD*%
%TO.C,C8*%
G36*
G01*
X59810000Y-54178262D02*
X59810000Y-52821738D01*
G75*
G02*
X60081738Y-52550000I271738J0D01*
G01*
X60788262Y-52550000D01*
G75*
G02*
X61060000Y-52821738I0J-271738D01*
G01*
X61060000Y-54178262D01*
G75*
G02*
X60788262Y-54450000I-271738J0D01*
G01*
X60081738Y-54450000D01*
G75*
G02*
X59810000Y-54178262I0J271738D01*
G01*
G37*
G36*
G01*
X56860000Y-54178262D02*
X56860000Y-52821738D01*
G75*
G02*
X57131738Y-52550000I271738J0D01*
G01*
X57838262Y-52550000D01*
G75*
G02*
X58110000Y-52821738I0J-271738D01*
G01*
X58110000Y-54178262D01*
G75*
G02*
X57838262Y-54450000I-271738J0D01*
G01*
X57131738Y-54450000D01*
G75*
G02*
X56860000Y-54178262I0J271738D01*
G01*
G37*
%TD*%
%TO.C,C7*%
G36*
G01*
X59810000Y-59178262D02*
X59810000Y-57821738D01*
G75*
G02*
X60081738Y-57550000I271738J0D01*
G01*
X60788262Y-57550000D01*
G75*
G02*
X61060000Y-57821738I0J-271738D01*
G01*
X61060000Y-59178262D01*
G75*
G02*
X60788262Y-59450000I-271738J0D01*
G01*
X60081738Y-59450000D01*
G75*
G02*
X59810000Y-59178262I0J271738D01*
G01*
G37*
G36*
G01*
X56860000Y-59178262D02*
X56860000Y-57821738D01*
G75*
G02*
X57131738Y-57550000I271738J0D01*
G01*
X57838262Y-57550000D01*
G75*
G02*
X58110000Y-57821738I0J-271738D01*
G01*
X58110000Y-59178262D01*
G75*
G02*
X57838262Y-59450000I-271738J0D01*
G01*
X57131738Y-59450000D01*
G75*
G02*
X56860000Y-59178262I0J271738D01*
G01*
G37*
%TD*%
%TO.C,C6*%
G36*
G01*
X52236000Y-32595738D02*
X52236000Y-33952262D01*
G75*
G02*
X51964262Y-34224000I-271738J0D01*
G01*
X51257738Y-34224000D01*
G75*
G02*
X50986000Y-33952262I0J271738D01*
G01*
X50986000Y-32595738D01*
G75*
G02*
X51257738Y-32324000I271738J0D01*
G01*
X51964262Y-32324000D01*
G75*
G02*
X52236000Y-32595738I0J-271738D01*
G01*
G37*
G36*
G01*
X55186000Y-32595738D02*
X55186000Y-33952262D01*
G75*
G02*
X54914262Y-34224000I-271738J0D01*
G01*
X54207738Y-34224000D01*
G75*
G02*
X53936000Y-33952262I0J271738D01*
G01*
X53936000Y-32595738D01*
G75*
G02*
X54207738Y-32324000I271738J0D01*
G01*
X54914262Y-32324000D01*
G75*
G02*
X55186000Y-32595738I0J-271738D01*
G01*
G37*
%TD*%
%TO.C,C5*%
G36*
G01*
X61130262Y-29884000D02*
X59773738Y-29884000D01*
G75*
G02*
X59502000Y-29612262I0J271738D01*
G01*
X59502000Y-28905738D01*
G75*
G02*
X59773738Y-28634000I271738J0D01*
G01*
X61130262Y-28634000D01*
G75*
G02*
X61402000Y-28905738I0J-271738D01*
G01*
X61402000Y-29612262D01*
G75*
G02*
X61130262Y-29884000I-271738J0D01*
G01*
G37*
G36*
G01*
X61130262Y-32834000D02*
X59773738Y-32834000D01*
G75*
G02*
X59502000Y-32562262I0J271738D01*
G01*
X59502000Y-31855738D01*
G75*
G02*
X59773738Y-31584000I271738J0D01*
G01*
X61130262Y-31584000D01*
G75*
G02*
X61402000Y-31855738I0J-271738D01*
G01*
X61402000Y-32562262D01*
G75*
G02*
X61130262Y-32834000I-271738J0D01*
G01*
G37*
%TD*%
%TO.C,C4*%
G36*
G01*
X52678262Y-64650000D02*
X51321738Y-64650000D01*
G75*
G02*
X51050000Y-64378262I0J271738D01*
G01*
X51050000Y-63671738D01*
G75*
G02*
X51321738Y-63400000I271738J0D01*
G01*
X52678262Y-63400000D01*
G75*
G02*
X52950000Y-63671738I0J-271738D01*
G01*
X52950000Y-64378262D01*
G75*
G02*
X52678262Y-64650000I-271738J0D01*
G01*
G37*
G36*
G01*
X52678262Y-67600000D02*
X51321738Y-67600000D01*
G75*
G02*
X51050000Y-67328262I0J271738D01*
G01*
X51050000Y-66621738D01*
G75*
G02*
X51321738Y-66350000I271738J0D01*
G01*
X52678262Y-66350000D01*
G75*
G02*
X52950000Y-66621738I0J-271738D01*
G01*
X52950000Y-67328262D01*
G75*
G02*
X52678262Y-67600000I-271738J0D01*
G01*
G37*
%TD*%
%TO.C,C3*%
G36*
G01*
X54321738Y-66375000D02*
X55678262Y-66375000D01*
G75*
G02*
X55950000Y-66646738I0J-271738D01*
G01*
X55950000Y-67353262D01*
G75*
G02*
X55678262Y-67625000I-271738J0D01*
G01*
X54321738Y-67625000D01*
G75*
G02*
X54050000Y-67353262I0J271738D01*
G01*
X54050000Y-66646738D01*
G75*
G02*
X54321738Y-66375000I271738J0D01*
G01*
G37*
G36*
G01*
X54321738Y-63425000D02*
X55678262Y-63425000D01*
G75*
G02*
X55950000Y-63696738I0J-271738D01*
G01*
X55950000Y-64403262D01*
G75*
G02*
X55678262Y-64675000I-271738J0D01*
G01*
X54321738Y-64675000D01*
G75*
G02*
X54050000Y-64403262I0J271738D01*
G01*
X54050000Y-63696738D01*
G75*
G02*
X54321738Y-63425000I271738J0D01*
G01*
G37*
%TD*%
%TO.C,U4*%
G36*
G01*
X18925000Y-50270000D02*
X18925000Y-49920000D01*
G75*
G02*
X19100000Y-49745000I175000J0D01*
G01*
X20800000Y-49745000D01*
G75*
G02*
X20975000Y-49920000I0J-175000D01*
G01*
X20975000Y-50270000D01*
G75*
G02*
X20800000Y-50445000I-175000J0D01*
G01*
X19100000Y-50445000D01*
G75*
G02*
X18925000Y-50270000I0J175000D01*
G01*
G37*
G36*
G01*
X18925000Y-51540000D02*
X18925000Y-51190000D01*
G75*
G02*
X19100000Y-51015000I175000J0D01*
G01*
X20800000Y-51015000D01*
G75*
G02*
X20975000Y-51190000I0J-175000D01*
G01*
X20975000Y-51540000D01*
G75*
G02*
X20800000Y-51715000I-175000J0D01*
G01*
X19100000Y-51715000D01*
G75*
G02*
X18925000Y-51540000I0J175000D01*
G01*
G37*
G36*
G01*
X18925000Y-52810000D02*
X18925000Y-52460000D01*
G75*
G02*
X19100000Y-52285000I175000J0D01*
G01*
X20800000Y-52285000D01*
G75*
G02*
X20975000Y-52460000I0J-175000D01*
G01*
X20975000Y-52810000D01*
G75*
G02*
X20800000Y-52985000I-175000J0D01*
G01*
X19100000Y-52985000D01*
G75*
G02*
X18925000Y-52810000I0J175000D01*
G01*
G37*
G36*
G01*
X18925000Y-54080000D02*
X18925000Y-53730000D01*
G75*
G02*
X19100000Y-53555000I175000J0D01*
G01*
X20800000Y-53555000D01*
G75*
G02*
X20975000Y-53730000I0J-175000D01*
G01*
X20975000Y-54080000D01*
G75*
G02*
X20800000Y-54255000I-175000J0D01*
G01*
X19100000Y-54255000D01*
G75*
G02*
X18925000Y-54080000I0J175000D01*
G01*
G37*
G36*
G01*
X13975000Y-54080000D02*
X13975000Y-53730000D01*
G75*
G02*
X14150000Y-53555000I175000J0D01*
G01*
X15850000Y-53555000D01*
G75*
G02*
X16025000Y-53730000I0J-175000D01*
G01*
X16025000Y-54080000D01*
G75*
G02*
X15850000Y-54255000I-175000J0D01*
G01*
X14150000Y-54255000D01*
G75*
G02*
X13975000Y-54080000I0J175000D01*
G01*
G37*
G36*
G01*
X13975000Y-52810000D02*
X13975000Y-52460000D01*
G75*
G02*
X14150000Y-52285000I175000J0D01*
G01*
X15850000Y-52285000D01*
G75*
G02*
X16025000Y-52460000I0J-175000D01*
G01*
X16025000Y-52810000D01*
G75*
G02*
X15850000Y-52985000I-175000J0D01*
G01*
X14150000Y-52985000D01*
G75*
G02*
X13975000Y-52810000I0J175000D01*
G01*
G37*
G36*
G01*
X13975000Y-51540000D02*
X13975000Y-51190000D01*
G75*
G02*
X14150000Y-51015000I175000J0D01*
G01*
X15850000Y-51015000D01*
G75*
G02*
X16025000Y-51190000I0J-175000D01*
G01*
X16025000Y-51540000D01*
G75*
G02*
X15850000Y-51715000I-175000J0D01*
G01*
X14150000Y-51715000D01*
G75*
G02*
X13975000Y-51540000I0J175000D01*
G01*
G37*
G36*
G01*
X13975000Y-50270000D02*
X13975000Y-49920000D01*
G75*
G02*
X14150000Y-49745000I175000J0D01*
G01*
X15850000Y-49745000D01*
G75*
G02*
X16025000Y-49920000I0J-175000D01*
G01*
X16025000Y-50270000D01*
G75*
G02*
X15850000Y-50445000I-175000J0D01*
G01*
X14150000Y-50445000D01*
G75*
G02*
X13975000Y-50270000I0J175000D01*
G01*
G37*
%TD*%
%TO.C,U3*%
G36*
G01*
X32550000Y-66805000D02*
X32550000Y-67705000D01*
G75*
G02*
X32500000Y-67755000I-50000J0D01*
G01*
X30500000Y-67755000D01*
G75*
G02*
X30450000Y-67705000I0J50000D01*
G01*
X30450000Y-66805000D01*
G75*
G02*
X30500000Y-66755000I50000J0D01*
G01*
X32500000Y-66755000D01*
G75*
G02*
X32550000Y-66805000I0J-50000D01*
G01*
G37*
G36*
G01*
X32550000Y-65535000D02*
X32550000Y-66435000D01*
G75*
G02*
X32500000Y-66485000I-50000J0D01*
G01*
X30500000Y-66485000D01*
G75*
G02*
X30450000Y-66435000I0J50000D01*
G01*
X30450000Y-65535000D01*
G75*
G02*
X30500000Y-65485000I50000J0D01*
G01*
X32500000Y-65485000D01*
G75*
G02*
X32550000Y-65535000I0J-50000D01*
G01*
G37*
G36*
G01*
X32550000Y-64265000D02*
X32550000Y-65165000D01*
G75*
G02*
X32500000Y-65215000I-50000J0D01*
G01*
X30500000Y-65215000D01*
G75*
G02*
X30450000Y-65165000I0J50000D01*
G01*
X30450000Y-64265000D01*
G75*
G02*
X30500000Y-64215000I50000J0D01*
G01*
X32500000Y-64215000D01*
G75*
G02*
X32550000Y-64265000I0J-50000D01*
G01*
G37*
G36*
G01*
X32550000Y-62995000D02*
X32550000Y-63895000D01*
G75*
G02*
X32500000Y-63945000I-50000J0D01*
G01*
X30500000Y-63945000D01*
G75*
G02*
X30450000Y-63895000I0J50000D01*
G01*
X30450000Y-62995000D01*
G75*
G02*
X30500000Y-62945000I50000J0D01*
G01*
X32500000Y-62945000D01*
G75*
G02*
X32550000Y-62995000I0J-50000D01*
G01*
G37*
G36*
G01*
X32550000Y-61725000D02*
X32550000Y-62625000D01*
G75*
G02*
X32500000Y-62675000I-50000J0D01*
G01*
X30500000Y-62675000D01*
G75*
G02*
X30450000Y-62625000I0J50000D01*
G01*
X30450000Y-61725000D01*
G75*
G02*
X30500000Y-61675000I50000J0D01*
G01*
X32500000Y-61675000D01*
G75*
G02*
X32550000Y-61725000I0J-50000D01*
G01*
G37*
G36*
G01*
X32550000Y-60455000D02*
X32550000Y-61355000D01*
G75*
G02*
X32500000Y-61405000I-50000J0D01*
G01*
X30500000Y-61405000D01*
G75*
G02*
X30450000Y-61355000I0J50000D01*
G01*
X30450000Y-60455000D01*
G75*
G02*
X30500000Y-60405000I50000J0D01*
G01*
X32500000Y-60405000D01*
G75*
G02*
X32550000Y-60455000I0J-50000D01*
G01*
G37*
G36*
G01*
X32550000Y-59185000D02*
X32550000Y-60085000D01*
G75*
G02*
X32500000Y-60135000I-50000J0D01*
G01*
X30500000Y-60135000D01*
G75*
G02*
X30450000Y-60085000I0J50000D01*
G01*
X30450000Y-59185000D01*
G75*
G02*
X30500000Y-59135000I50000J0D01*
G01*
X32500000Y-59135000D01*
G75*
G02*
X32550000Y-59185000I0J-50000D01*
G01*
G37*
G36*
G01*
X32550000Y-57915000D02*
X32550000Y-58815000D01*
G75*
G02*
X32500000Y-58865000I-50000J0D01*
G01*
X30500000Y-58865000D01*
G75*
G02*
X30450000Y-58815000I0J50000D01*
G01*
X30450000Y-57915000D01*
G75*
G02*
X30500000Y-57865000I50000J0D01*
G01*
X32500000Y-57865000D01*
G75*
G02*
X32550000Y-57915000I0J-50000D01*
G01*
G37*
G36*
G01*
X32550000Y-56645000D02*
X32550000Y-57545000D01*
G75*
G02*
X32500000Y-57595000I-50000J0D01*
G01*
X30500000Y-57595000D01*
G75*
G02*
X30450000Y-57545000I0J50000D01*
G01*
X30450000Y-56645000D01*
G75*
G02*
X30500000Y-56595000I50000J0D01*
G01*
X32500000Y-56595000D01*
G75*
G02*
X32550000Y-56645000I0J-50000D01*
G01*
G37*
G36*
G01*
X32550000Y-55375000D02*
X32550000Y-56275000D01*
G75*
G02*
X32500000Y-56325000I-50000J0D01*
G01*
X30500000Y-56325000D01*
G75*
G02*
X30450000Y-56275000I0J50000D01*
G01*
X30450000Y-55375000D01*
G75*
G02*
X30500000Y-55325000I50000J0D01*
G01*
X32500000Y-55325000D01*
G75*
G02*
X32550000Y-55375000I0J-50000D01*
G01*
G37*
G36*
G01*
X32550000Y-54105000D02*
X32550000Y-55005000D01*
G75*
G02*
X32500000Y-55055000I-50000J0D01*
G01*
X30500000Y-55055000D01*
G75*
G02*
X30450000Y-55005000I0J50000D01*
G01*
X30450000Y-54105000D01*
G75*
G02*
X30500000Y-54055000I50000J0D01*
G01*
X32500000Y-54055000D01*
G75*
G02*
X32550000Y-54105000I0J-50000D01*
G01*
G37*
G36*
G01*
X32550000Y-52835000D02*
X32550000Y-53735000D01*
G75*
G02*
X32500000Y-53785000I-50000J0D01*
G01*
X30500000Y-53785000D01*
G75*
G02*
X30450000Y-53735000I0J50000D01*
G01*
X30450000Y-52835000D01*
G75*
G02*
X30500000Y-52785000I50000J0D01*
G01*
X32500000Y-52785000D01*
G75*
G02*
X32550000Y-52835000I0J-50000D01*
G01*
G37*
G36*
G01*
X32550000Y-51565000D02*
X32550000Y-52465000D01*
G75*
G02*
X32500000Y-52515000I-50000J0D01*
G01*
X30500000Y-52515000D01*
G75*
G02*
X30450000Y-52465000I0J50000D01*
G01*
X30450000Y-51565000D01*
G75*
G02*
X30500000Y-51515000I50000J0D01*
G01*
X32500000Y-51515000D01*
G75*
G02*
X32550000Y-51565000I0J-50000D01*
G01*
G37*
G36*
G01*
X32550000Y-50295000D02*
X32550000Y-51195000D01*
G75*
G02*
X32500000Y-51245000I-50000J0D01*
G01*
X30500000Y-51245000D01*
G75*
G02*
X30450000Y-51195000I0J50000D01*
G01*
X30450000Y-50295000D01*
G75*
G02*
X30500000Y-50245000I50000J0D01*
G01*
X32500000Y-50245000D01*
G75*
G02*
X32550000Y-50295000I0J-50000D01*
G01*
G37*
G36*
G01*
X33835000Y-48695000D02*
X34735000Y-48695000D01*
G75*
G02*
X34785000Y-48745000I0J-50000D01*
G01*
X34785000Y-50745000D01*
G75*
G02*
X34735000Y-50795000I-50000J0D01*
G01*
X33835000Y-50795000D01*
G75*
G02*
X33785000Y-50745000I0J50000D01*
G01*
X33785000Y-48745000D01*
G75*
G02*
X33835000Y-48695000I50000J0D01*
G01*
G37*
G36*
G01*
X35105000Y-48695000D02*
X36005000Y-48695000D01*
G75*
G02*
X36055000Y-48745000I0J-50000D01*
G01*
X36055000Y-50745000D01*
G75*
G02*
X36005000Y-50795000I-50000J0D01*
G01*
X35105000Y-50795000D01*
G75*
G02*
X35055000Y-50745000I0J50000D01*
G01*
X35055000Y-48745000D01*
G75*
G02*
X35105000Y-48695000I50000J0D01*
G01*
G37*
G36*
G01*
X36375000Y-48695000D02*
X37275000Y-48695000D01*
G75*
G02*
X37325000Y-48745000I0J-50000D01*
G01*
X37325000Y-50745000D01*
G75*
G02*
X37275000Y-50795000I-50000J0D01*
G01*
X36375000Y-50795000D01*
G75*
G02*
X36325000Y-50745000I0J50000D01*
G01*
X36325000Y-48745000D01*
G75*
G02*
X36375000Y-48695000I50000J0D01*
G01*
G37*
G36*
G01*
X37645000Y-48695000D02*
X38545000Y-48695000D01*
G75*
G02*
X38595000Y-48745000I0J-50000D01*
G01*
X38595000Y-50745000D01*
G75*
G02*
X38545000Y-50795000I-50000J0D01*
G01*
X37645000Y-50795000D01*
G75*
G02*
X37595000Y-50745000I0J50000D01*
G01*
X37595000Y-48745000D01*
G75*
G02*
X37645000Y-48695000I50000J0D01*
G01*
G37*
G36*
G01*
X38915000Y-48695000D02*
X39815000Y-48695000D01*
G75*
G02*
X39865000Y-48745000I0J-50000D01*
G01*
X39865000Y-50745000D01*
G75*
G02*
X39815000Y-50795000I-50000J0D01*
G01*
X38915000Y-50795000D01*
G75*
G02*
X38865000Y-50745000I0J50000D01*
G01*
X38865000Y-48745000D01*
G75*
G02*
X38915000Y-48695000I50000J0D01*
G01*
G37*
G36*
G01*
X40185000Y-48695000D02*
X41085000Y-48695000D01*
G75*
G02*
X41135000Y-48745000I0J-50000D01*
G01*
X41135000Y-50745000D01*
G75*
G02*
X41085000Y-50795000I-50000J0D01*
G01*
X40185000Y-50795000D01*
G75*
G02*
X40135000Y-50745000I0J50000D01*
G01*
X40135000Y-48745000D01*
G75*
G02*
X40185000Y-48695000I50000J0D01*
G01*
G37*
G36*
G01*
X41455000Y-48695000D02*
X42355000Y-48695000D01*
G75*
G02*
X42405000Y-48745000I0J-50000D01*
G01*
X42405000Y-50745000D01*
G75*
G02*
X42355000Y-50795000I-50000J0D01*
G01*
X41455000Y-50795000D01*
G75*
G02*
X41405000Y-50745000I0J50000D01*
G01*
X41405000Y-48745000D01*
G75*
G02*
X41455000Y-48695000I50000J0D01*
G01*
G37*
G36*
G01*
X42725000Y-48695000D02*
X43625000Y-48695000D01*
G75*
G02*
X43675000Y-48745000I0J-50000D01*
G01*
X43675000Y-50745000D01*
G75*
G02*
X43625000Y-50795000I-50000J0D01*
G01*
X42725000Y-50795000D01*
G75*
G02*
X42675000Y-50745000I0J50000D01*
G01*
X42675000Y-48745000D01*
G75*
G02*
X42725000Y-48695000I50000J0D01*
G01*
G37*
G36*
G01*
X43995000Y-48695000D02*
X44895000Y-48695000D01*
G75*
G02*
X44945000Y-48745000I0J-50000D01*
G01*
X44945000Y-50745000D01*
G75*
G02*
X44895000Y-50795000I-50000J0D01*
G01*
X43995000Y-50795000D01*
G75*
G02*
X43945000Y-50745000I0J50000D01*
G01*
X43945000Y-48745000D01*
G75*
G02*
X43995000Y-48695000I50000J0D01*
G01*
G37*
G36*
G01*
X45265000Y-48695000D02*
X46165000Y-48695000D01*
G75*
G02*
X46215000Y-48745000I0J-50000D01*
G01*
X46215000Y-50745000D01*
G75*
G02*
X46165000Y-50795000I-50000J0D01*
G01*
X45265000Y-50795000D01*
G75*
G02*
X45215000Y-50745000I0J50000D01*
G01*
X45215000Y-48745000D01*
G75*
G02*
X45265000Y-48695000I50000J0D01*
G01*
G37*
G36*
G01*
X49550000Y-50295000D02*
X49550000Y-51195000D01*
G75*
G02*
X49500000Y-51245000I-50000J0D01*
G01*
X47500000Y-51245000D01*
G75*
G02*
X47450000Y-51195000I0J50000D01*
G01*
X47450000Y-50295000D01*
G75*
G02*
X47500000Y-50245000I50000J0D01*
G01*
X49500000Y-50245000D01*
G75*
G02*
X49550000Y-50295000I0J-50000D01*
G01*
G37*
G36*
G01*
X49550000Y-51565000D02*
X49550000Y-52465000D01*
G75*
G02*
X49500000Y-52515000I-50000J0D01*
G01*
X47500000Y-52515000D01*
G75*
G02*
X47450000Y-52465000I0J50000D01*
G01*
X47450000Y-51565000D01*
G75*
G02*
X47500000Y-51515000I50000J0D01*
G01*
X49500000Y-51515000D01*
G75*
G02*
X49550000Y-51565000I0J-50000D01*
G01*
G37*
G36*
G01*
X49550000Y-52835000D02*
X49550000Y-53735000D01*
G75*
G02*
X49500000Y-53785000I-50000J0D01*
G01*
X47500000Y-53785000D01*
G75*
G02*
X47450000Y-53735000I0J50000D01*
G01*
X47450000Y-52835000D01*
G75*
G02*
X47500000Y-52785000I50000J0D01*
G01*
X49500000Y-52785000D01*
G75*
G02*
X49550000Y-52835000I0J-50000D01*
G01*
G37*
G36*
G01*
X49550000Y-54105000D02*
X49550000Y-55005000D01*
G75*
G02*
X49500000Y-55055000I-50000J0D01*
G01*
X47500000Y-55055000D01*
G75*
G02*
X47450000Y-55005000I0J50000D01*
G01*
X47450000Y-54105000D01*
G75*
G02*
X47500000Y-54055000I50000J0D01*
G01*
X49500000Y-54055000D01*
G75*
G02*
X49550000Y-54105000I0J-50000D01*
G01*
G37*
G36*
G01*
X49550000Y-55375000D02*
X49550000Y-56275000D01*
G75*
G02*
X49500000Y-56325000I-50000J0D01*
G01*
X47500000Y-56325000D01*
G75*
G02*
X47450000Y-56275000I0J50000D01*
G01*
X47450000Y-55375000D01*
G75*
G02*
X47500000Y-55325000I50000J0D01*
G01*
X49500000Y-55325000D01*
G75*
G02*
X49550000Y-55375000I0J-50000D01*
G01*
G37*
G36*
G01*
X49550000Y-56645000D02*
X49550000Y-57545000D01*
G75*
G02*
X49500000Y-57595000I-50000J0D01*
G01*
X47500000Y-57595000D01*
G75*
G02*
X47450000Y-57545000I0J50000D01*
G01*
X47450000Y-56645000D01*
G75*
G02*
X47500000Y-56595000I50000J0D01*
G01*
X49500000Y-56595000D01*
G75*
G02*
X49550000Y-56645000I0J-50000D01*
G01*
G37*
G36*
G01*
X49550000Y-57915000D02*
X49550000Y-58815000D01*
G75*
G02*
X49500000Y-58865000I-50000J0D01*
G01*
X47500000Y-58865000D01*
G75*
G02*
X47450000Y-58815000I0J50000D01*
G01*
X47450000Y-57915000D01*
G75*
G02*
X47500000Y-57865000I50000J0D01*
G01*
X49500000Y-57865000D01*
G75*
G02*
X49550000Y-57915000I0J-50000D01*
G01*
G37*
G36*
G01*
X49550000Y-59185000D02*
X49550000Y-60085000D01*
G75*
G02*
X49500000Y-60135000I-50000J0D01*
G01*
X47500000Y-60135000D01*
G75*
G02*
X47450000Y-60085000I0J50000D01*
G01*
X47450000Y-59185000D01*
G75*
G02*
X47500000Y-59135000I50000J0D01*
G01*
X49500000Y-59135000D01*
G75*
G02*
X49550000Y-59185000I0J-50000D01*
G01*
G37*
G36*
G01*
X49550000Y-60455000D02*
X49550000Y-61355000D01*
G75*
G02*
X49500000Y-61405000I-50000J0D01*
G01*
X47500000Y-61405000D01*
G75*
G02*
X47450000Y-61355000I0J50000D01*
G01*
X47450000Y-60455000D01*
G75*
G02*
X47500000Y-60405000I50000J0D01*
G01*
X49500000Y-60405000D01*
G75*
G02*
X49550000Y-60455000I0J-50000D01*
G01*
G37*
G36*
G01*
X49550000Y-61725000D02*
X49550000Y-62625000D01*
G75*
G02*
X49500000Y-62675000I-50000J0D01*
G01*
X47500000Y-62675000D01*
G75*
G02*
X47450000Y-62625000I0J50000D01*
G01*
X47450000Y-61725000D01*
G75*
G02*
X47500000Y-61675000I50000J0D01*
G01*
X49500000Y-61675000D01*
G75*
G02*
X49550000Y-61725000I0J-50000D01*
G01*
G37*
G36*
G01*
X49550000Y-62995000D02*
X49550000Y-63895000D01*
G75*
G02*
X49500000Y-63945000I-50000J0D01*
G01*
X47500000Y-63945000D01*
G75*
G02*
X47450000Y-63895000I0J50000D01*
G01*
X47450000Y-62995000D01*
G75*
G02*
X47500000Y-62945000I50000J0D01*
G01*
X49500000Y-62945000D01*
G75*
G02*
X49550000Y-62995000I0J-50000D01*
G01*
G37*
G36*
G01*
X49550000Y-64265000D02*
X49550000Y-65165000D01*
G75*
G02*
X49500000Y-65215000I-50000J0D01*
G01*
X47500000Y-65215000D01*
G75*
G02*
X47450000Y-65165000I0J50000D01*
G01*
X47450000Y-64265000D01*
G75*
G02*
X47500000Y-64215000I50000J0D01*
G01*
X49500000Y-64215000D01*
G75*
G02*
X49550000Y-64265000I0J-50000D01*
G01*
G37*
G36*
G01*
X49550000Y-65535000D02*
X49550000Y-66435000D01*
G75*
G02*
X49500000Y-66485000I-50000J0D01*
G01*
X47500000Y-66485000D01*
G75*
G02*
X47450000Y-66435000I0J50000D01*
G01*
X47450000Y-65535000D01*
G75*
G02*
X47500000Y-65485000I50000J0D01*
G01*
X49500000Y-65485000D01*
G75*
G02*
X49550000Y-65535000I0J-50000D01*
G01*
G37*
G36*
G01*
X49550000Y-66805000D02*
X49550000Y-67705000D01*
G75*
G02*
X49500000Y-67755000I-50000J0D01*
G01*
X47500000Y-67755000D01*
G75*
G02*
X47450000Y-67705000I0J50000D01*
G01*
X47450000Y-66805000D01*
G75*
G02*
X47500000Y-66755000I50000J0D01*
G01*
X49500000Y-66755000D01*
G75*
G02*
X49550000Y-66805000I0J-50000D01*
G01*
G37*
G36*
G01*
X43550000Y-57255000D02*
X43550000Y-62255000D01*
G75*
G02*
X43500000Y-62305000I-50000J0D01*
G01*
X38500000Y-62305000D01*
G75*
G02*
X38450000Y-62255000I0J50000D01*
G01*
X38450000Y-57255000D01*
G75*
G02*
X38500000Y-57205000I50000J0D01*
G01*
X43500000Y-57205000D01*
G75*
G02*
X43550000Y-57255000I0J-50000D01*
G01*
G37*
%TD*%
%TO.C,U2*%
G36*
G01*
X57356000Y-29390000D02*
X57706000Y-29390000D01*
G75*
G02*
X57881000Y-29565000I0J-175000D01*
G01*
X57881000Y-31265000D01*
G75*
G02*
X57706000Y-31440000I-175000J0D01*
G01*
X57356000Y-31440000D01*
G75*
G02*
X57181000Y-31265000I0J175000D01*
G01*
X57181000Y-29565000D01*
G75*
G02*
X57356000Y-29390000I175000J0D01*
G01*
G37*
G36*
G01*
X56086000Y-29390000D02*
X56436000Y-29390000D01*
G75*
G02*
X56611000Y-29565000I0J-175000D01*
G01*
X56611000Y-31265000D01*
G75*
G02*
X56436000Y-31440000I-175000J0D01*
G01*
X56086000Y-31440000D01*
G75*
G02*
X55911000Y-31265000I0J175000D01*
G01*
X55911000Y-29565000D01*
G75*
G02*
X56086000Y-29390000I175000J0D01*
G01*
G37*
G36*
G01*
X54816000Y-29390000D02*
X55166000Y-29390000D01*
G75*
G02*
X55341000Y-29565000I0J-175000D01*
G01*
X55341000Y-31265000D01*
G75*
G02*
X55166000Y-31440000I-175000J0D01*
G01*
X54816000Y-31440000D01*
G75*
G02*
X54641000Y-31265000I0J175000D01*
G01*
X54641000Y-29565000D01*
G75*
G02*
X54816000Y-29390000I175000J0D01*
G01*
G37*
G36*
G01*
X53546000Y-29390000D02*
X53896000Y-29390000D01*
G75*
G02*
X54071000Y-29565000I0J-175000D01*
G01*
X54071000Y-31265000D01*
G75*
G02*
X53896000Y-31440000I-175000J0D01*
G01*
X53546000Y-31440000D01*
G75*
G02*
X53371000Y-31265000I0J175000D01*
G01*
X53371000Y-29565000D01*
G75*
G02*
X53546000Y-29390000I175000J0D01*
G01*
G37*
G36*
G01*
X53546000Y-24440000D02*
X53896000Y-24440000D01*
G75*
G02*
X54071000Y-24615000I0J-175000D01*
G01*
X54071000Y-26315000D01*
G75*
G02*
X53896000Y-26490000I-175000J0D01*
G01*
X53546000Y-26490000D01*
G75*
G02*
X53371000Y-26315000I0J175000D01*
G01*
X53371000Y-24615000D01*
G75*
G02*
X53546000Y-24440000I175000J0D01*
G01*
G37*
G36*
G01*
X54816000Y-24440000D02*
X55166000Y-24440000D01*
G75*
G02*
X55341000Y-24615000I0J-175000D01*
G01*
X55341000Y-26315000D01*
G75*
G02*
X55166000Y-26490000I-175000J0D01*
G01*
X54816000Y-26490000D01*
G75*
G02*
X54641000Y-26315000I0J175000D01*
G01*
X54641000Y-24615000D01*
G75*
G02*
X54816000Y-24440000I175000J0D01*
G01*
G37*
G36*
G01*
X56086000Y-24440000D02*
X56436000Y-24440000D01*
G75*
G02*
X56611000Y-24615000I0J-175000D01*
G01*
X56611000Y-26315000D01*
G75*
G02*
X56436000Y-26490000I-175000J0D01*
G01*
X56086000Y-26490000D01*
G75*
G02*
X55911000Y-26315000I0J175000D01*
G01*
X55911000Y-24615000D01*
G75*
G02*
X56086000Y-24440000I175000J0D01*
G01*
G37*
G36*
G01*
X57356000Y-24440000D02*
X57706000Y-24440000D01*
G75*
G02*
X57881000Y-24615000I0J-175000D01*
G01*
X57881000Y-26315000D01*
G75*
G02*
X57706000Y-26490000I-175000J0D01*
G01*
X57356000Y-26490000D01*
G75*
G02*
X57181000Y-26315000I0J175000D01*
G01*
X57181000Y-24615000D01*
G75*
G02*
X57356000Y-24440000I175000J0D01*
G01*
G37*
%TD*%
%TO.C,U1*%
G36*
G01*
X37950000Y-42300000D02*
X36450000Y-42300000D01*
G75*
G02*
X36400000Y-42250000I0J50000D01*
G01*
X36400000Y-40250000D01*
G75*
G02*
X36450000Y-40200000I50000J0D01*
G01*
X37950000Y-40200000D01*
G75*
G02*
X38000000Y-40250000I0J-50000D01*
G01*
X38000000Y-42250000D01*
G75*
G02*
X37950000Y-42300000I-50000J0D01*
G01*
G37*
G36*
G01*
X42550000Y-42300000D02*
X41050000Y-42300000D01*
G75*
G02*
X41000000Y-42250000I0J50000D01*
G01*
X41000000Y-40250000D01*
G75*
G02*
X41050000Y-40200000I50000J0D01*
G01*
X42550000Y-40200000D01*
G75*
G02*
X42600000Y-40250000I0J-50000D01*
G01*
X42600000Y-42250000D01*
G75*
G02*
X42550000Y-42300000I-50000J0D01*
G01*
G37*
G36*
G01*
X40250000Y-42300000D02*
X38750000Y-42300000D01*
G75*
G02*
X38700000Y-42250000I0J50000D01*
G01*
X38700000Y-40250000D01*
G75*
G02*
X38750000Y-40200000I50000J0D01*
G01*
X40250000Y-40200000D01*
G75*
G02*
X40300000Y-40250000I0J-50000D01*
G01*
X40300000Y-42250000D01*
G75*
G02*
X40250000Y-42300000I-50000J0D01*
G01*
G37*
G36*
G01*
X41400000Y-36000000D02*
X37600000Y-36000000D01*
G75*
G02*
X37550000Y-35950000I0J50000D01*
G01*
X37550000Y-33950000D01*
G75*
G02*
X37600000Y-33900000I50000J0D01*
G01*
X41400000Y-33900000D01*
G75*
G02*
X41450000Y-33950000I0J-50000D01*
G01*
X41450000Y-35950000D01*
G75*
G02*
X41400000Y-36000000I-50000J0D01*
G01*
G37*
%TD*%
D14*
%TO.C,J2*%
X70540000Y-44620000D03*
X68000000Y-44620000D03*
X70540000Y-42080000D03*
X68000000Y-42080000D03*
X70540000Y-39540000D03*
X68000000Y-39540000D03*
X70540000Y-37000000D03*
G36*
G01*
X67100000Y-37850000D02*
X67100000Y-36150000D01*
G75*
G02*
X67150000Y-36100000I50000J0D01*
G01*
X68850000Y-36100000D01*
G75*
G02*
X68900000Y-36150000I0J-50000D01*
G01*
X68900000Y-37850000D01*
G75*
G02*
X68850000Y-37900000I-50000J0D01*
G01*
X67150000Y-37900000D01*
G75*
G02*
X67100000Y-37850000I0J50000D01*
G01*
G37*
%TD*%
%TO.C,C2*%
G36*
G01*
X32338866Y-38950000D02*
X33701134Y-38950000D01*
G75*
G02*
X33970000Y-39218866I0J-268866D01*
G01*
X33970000Y-40106134D01*
G75*
G02*
X33701134Y-40375000I-268866J0D01*
G01*
X32338866Y-40375000D01*
G75*
G02*
X32070000Y-40106134I0J268866D01*
G01*
X32070000Y-39218866D01*
G75*
G02*
X32338866Y-38950000I268866J0D01*
G01*
G37*
G36*
G01*
X32338866Y-35825000D02*
X33701134Y-35825000D01*
G75*
G02*
X33970000Y-36093866I0J-268866D01*
G01*
X33970000Y-36981134D01*
G75*
G02*
X33701134Y-37250000I-268866J0D01*
G01*
X32338866Y-37250000D01*
G75*
G02*
X32070000Y-36981134I0J268866D01*
G01*
X32070000Y-36093866D01*
G75*
G02*
X32338866Y-35825000I268866J0D01*
G01*
G37*
%TD*%
%TO.C,C1*%
G36*
G01*
X46401134Y-37250000D02*
X45038866Y-37250000D01*
G75*
G02*
X44770000Y-36981134I0J268866D01*
G01*
X44770000Y-36093866D01*
G75*
G02*
X45038866Y-35825000I268866J0D01*
G01*
X46401134Y-35825000D01*
G75*
G02*
X46670000Y-36093866I0J-268866D01*
G01*
X46670000Y-36981134D01*
G75*
G02*
X46401134Y-37250000I-268866J0D01*
G01*
G37*
G36*
G01*
X46401134Y-40375000D02*
X45038866Y-40375000D01*
G75*
G02*
X44770000Y-40106134I0J268866D01*
G01*
X44770000Y-39218866D01*
G75*
G02*
X45038866Y-38950000I268866J0D01*
G01*
X46401134Y-38950000D01*
G75*
G02*
X46670000Y-39218866I0J-268866D01*
G01*
X46670000Y-40106134D01*
G75*
G02*
X46401134Y-40375000I-268866J0D01*
G01*
G37*
%TD*%
M02*
