%TF.GenerationSoftware,KiCad,Pcbnew,(5.1.7)-1*%
%TF.CreationDate,2021-03-17T12:45:12+01:00*%
%TF.ProjectId,HotPlateController,486f7450-6c61-4746-9543-6f6e74726f6c,rev?*%
%TF.SameCoordinates,Original*%
%TF.FileFunction,Copper,L2,Bot*%
%TF.FilePolarity,Positive*%
%FSLAX46Y46*%
G04 Gerber Fmt 4.6, Leading zero omitted, Abs format (unit mm)*
G04 Created by KiCad (PCBNEW (5.1.7)-1) date 2021-03-17 12:45:12*
%MOMM*%
%LPD*%
G01*
G04 APERTURE LIST*
%TA.AperFunction,ComponentPad*%
%ADD10R,2.600000X2.600000*%
%TD*%
%TA.AperFunction,ComponentPad*%
%ADD11C,2.600000*%
%TD*%
%TA.AperFunction,ComponentPad*%
%ADD12C,2.300000*%
%TD*%
%TA.AperFunction,ComponentPad*%
%ADD13R,2.300000X2.000000*%
%TD*%
%TA.AperFunction,ComponentPad*%
%ADD14C,3.000000*%
%TD*%
%TA.AperFunction,ComponentPad*%
%ADD15O,1.700000X1.700000*%
%TD*%
%TA.AperFunction,ComponentPad*%
%ADD16R,1.700000X1.700000*%
%TD*%
%TA.AperFunction,ViaPad*%
%ADD17C,0.800000*%
%TD*%
%TA.AperFunction,Conductor*%
%ADD18C,3.000000*%
%TD*%
%TA.AperFunction,Conductor*%
%ADD19C,0.500000*%
%TD*%
%TA.AperFunction,Conductor*%
%ADD20C,0.750000*%
%TD*%
%TA.AperFunction,Conductor*%
%ADD21C,0.250000*%
%TD*%
%TA.AperFunction,Conductor*%
%ADD22C,0.200000*%
%TD*%
%TA.AperFunction,Conductor*%
%ADD23C,0.100000*%
%TD*%
G04 APERTURE END LIST*
D10*
%TO.P,J1,1*%
%TO.N,Net-(J1-Pad1)*%
X8500000Y-41500000D03*
D11*
%TO.P,J1,2*%
%TO.N,+5V*%
X8500000Y-36500000D03*
%TD*%
D10*
%TO.P,J6,1*%
%TO.N,Net-(C10-Pad1)*%
X8500000Y-54500000D03*
D11*
%TO.P,J6,2*%
%TO.N,Net-(C10-Pad2)*%
X8500000Y-49500000D03*
%TD*%
D12*
%TO.P,PS1,4*%
%TO.N,+5V*%
X46400000Y-24200000D03*
%TO.P,PS1,2*%
%TO.N,AC_Neutral*%
X17000000Y-19000000D03*
D13*
%TO.P,PS1,1*%
%TO.N,AC_Line_Out*%
X17000000Y-14000000D03*
D12*
%TO.P,PS1,3*%
%TO.N,GND*%
X46400000Y-8800000D03*
%TD*%
D14*
%TO.P,J4,3*%
%TO.N,AC_Line_In*%
X66000000Y-12840000D03*
%TO.P,J4,2*%
%TO.N,AC_Neutral*%
X66000000Y-17920000D03*
%TO.P,J4,1*%
%TO.N,Earth*%
X65900000Y-23100000D03*
%TD*%
%TO.P,J3,3*%
%TO.N,Earth*%
X9000000Y-23160000D03*
%TO.P,J3,2*%
%TO.N,AC_Neutral*%
X9000000Y-18080000D03*
%TO.P,J3,1*%
%TO.N,AC_Line_Out*%
X9100000Y-12900000D03*
%TD*%
D15*
%TO.P,J2,8*%
%TO.N,USB_RX*%
X70540000Y-44620000D03*
%TO.P,J2,7*%
%TO.N,+5V*%
X68000000Y-44620000D03*
%TO.P,J2,6*%
%TO.N,USB_TX*%
X70540000Y-42080000D03*
%TO.P,J2,5*%
%TO.N,GND*%
X68000000Y-42080000D03*
%TO.P,J2,4*%
%TO.N,IO0*%
X70540000Y-39540000D03*
%TO.P,J2,3*%
%TO.N,GND*%
X68000000Y-39540000D03*
%TO.P,J2,2*%
%TO.N,EN*%
X70540000Y-37000000D03*
D16*
%TO.P,J2,1*%
%TO.N,GND*%
X68000000Y-37000000D03*
%TD*%
D17*
%TO.N,+5V*%
X48006000Y-39116000D03*
%TO.N,GND*%
X58420000Y-32512000D03*
X56642000Y-35814000D03*
X49784000Y-34798000D03*
X45720000Y-34290000D03*
X34798000Y-41402000D03*
X23750000Y-58750000D03*
X19500000Y-48514000D03*
X29210000Y-67310000D03*
X53594000Y-62230000D03*
X66294000Y-48006000D03*
X58960000Y-53500000D03*
X55626000Y-57150000D03*
X47250000Y-49250000D03*
%TO.N,+3V3*%
X57150000Y-62230000D03*
X54610000Y-59690000D03*
X30750000Y-35750000D03*
X23750000Y-55750000D03*
%TO.N,StatusLED*%
X54864000Y-42926000D03*
X49500000Y-47750000D03*
%TO.N,HotLED*%
X48006000Y-47244000D03*
X48250000Y-43000000D03*
%TO.N,V_Current_adj*%
X55372000Y-45720000D03*
X51816000Y-46736000D03*
X65532000Y-30734000D03*
X66040000Y-39370000D03*
%TO.N,AC_Line_Out*%
X13462000Y-13970000D03*
X12446000Y-13970000D03*
X11430000Y-13970000D03*
X13462000Y-12954000D03*
X12446000Y-12954000D03*
X11430000Y-12954000D03*
X13462000Y-11938000D03*
X12446000Y-11938000D03*
X11430000Y-11938000D03*
%TO.N,AC_Line_In*%
X66040000Y-10668000D03*
X68072000Y-12954000D03*
X66040000Y-14986000D03*
X64008000Y-12954000D03*
X64516000Y-11176000D03*
X67564000Y-11176000D03*
X67564000Y-14478000D03*
X64516000Y-14478000D03*
%TO.N,IO0*%
X73152000Y-50165000D03*
X62865000Y-56007000D03*
X29000000Y-50000000D03*
%TO.N,USB_RX*%
X34798000Y-64389000D03*
%TO.N,USB_TX*%
X36195000Y-66548000D03*
%TO.N,ESP32_SPI_SCK*%
X26000000Y-55750000D03*
X34500000Y-55750000D03*
%TO.N,EN*%
X63754000Y-60960000D03*
X67818000Y-60872000D03*
%TO.N,5V_adj*%
X60960000Y-42799000D03*
X62230000Y-48641000D03*
X53086000Y-57912000D03*
%TD*%
D18*
%TO.N,Earth*%
X36530000Y-23160000D02*
X9000000Y-23160000D01*
X40132000Y-19558000D02*
X36530000Y-23160000D01*
X49276000Y-19558000D02*
X40132000Y-19558000D01*
X52832000Y-23114000D02*
X49276000Y-19558000D01*
X65886000Y-23114000D02*
X52832000Y-23114000D01*
X65900000Y-23100000D02*
X65886000Y-23114000D01*
D19*
%TO.N,+5V*%
X48006000Y-39116000D02*
X59366000Y-39116000D01*
X64870000Y-44620000D02*
X68000000Y-44620000D01*
X59366000Y-39116000D02*
X64870000Y-44620000D01*
%TO.N,+3V3*%
X57150000Y-62230000D02*
X54610000Y-59690000D01*
D20*
X30750000Y-35750000D02*
X23750000Y-42750000D01*
X23750000Y-42750000D02*
X23750000Y-55750000D01*
D19*
%TO.N,StatusLED*%
X49500000Y-47750000D02*
X49500000Y-45750000D01*
X52324000Y-42926000D02*
X54864000Y-42926000D01*
X49500000Y-45750000D02*
X52324000Y-42926000D01*
%TO.N,HotLED*%
X48250000Y-43000000D02*
X48250000Y-44250000D01*
X48006000Y-44494000D02*
X48006000Y-47244000D01*
X48250000Y-44250000D02*
X48006000Y-44494000D01*
%TO.N,V_Current_adj*%
X55372000Y-45720000D02*
X53594000Y-45720000D01*
X53594000Y-45720000D02*
X52832000Y-45720000D01*
X52832000Y-45720000D02*
X51816000Y-46736000D01*
D21*
X65532000Y-38862000D02*
X66040000Y-39370000D01*
X65532000Y-30734000D02*
X65532000Y-38862000D01*
D18*
%TO.N,AC_Line_Out*%
X15900000Y-12900000D02*
X17000000Y-14000000D01*
X9100000Y-12900000D02*
X15900000Y-12900000D01*
%TO.N,AC_Neutral*%
X30784000Y-19000000D02*
X17000000Y-19000000D01*
X35814000Y-13970000D02*
X30784000Y-19000000D01*
X56896000Y-13970000D02*
X35814000Y-13970000D01*
X60846000Y-17920000D02*
X56896000Y-13970000D01*
X66000000Y-17920000D02*
X60846000Y-17920000D01*
X9920000Y-19000000D02*
X17000000Y-19000000D01*
X9000000Y-18080000D02*
X9920000Y-19000000D01*
D19*
%TO.N,IO0*%
X73152000Y-50165000D02*
X73152000Y-40513000D01*
X72179000Y-39540000D02*
X73152000Y-40513000D01*
X70540000Y-39540000D02*
X72179000Y-39540000D01*
X30943000Y-51943000D02*
X29000000Y-50000000D01*
X58801000Y-51943000D02*
X30943000Y-51943000D01*
X62865000Y-56007000D02*
X58801000Y-51943000D01*
%TO.N,USB_RX*%
X34798000Y-64389000D02*
X35433000Y-65024000D01*
X35433000Y-65024000D02*
X67691000Y-65024000D01*
X70540000Y-62175000D02*
X70540000Y-44620000D01*
X67691000Y-65024000D02*
X70540000Y-62175000D01*
%TO.N,USB_TX*%
X36243000Y-66500000D02*
X36195000Y-66548000D01*
X72136000Y-63364000D02*
X69000000Y-66500000D01*
X72136000Y-42672000D02*
X72136000Y-63364000D01*
X69000000Y-66500000D02*
X36243000Y-66500000D01*
X71544000Y-42080000D02*
X72136000Y-42672000D01*
X70540000Y-42080000D02*
X71544000Y-42080000D01*
%TO.N,ESP32_SPI_SCK*%
X26000000Y-55750000D02*
X34500000Y-55750000D01*
%TO.N,EN*%
X63754000Y-60960000D02*
X67818000Y-60960000D01*
X67818000Y-60960000D02*
X67818000Y-60872000D01*
D21*
%TO.N,5V_adj*%
X62230000Y-44069000D02*
X62230000Y-48641000D01*
X60960000Y-42799000D02*
X62230000Y-44069000D01*
X53905002Y-57912000D02*
X54413002Y-58420000D01*
X53086000Y-57912000D02*
X53905002Y-57912000D01*
X54413002Y-58420000D02*
X63500000Y-58420000D01*
X63500000Y-58420000D02*
X64262000Y-57658000D01*
X64262000Y-50673000D02*
X62230000Y-48641000D01*
X64262000Y-57658000D02*
X64262000Y-50673000D01*
%TD*%
D22*
%TO.N,AC_Line_In*%
X68480000Y-11471422D02*
X68480000Y-14182578D01*
X67268578Y-15394000D01*
X64811422Y-15394000D01*
X63600000Y-14182578D01*
X63600000Y-11471422D01*
X64811422Y-10260000D01*
X67268578Y-10260000D01*
X68480000Y-11471422D01*
%TA.AperFunction,Conductor*%
D23*
G36*
X68480000Y-11471422D02*
G01*
X68480000Y-14182578D01*
X67268578Y-15394000D01*
X64811422Y-15394000D01*
X63600000Y-14182578D01*
X63600000Y-11471422D01*
X64811422Y-10260000D01*
X67268578Y-10260000D01*
X68480000Y-11471422D01*
G37*
%TD.AperFunction*%
%TD*%
D22*
%TO.N,GND*%
X74675000Y-71865380D02*
X71865382Y-74675000D01*
X62134619Y-74675000D01*
X57272485Y-69812866D01*
X68100000Y-69812866D01*
X68100000Y-70187134D01*
X68173016Y-70554209D01*
X68316242Y-70899987D01*
X68524174Y-71211179D01*
X68788821Y-71475826D01*
X69100013Y-71683758D01*
X69445791Y-71826984D01*
X69812866Y-71900000D01*
X70187134Y-71900000D01*
X70554209Y-71826984D01*
X70899987Y-71683758D01*
X71211179Y-71475826D01*
X71475826Y-71211179D01*
X71683758Y-70899987D01*
X71826984Y-70554209D01*
X71900000Y-70187134D01*
X71900000Y-69812866D01*
X71826984Y-69445791D01*
X71683758Y-69100013D01*
X71475826Y-68788821D01*
X71211179Y-68524174D01*
X70899987Y-68316242D01*
X70554209Y-68173016D01*
X70187134Y-68100000D01*
X69812866Y-68100000D01*
X69445791Y-68173016D01*
X69100013Y-68316242D01*
X68788821Y-68524174D01*
X68524174Y-68788821D01*
X68316242Y-69100013D01*
X68173016Y-69445791D01*
X68100000Y-69812866D01*
X57272485Y-69812866D01*
X56241101Y-68781483D01*
X56230921Y-68769079D01*
X56181434Y-68728465D01*
X56124974Y-68698287D01*
X56063711Y-68679703D01*
X56015961Y-68675000D01*
X56015953Y-68675000D01*
X56000000Y-68673429D01*
X55984047Y-68675000D01*
X19015953Y-68675000D01*
X19000000Y-68673429D01*
X18984047Y-68675000D01*
X18984039Y-68675000D01*
X18936289Y-68679703D01*
X18875026Y-68698287D01*
X18818566Y-68728465D01*
X18797697Y-68745592D01*
X18781476Y-68758904D01*
X18781472Y-68758908D01*
X18769079Y-68769079D01*
X18758908Y-68781472D01*
X17781481Y-69758901D01*
X17781476Y-69758905D01*
X12865382Y-74675000D01*
X3134620Y-74675000D01*
X325000Y-71865382D01*
X325000Y-69812866D01*
X3100000Y-69812866D01*
X3100000Y-70187134D01*
X3173016Y-70554209D01*
X3316242Y-70899987D01*
X3524174Y-71211179D01*
X3788821Y-71475826D01*
X4100013Y-71683758D01*
X4445791Y-71826984D01*
X4812866Y-71900000D01*
X5187134Y-71900000D01*
X5554209Y-71826984D01*
X5899987Y-71683758D01*
X6211179Y-71475826D01*
X6475826Y-71211179D01*
X6683758Y-70899987D01*
X6826984Y-70554209D01*
X6900000Y-70187134D01*
X6900000Y-69812866D01*
X6826984Y-69445791D01*
X6683758Y-69100013D01*
X6475826Y-68788821D01*
X6211179Y-68524174D01*
X5899987Y-68316242D01*
X5554209Y-68173016D01*
X5187134Y-68100000D01*
X4812866Y-68100000D01*
X4445791Y-68173016D01*
X4100013Y-68316242D01*
X3788821Y-68524174D01*
X3524174Y-68788821D01*
X3316242Y-69100013D01*
X3173016Y-69445791D01*
X3100000Y-69812866D01*
X325000Y-69812866D01*
X325000Y-64320056D01*
X34098000Y-64320056D01*
X34098000Y-64457944D01*
X34124901Y-64593182D01*
X34177668Y-64720574D01*
X34254274Y-64835224D01*
X34351776Y-64932726D01*
X34466426Y-65009332D01*
X34593818Y-65062099D01*
X34717980Y-65086797D01*
X35024987Y-65393804D01*
X35042210Y-65414790D01*
X35125958Y-65483521D01*
X35221506Y-65534592D01*
X35325181Y-65566042D01*
X35405982Y-65574000D01*
X35405989Y-65574000D01*
X35433000Y-65576660D01*
X35460011Y-65574000D01*
X67663992Y-65574000D01*
X67691000Y-65576660D01*
X67718008Y-65574000D01*
X67718018Y-65574000D01*
X67798819Y-65566042D01*
X67902494Y-65534592D01*
X67998042Y-65483521D01*
X68081790Y-65414790D01*
X68099013Y-65393804D01*
X70909810Y-62583008D01*
X70930790Y-62565790D01*
X70948008Y-62544810D01*
X70948013Y-62544805D01*
X70999520Y-62482043D01*
X70999521Y-62482042D01*
X71050592Y-62386494D01*
X71082042Y-62282819D01*
X71090000Y-62202018D01*
X71090000Y-62202009D01*
X71092660Y-62175001D01*
X71090000Y-62147993D01*
X71090000Y-45635594D01*
X71273082Y-45513263D01*
X71433263Y-45353082D01*
X71559116Y-45164729D01*
X71586000Y-45099826D01*
X71586001Y-63136182D01*
X68772183Y-65950000D01*
X36559996Y-65950000D01*
X36526574Y-65927668D01*
X36399182Y-65874901D01*
X36263944Y-65848000D01*
X36126056Y-65848000D01*
X35990818Y-65874901D01*
X35863426Y-65927668D01*
X35748776Y-66004274D01*
X35651274Y-66101776D01*
X35574668Y-66216426D01*
X35521901Y-66343818D01*
X35495000Y-66479056D01*
X35495000Y-66616944D01*
X35521901Y-66752182D01*
X35574668Y-66879574D01*
X35651274Y-66994224D01*
X35748776Y-67091726D01*
X35863426Y-67168332D01*
X35990818Y-67221099D01*
X36126056Y-67248000D01*
X36263944Y-67248000D01*
X36399182Y-67221099D01*
X36526574Y-67168332D01*
X36641224Y-67091726D01*
X36682950Y-67050000D01*
X68972992Y-67050000D01*
X69000000Y-67052660D01*
X69027008Y-67050000D01*
X69027018Y-67050000D01*
X69107819Y-67042042D01*
X69211494Y-67010592D01*
X69307042Y-66959521D01*
X69390790Y-66890790D01*
X69408013Y-66869804D01*
X72505804Y-63772013D01*
X72526790Y-63754790D01*
X72595521Y-63671042D01*
X72646592Y-63575495D01*
X72678042Y-63471819D01*
X72686000Y-63391018D01*
X72686000Y-63391011D01*
X72688660Y-63364000D01*
X72686000Y-63336989D01*
X72686000Y-50688950D01*
X72705776Y-50708726D01*
X72820426Y-50785332D01*
X72947818Y-50838099D01*
X73083056Y-50865000D01*
X73220944Y-50865000D01*
X73356182Y-50838099D01*
X73483574Y-50785332D01*
X73598224Y-50708726D01*
X73695726Y-50611224D01*
X73772332Y-50496574D01*
X73825099Y-50369182D01*
X73852000Y-50233944D01*
X73852000Y-50096056D01*
X73825099Y-49960818D01*
X73772332Y-49833426D01*
X73702000Y-49728166D01*
X73702000Y-40540011D01*
X73704660Y-40513000D01*
X73702000Y-40485989D01*
X73702000Y-40485982D01*
X73694042Y-40405181D01*
X73662592Y-40301506D01*
X73662592Y-40301505D01*
X73611521Y-40205958D01*
X73560013Y-40143196D01*
X73542790Y-40122210D01*
X73521804Y-40104987D01*
X72587013Y-39170196D01*
X72569790Y-39149210D01*
X72486042Y-39080479D01*
X72390494Y-39029408D01*
X72286819Y-38997958D01*
X72206018Y-38990000D01*
X72206008Y-38990000D01*
X72179000Y-38987340D01*
X72151992Y-38990000D01*
X71555594Y-38990000D01*
X71433263Y-38806918D01*
X71273082Y-38646737D01*
X71084729Y-38520884D01*
X70875443Y-38434194D01*
X70653265Y-38390000D01*
X70426735Y-38390000D01*
X70204557Y-38434194D01*
X69995271Y-38520884D01*
X69806918Y-38646737D01*
X69646737Y-38806918D01*
X69520884Y-38995271D01*
X69434194Y-39204557D01*
X69390000Y-39426735D01*
X69390000Y-39653265D01*
X69434194Y-39875443D01*
X69520884Y-40084729D01*
X69646737Y-40273082D01*
X69806918Y-40433263D01*
X69995271Y-40559116D01*
X70204557Y-40645806D01*
X70426735Y-40690000D01*
X70653265Y-40690000D01*
X70875443Y-40645806D01*
X71084729Y-40559116D01*
X71273082Y-40433263D01*
X71433263Y-40273082D01*
X71555594Y-40090000D01*
X71951183Y-40090000D01*
X72602001Y-40740818D01*
X72602001Y-42377081D01*
X72595521Y-42364958D01*
X72585523Y-42352776D01*
X72544013Y-42302195D01*
X72544008Y-42302190D01*
X72526790Y-42281210D01*
X72505809Y-42263992D01*
X71952013Y-41710195D01*
X71934790Y-41689210D01*
X71851042Y-41620479D01*
X71755494Y-41569408D01*
X71651819Y-41537958D01*
X71571018Y-41530000D01*
X71571008Y-41530000D01*
X71554508Y-41528375D01*
X71433263Y-41346918D01*
X71273082Y-41186737D01*
X71084729Y-41060884D01*
X70875443Y-40974194D01*
X70653265Y-40930000D01*
X70426735Y-40930000D01*
X70204557Y-40974194D01*
X69995271Y-41060884D01*
X69806918Y-41186737D01*
X69646737Y-41346918D01*
X69520884Y-41535271D01*
X69434194Y-41744557D01*
X69390000Y-41966735D01*
X69390000Y-42193265D01*
X69434194Y-42415443D01*
X69520884Y-42624729D01*
X69646737Y-42813082D01*
X69806918Y-42973263D01*
X69995271Y-43099116D01*
X70204557Y-43185806D01*
X70426735Y-43230000D01*
X70653265Y-43230000D01*
X70875443Y-43185806D01*
X71084729Y-43099116D01*
X71273082Y-42973263D01*
X71433263Y-42813082D01*
X71459699Y-42773517D01*
X71586000Y-42899818D01*
X71586000Y-44140174D01*
X71559116Y-44075271D01*
X71433263Y-43886918D01*
X71273082Y-43726737D01*
X71084729Y-43600884D01*
X70875443Y-43514194D01*
X70653265Y-43470000D01*
X70426735Y-43470000D01*
X70204557Y-43514194D01*
X69995271Y-43600884D01*
X69806918Y-43726737D01*
X69646737Y-43886918D01*
X69520884Y-44075271D01*
X69434194Y-44284557D01*
X69390000Y-44506735D01*
X69390000Y-44733265D01*
X69434194Y-44955443D01*
X69520884Y-45164729D01*
X69646737Y-45353082D01*
X69806918Y-45513263D01*
X69990001Y-45635595D01*
X69990000Y-61947182D01*
X67463183Y-64474000D01*
X35660817Y-64474000D01*
X35495797Y-64308980D01*
X35471099Y-64184818D01*
X35418332Y-64057426D01*
X35341726Y-63942776D01*
X35244224Y-63845274D01*
X35129574Y-63768668D01*
X35002182Y-63715901D01*
X34866944Y-63689000D01*
X34729056Y-63689000D01*
X34593818Y-63715901D01*
X34466426Y-63768668D01*
X34351776Y-63845274D01*
X34254274Y-63942776D01*
X34177668Y-64057426D01*
X34124901Y-64184818D01*
X34098000Y-64320056D01*
X325000Y-64320056D01*
X325000Y-59621056D01*
X53910000Y-59621056D01*
X53910000Y-59758944D01*
X53936901Y-59894182D01*
X53989668Y-60021574D01*
X54066274Y-60136224D01*
X54163776Y-60233726D01*
X54278426Y-60310332D01*
X54405818Y-60363099D01*
X54529980Y-60387797D01*
X56452203Y-62310021D01*
X56476901Y-62434182D01*
X56529668Y-62561574D01*
X56606274Y-62676224D01*
X56703776Y-62773726D01*
X56818426Y-62850332D01*
X56945818Y-62903099D01*
X57081056Y-62930000D01*
X57218944Y-62930000D01*
X57354182Y-62903099D01*
X57481574Y-62850332D01*
X57596224Y-62773726D01*
X57693726Y-62676224D01*
X57770332Y-62561574D01*
X57823099Y-62434182D01*
X57850000Y-62298944D01*
X57850000Y-62161056D01*
X57823099Y-62025818D01*
X57770332Y-61898426D01*
X57693726Y-61783776D01*
X57596224Y-61686274D01*
X57481574Y-61609668D01*
X57354182Y-61556901D01*
X57230021Y-61532203D01*
X56588874Y-60891056D01*
X63054000Y-60891056D01*
X63054000Y-61028944D01*
X63080901Y-61164182D01*
X63133668Y-61291574D01*
X63210274Y-61406224D01*
X63307776Y-61503726D01*
X63422426Y-61580332D01*
X63549818Y-61633099D01*
X63685056Y-61660000D01*
X63822944Y-61660000D01*
X63958182Y-61633099D01*
X64085574Y-61580332D01*
X64190834Y-61510000D01*
X67529081Y-61510000D01*
X67613818Y-61545099D01*
X67749056Y-61572000D01*
X67886944Y-61572000D01*
X68022182Y-61545099D01*
X68149574Y-61492332D01*
X68264224Y-61415726D01*
X68361726Y-61318224D01*
X68438332Y-61203574D01*
X68491099Y-61076182D01*
X68518000Y-60940944D01*
X68518000Y-60803056D01*
X68491099Y-60667818D01*
X68438332Y-60540426D01*
X68361726Y-60425776D01*
X68264224Y-60328274D01*
X68149574Y-60251668D01*
X68022182Y-60198901D01*
X67886944Y-60172000D01*
X67749056Y-60172000D01*
X67613818Y-60198901D01*
X67486426Y-60251668D01*
X67371776Y-60328274D01*
X67290050Y-60410000D01*
X64190834Y-60410000D01*
X64085574Y-60339668D01*
X63958182Y-60286901D01*
X63822944Y-60260000D01*
X63685056Y-60260000D01*
X63549818Y-60286901D01*
X63422426Y-60339668D01*
X63307776Y-60416274D01*
X63210274Y-60513776D01*
X63133668Y-60628426D01*
X63080901Y-60755818D01*
X63054000Y-60891056D01*
X56588874Y-60891056D01*
X55307797Y-59609980D01*
X55283099Y-59485818D01*
X55230332Y-59358426D01*
X55153726Y-59243776D01*
X55056224Y-59146274D01*
X54941574Y-59069668D01*
X54814182Y-59016901D01*
X54678944Y-58990000D01*
X54541056Y-58990000D01*
X54405818Y-59016901D01*
X54278426Y-59069668D01*
X54163776Y-59146274D01*
X54066274Y-59243776D01*
X53989668Y-59358426D01*
X53936901Y-59485818D01*
X53910000Y-59621056D01*
X325000Y-59621056D01*
X325000Y-57843056D01*
X52386000Y-57843056D01*
X52386000Y-57980944D01*
X52412901Y-58116182D01*
X52465668Y-58243574D01*
X52542274Y-58358224D01*
X52639776Y-58455726D01*
X52754426Y-58532332D01*
X52881818Y-58585099D01*
X53017056Y-58612000D01*
X53154944Y-58612000D01*
X53290182Y-58585099D01*
X53417574Y-58532332D01*
X53532224Y-58455726D01*
X53629726Y-58358224D01*
X53643907Y-58337000D01*
X53728962Y-58337000D01*
X54097723Y-58705762D01*
X54111028Y-58721974D01*
X54175742Y-58775084D01*
X54249575Y-58814548D01*
X54305385Y-58831478D01*
X54329687Y-58838850D01*
X54338100Y-58839679D01*
X54392128Y-58845000D01*
X54392134Y-58845000D01*
X54413001Y-58847055D01*
X54433868Y-58845000D01*
X63479133Y-58845000D01*
X63500000Y-58847055D01*
X63520867Y-58845000D01*
X63520874Y-58845000D01*
X63583314Y-58838850D01*
X63663427Y-58814548D01*
X63737260Y-58775084D01*
X63801974Y-58721974D01*
X63815283Y-58705757D01*
X64547763Y-57973278D01*
X64563974Y-57959974D01*
X64617084Y-57895260D01*
X64652668Y-57828686D01*
X64656548Y-57821428D01*
X64680850Y-57741314D01*
X64684149Y-57707818D01*
X64687000Y-57678874D01*
X64687000Y-57678867D01*
X64689055Y-57658000D01*
X64687000Y-57637133D01*
X64687000Y-50693867D01*
X64689055Y-50673000D01*
X64687000Y-50652133D01*
X64687000Y-50652126D01*
X64680850Y-50589686D01*
X64656548Y-50509573D01*
X64617084Y-50435740D01*
X64563974Y-50371026D01*
X64547762Y-50357721D01*
X62925020Y-48734980D01*
X62930000Y-48709944D01*
X62930000Y-48572056D01*
X62903099Y-48436818D01*
X62850332Y-48309426D01*
X62773726Y-48194776D01*
X62676224Y-48097274D01*
X62655000Y-48083093D01*
X62655000Y-44089866D01*
X62657055Y-44068999D01*
X62655000Y-44048132D01*
X62655000Y-44048126D01*
X62648850Y-43985686D01*
X62624548Y-43905573D01*
X62585084Y-43831740D01*
X62531974Y-43767026D01*
X62515763Y-43753722D01*
X61655020Y-42892980D01*
X61660000Y-42867944D01*
X61660000Y-42730056D01*
X61633099Y-42594818D01*
X61580332Y-42467426D01*
X61503726Y-42352776D01*
X61406224Y-42255274D01*
X61291574Y-42178668D01*
X61164182Y-42125901D01*
X61028944Y-42099000D01*
X60891056Y-42099000D01*
X60755818Y-42125901D01*
X60628426Y-42178668D01*
X60513776Y-42255274D01*
X60416274Y-42352776D01*
X60339668Y-42467426D01*
X60286901Y-42594818D01*
X60260000Y-42730056D01*
X60260000Y-42867944D01*
X60286901Y-43003182D01*
X60339668Y-43130574D01*
X60416274Y-43245224D01*
X60513776Y-43342726D01*
X60628426Y-43419332D01*
X60755818Y-43472099D01*
X60891056Y-43499000D01*
X61028944Y-43499000D01*
X61053980Y-43494020D01*
X61805000Y-44245041D01*
X61805001Y-48083092D01*
X61783776Y-48097274D01*
X61686274Y-48194776D01*
X61609668Y-48309426D01*
X61556901Y-48436818D01*
X61530000Y-48572056D01*
X61530000Y-48709944D01*
X61556901Y-48845182D01*
X61609668Y-48972574D01*
X61686274Y-49087224D01*
X61783776Y-49184726D01*
X61898426Y-49261332D01*
X62025818Y-49314099D01*
X62161056Y-49341000D01*
X62298944Y-49341000D01*
X62323980Y-49336020D01*
X63837001Y-50849042D01*
X63837000Y-57481959D01*
X63323960Y-57995000D01*
X54589043Y-57995000D01*
X54220285Y-57626243D01*
X54206976Y-57610026D01*
X54142262Y-57556916D01*
X54068429Y-57517452D01*
X53988316Y-57493150D01*
X53925876Y-57487000D01*
X53925869Y-57487000D01*
X53905002Y-57484945D01*
X53884135Y-57487000D01*
X53643907Y-57487000D01*
X53629726Y-57465776D01*
X53532224Y-57368274D01*
X53417574Y-57291668D01*
X53290182Y-57238901D01*
X53154944Y-57212000D01*
X53017056Y-57212000D01*
X52881818Y-57238901D01*
X52754426Y-57291668D01*
X52639776Y-57368274D01*
X52542274Y-57465776D01*
X52465668Y-57580426D01*
X52412901Y-57707818D01*
X52386000Y-57843056D01*
X325000Y-57843056D01*
X325000Y-53200000D01*
X6898549Y-53200000D01*
X6898549Y-55800000D01*
X6904341Y-55858810D01*
X6921496Y-55915360D01*
X6949353Y-55967477D01*
X6986842Y-56013158D01*
X7032523Y-56050647D01*
X7084640Y-56078504D01*
X7141190Y-56095659D01*
X7200000Y-56101451D01*
X9800000Y-56101451D01*
X9858810Y-56095659D01*
X9915360Y-56078504D01*
X9967477Y-56050647D01*
X10013158Y-56013158D01*
X10050647Y-55967477D01*
X10078504Y-55915360D01*
X10095659Y-55858810D01*
X10101451Y-55800000D01*
X10101451Y-55681056D01*
X23050000Y-55681056D01*
X23050000Y-55818944D01*
X23076901Y-55954182D01*
X23129668Y-56081574D01*
X23206274Y-56196224D01*
X23303776Y-56293726D01*
X23418426Y-56370332D01*
X23545818Y-56423099D01*
X23681056Y-56450000D01*
X23818944Y-56450000D01*
X23954182Y-56423099D01*
X24081574Y-56370332D01*
X24196224Y-56293726D01*
X24293726Y-56196224D01*
X24370332Y-56081574D01*
X24423099Y-55954182D01*
X24450000Y-55818944D01*
X24450000Y-55681056D01*
X25300000Y-55681056D01*
X25300000Y-55818944D01*
X25326901Y-55954182D01*
X25379668Y-56081574D01*
X25456274Y-56196224D01*
X25553776Y-56293726D01*
X25668426Y-56370332D01*
X25795818Y-56423099D01*
X25931056Y-56450000D01*
X26068944Y-56450000D01*
X26204182Y-56423099D01*
X26331574Y-56370332D01*
X26436834Y-56300000D01*
X34063166Y-56300000D01*
X34168426Y-56370332D01*
X34295818Y-56423099D01*
X34431056Y-56450000D01*
X34568944Y-56450000D01*
X34704182Y-56423099D01*
X34831574Y-56370332D01*
X34946224Y-56293726D01*
X35043726Y-56196224D01*
X35120332Y-56081574D01*
X35173099Y-55954182D01*
X35200000Y-55818944D01*
X35200000Y-55681056D01*
X35173099Y-55545818D01*
X35120332Y-55418426D01*
X35043726Y-55303776D01*
X34946224Y-55206274D01*
X34831574Y-55129668D01*
X34704182Y-55076901D01*
X34568944Y-55050000D01*
X34431056Y-55050000D01*
X34295818Y-55076901D01*
X34168426Y-55129668D01*
X34063166Y-55200000D01*
X26436834Y-55200000D01*
X26331574Y-55129668D01*
X26204182Y-55076901D01*
X26068944Y-55050000D01*
X25931056Y-55050000D01*
X25795818Y-55076901D01*
X25668426Y-55129668D01*
X25553776Y-55206274D01*
X25456274Y-55303776D01*
X25379668Y-55418426D01*
X25326901Y-55545818D01*
X25300000Y-55681056D01*
X24450000Y-55681056D01*
X24425000Y-55555375D01*
X24425000Y-49931056D01*
X28300000Y-49931056D01*
X28300000Y-50068944D01*
X28326901Y-50204182D01*
X28379668Y-50331574D01*
X28456274Y-50446224D01*
X28553776Y-50543726D01*
X28668426Y-50620332D01*
X28795818Y-50673099D01*
X28919980Y-50697797D01*
X30534992Y-52312810D01*
X30552210Y-52333790D01*
X30573190Y-52351008D01*
X30573195Y-52351013D01*
X30635958Y-52402521D01*
X30731506Y-52453592D01*
X30835181Y-52485042D01*
X30915982Y-52493000D01*
X30915992Y-52493000D01*
X30943000Y-52495660D01*
X30970008Y-52493000D01*
X58573183Y-52493000D01*
X62167203Y-56087021D01*
X62191901Y-56211182D01*
X62244668Y-56338574D01*
X62321274Y-56453224D01*
X62418776Y-56550726D01*
X62533426Y-56627332D01*
X62660818Y-56680099D01*
X62796056Y-56707000D01*
X62933944Y-56707000D01*
X63069182Y-56680099D01*
X63196574Y-56627332D01*
X63311224Y-56550726D01*
X63408726Y-56453224D01*
X63485332Y-56338574D01*
X63538099Y-56211182D01*
X63565000Y-56075944D01*
X63565000Y-55938056D01*
X63538099Y-55802818D01*
X63485332Y-55675426D01*
X63408726Y-55560776D01*
X63311224Y-55463274D01*
X63196574Y-55386668D01*
X63069182Y-55333901D01*
X62945021Y-55309203D01*
X59209012Y-51573195D01*
X59191790Y-51552210D01*
X59108042Y-51483479D01*
X59012494Y-51432408D01*
X58908819Y-51400958D01*
X58828018Y-51393000D01*
X58828008Y-51393000D01*
X58801000Y-51390340D01*
X58773992Y-51393000D01*
X31170818Y-51393000D01*
X29697797Y-49919980D01*
X29673099Y-49795818D01*
X29620332Y-49668426D01*
X29543726Y-49553776D01*
X29446224Y-49456274D01*
X29331574Y-49379668D01*
X29204182Y-49326901D01*
X29068944Y-49300000D01*
X28931056Y-49300000D01*
X28795818Y-49326901D01*
X28668426Y-49379668D01*
X28553776Y-49456274D01*
X28456274Y-49553776D01*
X28379668Y-49668426D01*
X28326901Y-49795818D01*
X28300000Y-49931056D01*
X24425000Y-49931056D01*
X24425000Y-47175056D01*
X47306000Y-47175056D01*
X47306000Y-47312944D01*
X47332901Y-47448182D01*
X47385668Y-47575574D01*
X47462274Y-47690224D01*
X47559776Y-47787726D01*
X47674426Y-47864332D01*
X47801818Y-47917099D01*
X47937056Y-47944000D01*
X48074944Y-47944000D01*
X48210182Y-47917099D01*
X48337574Y-47864332D01*
X48452224Y-47787726D01*
X48549726Y-47690224D01*
X48555851Y-47681056D01*
X48800000Y-47681056D01*
X48800000Y-47818944D01*
X48826901Y-47954182D01*
X48879668Y-48081574D01*
X48956274Y-48196224D01*
X49053776Y-48293726D01*
X49168426Y-48370332D01*
X49295818Y-48423099D01*
X49431056Y-48450000D01*
X49568944Y-48450000D01*
X49704182Y-48423099D01*
X49831574Y-48370332D01*
X49946224Y-48293726D01*
X50043726Y-48196224D01*
X50120332Y-48081574D01*
X50173099Y-47954182D01*
X50200000Y-47818944D01*
X50200000Y-47681056D01*
X50173099Y-47545818D01*
X50120332Y-47418426D01*
X50050000Y-47313166D01*
X50050000Y-46667056D01*
X51116000Y-46667056D01*
X51116000Y-46804944D01*
X51142901Y-46940182D01*
X51195668Y-47067574D01*
X51272274Y-47182224D01*
X51369776Y-47279726D01*
X51484426Y-47356332D01*
X51611818Y-47409099D01*
X51747056Y-47436000D01*
X51884944Y-47436000D01*
X52020182Y-47409099D01*
X52147574Y-47356332D01*
X52262224Y-47279726D01*
X52359726Y-47182224D01*
X52436332Y-47067574D01*
X52489099Y-46940182D01*
X52513797Y-46816021D01*
X53059818Y-46270000D01*
X54935166Y-46270000D01*
X55040426Y-46340332D01*
X55167818Y-46393099D01*
X55303056Y-46420000D01*
X55440944Y-46420000D01*
X55576182Y-46393099D01*
X55703574Y-46340332D01*
X55818224Y-46263726D01*
X55915726Y-46166224D01*
X55992332Y-46051574D01*
X56045099Y-45924182D01*
X56072000Y-45788944D01*
X56072000Y-45651056D01*
X56045099Y-45515818D01*
X55992332Y-45388426D01*
X55915726Y-45273776D01*
X55818224Y-45176274D01*
X55703574Y-45099668D01*
X55576182Y-45046901D01*
X55440944Y-45020000D01*
X55303056Y-45020000D01*
X55167818Y-45046901D01*
X55040426Y-45099668D01*
X54935166Y-45170000D01*
X52859008Y-45170000D01*
X52832000Y-45167340D01*
X52804992Y-45170000D01*
X52804982Y-45170000D01*
X52724181Y-45177958D01*
X52620506Y-45209408D01*
X52576028Y-45233182D01*
X52524957Y-45260479D01*
X52462195Y-45311987D01*
X52462190Y-45311992D01*
X52441210Y-45329210D01*
X52423992Y-45350190D01*
X51735979Y-46038203D01*
X51611818Y-46062901D01*
X51484426Y-46115668D01*
X51369776Y-46192274D01*
X51272274Y-46289776D01*
X51195668Y-46404426D01*
X51142901Y-46531818D01*
X51116000Y-46667056D01*
X50050000Y-46667056D01*
X50050000Y-45977817D01*
X52551818Y-43476000D01*
X54427166Y-43476000D01*
X54532426Y-43546332D01*
X54659818Y-43599099D01*
X54795056Y-43626000D01*
X54932944Y-43626000D01*
X55068182Y-43599099D01*
X55195574Y-43546332D01*
X55310224Y-43469726D01*
X55407726Y-43372224D01*
X55484332Y-43257574D01*
X55537099Y-43130182D01*
X55564000Y-42994944D01*
X55564000Y-42857056D01*
X55537099Y-42721818D01*
X55484332Y-42594426D01*
X55407726Y-42479776D01*
X55310224Y-42382274D01*
X55195574Y-42305668D01*
X55068182Y-42252901D01*
X54932944Y-42226000D01*
X54795056Y-42226000D01*
X54659818Y-42252901D01*
X54532426Y-42305668D01*
X54427166Y-42376000D01*
X52351007Y-42376000D01*
X52323999Y-42373340D01*
X52296991Y-42376000D01*
X52296982Y-42376000D01*
X52216181Y-42383958D01*
X52112506Y-42415408D01*
X52112441Y-42415443D01*
X52016957Y-42466479D01*
X51954195Y-42517987D01*
X51954190Y-42517992D01*
X51933210Y-42535210D01*
X51915992Y-42556190D01*
X49130191Y-45341992D01*
X49109211Y-45359210D01*
X49091993Y-45380190D01*
X49091987Y-45380196D01*
X49040479Y-45442958D01*
X48989409Y-45538506D01*
X48957959Y-45642182D01*
X48947340Y-45750000D01*
X48950001Y-45777018D01*
X48950000Y-47313165D01*
X48879668Y-47418426D01*
X48826901Y-47545818D01*
X48800000Y-47681056D01*
X48555851Y-47681056D01*
X48626332Y-47575574D01*
X48679099Y-47448182D01*
X48706000Y-47312944D01*
X48706000Y-47175056D01*
X48679099Y-47039818D01*
X48626332Y-46912426D01*
X48556000Y-46807166D01*
X48556000Y-44721817D01*
X48619804Y-44658013D01*
X48640790Y-44640790D01*
X48709521Y-44557042D01*
X48760592Y-44461494D01*
X48792042Y-44357819D01*
X48800000Y-44277018D01*
X48800000Y-44277009D01*
X48802660Y-44250001D01*
X48800000Y-44222993D01*
X48800000Y-43436834D01*
X48870332Y-43331574D01*
X48923099Y-43204182D01*
X48950000Y-43068944D01*
X48950000Y-42931056D01*
X48923099Y-42795818D01*
X48870332Y-42668426D01*
X48793726Y-42553776D01*
X48696224Y-42456274D01*
X48581574Y-42379668D01*
X48454182Y-42326901D01*
X48318944Y-42300000D01*
X48181056Y-42300000D01*
X48045818Y-42326901D01*
X47918426Y-42379668D01*
X47803776Y-42456274D01*
X47706274Y-42553776D01*
X47629668Y-42668426D01*
X47576901Y-42795818D01*
X47550000Y-42931056D01*
X47550000Y-43068944D01*
X47576901Y-43204182D01*
X47629668Y-43331574D01*
X47700000Y-43436835D01*
X47700001Y-44022182D01*
X47636196Y-44085987D01*
X47615210Y-44103210D01*
X47546479Y-44186958D01*
X47495408Y-44282507D01*
X47463958Y-44386182D01*
X47456000Y-44466983D01*
X47456000Y-44466992D01*
X47453340Y-44494000D01*
X47456000Y-44521008D01*
X47456001Y-46807165D01*
X47385668Y-46912426D01*
X47332901Y-47039818D01*
X47306000Y-47175056D01*
X24425000Y-47175056D01*
X24425000Y-43029594D01*
X28407538Y-39047056D01*
X47306000Y-39047056D01*
X47306000Y-39184944D01*
X47332901Y-39320182D01*
X47385668Y-39447574D01*
X47462274Y-39562224D01*
X47559776Y-39659726D01*
X47674426Y-39736332D01*
X47801818Y-39789099D01*
X47937056Y-39816000D01*
X48074944Y-39816000D01*
X48210182Y-39789099D01*
X48337574Y-39736332D01*
X48442834Y-39666000D01*
X59138183Y-39666000D01*
X64461992Y-44989810D01*
X64479210Y-45010790D01*
X64500190Y-45028008D01*
X64500195Y-45028013D01*
X64552097Y-45070607D01*
X64562958Y-45079521D01*
X64658506Y-45130592D01*
X64762181Y-45162042D01*
X64842982Y-45170000D01*
X64842991Y-45170000D01*
X64869999Y-45172660D01*
X64897007Y-45170000D01*
X66984406Y-45170000D01*
X67106737Y-45353082D01*
X67266918Y-45513263D01*
X67455271Y-45639116D01*
X67664557Y-45725806D01*
X67886735Y-45770000D01*
X68113265Y-45770000D01*
X68335443Y-45725806D01*
X68544729Y-45639116D01*
X68733082Y-45513263D01*
X68893263Y-45353082D01*
X69019116Y-45164729D01*
X69105806Y-44955443D01*
X69150000Y-44733265D01*
X69150000Y-44506735D01*
X69105806Y-44284557D01*
X69019116Y-44075271D01*
X68893263Y-43886918D01*
X68733082Y-43726737D01*
X68544729Y-43600884D01*
X68335443Y-43514194D01*
X68113265Y-43470000D01*
X67886735Y-43470000D01*
X67664557Y-43514194D01*
X67455271Y-43600884D01*
X67266918Y-43726737D01*
X67106737Y-43886918D01*
X66984406Y-44070000D01*
X65097818Y-44070000D01*
X63312367Y-42284549D01*
X66868338Y-42284549D01*
X66876203Y-42324091D01*
X66945416Y-42538643D01*
X67055156Y-42735569D01*
X67201206Y-42907302D01*
X67377953Y-43047243D01*
X67578605Y-43150013D01*
X67795451Y-43211663D01*
X67975000Y-43154729D01*
X67975000Y-42105000D01*
X68025000Y-42105000D01*
X68025000Y-43154729D01*
X68204549Y-43211663D01*
X68421395Y-43150013D01*
X68622047Y-43047243D01*
X68798794Y-42907302D01*
X68944844Y-42735569D01*
X69054584Y-42538643D01*
X69123797Y-42324091D01*
X69131662Y-42284549D01*
X69074709Y-42105000D01*
X68025000Y-42105000D01*
X67975000Y-42105000D01*
X66925291Y-42105000D01*
X66868338Y-42284549D01*
X63312367Y-42284549D01*
X62903269Y-41875451D01*
X66868338Y-41875451D01*
X66925291Y-42055000D01*
X67975000Y-42055000D01*
X67975000Y-41005271D01*
X68025000Y-41005271D01*
X68025000Y-42055000D01*
X69074709Y-42055000D01*
X69131662Y-41875451D01*
X69123797Y-41835909D01*
X69054584Y-41621357D01*
X68944844Y-41424431D01*
X68798794Y-41252698D01*
X68622047Y-41112757D01*
X68421395Y-41009987D01*
X68204549Y-40948337D01*
X68025000Y-41005271D01*
X67975000Y-41005271D01*
X67795451Y-40948337D01*
X67578605Y-41009987D01*
X67377953Y-41112757D01*
X67201206Y-41252698D01*
X67055156Y-41424431D01*
X66945416Y-41621357D01*
X66876203Y-41835909D01*
X66868338Y-41875451D01*
X62903269Y-41875451D01*
X59774013Y-38746196D01*
X59756790Y-38725210D01*
X59673042Y-38656479D01*
X59577494Y-38605408D01*
X59473819Y-38573958D01*
X59393018Y-38566000D01*
X59393008Y-38566000D01*
X59366000Y-38563340D01*
X59338992Y-38566000D01*
X48442834Y-38566000D01*
X48337574Y-38495668D01*
X48210182Y-38442901D01*
X48074944Y-38416000D01*
X47937056Y-38416000D01*
X47801818Y-38442901D01*
X47674426Y-38495668D01*
X47559776Y-38572274D01*
X47462274Y-38669776D01*
X47385668Y-38784426D01*
X47332901Y-38911818D01*
X47306000Y-39047056D01*
X28407538Y-39047056D01*
X31089678Y-36364917D01*
X31196224Y-36293726D01*
X31293726Y-36196224D01*
X31370332Y-36081574D01*
X31423099Y-35954182D01*
X31450000Y-35818944D01*
X31450000Y-35681056D01*
X31423099Y-35545818D01*
X31370332Y-35418426D01*
X31293726Y-35303776D01*
X31196224Y-35206274D01*
X31081574Y-35129668D01*
X30954182Y-35076901D01*
X30818944Y-35050000D01*
X30681056Y-35050000D01*
X30545818Y-35076901D01*
X30418426Y-35129668D01*
X30303776Y-35206274D01*
X30206274Y-35303776D01*
X30135083Y-35410322D01*
X23296144Y-42249262D01*
X23270394Y-42270395D01*
X23249263Y-42296143D01*
X23249256Y-42296150D01*
X23226326Y-42324091D01*
X23186042Y-42373177D01*
X23123364Y-42490440D01*
X23101735Y-42561741D01*
X23084767Y-42617677D01*
X23083553Y-42630000D01*
X23075000Y-42716842D01*
X23075000Y-42716848D01*
X23071735Y-42750000D01*
X23075000Y-42783152D01*
X23075001Y-55555370D01*
X23050000Y-55681056D01*
X10101451Y-55681056D01*
X10101451Y-53200000D01*
X10095659Y-53141190D01*
X10078504Y-53084640D01*
X10050647Y-53032523D01*
X10013158Y-52986842D01*
X9967477Y-52949353D01*
X9915360Y-52921496D01*
X9858810Y-52904341D01*
X9800000Y-52898549D01*
X7200000Y-52898549D01*
X7141190Y-52904341D01*
X7084640Y-52921496D01*
X7032523Y-52949353D01*
X6986842Y-52986842D01*
X6949353Y-53032523D01*
X6921496Y-53084640D01*
X6904341Y-53141190D01*
X6898549Y-53200000D01*
X325000Y-53200000D01*
X325000Y-49342414D01*
X6900000Y-49342414D01*
X6900000Y-49657586D01*
X6961487Y-49966703D01*
X7082098Y-50257884D01*
X7257199Y-50519941D01*
X7480059Y-50742801D01*
X7742116Y-50917902D01*
X8033297Y-51038513D01*
X8342414Y-51100000D01*
X8657586Y-51100000D01*
X8966703Y-51038513D01*
X9257884Y-50917902D01*
X9519941Y-50742801D01*
X9742801Y-50519941D01*
X9917902Y-50257884D01*
X10038513Y-49966703D01*
X10100000Y-49657586D01*
X10100000Y-49342414D01*
X10038513Y-49033297D01*
X9917902Y-48742116D01*
X9742801Y-48480059D01*
X9519941Y-48257199D01*
X9257884Y-48082098D01*
X8966703Y-47961487D01*
X8657586Y-47900000D01*
X8342414Y-47900000D01*
X8033297Y-47961487D01*
X7742116Y-48082098D01*
X7480059Y-48257199D01*
X7257199Y-48480059D01*
X7082098Y-48742116D01*
X6961487Y-49033297D01*
X6900000Y-49342414D01*
X325000Y-49342414D01*
X325000Y-40200000D01*
X6898549Y-40200000D01*
X6898549Y-42800000D01*
X6904341Y-42858810D01*
X6921496Y-42915360D01*
X6949353Y-42967477D01*
X6986842Y-43013158D01*
X7032523Y-43050647D01*
X7084640Y-43078504D01*
X7141190Y-43095659D01*
X7200000Y-43101451D01*
X9800000Y-43101451D01*
X9858810Y-43095659D01*
X9915360Y-43078504D01*
X9967477Y-43050647D01*
X10013158Y-43013158D01*
X10050647Y-42967477D01*
X10078504Y-42915360D01*
X10095659Y-42858810D01*
X10101451Y-42800000D01*
X10101451Y-40200000D01*
X10095659Y-40141190D01*
X10078504Y-40084640D01*
X10050647Y-40032523D01*
X10013158Y-39986842D01*
X9967477Y-39949353D01*
X9915360Y-39921496D01*
X9858810Y-39904341D01*
X9800000Y-39898549D01*
X7200000Y-39898549D01*
X7141190Y-39904341D01*
X7084640Y-39921496D01*
X7032523Y-39949353D01*
X6986842Y-39986842D01*
X6949353Y-40032523D01*
X6921496Y-40084640D01*
X6904341Y-40141190D01*
X6898549Y-40200000D01*
X325000Y-40200000D01*
X325000Y-36342414D01*
X6900000Y-36342414D01*
X6900000Y-36657586D01*
X6961487Y-36966703D01*
X7082098Y-37257884D01*
X7257199Y-37519941D01*
X7480059Y-37742801D01*
X7742116Y-37917902D01*
X8033297Y-38038513D01*
X8342414Y-38100000D01*
X8657586Y-38100000D01*
X8966703Y-38038513D01*
X9257884Y-37917902D01*
X9519941Y-37742801D01*
X9742801Y-37519941D01*
X9917902Y-37257884D01*
X10038513Y-36966703D01*
X10100000Y-36657586D01*
X10100000Y-36342414D01*
X10038513Y-36033297D01*
X9917902Y-35742116D01*
X9742801Y-35480059D01*
X9519941Y-35257199D01*
X9257884Y-35082098D01*
X8966703Y-34961487D01*
X8657586Y-34900000D01*
X8342414Y-34900000D01*
X8033297Y-34961487D01*
X7742116Y-35082098D01*
X7480059Y-35257199D01*
X7257199Y-35480059D01*
X7082098Y-35742116D01*
X6961487Y-36033297D01*
X6900000Y-36342414D01*
X325000Y-36342414D01*
X325000Y-30665056D01*
X64832000Y-30665056D01*
X64832000Y-30802944D01*
X64858901Y-30938182D01*
X64911668Y-31065574D01*
X64988274Y-31180224D01*
X65085776Y-31277726D01*
X65107000Y-31291907D01*
X65107001Y-38841123D01*
X65104945Y-38862000D01*
X65113150Y-38945314D01*
X65132221Y-39008181D01*
X65137453Y-39025427D01*
X65176917Y-39099260D01*
X65230027Y-39163974D01*
X65246239Y-39177279D01*
X65344980Y-39276020D01*
X65340000Y-39301056D01*
X65340000Y-39438944D01*
X65366901Y-39574182D01*
X65419668Y-39701574D01*
X65496274Y-39816224D01*
X65593776Y-39913726D01*
X65708426Y-39990332D01*
X65835818Y-40043099D01*
X65971056Y-40070000D01*
X66108944Y-40070000D01*
X66244182Y-40043099D01*
X66371574Y-39990332D01*
X66486224Y-39913726D01*
X66583726Y-39816224D01*
X66631617Y-39744549D01*
X66868338Y-39744549D01*
X66876203Y-39784091D01*
X66945416Y-39998643D01*
X67055156Y-40195569D01*
X67201206Y-40367302D01*
X67377953Y-40507243D01*
X67578605Y-40610013D01*
X67795451Y-40671663D01*
X67975000Y-40614729D01*
X67975000Y-39565000D01*
X68025000Y-39565000D01*
X68025000Y-40614729D01*
X68204549Y-40671663D01*
X68421395Y-40610013D01*
X68622047Y-40507243D01*
X68798794Y-40367302D01*
X68944844Y-40195569D01*
X69054584Y-39998643D01*
X69123797Y-39784091D01*
X69131662Y-39744549D01*
X69074709Y-39565000D01*
X68025000Y-39565000D01*
X67975000Y-39565000D01*
X66925291Y-39565000D01*
X66868338Y-39744549D01*
X66631617Y-39744549D01*
X66660332Y-39701574D01*
X66713099Y-39574182D01*
X66740000Y-39438944D01*
X66740000Y-39335451D01*
X66868338Y-39335451D01*
X66925291Y-39515000D01*
X67975000Y-39515000D01*
X67975000Y-38465271D01*
X68025000Y-38465271D01*
X68025000Y-39515000D01*
X69074709Y-39515000D01*
X69131662Y-39335451D01*
X69123797Y-39295909D01*
X69054584Y-39081357D01*
X68944844Y-38884431D01*
X68798794Y-38712698D01*
X68622047Y-38572757D01*
X68421395Y-38469987D01*
X68204549Y-38408337D01*
X68025000Y-38465271D01*
X67975000Y-38465271D01*
X67795451Y-38408337D01*
X67578605Y-38469987D01*
X67377953Y-38572757D01*
X67201206Y-38712698D01*
X67055156Y-38884431D01*
X66945416Y-39081357D01*
X66876203Y-39295909D01*
X66868338Y-39335451D01*
X66740000Y-39335451D01*
X66740000Y-39301056D01*
X66713099Y-39165818D01*
X66660332Y-39038426D01*
X66583726Y-38923776D01*
X66486224Y-38826274D01*
X66371574Y-38749668D01*
X66244182Y-38696901D01*
X66108944Y-38670000D01*
X65971056Y-38670000D01*
X65957000Y-38672796D01*
X65957000Y-37850000D01*
X66848548Y-37850000D01*
X66854340Y-37908810D01*
X66871495Y-37965361D01*
X66899352Y-38017478D01*
X66936841Y-38063159D01*
X66982522Y-38100648D01*
X67034639Y-38128505D01*
X67091190Y-38145660D01*
X67150000Y-38151452D01*
X67900000Y-38150000D01*
X67975000Y-38075000D01*
X67975000Y-37025000D01*
X68025000Y-37025000D01*
X68025000Y-38075000D01*
X68100000Y-38150000D01*
X68850000Y-38151452D01*
X68908810Y-38145660D01*
X68965361Y-38128505D01*
X69017478Y-38100648D01*
X69063159Y-38063159D01*
X69100648Y-38017478D01*
X69128505Y-37965361D01*
X69145660Y-37908810D01*
X69151452Y-37850000D01*
X69150000Y-37100000D01*
X69075000Y-37025000D01*
X68025000Y-37025000D01*
X67975000Y-37025000D01*
X66925000Y-37025000D01*
X66850000Y-37100000D01*
X66848548Y-37850000D01*
X65957000Y-37850000D01*
X65957000Y-36150000D01*
X66848548Y-36150000D01*
X66850000Y-36900000D01*
X66925000Y-36975000D01*
X67975000Y-36975000D01*
X67975000Y-35925000D01*
X68025000Y-35925000D01*
X68025000Y-36975000D01*
X69075000Y-36975000D01*
X69150000Y-36900000D01*
X69150025Y-36886735D01*
X69390000Y-36886735D01*
X69390000Y-37113265D01*
X69434194Y-37335443D01*
X69520884Y-37544729D01*
X69646737Y-37733082D01*
X69806918Y-37893263D01*
X69995271Y-38019116D01*
X70204557Y-38105806D01*
X70426735Y-38150000D01*
X70653265Y-38150000D01*
X70875443Y-38105806D01*
X71084729Y-38019116D01*
X71273082Y-37893263D01*
X71433263Y-37733082D01*
X71559116Y-37544729D01*
X71645806Y-37335443D01*
X71690000Y-37113265D01*
X71690000Y-36886735D01*
X71645806Y-36664557D01*
X71559116Y-36455271D01*
X71433263Y-36266918D01*
X71273082Y-36106737D01*
X71084729Y-35980884D01*
X70875443Y-35894194D01*
X70653265Y-35850000D01*
X70426735Y-35850000D01*
X70204557Y-35894194D01*
X69995271Y-35980884D01*
X69806918Y-36106737D01*
X69646737Y-36266918D01*
X69520884Y-36455271D01*
X69434194Y-36664557D01*
X69390000Y-36886735D01*
X69150025Y-36886735D01*
X69151452Y-36150000D01*
X69145660Y-36091190D01*
X69128505Y-36034639D01*
X69100648Y-35982522D01*
X69063159Y-35936841D01*
X69017478Y-35899352D01*
X68965361Y-35871495D01*
X68908810Y-35854340D01*
X68850000Y-35848548D01*
X68100000Y-35850000D01*
X68025000Y-35925000D01*
X67975000Y-35925000D01*
X67900000Y-35850000D01*
X67150000Y-35848548D01*
X67091190Y-35854340D01*
X67034639Y-35871495D01*
X66982522Y-35899352D01*
X66936841Y-35936841D01*
X66899352Y-35982522D01*
X66871495Y-36034639D01*
X66854340Y-36091190D01*
X66848548Y-36150000D01*
X65957000Y-36150000D01*
X65957000Y-31291907D01*
X65978224Y-31277726D01*
X66075726Y-31180224D01*
X66152332Y-31065574D01*
X66205099Y-30938182D01*
X66232000Y-30802944D01*
X66232000Y-30665056D01*
X66205099Y-30529818D01*
X66152332Y-30402426D01*
X66075726Y-30287776D01*
X65978224Y-30190274D01*
X65863574Y-30113668D01*
X65736182Y-30060901D01*
X65600944Y-30034000D01*
X65463056Y-30034000D01*
X65327818Y-30060901D01*
X65200426Y-30113668D01*
X65085776Y-30190274D01*
X64988274Y-30287776D01*
X64911668Y-30402426D01*
X64858901Y-30529818D01*
X64832000Y-30665056D01*
X325000Y-30665056D01*
X325000Y-28040000D01*
X74675001Y-28040000D01*
X74675000Y-71865380D01*
%TA.AperFunction,Conductor*%
D23*
G36*
X74675000Y-71865380D02*
G01*
X71865382Y-74675000D01*
X62134619Y-74675000D01*
X57272485Y-69812866D01*
X68100000Y-69812866D01*
X68100000Y-70187134D01*
X68173016Y-70554209D01*
X68316242Y-70899987D01*
X68524174Y-71211179D01*
X68788821Y-71475826D01*
X69100013Y-71683758D01*
X69445791Y-71826984D01*
X69812866Y-71900000D01*
X70187134Y-71900000D01*
X70554209Y-71826984D01*
X70899987Y-71683758D01*
X71211179Y-71475826D01*
X71475826Y-71211179D01*
X71683758Y-70899987D01*
X71826984Y-70554209D01*
X71900000Y-70187134D01*
X71900000Y-69812866D01*
X71826984Y-69445791D01*
X71683758Y-69100013D01*
X71475826Y-68788821D01*
X71211179Y-68524174D01*
X70899987Y-68316242D01*
X70554209Y-68173016D01*
X70187134Y-68100000D01*
X69812866Y-68100000D01*
X69445791Y-68173016D01*
X69100013Y-68316242D01*
X68788821Y-68524174D01*
X68524174Y-68788821D01*
X68316242Y-69100013D01*
X68173016Y-69445791D01*
X68100000Y-69812866D01*
X57272485Y-69812866D01*
X56241101Y-68781483D01*
X56230921Y-68769079D01*
X56181434Y-68728465D01*
X56124974Y-68698287D01*
X56063711Y-68679703D01*
X56015961Y-68675000D01*
X56015953Y-68675000D01*
X56000000Y-68673429D01*
X55984047Y-68675000D01*
X19015953Y-68675000D01*
X19000000Y-68673429D01*
X18984047Y-68675000D01*
X18984039Y-68675000D01*
X18936289Y-68679703D01*
X18875026Y-68698287D01*
X18818566Y-68728465D01*
X18797697Y-68745592D01*
X18781476Y-68758904D01*
X18781472Y-68758908D01*
X18769079Y-68769079D01*
X18758908Y-68781472D01*
X17781481Y-69758901D01*
X17781476Y-69758905D01*
X12865382Y-74675000D01*
X3134620Y-74675000D01*
X325000Y-71865382D01*
X325000Y-69812866D01*
X3100000Y-69812866D01*
X3100000Y-70187134D01*
X3173016Y-70554209D01*
X3316242Y-70899987D01*
X3524174Y-71211179D01*
X3788821Y-71475826D01*
X4100013Y-71683758D01*
X4445791Y-71826984D01*
X4812866Y-71900000D01*
X5187134Y-71900000D01*
X5554209Y-71826984D01*
X5899987Y-71683758D01*
X6211179Y-71475826D01*
X6475826Y-71211179D01*
X6683758Y-70899987D01*
X6826984Y-70554209D01*
X6900000Y-70187134D01*
X6900000Y-69812866D01*
X6826984Y-69445791D01*
X6683758Y-69100013D01*
X6475826Y-68788821D01*
X6211179Y-68524174D01*
X5899987Y-68316242D01*
X5554209Y-68173016D01*
X5187134Y-68100000D01*
X4812866Y-68100000D01*
X4445791Y-68173016D01*
X4100013Y-68316242D01*
X3788821Y-68524174D01*
X3524174Y-68788821D01*
X3316242Y-69100013D01*
X3173016Y-69445791D01*
X3100000Y-69812866D01*
X325000Y-69812866D01*
X325000Y-64320056D01*
X34098000Y-64320056D01*
X34098000Y-64457944D01*
X34124901Y-64593182D01*
X34177668Y-64720574D01*
X34254274Y-64835224D01*
X34351776Y-64932726D01*
X34466426Y-65009332D01*
X34593818Y-65062099D01*
X34717980Y-65086797D01*
X35024987Y-65393804D01*
X35042210Y-65414790D01*
X35125958Y-65483521D01*
X35221506Y-65534592D01*
X35325181Y-65566042D01*
X35405982Y-65574000D01*
X35405989Y-65574000D01*
X35433000Y-65576660D01*
X35460011Y-65574000D01*
X67663992Y-65574000D01*
X67691000Y-65576660D01*
X67718008Y-65574000D01*
X67718018Y-65574000D01*
X67798819Y-65566042D01*
X67902494Y-65534592D01*
X67998042Y-65483521D01*
X68081790Y-65414790D01*
X68099013Y-65393804D01*
X70909810Y-62583008D01*
X70930790Y-62565790D01*
X70948008Y-62544810D01*
X70948013Y-62544805D01*
X70999520Y-62482043D01*
X70999521Y-62482042D01*
X71050592Y-62386494D01*
X71082042Y-62282819D01*
X71090000Y-62202018D01*
X71090000Y-62202009D01*
X71092660Y-62175001D01*
X71090000Y-62147993D01*
X71090000Y-45635594D01*
X71273082Y-45513263D01*
X71433263Y-45353082D01*
X71559116Y-45164729D01*
X71586000Y-45099826D01*
X71586001Y-63136182D01*
X68772183Y-65950000D01*
X36559996Y-65950000D01*
X36526574Y-65927668D01*
X36399182Y-65874901D01*
X36263944Y-65848000D01*
X36126056Y-65848000D01*
X35990818Y-65874901D01*
X35863426Y-65927668D01*
X35748776Y-66004274D01*
X35651274Y-66101776D01*
X35574668Y-66216426D01*
X35521901Y-66343818D01*
X35495000Y-66479056D01*
X35495000Y-66616944D01*
X35521901Y-66752182D01*
X35574668Y-66879574D01*
X35651274Y-66994224D01*
X35748776Y-67091726D01*
X35863426Y-67168332D01*
X35990818Y-67221099D01*
X36126056Y-67248000D01*
X36263944Y-67248000D01*
X36399182Y-67221099D01*
X36526574Y-67168332D01*
X36641224Y-67091726D01*
X36682950Y-67050000D01*
X68972992Y-67050000D01*
X69000000Y-67052660D01*
X69027008Y-67050000D01*
X69027018Y-67050000D01*
X69107819Y-67042042D01*
X69211494Y-67010592D01*
X69307042Y-66959521D01*
X69390790Y-66890790D01*
X69408013Y-66869804D01*
X72505804Y-63772013D01*
X72526790Y-63754790D01*
X72595521Y-63671042D01*
X72646592Y-63575495D01*
X72678042Y-63471819D01*
X72686000Y-63391018D01*
X72686000Y-63391011D01*
X72688660Y-63364000D01*
X72686000Y-63336989D01*
X72686000Y-50688950D01*
X72705776Y-50708726D01*
X72820426Y-50785332D01*
X72947818Y-50838099D01*
X73083056Y-50865000D01*
X73220944Y-50865000D01*
X73356182Y-50838099D01*
X73483574Y-50785332D01*
X73598224Y-50708726D01*
X73695726Y-50611224D01*
X73772332Y-50496574D01*
X73825099Y-50369182D01*
X73852000Y-50233944D01*
X73852000Y-50096056D01*
X73825099Y-49960818D01*
X73772332Y-49833426D01*
X73702000Y-49728166D01*
X73702000Y-40540011D01*
X73704660Y-40513000D01*
X73702000Y-40485989D01*
X73702000Y-40485982D01*
X73694042Y-40405181D01*
X73662592Y-40301506D01*
X73662592Y-40301505D01*
X73611521Y-40205958D01*
X73560013Y-40143196D01*
X73542790Y-40122210D01*
X73521804Y-40104987D01*
X72587013Y-39170196D01*
X72569790Y-39149210D01*
X72486042Y-39080479D01*
X72390494Y-39029408D01*
X72286819Y-38997958D01*
X72206018Y-38990000D01*
X72206008Y-38990000D01*
X72179000Y-38987340D01*
X72151992Y-38990000D01*
X71555594Y-38990000D01*
X71433263Y-38806918D01*
X71273082Y-38646737D01*
X71084729Y-38520884D01*
X70875443Y-38434194D01*
X70653265Y-38390000D01*
X70426735Y-38390000D01*
X70204557Y-38434194D01*
X69995271Y-38520884D01*
X69806918Y-38646737D01*
X69646737Y-38806918D01*
X69520884Y-38995271D01*
X69434194Y-39204557D01*
X69390000Y-39426735D01*
X69390000Y-39653265D01*
X69434194Y-39875443D01*
X69520884Y-40084729D01*
X69646737Y-40273082D01*
X69806918Y-40433263D01*
X69995271Y-40559116D01*
X70204557Y-40645806D01*
X70426735Y-40690000D01*
X70653265Y-40690000D01*
X70875443Y-40645806D01*
X71084729Y-40559116D01*
X71273082Y-40433263D01*
X71433263Y-40273082D01*
X71555594Y-40090000D01*
X71951183Y-40090000D01*
X72602001Y-40740818D01*
X72602001Y-42377081D01*
X72595521Y-42364958D01*
X72585523Y-42352776D01*
X72544013Y-42302195D01*
X72544008Y-42302190D01*
X72526790Y-42281210D01*
X72505809Y-42263992D01*
X71952013Y-41710195D01*
X71934790Y-41689210D01*
X71851042Y-41620479D01*
X71755494Y-41569408D01*
X71651819Y-41537958D01*
X71571018Y-41530000D01*
X71571008Y-41530000D01*
X71554508Y-41528375D01*
X71433263Y-41346918D01*
X71273082Y-41186737D01*
X71084729Y-41060884D01*
X70875443Y-40974194D01*
X70653265Y-40930000D01*
X70426735Y-40930000D01*
X70204557Y-40974194D01*
X69995271Y-41060884D01*
X69806918Y-41186737D01*
X69646737Y-41346918D01*
X69520884Y-41535271D01*
X69434194Y-41744557D01*
X69390000Y-41966735D01*
X69390000Y-42193265D01*
X69434194Y-42415443D01*
X69520884Y-42624729D01*
X69646737Y-42813082D01*
X69806918Y-42973263D01*
X69995271Y-43099116D01*
X70204557Y-43185806D01*
X70426735Y-43230000D01*
X70653265Y-43230000D01*
X70875443Y-43185806D01*
X71084729Y-43099116D01*
X71273082Y-42973263D01*
X71433263Y-42813082D01*
X71459699Y-42773517D01*
X71586000Y-42899818D01*
X71586000Y-44140174D01*
X71559116Y-44075271D01*
X71433263Y-43886918D01*
X71273082Y-43726737D01*
X71084729Y-43600884D01*
X70875443Y-43514194D01*
X70653265Y-43470000D01*
X70426735Y-43470000D01*
X70204557Y-43514194D01*
X69995271Y-43600884D01*
X69806918Y-43726737D01*
X69646737Y-43886918D01*
X69520884Y-44075271D01*
X69434194Y-44284557D01*
X69390000Y-44506735D01*
X69390000Y-44733265D01*
X69434194Y-44955443D01*
X69520884Y-45164729D01*
X69646737Y-45353082D01*
X69806918Y-45513263D01*
X69990001Y-45635595D01*
X69990000Y-61947182D01*
X67463183Y-64474000D01*
X35660817Y-64474000D01*
X35495797Y-64308980D01*
X35471099Y-64184818D01*
X35418332Y-64057426D01*
X35341726Y-63942776D01*
X35244224Y-63845274D01*
X35129574Y-63768668D01*
X35002182Y-63715901D01*
X34866944Y-63689000D01*
X34729056Y-63689000D01*
X34593818Y-63715901D01*
X34466426Y-63768668D01*
X34351776Y-63845274D01*
X34254274Y-63942776D01*
X34177668Y-64057426D01*
X34124901Y-64184818D01*
X34098000Y-64320056D01*
X325000Y-64320056D01*
X325000Y-59621056D01*
X53910000Y-59621056D01*
X53910000Y-59758944D01*
X53936901Y-59894182D01*
X53989668Y-60021574D01*
X54066274Y-60136224D01*
X54163776Y-60233726D01*
X54278426Y-60310332D01*
X54405818Y-60363099D01*
X54529980Y-60387797D01*
X56452203Y-62310021D01*
X56476901Y-62434182D01*
X56529668Y-62561574D01*
X56606274Y-62676224D01*
X56703776Y-62773726D01*
X56818426Y-62850332D01*
X56945818Y-62903099D01*
X57081056Y-62930000D01*
X57218944Y-62930000D01*
X57354182Y-62903099D01*
X57481574Y-62850332D01*
X57596224Y-62773726D01*
X57693726Y-62676224D01*
X57770332Y-62561574D01*
X57823099Y-62434182D01*
X57850000Y-62298944D01*
X57850000Y-62161056D01*
X57823099Y-62025818D01*
X57770332Y-61898426D01*
X57693726Y-61783776D01*
X57596224Y-61686274D01*
X57481574Y-61609668D01*
X57354182Y-61556901D01*
X57230021Y-61532203D01*
X56588874Y-60891056D01*
X63054000Y-60891056D01*
X63054000Y-61028944D01*
X63080901Y-61164182D01*
X63133668Y-61291574D01*
X63210274Y-61406224D01*
X63307776Y-61503726D01*
X63422426Y-61580332D01*
X63549818Y-61633099D01*
X63685056Y-61660000D01*
X63822944Y-61660000D01*
X63958182Y-61633099D01*
X64085574Y-61580332D01*
X64190834Y-61510000D01*
X67529081Y-61510000D01*
X67613818Y-61545099D01*
X67749056Y-61572000D01*
X67886944Y-61572000D01*
X68022182Y-61545099D01*
X68149574Y-61492332D01*
X68264224Y-61415726D01*
X68361726Y-61318224D01*
X68438332Y-61203574D01*
X68491099Y-61076182D01*
X68518000Y-60940944D01*
X68518000Y-60803056D01*
X68491099Y-60667818D01*
X68438332Y-60540426D01*
X68361726Y-60425776D01*
X68264224Y-60328274D01*
X68149574Y-60251668D01*
X68022182Y-60198901D01*
X67886944Y-60172000D01*
X67749056Y-60172000D01*
X67613818Y-60198901D01*
X67486426Y-60251668D01*
X67371776Y-60328274D01*
X67290050Y-60410000D01*
X64190834Y-60410000D01*
X64085574Y-60339668D01*
X63958182Y-60286901D01*
X63822944Y-60260000D01*
X63685056Y-60260000D01*
X63549818Y-60286901D01*
X63422426Y-60339668D01*
X63307776Y-60416274D01*
X63210274Y-60513776D01*
X63133668Y-60628426D01*
X63080901Y-60755818D01*
X63054000Y-60891056D01*
X56588874Y-60891056D01*
X55307797Y-59609980D01*
X55283099Y-59485818D01*
X55230332Y-59358426D01*
X55153726Y-59243776D01*
X55056224Y-59146274D01*
X54941574Y-59069668D01*
X54814182Y-59016901D01*
X54678944Y-58990000D01*
X54541056Y-58990000D01*
X54405818Y-59016901D01*
X54278426Y-59069668D01*
X54163776Y-59146274D01*
X54066274Y-59243776D01*
X53989668Y-59358426D01*
X53936901Y-59485818D01*
X53910000Y-59621056D01*
X325000Y-59621056D01*
X325000Y-57843056D01*
X52386000Y-57843056D01*
X52386000Y-57980944D01*
X52412901Y-58116182D01*
X52465668Y-58243574D01*
X52542274Y-58358224D01*
X52639776Y-58455726D01*
X52754426Y-58532332D01*
X52881818Y-58585099D01*
X53017056Y-58612000D01*
X53154944Y-58612000D01*
X53290182Y-58585099D01*
X53417574Y-58532332D01*
X53532224Y-58455726D01*
X53629726Y-58358224D01*
X53643907Y-58337000D01*
X53728962Y-58337000D01*
X54097723Y-58705762D01*
X54111028Y-58721974D01*
X54175742Y-58775084D01*
X54249575Y-58814548D01*
X54305385Y-58831478D01*
X54329687Y-58838850D01*
X54338100Y-58839679D01*
X54392128Y-58845000D01*
X54392134Y-58845000D01*
X54413001Y-58847055D01*
X54433868Y-58845000D01*
X63479133Y-58845000D01*
X63500000Y-58847055D01*
X63520867Y-58845000D01*
X63520874Y-58845000D01*
X63583314Y-58838850D01*
X63663427Y-58814548D01*
X63737260Y-58775084D01*
X63801974Y-58721974D01*
X63815283Y-58705757D01*
X64547763Y-57973278D01*
X64563974Y-57959974D01*
X64617084Y-57895260D01*
X64652668Y-57828686D01*
X64656548Y-57821428D01*
X64680850Y-57741314D01*
X64684149Y-57707818D01*
X64687000Y-57678874D01*
X64687000Y-57678867D01*
X64689055Y-57658000D01*
X64687000Y-57637133D01*
X64687000Y-50693867D01*
X64689055Y-50673000D01*
X64687000Y-50652133D01*
X64687000Y-50652126D01*
X64680850Y-50589686D01*
X64656548Y-50509573D01*
X64617084Y-50435740D01*
X64563974Y-50371026D01*
X64547762Y-50357721D01*
X62925020Y-48734980D01*
X62930000Y-48709944D01*
X62930000Y-48572056D01*
X62903099Y-48436818D01*
X62850332Y-48309426D01*
X62773726Y-48194776D01*
X62676224Y-48097274D01*
X62655000Y-48083093D01*
X62655000Y-44089866D01*
X62657055Y-44068999D01*
X62655000Y-44048132D01*
X62655000Y-44048126D01*
X62648850Y-43985686D01*
X62624548Y-43905573D01*
X62585084Y-43831740D01*
X62531974Y-43767026D01*
X62515763Y-43753722D01*
X61655020Y-42892980D01*
X61660000Y-42867944D01*
X61660000Y-42730056D01*
X61633099Y-42594818D01*
X61580332Y-42467426D01*
X61503726Y-42352776D01*
X61406224Y-42255274D01*
X61291574Y-42178668D01*
X61164182Y-42125901D01*
X61028944Y-42099000D01*
X60891056Y-42099000D01*
X60755818Y-42125901D01*
X60628426Y-42178668D01*
X60513776Y-42255274D01*
X60416274Y-42352776D01*
X60339668Y-42467426D01*
X60286901Y-42594818D01*
X60260000Y-42730056D01*
X60260000Y-42867944D01*
X60286901Y-43003182D01*
X60339668Y-43130574D01*
X60416274Y-43245224D01*
X60513776Y-43342726D01*
X60628426Y-43419332D01*
X60755818Y-43472099D01*
X60891056Y-43499000D01*
X61028944Y-43499000D01*
X61053980Y-43494020D01*
X61805000Y-44245041D01*
X61805001Y-48083092D01*
X61783776Y-48097274D01*
X61686274Y-48194776D01*
X61609668Y-48309426D01*
X61556901Y-48436818D01*
X61530000Y-48572056D01*
X61530000Y-48709944D01*
X61556901Y-48845182D01*
X61609668Y-48972574D01*
X61686274Y-49087224D01*
X61783776Y-49184726D01*
X61898426Y-49261332D01*
X62025818Y-49314099D01*
X62161056Y-49341000D01*
X62298944Y-49341000D01*
X62323980Y-49336020D01*
X63837001Y-50849042D01*
X63837000Y-57481959D01*
X63323960Y-57995000D01*
X54589043Y-57995000D01*
X54220285Y-57626243D01*
X54206976Y-57610026D01*
X54142262Y-57556916D01*
X54068429Y-57517452D01*
X53988316Y-57493150D01*
X53925876Y-57487000D01*
X53925869Y-57487000D01*
X53905002Y-57484945D01*
X53884135Y-57487000D01*
X53643907Y-57487000D01*
X53629726Y-57465776D01*
X53532224Y-57368274D01*
X53417574Y-57291668D01*
X53290182Y-57238901D01*
X53154944Y-57212000D01*
X53017056Y-57212000D01*
X52881818Y-57238901D01*
X52754426Y-57291668D01*
X52639776Y-57368274D01*
X52542274Y-57465776D01*
X52465668Y-57580426D01*
X52412901Y-57707818D01*
X52386000Y-57843056D01*
X325000Y-57843056D01*
X325000Y-53200000D01*
X6898549Y-53200000D01*
X6898549Y-55800000D01*
X6904341Y-55858810D01*
X6921496Y-55915360D01*
X6949353Y-55967477D01*
X6986842Y-56013158D01*
X7032523Y-56050647D01*
X7084640Y-56078504D01*
X7141190Y-56095659D01*
X7200000Y-56101451D01*
X9800000Y-56101451D01*
X9858810Y-56095659D01*
X9915360Y-56078504D01*
X9967477Y-56050647D01*
X10013158Y-56013158D01*
X10050647Y-55967477D01*
X10078504Y-55915360D01*
X10095659Y-55858810D01*
X10101451Y-55800000D01*
X10101451Y-55681056D01*
X23050000Y-55681056D01*
X23050000Y-55818944D01*
X23076901Y-55954182D01*
X23129668Y-56081574D01*
X23206274Y-56196224D01*
X23303776Y-56293726D01*
X23418426Y-56370332D01*
X23545818Y-56423099D01*
X23681056Y-56450000D01*
X23818944Y-56450000D01*
X23954182Y-56423099D01*
X24081574Y-56370332D01*
X24196224Y-56293726D01*
X24293726Y-56196224D01*
X24370332Y-56081574D01*
X24423099Y-55954182D01*
X24450000Y-55818944D01*
X24450000Y-55681056D01*
X25300000Y-55681056D01*
X25300000Y-55818944D01*
X25326901Y-55954182D01*
X25379668Y-56081574D01*
X25456274Y-56196224D01*
X25553776Y-56293726D01*
X25668426Y-56370332D01*
X25795818Y-56423099D01*
X25931056Y-56450000D01*
X26068944Y-56450000D01*
X26204182Y-56423099D01*
X26331574Y-56370332D01*
X26436834Y-56300000D01*
X34063166Y-56300000D01*
X34168426Y-56370332D01*
X34295818Y-56423099D01*
X34431056Y-56450000D01*
X34568944Y-56450000D01*
X34704182Y-56423099D01*
X34831574Y-56370332D01*
X34946224Y-56293726D01*
X35043726Y-56196224D01*
X35120332Y-56081574D01*
X35173099Y-55954182D01*
X35200000Y-55818944D01*
X35200000Y-55681056D01*
X35173099Y-55545818D01*
X35120332Y-55418426D01*
X35043726Y-55303776D01*
X34946224Y-55206274D01*
X34831574Y-55129668D01*
X34704182Y-55076901D01*
X34568944Y-55050000D01*
X34431056Y-55050000D01*
X34295818Y-55076901D01*
X34168426Y-55129668D01*
X34063166Y-55200000D01*
X26436834Y-55200000D01*
X26331574Y-55129668D01*
X26204182Y-55076901D01*
X26068944Y-55050000D01*
X25931056Y-55050000D01*
X25795818Y-55076901D01*
X25668426Y-55129668D01*
X25553776Y-55206274D01*
X25456274Y-55303776D01*
X25379668Y-55418426D01*
X25326901Y-55545818D01*
X25300000Y-55681056D01*
X24450000Y-55681056D01*
X24425000Y-55555375D01*
X24425000Y-49931056D01*
X28300000Y-49931056D01*
X28300000Y-50068944D01*
X28326901Y-50204182D01*
X28379668Y-50331574D01*
X28456274Y-50446224D01*
X28553776Y-50543726D01*
X28668426Y-50620332D01*
X28795818Y-50673099D01*
X28919980Y-50697797D01*
X30534992Y-52312810D01*
X30552210Y-52333790D01*
X30573190Y-52351008D01*
X30573195Y-52351013D01*
X30635958Y-52402521D01*
X30731506Y-52453592D01*
X30835181Y-52485042D01*
X30915982Y-52493000D01*
X30915992Y-52493000D01*
X30943000Y-52495660D01*
X30970008Y-52493000D01*
X58573183Y-52493000D01*
X62167203Y-56087021D01*
X62191901Y-56211182D01*
X62244668Y-56338574D01*
X62321274Y-56453224D01*
X62418776Y-56550726D01*
X62533426Y-56627332D01*
X62660818Y-56680099D01*
X62796056Y-56707000D01*
X62933944Y-56707000D01*
X63069182Y-56680099D01*
X63196574Y-56627332D01*
X63311224Y-56550726D01*
X63408726Y-56453224D01*
X63485332Y-56338574D01*
X63538099Y-56211182D01*
X63565000Y-56075944D01*
X63565000Y-55938056D01*
X63538099Y-55802818D01*
X63485332Y-55675426D01*
X63408726Y-55560776D01*
X63311224Y-55463274D01*
X63196574Y-55386668D01*
X63069182Y-55333901D01*
X62945021Y-55309203D01*
X59209012Y-51573195D01*
X59191790Y-51552210D01*
X59108042Y-51483479D01*
X59012494Y-51432408D01*
X58908819Y-51400958D01*
X58828018Y-51393000D01*
X58828008Y-51393000D01*
X58801000Y-51390340D01*
X58773992Y-51393000D01*
X31170818Y-51393000D01*
X29697797Y-49919980D01*
X29673099Y-49795818D01*
X29620332Y-49668426D01*
X29543726Y-49553776D01*
X29446224Y-49456274D01*
X29331574Y-49379668D01*
X29204182Y-49326901D01*
X29068944Y-49300000D01*
X28931056Y-49300000D01*
X28795818Y-49326901D01*
X28668426Y-49379668D01*
X28553776Y-49456274D01*
X28456274Y-49553776D01*
X28379668Y-49668426D01*
X28326901Y-49795818D01*
X28300000Y-49931056D01*
X24425000Y-49931056D01*
X24425000Y-47175056D01*
X47306000Y-47175056D01*
X47306000Y-47312944D01*
X47332901Y-47448182D01*
X47385668Y-47575574D01*
X47462274Y-47690224D01*
X47559776Y-47787726D01*
X47674426Y-47864332D01*
X47801818Y-47917099D01*
X47937056Y-47944000D01*
X48074944Y-47944000D01*
X48210182Y-47917099D01*
X48337574Y-47864332D01*
X48452224Y-47787726D01*
X48549726Y-47690224D01*
X48555851Y-47681056D01*
X48800000Y-47681056D01*
X48800000Y-47818944D01*
X48826901Y-47954182D01*
X48879668Y-48081574D01*
X48956274Y-48196224D01*
X49053776Y-48293726D01*
X49168426Y-48370332D01*
X49295818Y-48423099D01*
X49431056Y-48450000D01*
X49568944Y-48450000D01*
X49704182Y-48423099D01*
X49831574Y-48370332D01*
X49946224Y-48293726D01*
X50043726Y-48196224D01*
X50120332Y-48081574D01*
X50173099Y-47954182D01*
X50200000Y-47818944D01*
X50200000Y-47681056D01*
X50173099Y-47545818D01*
X50120332Y-47418426D01*
X50050000Y-47313166D01*
X50050000Y-46667056D01*
X51116000Y-46667056D01*
X51116000Y-46804944D01*
X51142901Y-46940182D01*
X51195668Y-47067574D01*
X51272274Y-47182224D01*
X51369776Y-47279726D01*
X51484426Y-47356332D01*
X51611818Y-47409099D01*
X51747056Y-47436000D01*
X51884944Y-47436000D01*
X52020182Y-47409099D01*
X52147574Y-47356332D01*
X52262224Y-47279726D01*
X52359726Y-47182224D01*
X52436332Y-47067574D01*
X52489099Y-46940182D01*
X52513797Y-46816021D01*
X53059818Y-46270000D01*
X54935166Y-46270000D01*
X55040426Y-46340332D01*
X55167818Y-46393099D01*
X55303056Y-46420000D01*
X55440944Y-46420000D01*
X55576182Y-46393099D01*
X55703574Y-46340332D01*
X55818224Y-46263726D01*
X55915726Y-46166224D01*
X55992332Y-46051574D01*
X56045099Y-45924182D01*
X56072000Y-45788944D01*
X56072000Y-45651056D01*
X56045099Y-45515818D01*
X55992332Y-45388426D01*
X55915726Y-45273776D01*
X55818224Y-45176274D01*
X55703574Y-45099668D01*
X55576182Y-45046901D01*
X55440944Y-45020000D01*
X55303056Y-45020000D01*
X55167818Y-45046901D01*
X55040426Y-45099668D01*
X54935166Y-45170000D01*
X52859008Y-45170000D01*
X52832000Y-45167340D01*
X52804992Y-45170000D01*
X52804982Y-45170000D01*
X52724181Y-45177958D01*
X52620506Y-45209408D01*
X52576028Y-45233182D01*
X52524957Y-45260479D01*
X52462195Y-45311987D01*
X52462190Y-45311992D01*
X52441210Y-45329210D01*
X52423992Y-45350190D01*
X51735979Y-46038203D01*
X51611818Y-46062901D01*
X51484426Y-46115668D01*
X51369776Y-46192274D01*
X51272274Y-46289776D01*
X51195668Y-46404426D01*
X51142901Y-46531818D01*
X51116000Y-46667056D01*
X50050000Y-46667056D01*
X50050000Y-45977817D01*
X52551818Y-43476000D01*
X54427166Y-43476000D01*
X54532426Y-43546332D01*
X54659818Y-43599099D01*
X54795056Y-43626000D01*
X54932944Y-43626000D01*
X55068182Y-43599099D01*
X55195574Y-43546332D01*
X55310224Y-43469726D01*
X55407726Y-43372224D01*
X55484332Y-43257574D01*
X55537099Y-43130182D01*
X55564000Y-42994944D01*
X55564000Y-42857056D01*
X55537099Y-42721818D01*
X55484332Y-42594426D01*
X55407726Y-42479776D01*
X55310224Y-42382274D01*
X55195574Y-42305668D01*
X55068182Y-42252901D01*
X54932944Y-42226000D01*
X54795056Y-42226000D01*
X54659818Y-42252901D01*
X54532426Y-42305668D01*
X54427166Y-42376000D01*
X52351007Y-42376000D01*
X52323999Y-42373340D01*
X52296991Y-42376000D01*
X52296982Y-42376000D01*
X52216181Y-42383958D01*
X52112506Y-42415408D01*
X52112441Y-42415443D01*
X52016957Y-42466479D01*
X51954195Y-42517987D01*
X51954190Y-42517992D01*
X51933210Y-42535210D01*
X51915992Y-42556190D01*
X49130191Y-45341992D01*
X49109211Y-45359210D01*
X49091993Y-45380190D01*
X49091987Y-45380196D01*
X49040479Y-45442958D01*
X48989409Y-45538506D01*
X48957959Y-45642182D01*
X48947340Y-45750000D01*
X48950001Y-45777018D01*
X48950000Y-47313165D01*
X48879668Y-47418426D01*
X48826901Y-47545818D01*
X48800000Y-47681056D01*
X48555851Y-47681056D01*
X48626332Y-47575574D01*
X48679099Y-47448182D01*
X48706000Y-47312944D01*
X48706000Y-47175056D01*
X48679099Y-47039818D01*
X48626332Y-46912426D01*
X48556000Y-46807166D01*
X48556000Y-44721817D01*
X48619804Y-44658013D01*
X48640790Y-44640790D01*
X48709521Y-44557042D01*
X48760592Y-44461494D01*
X48792042Y-44357819D01*
X48800000Y-44277018D01*
X48800000Y-44277009D01*
X48802660Y-44250001D01*
X48800000Y-44222993D01*
X48800000Y-43436834D01*
X48870332Y-43331574D01*
X48923099Y-43204182D01*
X48950000Y-43068944D01*
X48950000Y-42931056D01*
X48923099Y-42795818D01*
X48870332Y-42668426D01*
X48793726Y-42553776D01*
X48696224Y-42456274D01*
X48581574Y-42379668D01*
X48454182Y-42326901D01*
X48318944Y-42300000D01*
X48181056Y-42300000D01*
X48045818Y-42326901D01*
X47918426Y-42379668D01*
X47803776Y-42456274D01*
X47706274Y-42553776D01*
X47629668Y-42668426D01*
X47576901Y-42795818D01*
X47550000Y-42931056D01*
X47550000Y-43068944D01*
X47576901Y-43204182D01*
X47629668Y-43331574D01*
X47700000Y-43436835D01*
X47700001Y-44022182D01*
X47636196Y-44085987D01*
X47615210Y-44103210D01*
X47546479Y-44186958D01*
X47495408Y-44282507D01*
X47463958Y-44386182D01*
X47456000Y-44466983D01*
X47456000Y-44466992D01*
X47453340Y-44494000D01*
X47456000Y-44521008D01*
X47456001Y-46807165D01*
X47385668Y-46912426D01*
X47332901Y-47039818D01*
X47306000Y-47175056D01*
X24425000Y-47175056D01*
X24425000Y-43029594D01*
X28407538Y-39047056D01*
X47306000Y-39047056D01*
X47306000Y-39184944D01*
X47332901Y-39320182D01*
X47385668Y-39447574D01*
X47462274Y-39562224D01*
X47559776Y-39659726D01*
X47674426Y-39736332D01*
X47801818Y-39789099D01*
X47937056Y-39816000D01*
X48074944Y-39816000D01*
X48210182Y-39789099D01*
X48337574Y-39736332D01*
X48442834Y-39666000D01*
X59138183Y-39666000D01*
X64461992Y-44989810D01*
X64479210Y-45010790D01*
X64500190Y-45028008D01*
X64500195Y-45028013D01*
X64552097Y-45070607D01*
X64562958Y-45079521D01*
X64658506Y-45130592D01*
X64762181Y-45162042D01*
X64842982Y-45170000D01*
X64842991Y-45170000D01*
X64869999Y-45172660D01*
X64897007Y-45170000D01*
X66984406Y-45170000D01*
X67106737Y-45353082D01*
X67266918Y-45513263D01*
X67455271Y-45639116D01*
X67664557Y-45725806D01*
X67886735Y-45770000D01*
X68113265Y-45770000D01*
X68335443Y-45725806D01*
X68544729Y-45639116D01*
X68733082Y-45513263D01*
X68893263Y-45353082D01*
X69019116Y-45164729D01*
X69105806Y-44955443D01*
X69150000Y-44733265D01*
X69150000Y-44506735D01*
X69105806Y-44284557D01*
X69019116Y-44075271D01*
X68893263Y-43886918D01*
X68733082Y-43726737D01*
X68544729Y-43600884D01*
X68335443Y-43514194D01*
X68113265Y-43470000D01*
X67886735Y-43470000D01*
X67664557Y-43514194D01*
X67455271Y-43600884D01*
X67266918Y-43726737D01*
X67106737Y-43886918D01*
X66984406Y-44070000D01*
X65097818Y-44070000D01*
X63312367Y-42284549D01*
X66868338Y-42284549D01*
X66876203Y-42324091D01*
X66945416Y-42538643D01*
X67055156Y-42735569D01*
X67201206Y-42907302D01*
X67377953Y-43047243D01*
X67578605Y-43150013D01*
X67795451Y-43211663D01*
X67975000Y-43154729D01*
X67975000Y-42105000D01*
X68025000Y-42105000D01*
X68025000Y-43154729D01*
X68204549Y-43211663D01*
X68421395Y-43150013D01*
X68622047Y-43047243D01*
X68798794Y-42907302D01*
X68944844Y-42735569D01*
X69054584Y-42538643D01*
X69123797Y-42324091D01*
X69131662Y-42284549D01*
X69074709Y-42105000D01*
X68025000Y-42105000D01*
X67975000Y-42105000D01*
X66925291Y-42105000D01*
X66868338Y-42284549D01*
X63312367Y-42284549D01*
X62903269Y-41875451D01*
X66868338Y-41875451D01*
X66925291Y-42055000D01*
X67975000Y-42055000D01*
X67975000Y-41005271D01*
X68025000Y-41005271D01*
X68025000Y-42055000D01*
X69074709Y-42055000D01*
X69131662Y-41875451D01*
X69123797Y-41835909D01*
X69054584Y-41621357D01*
X68944844Y-41424431D01*
X68798794Y-41252698D01*
X68622047Y-41112757D01*
X68421395Y-41009987D01*
X68204549Y-40948337D01*
X68025000Y-41005271D01*
X67975000Y-41005271D01*
X67795451Y-40948337D01*
X67578605Y-41009987D01*
X67377953Y-41112757D01*
X67201206Y-41252698D01*
X67055156Y-41424431D01*
X66945416Y-41621357D01*
X66876203Y-41835909D01*
X66868338Y-41875451D01*
X62903269Y-41875451D01*
X59774013Y-38746196D01*
X59756790Y-38725210D01*
X59673042Y-38656479D01*
X59577494Y-38605408D01*
X59473819Y-38573958D01*
X59393018Y-38566000D01*
X59393008Y-38566000D01*
X59366000Y-38563340D01*
X59338992Y-38566000D01*
X48442834Y-38566000D01*
X48337574Y-38495668D01*
X48210182Y-38442901D01*
X48074944Y-38416000D01*
X47937056Y-38416000D01*
X47801818Y-38442901D01*
X47674426Y-38495668D01*
X47559776Y-38572274D01*
X47462274Y-38669776D01*
X47385668Y-38784426D01*
X47332901Y-38911818D01*
X47306000Y-39047056D01*
X28407538Y-39047056D01*
X31089678Y-36364917D01*
X31196224Y-36293726D01*
X31293726Y-36196224D01*
X31370332Y-36081574D01*
X31423099Y-35954182D01*
X31450000Y-35818944D01*
X31450000Y-35681056D01*
X31423099Y-35545818D01*
X31370332Y-35418426D01*
X31293726Y-35303776D01*
X31196224Y-35206274D01*
X31081574Y-35129668D01*
X30954182Y-35076901D01*
X30818944Y-35050000D01*
X30681056Y-35050000D01*
X30545818Y-35076901D01*
X30418426Y-35129668D01*
X30303776Y-35206274D01*
X30206274Y-35303776D01*
X30135083Y-35410322D01*
X23296144Y-42249262D01*
X23270394Y-42270395D01*
X23249263Y-42296143D01*
X23249256Y-42296150D01*
X23226326Y-42324091D01*
X23186042Y-42373177D01*
X23123364Y-42490440D01*
X23101735Y-42561741D01*
X23084767Y-42617677D01*
X23083553Y-42630000D01*
X23075000Y-42716842D01*
X23075000Y-42716848D01*
X23071735Y-42750000D01*
X23075000Y-42783152D01*
X23075001Y-55555370D01*
X23050000Y-55681056D01*
X10101451Y-55681056D01*
X10101451Y-53200000D01*
X10095659Y-53141190D01*
X10078504Y-53084640D01*
X10050647Y-53032523D01*
X10013158Y-52986842D01*
X9967477Y-52949353D01*
X9915360Y-52921496D01*
X9858810Y-52904341D01*
X9800000Y-52898549D01*
X7200000Y-52898549D01*
X7141190Y-52904341D01*
X7084640Y-52921496D01*
X7032523Y-52949353D01*
X6986842Y-52986842D01*
X6949353Y-53032523D01*
X6921496Y-53084640D01*
X6904341Y-53141190D01*
X6898549Y-53200000D01*
X325000Y-53200000D01*
X325000Y-49342414D01*
X6900000Y-49342414D01*
X6900000Y-49657586D01*
X6961487Y-49966703D01*
X7082098Y-50257884D01*
X7257199Y-50519941D01*
X7480059Y-50742801D01*
X7742116Y-50917902D01*
X8033297Y-51038513D01*
X8342414Y-51100000D01*
X8657586Y-51100000D01*
X8966703Y-51038513D01*
X9257884Y-50917902D01*
X9519941Y-50742801D01*
X9742801Y-50519941D01*
X9917902Y-50257884D01*
X10038513Y-49966703D01*
X10100000Y-49657586D01*
X10100000Y-49342414D01*
X10038513Y-49033297D01*
X9917902Y-48742116D01*
X9742801Y-48480059D01*
X9519941Y-48257199D01*
X9257884Y-48082098D01*
X8966703Y-47961487D01*
X8657586Y-47900000D01*
X8342414Y-47900000D01*
X8033297Y-47961487D01*
X7742116Y-48082098D01*
X7480059Y-48257199D01*
X7257199Y-48480059D01*
X7082098Y-48742116D01*
X6961487Y-49033297D01*
X6900000Y-49342414D01*
X325000Y-49342414D01*
X325000Y-40200000D01*
X6898549Y-40200000D01*
X6898549Y-42800000D01*
X6904341Y-42858810D01*
X6921496Y-42915360D01*
X6949353Y-42967477D01*
X6986842Y-43013158D01*
X7032523Y-43050647D01*
X7084640Y-43078504D01*
X7141190Y-43095659D01*
X7200000Y-43101451D01*
X9800000Y-43101451D01*
X9858810Y-43095659D01*
X9915360Y-43078504D01*
X9967477Y-43050647D01*
X10013158Y-43013158D01*
X10050647Y-42967477D01*
X10078504Y-42915360D01*
X10095659Y-42858810D01*
X10101451Y-42800000D01*
X10101451Y-40200000D01*
X10095659Y-40141190D01*
X10078504Y-40084640D01*
X10050647Y-40032523D01*
X10013158Y-39986842D01*
X9967477Y-39949353D01*
X9915360Y-39921496D01*
X9858810Y-39904341D01*
X9800000Y-39898549D01*
X7200000Y-39898549D01*
X7141190Y-39904341D01*
X7084640Y-39921496D01*
X7032523Y-39949353D01*
X6986842Y-39986842D01*
X6949353Y-40032523D01*
X6921496Y-40084640D01*
X6904341Y-40141190D01*
X6898549Y-40200000D01*
X325000Y-40200000D01*
X325000Y-36342414D01*
X6900000Y-36342414D01*
X6900000Y-36657586D01*
X6961487Y-36966703D01*
X7082098Y-37257884D01*
X7257199Y-37519941D01*
X7480059Y-37742801D01*
X7742116Y-37917902D01*
X8033297Y-38038513D01*
X8342414Y-38100000D01*
X8657586Y-38100000D01*
X8966703Y-38038513D01*
X9257884Y-37917902D01*
X9519941Y-37742801D01*
X9742801Y-37519941D01*
X9917902Y-37257884D01*
X10038513Y-36966703D01*
X10100000Y-36657586D01*
X10100000Y-36342414D01*
X10038513Y-36033297D01*
X9917902Y-35742116D01*
X9742801Y-35480059D01*
X9519941Y-35257199D01*
X9257884Y-35082098D01*
X8966703Y-34961487D01*
X8657586Y-34900000D01*
X8342414Y-34900000D01*
X8033297Y-34961487D01*
X7742116Y-35082098D01*
X7480059Y-35257199D01*
X7257199Y-35480059D01*
X7082098Y-35742116D01*
X6961487Y-36033297D01*
X6900000Y-36342414D01*
X325000Y-36342414D01*
X325000Y-30665056D01*
X64832000Y-30665056D01*
X64832000Y-30802944D01*
X64858901Y-30938182D01*
X64911668Y-31065574D01*
X64988274Y-31180224D01*
X65085776Y-31277726D01*
X65107000Y-31291907D01*
X65107001Y-38841123D01*
X65104945Y-38862000D01*
X65113150Y-38945314D01*
X65132221Y-39008181D01*
X65137453Y-39025427D01*
X65176917Y-39099260D01*
X65230027Y-39163974D01*
X65246239Y-39177279D01*
X65344980Y-39276020D01*
X65340000Y-39301056D01*
X65340000Y-39438944D01*
X65366901Y-39574182D01*
X65419668Y-39701574D01*
X65496274Y-39816224D01*
X65593776Y-39913726D01*
X65708426Y-39990332D01*
X65835818Y-40043099D01*
X65971056Y-40070000D01*
X66108944Y-40070000D01*
X66244182Y-40043099D01*
X66371574Y-39990332D01*
X66486224Y-39913726D01*
X66583726Y-39816224D01*
X66631617Y-39744549D01*
X66868338Y-39744549D01*
X66876203Y-39784091D01*
X66945416Y-39998643D01*
X67055156Y-40195569D01*
X67201206Y-40367302D01*
X67377953Y-40507243D01*
X67578605Y-40610013D01*
X67795451Y-40671663D01*
X67975000Y-40614729D01*
X67975000Y-39565000D01*
X68025000Y-39565000D01*
X68025000Y-40614729D01*
X68204549Y-40671663D01*
X68421395Y-40610013D01*
X68622047Y-40507243D01*
X68798794Y-40367302D01*
X68944844Y-40195569D01*
X69054584Y-39998643D01*
X69123797Y-39784091D01*
X69131662Y-39744549D01*
X69074709Y-39565000D01*
X68025000Y-39565000D01*
X67975000Y-39565000D01*
X66925291Y-39565000D01*
X66868338Y-39744549D01*
X66631617Y-39744549D01*
X66660332Y-39701574D01*
X66713099Y-39574182D01*
X66740000Y-39438944D01*
X66740000Y-39335451D01*
X66868338Y-39335451D01*
X66925291Y-39515000D01*
X67975000Y-39515000D01*
X67975000Y-38465271D01*
X68025000Y-38465271D01*
X68025000Y-39515000D01*
X69074709Y-39515000D01*
X69131662Y-39335451D01*
X69123797Y-39295909D01*
X69054584Y-39081357D01*
X68944844Y-38884431D01*
X68798794Y-38712698D01*
X68622047Y-38572757D01*
X68421395Y-38469987D01*
X68204549Y-38408337D01*
X68025000Y-38465271D01*
X67975000Y-38465271D01*
X67795451Y-38408337D01*
X67578605Y-38469987D01*
X67377953Y-38572757D01*
X67201206Y-38712698D01*
X67055156Y-38884431D01*
X66945416Y-39081357D01*
X66876203Y-39295909D01*
X66868338Y-39335451D01*
X66740000Y-39335451D01*
X66740000Y-39301056D01*
X66713099Y-39165818D01*
X66660332Y-39038426D01*
X66583726Y-38923776D01*
X66486224Y-38826274D01*
X66371574Y-38749668D01*
X66244182Y-38696901D01*
X66108944Y-38670000D01*
X65971056Y-38670000D01*
X65957000Y-38672796D01*
X65957000Y-37850000D01*
X66848548Y-37850000D01*
X66854340Y-37908810D01*
X66871495Y-37965361D01*
X66899352Y-38017478D01*
X66936841Y-38063159D01*
X66982522Y-38100648D01*
X67034639Y-38128505D01*
X67091190Y-38145660D01*
X67150000Y-38151452D01*
X67900000Y-38150000D01*
X67975000Y-38075000D01*
X67975000Y-37025000D01*
X68025000Y-37025000D01*
X68025000Y-38075000D01*
X68100000Y-38150000D01*
X68850000Y-38151452D01*
X68908810Y-38145660D01*
X68965361Y-38128505D01*
X69017478Y-38100648D01*
X69063159Y-38063159D01*
X69100648Y-38017478D01*
X69128505Y-37965361D01*
X69145660Y-37908810D01*
X69151452Y-37850000D01*
X69150000Y-37100000D01*
X69075000Y-37025000D01*
X68025000Y-37025000D01*
X67975000Y-37025000D01*
X66925000Y-37025000D01*
X66850000Y-37100000D01*
X66848548Y-37850000D01*
X65957000Y-37850000D01*
X65957000Y-36150000D01*
X66848548Y-36150000D01*
X66850000Y-36900000D01*
X66925000Y-36975000D01*
X67975000Y-36975000D01*
X67975000Y-35925000D01*
X68025000Y-35925000D01*
X68025000Y-36975000D01*
X69075000Y-36975000D01*
X69150000Y-36900000D01*
X69150025Y-36886735D01*
X69390000Y-36886735D01*
X69390000Y-37113265D01*
X69434194Y-37335443D01*
X69520884Y-37544729D01*
X69646737Y-37733082D01*
X69806918Y-37893263D01*
X69995271Y-38019116D01*
X70204557Y-38105806D01*
X70426735Y-38150000D01*
X70653265Y-38150000D01*
X70875443Y-38105806D01*
X71084729Y-38019116D01*
X71273082Y-37893263D01*
X71433263Y-37733082D01*
X71559116Y-37544729D01*
X71645806Y-37335443D01*
X71690000Y-37113265D01*
X71690000Y-36886735D01*
X71645806Y-36664557D01*
X71559116Y-36455271D01*
X71433263Y-36266918D01*
X71273082Y-36106737D01*
X71084729Y-35980884D01*
X70875443Y-35894194D01*
X70653265Y-35850000D01*
X70426735Y-35850000D01*
X70204557Y-35894194D01*
X69995271Y-35980884D01*
X69806918Y-36106737D01*
X69646737Y-36266918D01*
X69520884Y-36455271D01*
X69434194Y-36664557D01*
X69390000Y-36886735D01*
X69150025Y-36886735D01*
X69151452Y-36150000D01*
X69145660Y-36091190D01*
X69128505Y-36034639D01*
X69100648Y-35982522D01*
X69063159Y-35936841D01*
X69017478Y-35899352D01*
X68965361Y-35871495D01*
X68908810Y-35854340D01*
X68850000Y-35848548D01*
X68100000Y-35850000D01*
X68025000Y-35925000D01*
X67975000Y-35925000D01*
X67900000Y-35850000D01*
X67150000Y-35848548D01*
X67091190Y-35854340D01*
X67034639Y-35871495D01*
X66982522Y-35899352D01*
X66936841Y-35936841D01*
X66899352Y-35982522D01*
X66871495Y-36034639D01*
X66854340Y-36091190D01*
X66848548Y-36150000D01*
X65957000Y-36150000D01*
X65957000Y-31291907D01*
X65978224Y-31277726D01*
X66075726Y-31180224D01*
X66152332Y-31065574D01*
X66205099Y-30938182D01*
X66232000Y-30802944D01*
X66232000Y-30665056D01*
X66205099Y-30529818D01*
X66152332Y-30402426D01*
X66075726Y-30287776D01*
X65978224Y-30190274D01*
X65863574Y-30113668D01*
X65736182Y-30060901D01*
X65600944Y-30034000D01*
X65463056Y-30034000D01*
X65327818Y-30060901D01*
X65200426Y-30113668D01*
X65085776Y-30190274D01*
X64988274Y-30287776D01*
X64911668Y-30402426D01*
X64858901Y-30529818D01*
X64832000Y-30665056D01*
X325000Y-30665056D01*
X325000Y-28040000D01*
X74675001Y-28040000D01*
X74675000Y-71865380D01*
G37*
%TD.AperFunction*%
%TD*%
M02*
