%TF.GenerationSoftware,KiCad,Pcbnew,(5.1.7)-1*%
%TF.CreationDate,2021-03-17T12:45:12+01:00*%
%TF.ProjectId,HotPlateController,486f7450-6c61-4746-9543-6f6e74726f6c,rev?*%
%TF.SameCoordinates,Original*%
%TF.FileFunction,Paste,Top*%
%TF.FilePolarity,Positive*%
%FSLAX46Y46*%
G04 Gerber Fmt 4.6, Leading zero omitted, Abs format (unit mm)*
G04 Created by KiCad (PCBNEW (5.1.7)-1) date 2021-03-17 12:45:12*
%MOMM*%
%LPD*%
G01*
G04 APERTURE LIST*
%ADD10R,2.000000X0.900000*%
%ADD11R,0.900000X2.000000*%
%ADD12R,5.000000X5.000000*%
%ADD13R,2.100000X2.400000*%
%ADD14R,3.050000X2.750000*%
%ADD15R,2.200000X1.200000*%
%ADD16R,0.900000X0.800000*%
%ADD17R,1.500000X2.000000*%
%ADD18R,3.800000X2.000000*%
G04 APERTURE END LIST*
%TO.C,R15*%
G36*
G01*
X58028000Y-48015999D02*
X58028000Y-49266001D01*
G75*
G02*
X57778001Y-49516000I-249999J0D01*
G01*
X57152999Y-49516000D01*
G75*
G02*
X56903000Y-49266001I0J249999D01*
G01*
X56903000Y-48015999D01*
G75*
G02*
X57152999Y-47766000I249999J0D01*
G01*
X57778001Y-47766000D01*
G75*
G02*
X58028000Y-48015999I0J-249999D01*
G01*
G37*
G36*
G01*
X60953000Y-48015999D02*
X60953000Y-49266001D01*
G75*
G02*
X60703001Y-49516000I-249999J0D01*
G01*
X60077999Y-49516000D01*
G75*
G02*
X59828000Y-49266001I0J249999D01*
G01*
X59828000Y-48015999D01*
G75*
G02*
X60077999Y-47766000I249999J0D01*
G01*
X60703001Y-47766000D01*
G75*
G02*
X60953000Y-48015999I0J-249999D01*
G01*
G37*
%TD*%
%TO.C,R14*%
G36*
G01*
X58663000Y-34553999D02*
X58663000Y-35804001D01*
G75*
G02*
X58413001Y-36054000I-249999J0D01*
G01*
X57787999Y-36054000D01*
G75*
G02*
X57538000Y-35804001I0J249999D01*
G01*
X57538000Y-34553999D01*
G75*
G02*
X57787999Y-34304000I249999J0D01*
G01*
X58413001Y-34304000D01*
G75*
G02*
X58663000Y-34553999I0J-249999D01*
G01*
G37*
G36*
G01*
X61588000Y-34553999D02*
X61588000Y-35804001D01*
G75*
G02*
X61338001Y-36054000I-249999J0D01*
G01*
X60712999Y-36054000D01*
G75*
G02*
X60463000Y-35804001I0J249999D01*
G01*
X60463000Y-34553999D01*
G75*
G02*
X60712999Y-34304000I249999J0D01*
G01*
X61338001Y-34304000D01*
G75*
G02*
X61588000Y-34553999I0J-249999D01*
G01*
G37*
%TD*%
%TO.C,R13*%
G36*
G01*
X72526999Y-31634000D02*
X73777001Y-31634000D01*
G75*
G02*
X74027000Y-31883999I0J-249999D01*
G01*
X74027000Y-32509001D01*
G75*
G02*
X73777001Y-32759000I-249999J0D01*
G01*
X72526999Y-32759000D01*
G75*
G02*
X72277000Y-32509001I0J249999D01*
G01*
X72277000Y-31883999D01*
G75*
G02*
X72526999Y-31634000I249999J0D01*
G01*
G37*
G36*
G01*
X72526999Y-28709000D02*
X73777001Y-28709000D01*
G75*
G02*
X74027000Y-28958999I0J-249999D01*
G01*
X74027000Y-29584001D01*
G75*
G02*
X73777001Y-29834000I-249999J0D01*
G01*
X72526999Y-29834000D01*
G75*
G02*
X72277000Y-29584001I0J249999D01*
G01*
X72277000Y-28958999D01*
G75*
G02*
X72526999Y-28709000I249999J0D01*
G01*
G37*
%TD*%
%TO.C,R12*%
G36*
G01*
X71237001Y-29834000D02*
X69986999Y-29834000D01*
G75*
G02*
X69737000Y-29584001I0J249999D01*
G01*
X69737000Y-28958999D01*
G75*
G02*
X69986999Y-28709000I249999J0D01*
G01*
X71237001Y-28709000D01*
G75*
G02*
X71487000Y-28958999I0J-249999D01*
G01*
X71487000Y-29584001D01*
G75*
G02*
X71237001Y-29834000I-249999J0D01*
G01*
G37*
G36*
G01*
X71237001Y-32759000D02*
X69986999Y-32759000D01*
G75*
G02*
X69737000Y-32509001I0J249999D01*
G01*
X69737000Y-31883999D01*
G75*
G02*
X69986999Y-31634000I249999J0D01*
G01*
X71237001Y-31634000D01*
G75*
G02*
X71487000Y-31883999I0J-249999D01*
G01*
X71487000Y-32509001D01*
G75*
G02*
X71237001Y-32759000I-249999J0D01*
G01*
G37*
%TD*%
%TO.C,R11*%
G36*
G01*
X67446999Y-31634000D02*
X68697001Y-31634000D01*
G75*
G02*
X68947000Y-31883999I0J-249999D01*
G01*
X68947000Y-32509001D01*
G75*
G02*
X68697001Y-32759000I-249999J0D01*
G01*
X67446999Y-32759000D01*
G75*
G02*
X67197000Y-32509001I0J249999D01*
G01*
X67197000Y-31883999D01*
G75*
G02*
X67446999Y-31634000I249999J0D01*
G01*
G37*
G36*
G01*
X67446999Y-28709000D02*
X68697001Y-28709000D01*
G75*
G02*
X68947000Y-28958999I0J-249999D01*
G01*
X68947000Y-29584001D01*
G75*
G02*
X68697001Y-29834000I-249999J0D01*
G01*
X67446999Y-29834000D01*
G75*
G02*
X67197000Y-29584001I0J249999D01*
G01*
X67197000Y-28958999D01*
G75*
G02*
X67446999Y-28709000I249999J0D01*
G01*
G37*
%TD*%
%TO.C,C9*%
G36*
G01*
X20349999Y-58150000D02*
X21650001Y-58150000D01*
G75*
G02*
X21900000Y-58399999I0J-249999D01*
G01*
X21900000Y-59050001D01*
G75*
G02*
X21650001Y-59300000I-249999J0D01*
G01*
X20349999Y-59300000D01*
G75*
G02*
X20100000Y-59050001I0J249999D01*
G01*
X20100000Y-58399999D01*
G75*
G02*
X20349999Y-58150000I249999J0D01*
G01*
G37*
G36*
G01*
X20349999Y-55200000D02*
X21650001Y-55200000D01*
G75*
G02*
X21900000Y-55449999I0J-249999D01*
G01*
X21900000Y-56100001D01*
G75*
G02*
X21650001Y-56350000I-249999J0D01*
G01*
X20349999Y-56350000D01*
G75*
G02*
X20100000Y-56100001I0J249999D01*
G01*
X20100000Y-55449999D01*
G75*
G02*
X20349999Y-55200000I249999J0D01*
G01*
G37*
%TD*%
%TO.C,R10*%
G36*
G01*
X17125001Y-45887500D02*
X15874999Y-45887500D01*
G75*
G02*
X15625000Y-45637501I0J249999D01*
G01*
X15625000Y-45012499D01*
G75*
G02*
X15874999Y-44762500I249999J0D01*
G01*
X17125001Y-44762500D01*
G75*
G02*
X17375000Y-45012499I0J-249999D01*
G01*
X17375000Y-45637501D01*
G75*
G02*
X17125001Y-45887500I-249999J0D01*
G01*
G37*
G36*
G01*
X17125001Y-48812500D02*
X15874999Y-48812500D01*
G75*
G02*
X15625000Y-48562501I0J249999D01*
G01*
X15625000Y-47937499D01*
G75*
G02*
X15874999Y-47687500I249999J0D01*
G01*
X17125001Y-47687500D01*
G75*
G02*
X17375000Y-47937499I0J-249999D01*
G01*
X17375000Y-48562501D01*
G75*
G02*
X17125001Y-48812500I-249999J0D01*
G01*
G37*
%TD*%
%TO.C,C10*%
G36*
G01*
X17150001Y-51100000D02*
X15849999Y-51100000D01*
G75*
G02*
X15600000Y-50850001I0J249999D01*
G01*
X15600000Y-50199999D01*
G75*
G02*
X15849999Y-49950000I249999J0D01*
G01*
X17150001Y-49950000D01*
G75*
G02*
X17400000Y-50199999I0J-249999D01*
G01*
X17400000Y-50850001D01*
G75*
G02*
X17150001Y-51100000I-249999J0D01*
G01*
G37*
G36*
G01*
X17150001Y-54050000D02*
X15849999Y-54050000D01*
G75*
G02*
X15600000Y-53800001I0J249999D01*
G01*
X15600000Y-53149999D01*
G75*
G02*
X15849999Y-52900000I249999J0D01*
G01*
X17150001Y-52900000D01*
G75*
G02*
X17400000Y-53149999I0J-249999D01*
G01*
X17400000Y-53800001D01*
G75*
G02*
X17150001Y-54050000I-249999J0D01*
G01*
G37*
%TD*%
D10*
%TO.C,U3*%
X31500000Y-67255000D03*
X31500000Y-65985000D03*
X31500000Y-64715000D03*
X31500000Y-63445000D03*
X31500000Y-62175000D03*
X31500000Y-60905000D03*
X31500000Y-59635000D03*
X31500000Y-58365000D03*
X31500000Y-57095000D03*
X31500000Y-55825000D03*
X31500000Y-54555000D03*
X31500000Y-53285000D03*
X31500000Y-52015000D03*
X31500000Y-50745000D03*
D11*
X34285000Y-49745000D03*
X35555000Y-49745000D03*
X36825000Y-49745000D03*
X38095000Y-49745000D03*
X39365000Y-49745000D03*
X40635000Y-49745000D03*
X41905000Y-49745000D03*
X43175000Y-49745000D03*
X44445000Y-49745000D03*
X45715000Y-49745000D03*
D10*
X48500000Y-50745000D03*
X48500000Y-52015000D03*
X48500000Y-53285000D03*
X48500000Y-54555000D03*
X48500000Y-55825000D03*
X48500000Y-57095000D03*
X48500000Y-58365000D03*
X48500000Y-59635000D03*
X48500000Y-60905000D03*
X48500000Y-62175000D03*
X48500000Y-63445000D03*
X48500000Y-64715000D03*
X48500000Y-65985000D03*
X48500000Y-67255000D03*
D12*
X41000000Y-59755000D03*
%TD*%
%TO.C,R9*%
G36*
G01*
X58738000Y-14125001D02*
X58738000Y-11274999D01*
G75*
G02*
X58987999Y-11025000I249999J0D01*
G01*
X59888001Y-11025000D01*
G75*
G02*
X60138000Y-11274999I0J-249999D01*
G01*
X60138000Y-14125001D01*
G75*
G02*
X59888001Y-14375000I-249999J0D01*
G01*
X58987999Y-14375000D01*
G75*
G02*
X58738000Y-14125001I0J249999D01*
G01*
G37*
G36*
G01*
X52638000Y-14125001D02*
X52638000Y-11274999D01*
G75*
G02*
X52887999Y-11025000I249999J0D01*
G01*
X53788001Y-11025000D01*
G75*
G02*
X54038000Y-11274999I0J-249999D01*
G01*
X54038000Y-14125001D01*
G75*
G02*
X53788001Y-14375000I-249999J0D01*
G01*
X52887999Y-14375000D01*
G75*
G02*
X52638000Y-14125001I0J249999D01*
G01*
G37*
%TD*%
D13*
%TO.C,SW2*%
X70860000Y-58420000D03*
X70860000Y-50620000D03*
%TD*%
%TO.C,SW1*%
X66040000Y-58420000D03*
X66040000Y-50620000D03*
%TD*%
%TO.C,D2*%
G36*
G01*
X50725000Y-39375000D02*
X50725000Y-40625000D01*
G75*
G02*
X50475000Y-40875000I-250000J0D01*
G01*
X49550000Y-40875000D01*
G75*
G02*
X49300000Y-40625000I0J250000D01*
G01*
X49300000Y-39375000D01*
G75*
G02*
X49550000Y-39125000I250000J0D01*
G01*
X50475000Y-39125000D01*
G75*
G02*
X50725000Y-39375000I0J-250000D01*
G01*
G37*
G36*
G01*
X53700000Y-39375000D02*
X53700000Y-40625000D01*
G75*
G02*
X53450000Y-40875000I-250000J0D01*
G01*
X52525000Y-40875000D01*
G75*
G02*
X52275000Y-40625000I0J250000D01*
G01*
X52275000Y-39375000D01*
G75*
G02*
X52525000Y-39125000I250000J0D01*
G01*
X53450000Y-39125000D01*
G75*
G02*
X53700000Y-39375000I0J-250000D01*
G01*
G37*
%TD*%
%TO.C,D1*%
G36*
G01*
X58725000Y-39375000D02*
X58725000Y-40625000D01*
G75*
G02*
X58475000Y-40875000I-250000J0D01*
G01*
X57550000Y-40875000D01*
G75*
G02*
X57300000Y-40625000I0J250000D01*
G01*
X57300000Y-39375000D01*
G75*
G02*
X57550000Y-39125000I250000J0D01*
G01*
X58475000Y-39125000D01*
G75*
G02*
X58725000Y-39375000I0J-250000D01*
G01*
G37*
G36*
G01*
X61700000Y-39375000D02*
X61700000Y-40625000D01*
G75*
G02*
X61450000Y-40875000I-250000J0D01*
G01*
X60525000Y-40875000D01*
G75*
G02*
X60275000Y-40625000I0J250000D01*
G01*
X60275000Y-39375000D01*
G75*
G02*
X60525000Y-39125000I250000J0D01*
G01*
X61450000Y-39125000D01*
G75*
G02*
X61700000Y-39375000I0J-250000D01*
G01*
G37*
%TD*%
%TO.C,R1*%
G36*
G01*
X32900000Y-46375001D02*
X32900000Y-45124999D01*
G75*
G02*
X33149999Y-44875000I249999J0D01*
G01*
X33775001Y-44875000D01*
G75*
G02*
X34025000Y-45124999I0J-249999D01*
G01*
X34025000Y-46375001D01*
G75*
G02*
X33775001Y-46625000I-249999J0D01*
G01*
X33149999Y-46625000D01*
G75*
G02*
X32900000Y-46375001I0J249999D01*
G01*
G37*
G36*
G01*
X29975000Y-46375001D02*
X29975000Y-45124999D01*
G75*
G02*
X30224999Y-44875000I249999J0D01*
G01*
X30850001Y-44875000D01*
G75*
G02*
X31100000Y-45124999I0J-249999D01*
G01*
X31100000Y-46375001D01*
G75*
G02*
X30850001Y-46625000I-249999J0D01*
G01*
X30224999Y-46625000D01*
G75*
G02*
X29975000Y-46375001I0J249999D01*
G01*
G37*
%TD*%
D14*
%TO.C,Q2*%
X20325000Y-35475000D03*
X16975000Y-38525000D03*
X20325000Y-38525000D03*
X16975000Y-35475000D03*
D15*
X24950000Y-34720000D03*
X24950000Y-37000000D03*
X24950000Y-39280000D03*
%TD*%
D16*
%TO.C,Q1*%
X24000000Y-44000000D03*
X26000000Y-43050000D03*
X26000000Y-44950000D03*
%TD*%
%TO.C,R8*%
G36*
G01*
X50600000Y-36874999D02*
X50600000Y-38125001D01*
G75*
G02*
X50350001Y-38375000I-249999J0D01*
G01*
X49724999Y-38375000D01*
G75*
G02*
X49475000Y-38125001I0J249999D01*
G01*
X49475000Y-36874999D01*
G75*
G02*
X49724999Y-36625000I249999J0D01*
G01*
X50350001Y-36625000D01*
G75*
G02*
X50600000Y-36874999I0J-249999D01*
G01*
G37*
G36*
G01*
X53525000Y-36874999D02*
X53525000Y-38125001D01*
G75*
G02*
X53275001Y-38375000I-249999J0D01*
G01*
X52649999Y-38375000D01*
G75*
G02*
X52400000Y-38125001I0J249999D01*
G01*
X52400000Y-36874999D01*
G75*
G02*
X52649999Y-36625000I249999J0D01*
G01*
X53275001Y-36625000D01*
G75*
G02*
X53525000Y-36874999I0J-249999D01*
G01*
G37*
%TD*%
%TO.C,R7*%
G36*
G01*
X37900000Y-46375001D02*
X37900000Y-45124999D01*
G75*
G02*
X38149999Y-44875000I249999J0D01*
G01*
X38775001Y-44875000D01*
G75*
G02*
X39025000Y-45124999I0J-249999D01*
G01*
X39025000Y-46375001D01*
G75*
G02*
X38775001Y-46625000I-249999J0D01*
G01*
X38149999Y-46625000D01*
G75*
G02*
X37900000Y-46375001I0J249999D01*
G01*
G37*
G36*
G01*
X34975000Y-46375001D02*
X34975000Y-45124999D01*
G75*
G02*
X35224999Y-44875000I249999J0D01*
G01*
X35850001Y-44875000D01*
G75*
G02*
X36100000Y-45124999I0J-249999D01*
G01*
X36100000Y-46375001D01*
G75*
G02*
X35850001Y-46625000I-249999J0D01*
G01*
X35224999Y-46625000D01*
G75*
G02*
X34975000Y-46375001I0J249999D01*
G01*
G37*
%TD*%
%TO.C,R6*%
G36*
G01*
X58600000Y-36874999D02*
X58600000Y-38125001D01*
G75*
G02*
X58350001Y-38375000I-249999J0D01*
G01*
X57724999Y-38375000D01*
G75*
G02*
X57475000Y-38125001I0J249999D01*
G01*
X57475000Y-36874999D01*
G75*
G02*
X57724999Y-36625000I249999J0D01*
G01*
X58350001Y-36625000D01*
G75*
G02*
X58600000Y-36874999I0J-249999D01*
G01*
G37*
G36*
G01*
X61525000Y-36874999D02*
X61525000Y-38125001D01*
G75*
G02*
X61275001Y-38375000I-249999J0D01*
G01*
X60649999Y-38375000D01*
G75*
G02*
X60400000Y-38125001I0J249999D01*
G01*
X60400000Y-36874999D01*
G75*
G02*
X60649999Y-36625000I249999J0D01*
G01*
X61275001Y-36625000D01*
G75*
G02*
X61525000Y-36874999I0J-249999D01*
G01*
G37*
%TD*%
%TO.C,R5*%
G36*
G01*
X59860000Y-56625001D02*
X59860000Y-55374999D01*
G75*
G02*
X60109999Y-55125000I249999J0D01*
G01*
X60735001Y-55125000D01*
G75*
G02*
X60985000Y-55374999I0J-249999D01*
G01*
X60985000Y-56625001D01*
G75*
G02*
X60735001Y-56875000I-249999J0D01*
G01*
X60109999Y-56875000D01*
G75*
G02*
X59860000Y-56625001I0J249999D01*
G01*
G37*
G36*
G01*
X56935000Y-56625001D02*
X56935000Y-55374999D01*
G75*
G02*
X57184999Y-55125000I249999J0D01*
G01*
X57810001Y-55125000D01*
G75*
G02*
X58060000Y-55374999I0J-249999D01*
G01*
X58060000Y-56625001D01*
G75*
G02*
X57810001Y-56875000I-249999J0D01*
G01*
X57184999Y-56875000D01*
G75*
G02*
X56935000Y-56625001I0J249999D01*
G01*
G37*
%TD*%
%TO.C,R4*%
G36*
G01*
X59860000Y-51625001D02*
X59860000Y-50374999D01*
G75*
G02*
X60109999Y-50125000I249999J0D01*
G01*
X60735001Y-50125000D01*
G75*
G02*
X60985000Y-50374999I0J-249999D01*
G01*
X60985000Y-51625001D01*
G75*
G02*
X60735001Y-51875000I-249999J0D01*
G01*
X60109999Y-51875000D01*
G75*
G02*
X59860000Y-51625001I0J249999D01*
G01*
G37*
G36*
G01*
X56935000Y-51625001D02*
X56935000Y-50374999D01*
G75*
G02*
X57184999Y-50125000I249999J0D01*
G01*
X57810001Y-50125000D01*
G75*
G02*
X58060000Y-50374999I0J-249999D01*
G01*
X58060000Y-51625001D01*
G75*
G02*
X57810001Y-51875000I-249999J0D01*
G01*
X57184999Y-51875000D01*
G75*
G02*
X56935000Y-51625001I0J249999D01*
G01*
G37*
%TD*%
%TO.C,R3*%
G36*
G01*
X62366999Y-31634000D02*
X63617001Y-31634000D01*
G75*
G02*
X63867000Y-31883999I0J-249999D01*
G01*
X63867000Y-32509001D01*
G75*
G02*
X63617001Y-32759000I-249999J0D01*
G01*
X62366999Y-32759000D01*
G75*
G02*
X62117000Y-32509001I0J249999D01*
G01*
X62117000Y-31883999D01*
G75*
G02*
X62366999Y-31634000I249999J0D01*
G01*
G37*
G36*
G01*
X62366999Y-28709000D02*
X63617001Y-28709000D01*
G75*
G02*
X63867000Y-28958999I0J-249999D01*
G01*
X63867000Y-29584001D01*
G75*
G02*
X63617001Y-29834000I-249999J0D01*
G01*
X62366999Y-29834000D01*
G75*
G02*
X62117000Y-29584001I0J249999D01*
G01*
X62117000Y-28958999D01*
G75*
G02*
X62366999Y-28709000I249999J0D01*
G01*
G37*
%TD*%
%TO.C,R2*%
G36*
G01*
X66157001Y-29834000D02*
X64906999Y-29834000D01*
G75*
G02*
X64657000Y-29584001I0J249999D01*
G01*
X64657000Y-28958999D01*
G75*
G02*
X64906999Y-28709000I249999J0D01*
G01*
X66157001Y-28709000D01*
G75*
G02*
X66407000Y-28958999I0J-249999D01*
G01*
X66407000Y-29584001D01*
G75*
G02*
X66157001Y-29834000I-249999J0D01*
G01*
G37*
G36*
G01*
X66157001Y-32759000D02*
X64906999Y-32759000D01*
G75*
G02*
X64657000Y-32509001I0J249999D01*
G01*
X64657000Y-31883999D01*
G75*
G02*
X64906999Y-31634000I249999J0D01*
G01*
X66157001Y-31634000D01*
G75*
G02*
X66407000Y-31883999I0J-249999D01*
G01*
X66407000Y-32509001D01*
G75*
G02*
X66157001Y-32759000I-249999J0D01*
G01*
G37*
%TD*%
%TO.C,C8*%
G36*
G01*
X59860000Y-54150001D02*
X59860000Y-52849999D01*
G75*
G02*
X60109999Y-52600000I249999J0D01*
G01*
X60760001Y-52600000D01*
G75*
G02*
X61010000Y-52849999I0J-249999D01*
G01*
X61010000Y-54150001D01*
G75*
G02*
X60760001Y-54400000I-249999J0D01*
G01*
X60109999Y-54400000D01*
G75*
G02*
X59860000Y-54150001I0J249999D01*
G01*
G37*
G36*
G01*
X56910000Y-54150001D02*
X56910000Y-52849999D01*
G75*
G02*
X57159999Y-52600000I249999J0D01*
G01*
X57810001Y-52600000D01*
G75*
G02*
X58060000Y-52849999I0J-249999D01*
G01*
X58060000Y-54150001D01*
G75*
G02*
X57810001Y-54400000I-249999J0D01*
G01*
X57159999Y-54400000D01*
G75*
G02*
X56910000Y-54150001I0J249999D01*
G01*
G37*
%TD*%
%TO.C,C7*%
G36*
G01*
X59860000Y-59150001D02*
X59860000Y-57849999D01*
G75*
G02*
X60109999Y-57600000I249999J0D01*
G01*
X60760001Y-57600000D01*
G75*
G02*
X61010000Y-57849999I0J-249999D01*
G01*
X61010000Y-59150001D01*
G75*
G02*
X60760001Y-59400000I-249999J0D01*
G01*
X60109999Y-59400000D01*
G75*
G02*
X59860000Y-59150001I0J249999D01*
G01*
G37*
G36*
G01*
X56910000Y-59150001D02*
X56910000Y-57849999D01*
G75*
G02*
X57159999Y-57600000I249999J0D01*
G01*
X57810001Y-57600000D01*
G75*
G02*
X58060000Y-57849999I0J-249999D01*
G01*
X58060000Y-59150001D01*
G75*
G02*
X57810001Y-59400000I-249999J0D01*
G01*
X57159999Y-59400000D01*
G75*
G02*
X56910000Y-59150001I0J249999D01*
G01*
G37*
%TD*%
%TO.C,C6*%
G36*
G01*
X52186000Y-32623999D02*
X52186000Y-33924001D01*
G75*
G02*
X51936001Y-34174000I-249999J0D01*
G01*
X51285999Y-34174000D01*
G75*
G02*
X51036000Y-33924001I0J249999D01*
G01*
X51036000Y-32623999D01*
G75*
G02*
X51285999Y-32374000I249999J0D01*
G01*
X51936001Y-32374000D01*
G75*
G02*
X52186000Y-32623999I0J-249999D01*
G01*
G37*
G36*
G01*
X55136000Y-32623999D02*
X55136000Y-33924001D01*
G75*
G02*
X54886001Y-34174000I-249999J0D01*
G01*
X54235999Y-34174000D01*
G75*
G02*
X53986000Y-33924001I0J249999D01*
G01*
X53986000Y-32623999D01*
G75*
G02*
X54235999Y-32374000I249999J0D01*
G01*
X54886001Y-32374000D01*
G75*
G02*
X55136000Y-32623999I0J-249999D01*
G01*
G37*
%TD*%
%TO.C,C5*%
G36*
G01*
X61102001Y-29834000D02*
X59801999Y-29834000D01*
G75*
G02*
X59552000Y-29584001I0J249999D01*
G01*
X59552000Y-28933999D01*
G75*
G02*
X59801999Y-28684000I249999J0D01*
G01*
X61102001Y-28684000D01*
G75*
G02*
X61352000Y-28933999I0J-249999D01*
G01*
X61352000Y-29584001D01*
G75*
G02*
X61102001Y-29834000I-249999J0D01*
G01*
G37*
G36*
G01*
X61102001Y-32784000D02*
X59801999Y-32784000D01*
G75*
G02*
X59552000Y-32534001I0J249999D01*
G01*
X59552000Y-31883999D01*
G75*
G02*
X59801999Y-31634000I249999J0D01*
G01*
X61102001Y-31634000D01*
G75*
G02*
X61352000Y-31883999I0J-249999D01*
G01*
X61352000Y-32534001D01*
G75*
G02*
X61102001Y-32784000I-249999J0D01*
G01*
G37*
%TD*%
%TO.C,C4*%
G36*
G01*
X52650001Y-64600000D02*
X51349999Y-64600000D01*
G75*
G02*
X51100000Y-64350001I0J249999D01*
G01*
X51100000Y-63699999D01*
G75*
G02*
X51349999Y-63450000I249999J0D01*
G01*
X52650001Y-63450000D01*
G75*
G02*
X52900000Y-63699999I0J-249999D01*
G01*
X52900000Y-64350001D01*
G75*
G02*
X52650001Y-64600000I-249999J0D01*
G01*
G37*
G36*
G01*
X52650001Y-67550000D02*
X51349999Y-67550000D01*
G75*
G02*
X51100000Y-67300001I0J249999D01*
G01*
X51100000Y-66649999D01*
G75*
G02*
X51349999Y-66400000I249999J0D01*
G01*
X52650001Y-66400000D01*
G75*
G02*
X52900000Y-66649999I0J-249999D01*
G01*
X52900000Y-67300001D01*
G75*
G02*
X52650001Y-67550000I-249999J0D01*
G01*
G37*
%TD*%
%TO.C,C3*%
G36*
G01*
X54349999Y-66425000D02*
X55650001Y-66425000D01*
G75*
G02*
X55900000Y-66674999I0J-249999D01*
G01*
X55900000Y-67325001D01*
G75*
G02*
X55650001Y-67575000I-249999J0D01*
G01*
X54349999Y-67575000D01*
G75*
G02*
X54100000Y-67325001I0J249999D01*
G01*
X54100000Y-66674999D01*
G75*
G02*
X54349999Y-66425000I249999J0D01*
G01*
G37*
G36*
G01*
X54349999Y-63475000D02*
X55650001Y-63475000D01*
G75*
G02*
X55900000Y-63724999I0J-249999D01*
G01*
X55900000Y-64375001D01*
G75*
G02*
X55650001Y-64625000I-249999J0D01*
G01*
X54349999Y-64625000D01*
G75*
G02*
X54100000Y-64375001I0J249999D01*
G01*
X54100000Y-63724999D01*
G75*
G02*
X54349999Y-63475000I249999J0D01*
G01*
G37*
%TD*%
%TO.C,U4*%
G36*
G01*
X24975000Y-50245000D02*
X24975000Y-49945000D01*
G75*
G02*
X25125000Y-49795000I150000J0D01*
G01*
X26775000Y-49795000D01*
G75*
G02*
X26925000Y-49945000I0J-150000D01*
G01*
X26925000Y-50245000D01*
G75*
G02*
X26775000Y-50395000I-150000J0D01*
G01*
X25125000Y-50395000D01*
G75*
G02*
X24975000Y-50245000I0J150000D01*
G01*
G37*
G36*
G01*
X24975000Y-51515000D02*
X24975000Y-51215000D01*
G75*
G02*
X25125000Y-51065000I150000J0D01*
G01*
X26775000Y-51065000D01*
G75*
G02*
X26925000Y-51215000I0J-150000D01*
G01*
X26925000Y-51515000D01*
G75*
G02*
X26775000Y-51665000I-150000J0D01*
G01*
X25125000Y-51665000D01*
G75*
G02*
X24975000Y-51515000I0J150000D01*
G01*
G37*
G36*
G01*
X24975000Y-52785000D02*
X24975000Y-52485000D01*
G75*
G02*
X25125000Y-52335000I150000J0D01*
G01*
X26775000Y-52335000D01*
G75*
G02*
X26925000Y-52485000I0J-150000D01*
G01*
X26925000Y-52785000D01*
G75*
G02*
X26775000Y-52935000I-150000J0D01*
G01*
X25125000Y-52935000D01*
G75*
G02*
X24975000Y-52785000I0J150000D01*
G01*
G37*
G36*
G01*
X24975000Y-54055000D02*
X24975000Y-53755000D01*
G75*
G02*
X25125000Y-53605000I150000J0D01*
G01*
X26775000Y-53605000D01*
G75*
G02*
X26925000Y-53755000I0J-150000D01*
G01*
X26925000Y-54055000D01*
G75*
G02*
X26775000Y-54205000I-150000J0D01*
G01*
X25125000Y-54205000D01*
G75*
G02*
X24975000Y-54055000I0J150000D01*
G01*
G37*
G36*
G01*
X20025000Y-54055000D02*
X20025000Y-53755000D01*
G75*
G02*
X20175000Y-53605000I150000J0D01*
G01*
X21825000Y-53605000D01*
G75*
G02*
X21975000Y-53755000I0J-150000D01*
G01*
X21975000Y-54055000D01*
G75*
G02*
X21825000Y-54205000I-150000J0D01*
G01*
X20175000Y-54205000D01*
G75*
G02*
X20025000Y-54055000I0J150000D01*
G01*
G37*
G36*
G01*
X20025000Y-52785000D02*
X20025000Y-52485000D01*
G75*
G02*
X20175000Y-52335000I150000J0D01*
G01*
X21825000Y-52335000D01*
G75*
G02*
X21975000Y-52485000I0J-150000D01*
G01*
X21975000Y-52785000D01*
G75*
G02*
X21825000Y-52935000I-150000J0D01*
G01*
X20175000Y-52935000D01*
G75*
G02*
X20025000Y-52785000I0J150000D01*
G01*
G37*
G36*
G01*
X20025000Y-51515000D02*
X20025000Y-51215000D01*
G75*
G02*
X20175000Y-51065000I150000J0D01*
G01*
X21825000Y-51065000D01*
G75*
G02*
X21975000Y-51215000I0J-150000D01*
G01*
X21975000Y-51515000D01*
G75*
G02*
X21825000Y-51665000I-150000J0D01*
G01*
X20175000Y-51665000D01*
G75*
G02*
X20025000Y-51515000I0J150000D01*
G01*
G37*
G36*
G01*
X20025000Y-50245000D02*
X20025000Y-49945000D01*
G75*
G02*
X20175000Y-49795000I150000J0D01*
G01*
X21825000Y-49795000D01*
G75*
G02*
X21975000Y-49945000I0J-150000D01*
G01*
X21975000Y-50245000D01*
G75*
G02*
X21825000Y-50395000I-150000J0D01*
G01*
X20175000Y-50395000D01*
G75*
G02*
X20025000Y-50245000I0J150000D01*
G01*
G37*
%TD*%
%TO.C,U2*%
G36*
G01*
X57381000Y-29440000D02*
X57681000Y-29440000D01*
G75*
G02*
X57831000Y-29590000I0J-150000D01*
G01*
X57831000Y-31240000D01*
G75*
G02*
X57681000Y-31390000I-150000J0D01*
G01*
X57381000Y-31390000D01*
G75*
G02*
X57231000Y-31240000I0J150000D01*
G01*
X57231000Y-29590000D01*
G75*
G02*
X57381000Y-29440000I150000J0D01*
G01*
G37*
G36*
G01*
X56111000Y-29440000D02*
X56411000Y-29440000D01*
G75*
G02*
X56561000Y-29590000I0J-150000D01*
G01*
X56561000Y-31240000D01*
G75*
G02*
X56411000Y-31390000I-150000J0D01*
G01*
X56111000Y-31390000D01*
G75*
G02*
X55961000Y-31240000I0J150000D01*
G01*
X55961000Y-29590000D01*
G75*
G02*
X56111000Y-29440000I150000J0D01*
G01*
G37*
G36*
G01*
X54841000Y-29440000D02*
X55141000Y-29440000D01*
G75*
G02*
X55291000Y-29590000I0J-150000D01*
G01*
X55291000Y-31240000D01*
G75*
G02*
X55141000Y-31390000I-150000J0D01*
G01*
X54841000Y-31390000D01*
G75*
G02*
X54691000Y-31240000I0J150000D01*
G01*
X54691000Y-29590000D01*
G75*
G02*
X54841000Y-29440000I150000J0D01*
G01*
G37*
G36*
G01*
X53571000Y-29440000D02*
X53871000Y-29440000D01*
G75*
G02*
X54021000Y-29590000I0J-150000D01*
G01*
X54021000Y-31240000D01*
G75*
G02*
X53871000Y-31390000I-150000J0D01*
G01*
X53571000Y-31390000D01*
G75*
G02*
X53421000Y-31240000I0J150000D01*
G01*
X53421000Y-29590000D01*
G75*
G02*
X53571000Y-29440000I150000J0D01*
G01*
G37*
G36*
G01*
X53571000Y-24490000D02*
X53871000Y-24490000D01*
G75*
G02*
X54021000Y-24640000I0J-150000D01*
G01*
X54021000Y-26290000D01*
G75*
G02*
X53871000Y-26440000I-150000J0D01*
G01*
X53571000Y-26440000D01*
G75*
G02*
X53421000Y-26290000I0J150000D01*
G01*
X53421000Y-24640000D01*
G75*
G02*
X53571000Y-24490000I150000J0D01*
G01*
G37*
G36*
G01*
X54841000Y-24490000D02*
X55141000Y-24490000D01*
G75*
G02*
X55291000Y-24640000I0J-150000D01*
G01*
X55291000Y-26290000D01*
G75*
G02*
X55141000Y-26440000I-150000J0D01*
G01*
X54841000Y-26440000D01*
G75*
G02*
X54691000Y-26290000I0J150000D01*
G01*
X54691000Y-24640000D01*
G75*
G02*
X54841000Y-24490000I150000J0D01*
G01*
G37*
G36*
G01*
X56111000Y-24490000D02*
X56411000Y-24490000D01*
G75*
G02*
X56561000Y-24640000I0J-150000D01*
G01*
X56561000Y-26290000D01*
G75*
G02*
X56411000Y-26440000I-150000J0D01*
G01*
X56111000Y-26440000D01*
G75*
G02*
X55961000Y-26290000I0J150000D01*
G01*
X55961000Y-24640000D01*
G75*
G02*
X56111000Y-24490000I150000J0D01*
G01*
G37*
G36*
G01*
X57381000Y-24490000D02*
X57681000Y-24490000D01*
G75*
G02*
X57831000Y-24640000I0J-150000D01*
G01*
X57831000Y-26290000D01*
G75*
G02*
X57681000Y-26440000I-150000J0D01*
G01*
X57381000Y-26440000D01*
G75*
G02*
X57231000Y-26290000I0J150000D01*
G01*
X57231000Y-24640000D01*
G75*
G02*
X57381000Y-24490000I150000J0D01*
G01*
G37*
%TD*%
D17*
%TO.C,U1*%
X37200000Y-41250000D03*
X41800000Y-41250000D03*
X39500000Y-41250000D03*
D18*
X39500000Y-34950000D03*
%TD*%
%TO.C,C2*%
G36*
G01*
X41900000Y-32650001D02*
X41900000Y-31349999D01*
G75*
G02*
X42149999Y-31100000I249999J0D01*
G01*
X42975001Y-31100000D01*
G75*
G02*
X43225000Y-31349999I0J-249999D01*
G01*
X43225000Y-32650001D01*
G75*
G02*
X42975001Y-32900000I-249999J0D01*
G01*
X42149999Y-32900000D01*
G75*
G02*
X41900000Y-32650001I0J249999D01*
G01*
G37*
G36*
G01*
X38775000Y-32650001D02*
X38775000Y-31349999D01*
G75*
G02*
X39024999Y-31100000I249999J0D01*
G01*
X39850001Y-31100000D01*
G75*
G02*
X40100000Y-31349999I0J-249999D01*
G01*
X40100000Y-32650001D01*
G75*
G02*
X39850001Y-32900000I-249999J0D01*
G01*
X39024999Y-32900000D01*
G75*
G02*
X38775000Y-32650001I0J249999D01*
G01*
G37*
%TD*%
%TO.C,C1*%
G36*
G01*
X46370001Y-37200000D02*
X45069999Y-37200000D01*
G75*
G02*
X44820000Y-36950001I0J249999D01*
G01*
X44820000Y-36124999D01*
G75*
G02*
X45069999Y-35875000I249999J0D01*
G01*
X46370001Y-35875000D01*
G75*
G02*
X46620000Y-36124999I0J-249999D01*
G01*
X46620000Y-36950001D01*
G75*
G02*
X46370001Y-37200000I-249999J0D01*
G01*
G37*
G36*
G01*
X46370001Y-40325000D02*
X45069999Y-40325000D01*
G75*
G02*
X44820000Y-40075001I0J249999D01*
G01*
X44820000Y-39249999D01*
G75*
G02*
X45069999Y-39000000I249999J0D01*
G01*
X46370001Y-39000000D01*
G75*
G02*
X46620000Y-39249999I0J-249999D01*
G01*
X46620000Y-40075001D01*
G75*
G02*
X46370001Y-40325000I-249999J0D01*
G01*
G37*
%TD*%
M02*
