%TF.GenerationSoftware,KiCad,Pcbnew,(5.1.7)-1*%
%TF.CreationDate,2021-01-13T20:29:12+01:00*%
%TF.ProjectId,HotPlateController,486f7450-6c61-4746-9543-6f6e74726f6c,rev?*%
%TF.SameCoordinates,Original*%
%TF.FileFunction,Paste,Top*%
%TF.FilePolarity,Positive*%
%FSLAX46Y46*%
G04 Gerber Fmt 4.6, Leading zero omitted, Abs format (unit mm)*
G04 Created by KiCad (PCBNEW (5.1.7)-1) date 2021-01-13 20:29:12*
%MOMM*%
%LPD*%
G01*
G04 APERTURE LIST*
%ADD10R,2.100000X2.400000*%
%ADD11R,2.750000X3.050000*%
%ADD12R,1.200000X2.200000*%
%ADD13R,0.900000X0.800000*%
%ADD14R,2.000000X0.900000*%
%ADD15R,0.900000X2.000000*%
%ADD16R,5.000000X5.000000*%
%ADD17R,1.500000X2.000000*%
%ADD18R,3.800000X2.000000*%
G04 APERTURE END LIST*
%TO.C,R9*%
G36*
G01*
X58738000Y-14125001D02*
X58738000Y-11274999D01*
G75*
G02*
X58987999Y-11025000I249999J0D01*
G01*
X59888001Y-11025000D01*
G75*
G02*
X60138000Y-11274999I0J-249999D01*
G01*
X60138000Y-14125001D01*
G75*
G02*
X59888001Y-14375000I-249999J0D01*
G01*
X58987999Y-14375000D01*
G75*
G02*
X58738000Y-14125001I0J249999D01*
G01*
G37*
G36*
G01*
X52638000Y-14125001D02*
X52638000Y-11274999D01*
G75*
G02*
X52887999Y-11025000I249999J0D01*
G01*
X53788001Y-11025000D01*
G75*
G02*
X54038000Y-11274999I0J-249999D01*
G01*
X54038000Y-14125001D01*
G75*
G02*
X53788001Y-14375000I-249999J0D01*
G01*
X52887999Y-14375000D01*
G75*
G02*
X52638000Y-14125001I0J249999D01*
G01*
G37*
%TD*%
%TO.C,C9*%
G36*
G01*
X18426000Y-57038001D02*
X18426000Y-55737999D01*
G75*
G02*
X18675999Y-55488000I249999J0D01*
G01*
X19326001Y-55488000D01*
G75*
G02*
X19576000Y-55737999I0J-249999D01*
G01*
X19576000Y-57038001D01*
G75*
G02*
X19326001Y-57288000I-249999J0D01*
G01*
X18675999Y-57288000D01*
G75*
G02*
X18426000Y-57038001I0J249999D01*
G01*
G37*
G36*
G01*
X15476000Y-57038001D02*
X15476000Y-55737999D01*
G75*
G02*
X15725999Y-55488000I249999J0D01*
G01*
X16376001Y-55488000D01*
G75*
G02*
X16626000Y-55737999I0J-249999D01*
G01*
X16626000Y-57038001D01*
G75*
G02*
X16376001Y-57288000I-249999J0D01*
G01*
X15725999Y-57288000D01*
G75*
G02*
X15476000Y-57038001I0J249999D01*
G01*
G37*
%TD*%
D10*
%TO.C,SW2*%
X70860000Y-58420000D03*
X70860000Y-50620000D03*
%TD*%
%TO.C,SW1*%
X66040000Y-58420000D03*
X66040000Y-50620000D03*
%TD*%
%TO.C,D2*%
G36*
G01*
X50725000Y-39375000D02*
X50725000Y-40625000D01*
G75*
G02*
X50475000Y-40875000I-250000J0D01*
G01*
X49550000Y-40875000D01*
G75*
G02*
X49300000Y-40625000I0J250000D01*
G01*
X49300000Y-39375000D01*
G75*
G02*
X49550000Y-39125000I250000J0D01*
G01*
X50475000Y-39125000D01*
G75*
G02*
X50725000Y-39375000I0J-250000D01*
G01*
G37*
G36*
G01*
X53700000Y-39375000D02*
X53700000Y-40625000D01*
G75*
G02*
X53450000Y-40875000I-250000J0D01*
G01*
X52525000Y-40875000D01*
G75*
G02*
X52275000Y-40625000I0J250000D01*
G01*
X52275000Y-39375000D01*
G75*
G02*
X52525000Y-39125000I250000J0D01*
G01*
X53450000Y-39125000D01*
G75*
G02*
X53700000Y-39375000I0J-250000D01*
G01*
G37*
%TD*%
%TO.C,D1*%
G36*
G01*
X58725000Y-39375000D02*
X58725000Y-40625000D01*
G75*
G02*
X58475000Y-40875000I-250000J0D01*
G01*
X57550000Y-40875000D01*
G75*
G02*
X57300000Y-40625000I0J250000D01*
G01*
X57300000Y-39375000D01*
G75*
G02*
X57550000Y-39125000I250000J0D01*
G01*
X58475000Y-39125000D01*
G75*
G02*
X58725000Y-39375000I0J-250000D01*
G01*
G37*
G36*
G01*
X61700000Y-39375000D02*
X61700000Y-40625000D01*
G75*
G02*
X61450000Y-40875000I-250000J0D01*
G01*
X60525000Y-40875000D01*
G75*
G02*
X60275000Y-40625000I0J250000D01*
G01*
X60275000Y-39375000D01*
G75*
G02*
X60525000Y-39125000I250000J0D01*
G01*
X61450000Y-39125000D01*
G75*
G02*
X61700000Y-39375000I0J-250000D01*
G01*
G37*
%TD*%
%TO.C,R1*%
G36*
G01*
X18170000Y-43125001D02*
X18170000Y-41874999D01*
G75*
G02*
X18419999Y-41625000I249999J0D01*
G01*
X19045001Y-41625000D01*
G75*
G02*
X19295000Y-41874999I0J-249999D01*
G01*
X19295000Y-43125001D01*
G75*
G02*
X19045001Y-43375000I-249999J0D01*
G01*
X18419999Y-43375000D01*
G75*
G02*
X18170000Y-43125001I0J249999D01*
G01*
G37*
G36*
G01*
X15245000Y-43125001D02*
X15245000Y-41874999D01*
G75*
G02*
X15494999Y-41625000I249999J0D01*
G01*
X16120001Y-41625000D01*
G75*
G02*
X16370000Y-41874999I0J-249999D01*
G01*
X16370000Y-43125001D01*
G75*
G02*
X16120001Y-43375000I-249999J0D01*
G01*
X15494999Y-43375000D01*
G75*
G02*
X15245000Y-43125001I0J249999D01*
G01*
G37*
%TD*%
D11*
%TO.C,Q2*%
X25795000Y-39075000D03*
X22745000Y-35725000D03*
X22745000Y-39075000D03*
X25795000Y-35725000D03*
D12*
X26550000Y-43700000D03*
X24270000Y-43700000D03*
X21990000Y-43700000D03*
%TD*%
D13*
%TO.C,Q1*%
X16270000Y-36500000D03*
X18270000Y-35550000D03*
X18270000Y-37450000D03*
%TD*%
%TO.C,R8*%
G36*
G01*
X50600000Y-36874999D02*
X50600000Y-38125001D01*
G75*
G02*
X50350001Y-38375000I-249999J0D01*
G01*
X49724999Y-38375000D01*
G75*
G02*
X49475000Y-38125001I0J249999D01*
G01*
X49475000Y-36874999D01*
G75*
G02*
X49724999Y-36625000I249999J0D01*
G01*
X50350001Y-36625000D01*
G75*
G02*
X50600000Y-36874999I0J-249999D01*
G01*
G37*
G36*
G01*
X53525000Y-36874999D02*
X53525000Y-38125001D01*
G75*
G02*
X53275001Y-38375000I-249999J0D01*
G01*
X52649999Y-38375000D01*
G75*
G02*
X52400000Y-38125001I0J249999D01*
G01*
X52400000Y-36874999D01*
G75*
G02*
X52649999Y-36625000I249999J0D01*
G01*
X53275001Y-36625000D01*
G75*
G02*
X53525000Y-36874999I0J-249999D01*
G01*
G37*
%TD*%
%TO.C,R7*%
G36*
G01*
X25600000Y-49874999D02*
X25600000Y-51125001D01*
G75*
G02*
X25350001Y-51375000I-249999J0D01*
G01*
X24724999Y-51375000D01*
G75*
G02*
X24475000Y-51125001I0J249999D01*
G01*
X24475000Y-49874999D01*
G75*
G02*
X24724999Y-49625000I249999J0D01*
G01*
X25350001Y-49625000D01*
G75*
G02*
X25600000Y-49874999I0J-249999D01*
G01*
G37*
G36*
G01*
X28525000Y-49874999D02*
X28525000Y-51125001D01*
G75*
G02*
X28275001Y-51375000I-249999J0D01*
G01*
X27649999Y-51375000D01*
G75*
G02*
X27400000Y-51125001I0J249999D01*
G01*
X27400000Y-49874999D01*
G75*
G02*
X27649999Y-49625000I249999J0D01*
G01*
X28275001Y-49625000D01*
G75*
G02*
X28525000Y-49874999I0J-249999D01*
G01*
G37*
%TD*%
%TO.C,R6*%
G36*
G01*
X58600000Y-36874999D02*
X58600000Y-38125001D01*
G75*
G02*
X58350001Y-38375000I-249999J0D01*
G01*
X57724999Y-38375000D01*
G75*
G02*
X57475000Y-38125001I0J249999D01*
G01*
X57475000Y-36874999D01*
G75*
G02*
X57724999Y-36625000I249999J0D01*
G01*
X58350001Y-36625000D01*
G75*
G02*
X58600000Y-36874999I0J-249999D01*
G01*
G37*
G36*
G01*
X61525000Y-36874999D02*
X61525000Y-38125001D01*
G75*
G02*
X61275001Y-38375000I-249999J0D01*
G01*
X60649999Y-38375000D01*
G75*
G02*
X60400000Y-38125001I0J249999D01*
G01*
X60400000Y-36874999D01*
G75*
G02*
X60649999Y-36625000I249999J0D01*
G01*
X61275001Y-36625000D01*
G75*
G02*
X61525000Y-36874999I0J-249999D01*
G01*
G37*
%TD*%
%TO.C,R5*%
G36*
G01*
X59860000Y-56625001D02*
X59860000Y-55374999D01*
G75*
G02*
X60109999Y-55125000I249999J0D01*
G01*
X60735001Y-55125000D01*
G75*
G02*
X60985000Y-55374999I0J-249999D01*
G01*
X60985000Y-56625001D01*
G75*
G02*
X60735001Y-56875000I-249999J0D01*
G01*
X60109999Y-56875000D01*
G75*
G02*
X59860000Y-56625001I0J249999D01*
G01*
G37*
G36*
G01*
X56935000Y-56625001D02*
X56935000Y-55374999D01*
G75*
G02*
X57184999Y-55125000I249999J0D01*
G01*
X57810001Y-55125000D01*
G75*
G02*
X58060000Y-55374999I0J-249999D01*
G01*
X58060000Y-56625001D01*
G75*
G02*
X57810001Y-56875000I-249999J0D01*
G01*
X57184999Y-56875000D01*
G75*
G02*
X56935000Y-56625001I0J249999D01*
G01*
G37*
%TD*%
%TO.C,R4*%
G36*
G01*
X59860000Y-51625001D02*
X59860000Y-50374999D01*
G75*
G02*
X60109999Y-50125000I249999J0D01*
G01*
X60735001Y-50125000D01*
G75*
G02*
X60985000Y-50374999I0J-249999D01*
G01*
X60985000Y-51625001D01*
G75*
G02*
X60735001Y-51875000I-249999J0D01*
G01*
X60109999Y-51875000D01*
G75*
G02*
X59860000Y-51625001I0J249999D01*
G01*
G37*
G36*
G01*
X56935000Y-51625001D02*
X56935000Y-50374999D01*
G75*
G02*
X57184999Y-50125000I249999J0D01*
G01*
X57810001Y-50125000D01*
G75*
G02*
X58060000Y-50374999I0J-249999D01*
G01*
X58060000Y-51625001D01*
G75*
G02*
X57810001Y-51875000I-249999J0D01*
G01*
X57184999Y-51875000D01*
G75*
G02*
X56935000Y-51625001I0J249999D01*
G01*
G37*
%TD*%
%TO.C,R3*%
G36*
G01*
X62366999Y-31634000D02*
X63617001Y-31634000D01*
G75*
G02*
X63867000Y-31883999I0J-249999D01*
G01*
X63867000Y-32509001D01*
G75*
G02*
X63617001Y-32759000I-249999J0D01*
G01*
X62366999Y-32759000D01*
G75*
G02*
X62117000Y-32509001I0J249999D01*
G01*
X62117000Y-31883999D01*
G75*
G02*
X62366999Y-31634000I249999J0D01*
G01*
G37*
G36*
G01*
X62366999Y-28709000D02*
X63617001Y-28709000D01*
G75*
G02*
X63867000Y-28958999I0J-249999D01*
G01*
X63867000Y-29584001D01*
G75*
G02*
X63617001Y-29834000I-249999J0D01*
G01*
X62366999Y-29834000D01*
G75*
G02*
X62117000Y-29584001I0J249999D01*
G01*
X62117000Y-28958999D01*
G75*
G02*
X62366999Y-28709000I249999J0D01*
G01*
G37*
%TD*%
%TO.C,R2*%
G36*
G01*
X66157001Y-29834000D02*
X64906999Y-29834000D01*
G75*
G02*
X64657000Y-29584001I0J249999D01*
G01*
X64657000Y-28958999D01*
G75*
G02*
X64906999Y-28709000I249999J0D01*
G01*
X66157001Y-28709000D01*
G75*
G02*
X66407000Y-28958999I0J-249999D01*
G01*
X66407000Y-29584001D01*
G75*
G02*
X66157001Y-29834000I-249999J0D01*
G01*
G37*
G36*
G01*
X66157001Y-32759000D02*
X64906999Y-32759000D01*
G75*
G02*
X64657000Y-32509001I0J249999D01*
G01*
X64657000Y-31883999D01*
G75*
G02*
X64906999Y-31634000I249999J0D01*
G01*
X66157001Y-31634000D01*
G75*
G02*
X66407000Y-31883999I0J-249999D01*
G01*
X66407000Y-32509001D01*
G75*
G02*
X66157001Y-32759000I-249999J0D01*
G01*
G37*
%TD*%
%TO.C,C8*%
G36*
G01*
X59860000Y-54150001D02*
X59860000Y-52849999D01*
G75*
G02*
X60109999Y-52600000I249999J0D01*
G01*
X60760001Y-52600000D01*
G75*
G02*
X61010000Y-52849999I0J-249999D01*
G01*
X61010000Y-54150001D01*
G75*
G02*
X60760001Y-54400000I-249999J0D01*
G01*
X60109999Y-54400000D01*
G75*
G02*
X59860000Y-54150001I0J249999D01*
G01*
G37*
G36*
G01*
X56910000Y-54150001D02*
X56910000Y-52849999D01*
G75*
G02*
X57159999Y-52600000I249999J0D01*
G01*
X57810001Y-52600000D01*
G75*
G02*
X58060000Y-52849999I0J-249999D01*
G01*
X58060000Y-54150001D01*
G75*
G02*
X57810001Y-54400000I-249999J0D01*
G01*
X57159999Y-54400000D01*
G75*
G02*
X56910000Y-54150001I0J249999D01*
G01*
G37*
%TD*%
%TO.C,C7*%
G36*
G01*
X59860000Y-59150001D02*
X59860000Y-57849999D01*
G75*
G02*
X60109999Y-57600000I249999J0D01*
G01*
X60760001Y-57600000D01*
G75*
G02*
X61010000Y-57849999I0J-249999D01*
G01*
X61010000Y-59150001D01*
G75*
G02*
X60760001Y-59400000I-249999J0D01*
G01*
X60109999Y-59400000D01*
G75*
G02*
X59860000Y-59150001I0J249999D01*
G01*
G37*
G36*
G01*
X56910000Y-59150001D02*
X56910000Y-57849999D01*
G75*
G02*
X57159999Y-57600000I249999J0D01*
G01*
X57810001Y-57600000D01*
G75*
G02*
X58060000Y-57849999I0J-249999D01*
G01*
X58060000Y-59150001D01*
G75*
G02*
X57810001Y-59400000I-249999J0D01*
G01*
X57159999Y-59400000D01*
G75*
G02*
X56910000Y-59150001I0J249999D01*
G01*
G37*
%TD*%
%TO.C,C6*%
G36*
G01*
X52186000Y-32623999D02*
X52186000Y-33924001D01*
G75*
G02*
X51936001Y-34174000I-249999J0D01*
G01*
X51285999Y-34174000D01*
G75*
G02*
X51036000Y-33924001I0J249999D01*
G01*
X51036000Y-32623999D01*
G75*
G02*
X51285999Y-32374000I249999J0D01*
G01*
X51936001Y-32374000D01*
G75*
G02*
X52186000Y-32623999I0J-249999D01*
G01*
G37*
G36*
G01*
X55136000Y-32623999D02*
X55136000Y-33924001D01*
G75*
G02*
X54886001Y-34174000I-249999J0D01*
G01*
X54235999Y-34174000D01*
G75*
G02*
X53986000Y-33924001I0J249999D01*
G01*
X53986000Y-32623999D01*
G75*
G02*
X54235999Y-32374000I249999J0D01*
G01*
X54886001Y-32374000D01*
G75*
G02*
X55136000Y-32623999I0J-249999D01*
G01*
G37*
%TD*%
%TO.C,C5*%
G36*
G01*
X61102001Y-29834000D02*
X59801999Y-29834000D01*
G75*
G02*
X59552000Y-29584001I0J249999D01*
G01*
X59552000Y-28933999D01*
G75*
G02*
X59801999Y-28684000I249999J0D01*
G01*
X61102001Y-28684000D01*
G75*
G02*
X61352000Y-28933999I0J-249999D01*
G01*
X61352000Y-29584001D01*
G75*
G02*
X61102001Y-29834000I-249999J0D01*
G01*
G37*
G36*
G01*
X61102001Y-32784000D02*
X59801999Y-32784000D01*
G75*
G02*
X59552000Y-32534001I0J249999D01*
G01*
X59552000Y-31883999D01*
G75*
G02*
X59801999Y-31634000I249999J0D01*
G01*
X61102001Y-31634000D01*
G75*
G02*
X61352000Y-31883999I0J-249999D01*
G01*
X61352000Y-32534001D01*
G75*
G02*
X61102001Y-32784000I-249999J0D01*
G01*
G37*
%TD*%
%TO.C,C4*%
G36*
G01*
X52650001Y-64600000D02*
X51349999Y-64600000D01*
G75*
G02*
X51100000Y-64350001I0J249999D01*
G01*
X51100000Y-63699999D01*
G75*
G02*
X51349999Y-63450000I249999J0D01*
G01*
X52650001Y-63450000D01*
G75*
G02*
X52900000Y-63699999I0J-249999D01*
G01*
X52900000Y-64350001D01*
G75*
G02*
X52650001Y-64600000I-249999J0D01*
G01*
G37*
G36*
G01*
X52650001Y-67550000D02*
X51349999Y-67550000D01*
G75*
G02*
X51100000Y-67300001I0J249999D01*
G01*
X51100000Y-66649999D01*
G75*
G02*
X51349999Y-66400000I249999J0D01*
G01*
X52650001Y-66400000D01*
G75*
G02*
X52900000Y-66649999I0J-249999D01*
G01*
X52900000Y-67300001D01*
G75*
G02*
X52650001Y-67550000I-249999J0D01*
G01*
G37*
%TD*%
%TO.C,C3*%
G36*
G01*
X54349999Y-66425000D02*
X55650001Y-66425000D01*
G75*
G02*
X55900000Y-66674999I0J-249999D01*
G01*
X55900000Y-67325001D01*
G75*
G02*
X55650001Y-67575000I-249999J0D01*
G01*
X54349999Y-67575000D01*
G75*
G02*
X54100000Y-67325001I0J249999D01*
G01*
X54100000Y-66674999D01*
G75*
G02*
X54349999Y-66425000I249999J0D01*
G01*
G37*
G36*
G01*
X54349999Y-63475000D02*
X55650001Y-63475000D01*
G75*
G02*
X55900000Y-63724999I0J-249999D01*
G01*
X55900000Y-64375001D01*
G75*
G02*
X55650001Y-64625000I-249999J0D01*
G01*
X54349999Y-64625000D01*
G75*
G02*
X54100000Y-64375001I0J249999D01*
G01*
X54100000Y-63724999D01*
G75*
G02*
X54349999Y-63475000I249999J0D01*
G01*
G37*
%TD*%
%TO.C,U4*%
G36*
G01*
X18975000Y-50245000D02*
X18975000Y-49945000D01*
G75*
G02*
X19125000Y-49795000I150000J0D01*
G01*
X20775000Y-49795000D01*
G75*
G02*
X20925000Y-49945000I0J-150000D01*
G01*
X20925000Y-50245000D01*
G75*
G02*
X20775000Y-50395000I-150000J0D01*
G01*
X19125000Y-50395000D01*
G75*
G02*
X18975000Y-50245000I0J150000D01*
G01*
G37*
G36*
G01*
X18975000Y-51515000D02*
X18975000Y-51215000D01*
G75*
G02*
X19125000Y-51065000I150000J0D01*
G01*
X20775000Y-51065000D01*
G75*
G02*
X20925000Y-51215000I0J-150000D01*
G01*
X20925000Y-51515000D01*
G75*
G02*
X20775000Y-51665000I-150000J0D01*
G01*
X19125000Y-51665000D01*
G75*
G02*
X18975000Y-51515000I0J150000D01*
G01*
G37*
G36*
G01*
X18975000Y-52785000D02*
X18975000Y-52485000D01*
G75*
G02*
X19125000Y-52335000I150000J0D01*
G01*
X20775000Y-52335000D01*
G75*
G02*
X20925000Y-52485000I0J-150000D01*
G01*
X20925000Y-52785000D01*
G75*
G02*
X20775000Y-52935000I-150000J0D01*
G01*
X19125000Y-52935000D01*
G75*
G02*
X18975000Y-52785000I0J150000D01*
G01*
G37*
G36*
G01*
X18975000Y-54055000D02*
X18975000Y-53755000D01*
G75*
G02*
X19125000Y-53605000I150000J0D01*
G01*
X20775000Y-53605000D01*
G75*
G02*
X20925000Y-53755000I0J-150000D01*
G01*
X20925000Y-54055000D01*
G75*
G02*
X20775000Y-54205000I-150000J0D01*
G01*
X19125000Y-54205000D01*
G75*
G02*
X18975000Y-54055000I0J150000D01*
G01*
G37*
G36*
G01*
X14025000Y-54055000D02*
X14025000Y-53755000D01*
G75*
G02*
X14175000Y-53605000I150000J0D01*
G01*
X15825000Y-53605000D01*
G75*
G02*
X15975000Y-53755000I0J-150000D01*
G01*
X15975000Y-54055000D01*
G75*
G02*
X15825000Y-54205000I-150000J0D01*
G01*
X14175000Y-54205000D01*
G75*
G02*
X14025000Y-54055000I0J150000D01*
G01*
G37*
G36*
G01*
X14025000Y-52785000D02*
X14025000Y-52485000D01*
G75*
G02*
X14175000Y-52335000I150000J0D01*
G01*
X15825000Y-52335000D01*
G75*
G02*
X15975000Y-52485000I0J-150000D01*
G01*
X15975000Y-52785000D01*
G75*
G02*
X15825000Y-52935000I-150000J0D01*
G01*
X14175000Y-52935000D01*
G75*
G02*
X14025000Y-52785000I0J150000D01*
G01*
G37*
G36*
G01*
X14025000Y-51515000D02*
X14025000Y-51215000D01*
G75*
G02*
X14175000Y-51065000I150000J0D01*
G01*
X15825000Y-51065000D01*
G75*
G02*
X15975000Y-51215000I0J-150000D01*
G01*
X15975000Y-51515000D01*
G75*
G02*
X15825000Y-51665000I-150000J0D01*
G01*
X14175000Y-51665000D01*
G75*
G02*
X14025000Y-51515000I0J150000D01*
G01*
G37*
G36*
G01*
X14025000Y-50245000D02*
X14025000Y-49945000D01*
G75*
G02*
X14175000Y-49795000I150000J0D01*
G01*
X15825000Y-49795000D01*
G75*
G02*
X15975000Y-49945000I0J-150000D01*
G01*
X15975000Y-50245000D01*
G75*
G02*
X15825000Y-50395000I-150000J0D01*
G01*
X14175000Y-50395000D01*
G75*
G02*
X14025000Y-50245000I0J150000D01*
G01*
G37*
%TD*%
D14*
%TO.C,U3*%
X31500000Y-67255000D03*
X31500000Y-65985000D03*
X31500000Y-64715000D03*
X31500000Y-63445000D03*
X31500000Y-62175000D03*
X31500000Y-60905000D03*
X31500000Y-59635000D03*
X31500000Y-58365000D03*
X31500000Y-57095000D03*
X31500000Y-55825000D03*
X31500000Y-54555000D03*
X31500000Y-53285000D03*
X31500000Y-52015000D03*
X31500000Y-50745000D03*
D15*
X34285000Y-49745000D03*
X35555000Y-49745000D03*
X36825000Y-49745000D03*
X38095000Y-49745000D03*
X39365000Y-49745000D03*
X40635000Y-49745000D03*
X41905000Y-49745000D03*
X43175000Y-49745000D03*
X44445000Y-49745000D03*
X45715000Y-49745000D03*
D14*
X48500000Y-50745000D03*
X48500000Y-52015000D03*
X48500000Y-53285000D03*
X48500000Y-54555000D03*
X48500000Y-55825000D03*
X48500000Y-57095000D03*
X48500000Y-58365000D03*
X48500000Y-59635000D03*
X48500000Y-60905000D03*
X48500000Y-62175000D03*
X48500000Y-63445000D03*
X48500000Y-64715000D03*
X48500000Y-65985000D03*
X48500000Y-67255000D03*
D16*
X41000000Y-59755000D03*
%TD*%
%TO.C,U2*%
G36*
G01*
X57381000Y-29440000D02*
X57681000Y-29440000D01*
G75*
G02*
X57831000Y-29590000I0J-150000D01*
G01*
X57831000Y-31240000D01*
G75*
G02*
X57681000Y-31390000I-150000J0D01*
G01*
X57381000Y-31390000D01*
G75*
G02*
X57231000Y-31240000I0J150000D01*
G01*
X57231000Y-29590000D01*
G75*
G02*
X57381000Y-29440000I150000J0D01*
G01*
G37*
G36*
G01*
X56111000Y-29440000D02*
X56411000Y-29440000D01*
G75*
G02*
X56561000Y-29590000I0J-150000D01*
G01*
X56561000Y-31240000D01*
G75*
G02*
X56411000Y-31390000I-150000J0D01*
G01*
X56111000Y-31390000D01*
G75*
G02*
X55961000Y-31240000I0J150000D01*
G01*
X55961000Y-29590000D01*
G75*
G02*
X56111000Y-29440000I150000J0D01*
G01*
G37*
G36*
G01*
X54841000Y-29440000D02*
X55141000Y-29440000D01*
G75*
G02*
X55291000Y-29590000I0J-150000D01*
G01*
X55291000Y-31240000D01*
G75*
G02*
X55141000Y-31390000I-150000J0D01*
G01*
X54841000Y-31390000D01*
G75*
G02*
X54691000Y-31240000I0J150000D01*
G01*
X54691000Y-29590000D01*
G75*
G02*
X54841000Y-29440000I150000J0D01*
G01*
G37*
G36*
G01*
X53571000Y-29440000D02*
X53871000Y-29440000D01*
G75*
G02*
X54021000Y-29590000I0J-150000D01*
G01*
X54021000Y-31240000D01*
G75*
G02*
X53871000Y-31390000I-150000J0D01*
G01*
X53571000Y-31390000D01*
G75*
G02*
X53421000Y-31240000I0J150000D01*
G01*
X53421000Y-29590000D01*
G75*
G02*
X53571000Y-29440000I150000J0D01*
G01*
G37*
G36*
G01*
X53571000Y-24490000D02*
X53871000Y-24490000D01*
G75*
G02*
X54021000Y-24640000I0J-150000D01*
G01*
X54021000Y-26290000D01*
G75*
G02*
X53871000Y-26440000I-150000J0D01*
G01*
X53571000Y-26440000D01*
G75*
G02*
X53421000Y-26290000I0J150000D01*
G01*
X53421000Y-24640000D01*
G75*
G02*
X53571000Y-24490000I150000J0D01*
G01*
G37*
G36*
G01*
X54841000Y-24490000D02*
X55141000Y-24490000D01*
G75*
G02*
X55291000Y-24640000I0J-150000D01*
G01*
X55291000Y-26290000D01*
G75*
G02*
X55141000Y-26440000I-150000J0D01*
G01*
X54841000Y-26440000D01*
G75*
G02*
X54691000Y-26290000I0J150000D01*
G01*
X54691000Y-24640000D01*
G75*
G02*
X54841000Y-24490000I150000J0D01*
G01*
G37*
G36*
G01*
X56111000Y-24490000D02*
X56411000Y-24490000D01*
G75*
G02*
X56561000Y-24640000I0J-150000D01*
G01*
X56561000Y-26290000D01*
G75*
G02*
X56411000Y-26440000I-150000J0D01*
G01*
X56111000Y-26440000D01*
G75*
G02*
X55961000Y-26290000I0J150000D01*
G01*
X55961000Y-24640000D01*
G75*
G02*
X56111000Y-24490000I150000J0D01*
G01*
G37*
G36*
G01*
X57381000Y-24490000D02*
X57681000Y-24490000D01*
G75*
G02*
X57831000Y-24640000I0J-150000D01*
G01*
X57831000Y-26290000D01*
G75*
G02*
X57681000Y-26440000I-150000J0D01*
G01*
X57381000Y-26440000D01*
G75*
G02*
X57231000Y-26290000I0J150000D01*
G01*
X57231000Y-24640000D01*
G75*
G02*
X57381000Y-24490000I150000J0D01*
G01*
G37*
%TD*%
D17*
%TO.C,U1*%
X37200000Y-41250000D03*
X41800000Y-41250000D03*
X39500000Y-41250000D03*
D18*
X39500000Y-34950000D03*
%TD*%
%TO.C,C2*%
G36*
G01*
X32369999Y-39000000D02*
X33670001Y-39000000D01*
G75*
G02*
X33920000Y-39249999I0J-249999D01*
G01*
X33920000Y-40075001D01*
G75*
G02*
X33670001Y-40325000I-249999J0D01*
G01*
X32369999Y-40325000D01*
G75*
G02*
X32120000Y-40075001I0J249999D01*
G01*
X32120000Y-39249999D01*
G75*
G02*
X32369999Y-39000000I249999J0D01*
G01*
G37*
G36*
G01*
X32369999Y-35875000D02*
X33670001Y-35875000D01*
G75*
G02*
X33920000Y-36124999I0J-249999D01*
G01*
X33920000Y-36950001D01*
G75*
G02*
X33670001Y-37200000I-249999J0D01*
G01*
X32369999Y-37200000D01*
G75*
G02*
X32120000Y-36950001I0J249999D01*
G01*
X32120000Y-36124999D01*
G75*
G02*
X32369999Y-35875000I249999J0D01*
G01*
G37*
%TD*%
%TO.C,C1*%
G36*
G01*
X46370001Y-37200000D02*
X45069999Y-37200000D01*
G75*
G02*
X44820000Y-36950001I0J249999D01*
G01*
X44820000Y-36124999D01*
G75*
G02*
X45069999Y-35875000I249999J0D01*
G01*
X46370001Y-35875000D01*
G75*
G02*
X46620000Y-36124999I0J-249999D01*
G01*
X46620000Y-36950001D01*
G75*
G02*
X46370001Y-37200000I-249999J0D01*
G01*
G37*
G36*
G01*
X46370001Y-40325000D02*
X45069999Y-40325000D01*
G75*
G02*
X44820000Y-40075001I0J249999D01*
G01*
X44820000Y-39249999D01*
G75*
G02*
X45069999Y-39000000I249999J0D01*
G01*
X46370001Y-39000000D01*
G75*
G02*
X46620000Y-39249999I0J-249999D01*
G01*
X46620000Y-40075001D01*
G75*
G02*
X46370001Y-40325000I-249999J0D01*
G01*
G37*
%TD*%
M02*
