<?xml version="1.0" standalone="no"?>
 <!DOCTYPE svg PUBLIC "-//W3C//DTD SVG 1.1//EN" 
 "http://www.w3.org/Graphics/SVG/1.1/DTD/svg11.dtd"> 
<svg
  xmlns:svg="http://www.w3.org/2000/svg"
  xmlns="http://www.w3.org/2000/svg"
  xmlns:xlink="http://www.w3.org/1999/xlink"
  version="1.1"
  width="29.700220cm" height="21.000720cm" viewBox="0 0 116930 82680">
<title>SVG Picture created as HotPlateController-F_Paste.svg date 2021/01/13 20:23:05 </title>
  <desc>Picture generated by PCBNEW </desc>
<g style="fill:#000000; fill-opacity:1;stroke:#000000; stroke-opacity:1;
stroke-linecap:round; stroke-linejoin:round;"
 transform="translate(0 0) scale(1 1)">
</g>
<g style="fill:#000000; fill-opacity:0.0; 
stroke:#000000; stroke-width:-0.000393701; stroke-opacity:1; 
stroke-linecap:round; stroke-linejoin:round;">
<g >
</g>
<g >
</g>
<g >
</g>
<g style="fill:#000000; fill-opacity:0.0; 
stroke:#000000; stroke-width:-0.000393701; stroke-opacity:1; 
stroke-linecap:round; stroke-linejoin:round;">
</g>
<g style="fill:#000000; fill-opacity:0.0; 
stroke:#000000; stroke-width:0; stroke-opacity:1; 
stroke-linecap:round; stroke-linejoin:round;">
</g>
<g style="fill:#000000; fill-opacity:1.0; 
stroke:#000000; stroke-width:0; stroke-opacity:1; 
stroke-linecap:round; stroke-linejoin:round;">
<path style="fill:#000000; fill-opacity:1.0; 
stroke:#000000; stroke-width:0; stroke-opacity:1; 
stroke-linecap:round; stroke-linejoin:round;fill-rule:evenodd;"
d="M 23587.6,4341.03
23597.2,4342.44
23606.5,4344.79
23615.6,4348.04
23624.4,4352.17
23632.6,4357.14
23640.4,4362.89
23647.5,4369.38
23654,4376.54
23659.8,4384.29
23664.8,4392.58
23668.9,4401.31
23672.1,4410.4
23674.5,4419.77
23675.9,4429.33
23676.4,4438.98
23676.4,5561.02
23675.9,5570.67
23674.5,5580.23
23672.1,5589.6
23668.9,5598.69
23664.8,5607.42
23659.8,5615.71
23654,5623.46
23647.5,5630.62
23640.4,5637.11
23632.6,5642.86
23624.4,5647.83
23615.6,5651.96
23606.5,5655.21
23597.2,5657.56
23587.6,5658.97
23578,5659.45
23223.6,5659.45
23214,5658.97
23204.4,5657.56
23195.1,5655.21
23186,5651.96
23177.2,5647.83
23168.9,5642.86
23161.2,5637.11
23154,5630.62
23147.5,5623.46
23141.8,5615.71
23136.8,5607.42
23132.7,5598.69
23129.4,5589.6
23127.1,5580.23
23125.7,5570.67
23125.2,5561.02
23125.2,4438.98
23125.7,4429.33
23127.1,4419.77
23129.4,4410.4
23132.7,4401.31
23136.8,4392.58
23141.8,4384.29
23147.5,4376.54
23154,4369.38
23161.2,4362.89
23168.9,4357.14
23177.2,4352.17
23186,4348.04
23195.1,4344.79
23204.4,4342.44
23214,4341.03
23223.6,4340.55
23578,4340.55
Z" /> 
<path style="fill:#000000; fill-opacity:1.0; 
stroke:#000000; stroke-width:0; stroke-opacity:1; 
stroke-linecap:round; stroke-linejoin:round;fill-rule:evenodd;"
d="M 21186,4341.03
21195.6,4342.44
21204.9,4344.79
21214,4348.04
21222.8,4352.17
21231.1,4357.14
21238.8,4362.89
21246,4369.38
21252.5,4376.54
21258.2,4384.29
21263.2,4392.58
21267.3,4401.31
21270.6,4410.4
21272.9,4419.77
21274.3,4429.33
21274.8,4438.98
21274.8,5561.02
21274.3,5570.67
21272.9,5580.23
21270.6,5589.6
21267.3,5598.69
21263.2,5607.42
21258.2,5615.71
21252.5,5623.46
21246,5630.62
21238.8,5637.11
21231.1,5642.86
21222.8,5647.83
21214,5651.96
21204.9,5655.21
21195.6,5657.56
21186,5658.97
21176.4,5659.45
20822,5659.45
20812.4,5658.97
20802.8,5657.56
20793.5,5655.21
20784.4,5651.96
20775.6,5647.83
20767.4,5642.86
20759.6,5637.11
20752.5,5630.62
20746,5623.46
20740.2,5615.71
20735.2,5607.42
20731.1,5598.69
20727.9,5589.6
20725.5,5580.23
20724.1,5570.67
20723.6,5561.02
20723.6,4438.98
20724.1,4429.33
20725.5,4419.77
20727.9,4410.4
20731.1,4401.31
20735.2,4392.58
20740.2,4384.29
20746,4376.54
20752.5,4369.38
20759.6,4362.89
20767.4,4357.14
20775.6,4352.17
20784.4,4348.04
20793.5,4344.79
20802.8,4342.44
20812.4,4341.03
20822,4340.55
21176.4,4340.55
Z" /> 
</g>
<g >
</g>
<g style="fill:#000000; fill-opacity:1.0; 
stroke:#000000; stroke-width:0; stroke-opacity:1; 
stroke-linecap:round; stroke-linejoin:round;">
<path style="fill:#000000; fill-opacity:1.0; 
stroke:#000000; stroke-width:0; stroke-opacity:1; 
stroke-linecap:round; stroke-linejoin:round;fill-rule:evenodd;"
d="M 7618.31,21846.1
7627.86,21847.6
7637.23,21849.9
7646.33,21853.2
7655.06,21857.3
7663.34,21862.3
7671.1,21868
7678.26,21874.5
7684.75,21881.7
7690.5,21889.4
7695.46,21897.7
7699.59,21906.4
7702.85,21915.5
7705.2,21924.9
7706.61,21934.4
7707.09,21944.1
7707.09,22455.9
7706.61,22465.6
7705.2,22475.1
7702.85,22484.5
7699.59,22493.6
7695.46,22502.3
7690.5,22510.6
7684.75,22518.3
7678.26,22525.5
7671.1,22532
7663.34,22537.7
7655.06,22542.7
7646.33,22546.8
7637.23,22550.1
7627.86,22552.4
7618.31,22553.9
7608.66,22554.3
7352.76,22554.3
7343.11,22553.9
7333.55,22552.4
7324.18,22550.1
7315.09,22546.8
7306.36,22542.7
7298.07,22537.7
7290.32,22532
7283.16,22525.5
7276.67,22518.3
7270.92,22510.6
7265.95,22502.3
7261.82,22493.6
7258.57,22484.5
7256.22,22475.1
7254.8,22465.6
7254.33,22455.9
7254.33,21944.1
7254.8,21934.4
7256.22,21924.9
7258.57,21915.5
7261.82,21906.4
7265.95,21897.7
7270.92,21889.4
7276.67,21881.7
7283.16,21874.5
7290.32,21868
7298.07,21862.3
7306.36,21857.3
7315.09,21853.2
7324.18,21849.9
7333.55,21847.6
7343.11,21846.1
7352.76,21845.7
7608.66,21845.7
Z" /> 
<path style="fill:#000000; fill-opacity:1.0; 
stroke:#000000; stroke-width:0; stroke-opacity:1; 
stroke-linecap:round; stroke-linejoin:round;fill-rule:evenodd;"
d="M 6456.89,21846.1
6466.45,21847.6
6475.82,21849.9
6484.91,21853.2
6493.64,21857.3
6501.93,21862.3
6509.68,21868
6516.84,21874.5
6523.33,21881.7
6529.08,21889.4
6534.05,21897.7
6538.18,21906.4
6541.43,21915.5
6543.78,21924.9
6545.2,21934.4
6545.67,21944.1
6545.67,22455.9
6545.2,22465.6
6543.78,22475.1
6541.43,22484.5
6538.18,22493.6
6534.05,22502.3
6529.08,22510.6
6523.33,22518.3
6516.84,22525.5
6509.68,22532
6501.93,22537.7
6493.64,22542.7
6484.91,22546.8
6475.82,22550.1
6466.45,22552.4
6456.89,22553.9
6447.24,22554.3
6191.34,22554.3
6181.69,22553.9
6172.14,22552.4
6162.77,22550.1
6153.67,22546.8
6144.94,22542.7
6136.66,22537.7
6128.9,22532
6121.74,22525.5
6115.25,22518.3
6109.5,22510.6
6104.54,22502.3
6100.41,22493.6
6097.15,22484.5
6094.8,22475.1
6093.39,22465.6
6092.91,22455.9
6092.91,21944.1
6093.39,21934.4
6094.8,21924.9
6097.15,21915.5
6100.41,21906.4
6104.54,21897.7
6109.5,21889.4
6115.25,21881.7
6121.74,21874.5
6128.9,21868
6136.66,21862.3
6144.94,21857.3
6153.67,21853.2
6162.77,21849.9
6172.14,21847.6
6181.69,21846.1
6191.34,21845.7
6447.24,21845.7
Z" /> 
</g>
<g >
</g>
<g >
</g>
<g style="fill:#000000; fill-opacity:1.0; 
stroke:#000000; stroke-width:0; stroke-opacity:1; 
stroke-linecap:round; stroke-linejoin:round;">
<path style="fill:#000000; fill-opacity:1.0; 
stroke:#000000; stroke-width:0; stroke-opacity:1; 
stroke-linecap:round; stroke-linejoin:round;fill-rule:evenodd;"
d="M 28311,22527.6
28311,23472.4
27484.3,23472.4
27484.3,22527.6
Z" /> 
<path style="fill:#000000; fill-opacity:1.0; 
stroke:#000000; stroke-width:0; stroke-opacity:1; 
stroke-linecap:round; stroke-linejoin:round;fill-rule:evenodd;"
d="M 28311,19456.7
28311,20401.6
27484.3,20401.6
27484.3,19456.7
Z" /> 
</g>
<g >
</g>
<g style="fill:#000000; fill-opacity:1.0; 
stroke:#000000; stroke-width:0; stroke-opacity:1; 
stroke-linecap:round; stroke-linejoin:round;">
<path style="fill:#000000; fill-opacity:1.0; 
stroke:#000000; stroke-width:0; stroke-opacity:1; 
stroke-linecap:round; stroke-linejoin:round;fill-rule:evenodd;"
d="M 26413.4,22527.6
26413.4,23472.4
25586.6,23472.4
25586.6,22527.6
Z" /> 
<path style="fill:#000000; fill-opacity:1.0; 
stroke:#000000; stroke-width:0; stroke-opacity:1; 
stroke-linecap:round; stroke-linejoin:round;fill-rule:evenodd;"
d="M 26413.4,19456.7
26413.4,20401.6
25586.6,20401.6
25586.6,19456.7
Z" /> 
</g>
<g >
</g>
<g style="fill:#000000; fill-opacity:1.0; 
stroke:#000000; stroke-width:0; stroke-opacity:1; 
stroke-linecap:round; stroke-linejoin:round;">
<path style="fill:#000000; fill-opacity:1.0; 
stroke:#000000; stroke-width:0; stroke-opacity:1; 
stroke-linecap:round; stroke-linejoin:round;fill-rule:evenodd;"
d="M 19881.7,15404
19891.2,15405.4
19900.6,15407.8
19909.7,15411
19918.4,15415.2
19926.7,15420.1
19934.5,15425.9
19941.6,15432.4
19948.1,15439.5
19953.9,15447.3
19958.9,15455.6
19963,15464.3
19966.2,15473.4
19968.6,15482.8
19970,15492.3
19970.5,15502
19970.5,15994.1
19970,16003.7
19968.6,16013.3
19966.2,16022.7
19963,16031.8
19958.9,16040.5
19953.9,16048.8
19948.1,16056.5
19941.6,16063.7
19934.5,16070.2
19926.7,16075.9
19918.4,16080.9
19909.7,16085
19900.6,16088.3
19891.2,16090.6
19881.7,16092
19872,16092.5
19507.9,16092.5
19498.2,16092
19488.7,16090.6
19479.3,16088.3
19470.2,16085
19461.5,16080.9
19453.2,16075.9
19445.4,16070.2
19438.3,16063.7
19431.8,16056.5
19426,16048.8
19421.1,16040.5
19416.9,16031.8
19413.7,16022.7
19411.3,16013.3
19409.9,16003.7
19409.4,15994.1
19409.4,15502
19409.9,15492.3
19411.3,15482.8
19413.7,15473.4
19416.9,15464.3
19421.1,15455.6
19426,15447.3
19431.8,15439.5
19438.3,15432.4
19445.4,15425.9
19453.2,15420.1
19461.5,15415.2
19470.2,15411
19479.3,15407.8
19488.7,15405.4
19498.2,15404
19507.9,15403.5
19872,15403.5
Z" /> 
<path style="fill:#000000; fill-opacity:1.0; 
stroke:#000000; stroke-width:0; stroke-opacity:1; 
stroke-linecap:round; stroke-linejoin:round;fill-rule:evenodd;"
d="M 21053,15404
21062.5,15405.4
21071.9,15407.8
21081,15411
21089.7,15415.2
21098,15420.1
21105.7,15425.9
21112.9,15432.4
21119.4,15439.5
21125.1,15447.3
21130.1,15455.6
21134.2,15464.3
21137.5,15473.4
21139.8,15482.8
21141.3,15492.3
21141.7,15502
21141.7,15994.1
21141.3,16003.7
21139.8,16013.3
21137.5,16022.7
21134.2,16031.8
21130.1,16040.5
21125.1,16048.8
21119.4,16056.5
21112.9,16063.7
21105.7,16070.2
21098,16075.9
21089.7,16080.9
21081,16085
21071.9,16088.3
21062.5,16090.6
21053,16092
21043.3,16092.5
20679.1,16092.5
20669.5,16092
20659.9,16090.6
20650.6,16088.3
20641.5,16085
20632.7,16080.9
20624.5,16075.9
20616.7,16070.2
20609.5,16063.7
20603,16056.5
20597.3,16048.8
20592.3,16040.5
20588.2,16031.8
20584.9,16022.7
20582.6,16013.3
20581.2,16003.7
20580.7,15994.1
20580.7,15502
20581.2,15492.3
20582.6,15482.8
20584.9,15473.4
20588.2,15464.3
20592.3,15455.6
20597.3,15447.3
20603,15439.5
20609.5,15432.4
20616.7,15425.9
20624.5,15420.1
20632.7,15415.2
20641.5,15411
20650.6,15407.8
20659.9,15405.4
20669.5,15404
20679.1,15403.5
21043.3,15403.5
Z" /> 
</g>
<g >
</g>
<g style="fill:#000000; fill-opacity:1.0; 
stroke:#000000; stroke-width:0; stroke-opacity:1; 
stroke-linecap:round; stroke-linejoin:round;">
<path style="fill:#000000; fill-opacity:1.0; 
stroke:#000000; stroke-width:0; stroke-opacity:1; 
stroke-linecap:round; stroke-linejoin:round;fill-rule:evenodd;"
d="M 23031.3,15404
23040.9,15405.4
23050.2,15407.8
23059.3,15411
23068.1,15415.2
23076.3,15420.1
23084.1,15425.9
23091.3,15432.4
23097.7,15439.5
23103.5,15447.3
23108.5,15455.6
23112.6,15464.3
23115.8,15473.4
23118.2,15482.8
23119.6,15492.3
23120.1,15502
23120.1,15994.1
23119.6,16003.7
23118.2,16013.3
23115.8,16022.7
23112.6,16031.8
23108.5,16040.5
23103.5,16048.8
23097.7,16056.5
23091.3,16063.7
23084.1,16070.2
23076.3,16075.9
23068.1,16080.9
23059.3,16085
23050.2,16088.3
23040.9,16090.6
23031.3,16092
23021.7,16092.5
22657.5,16092.5
22647.8,16092
22638.3,16090.6
22628.9,16088.3
22619.8,16085
22611.1,16080.9
22602.8,16075.9
22595,16070.2
22587.9,16063.7
22581.4,16056.5
22575.6,16048.8
22570.7,16040.5
22566.5,16031.8
22563.3,16022.7
22560.9,16013.3
22559.5,16003.7
22559.1,15994.1
22559.1,15502
22559.5,15492.3
22560.9,15482.8
22563.3,15473.4
22566.5,15464.3
22570.7,15455.6
22575.6,15447.3
22581.4,15439.5
22587.9,15432.4
22595,15425.9
22602.8,15420.1
22611.1,15415.2
22619.8,15411
22628.9,15407.8
22638.3,15405.4
22647.8,15404
22657.5,15403.5
23021.7,15403.5
Z" /> 
<path style="fill:#000000; fill-opacity:1.0; 
stroke:#000000; stroke-width:0; stroke-opacity:1; 
stroke-linecap:round; stroke-linejoin:round;fill-rule:evenodd;"
d="M 24202.6,15404
24212.1,15405.4
24221.5,15407.8
24230.6,15411
24239.3,15415.2
24247.6,15420.1
24255.4,15425.9
24262.5,15432.4
24269,15439.5
24274.8,15447.3
24279.7,15455.6
24283.8,15464.3
24287.1,15473.4
24289.4,15482.8
24290.9,15492.3
24291.3,15502
24291.3,15994.1
24290.9,16003.7
24289.4,16013.3
24287.1,16022.7
24283.8,16031.8
24279.7,16040.5
24274.8,16048.8
24269,16056.5
24262.5,16063.7
24255.4,16070.2
24247.6,16075.9
24239.3,16080.9
24230.6,16085
24221.5,16088.3
24212.1,16090.6
24202.6,16092
24192.9,16092.5
23828.7,16092.5
23819.1,16092
23809.5,16090.6
23800.2,16088.3
23791.1,16085
23782.3,16080.9
23774.1,16075.9
23766.3,16070.2
23759.1,16063.7
23752.7,16056.5
23746.9,16048.8
23741.9,16040.5
23737.8,16031.8
23734.6,16022.7
23732.2,16013.3
23730.8,16003.7
23730.3,15994.1
23730.3,15502
23730.8,15492.3
23732.2,15482.8
23734.6,15473.4
23737.8,15464.3
23741.9,15455.6
23746.9,15447.3
23752.7,15439.5
23759.1,15432.4
23766.3,15425.9
23774.1,15420.1
23782.3,15415.2
23791.1,15411
23800.2,15407.8
23809.5,15405.4
23819.1,15404
23828.7,15403.5
24192.9,15403.5
Z" /> 
</g>
<g >
</g>
<g >
</g>
<g >
</g>
<g >
</g>
<g >
</g>
<g >
</g>
<g >
</g>
<g style="fill:#000000; fill-opacity:1.0; 
stroke:#000000; stroke-width:0; stroke-opacity:1; 
stroke-linecap:round; stroke-linejoin:round;">
<path style="fill:#000000; fill-opacity:1.0; 
stroke:#000000; stroke-width:0; stroke-opacity:1; 
stroke-linecap:round; stroke-linejoin:round;fill-rule:evenodd;"
d="M 7507.68,16388.3
7517.23,16389.7
7526.6,16392
7535.7,16395.3
7544.43,16399.4
7552.71,16404.4
7560.47,16410.1
7567.63,16416.6
7574.12,16423.8
7579.87,16431.5
7584.83,16439.8
7588.96,16448.6
7592.22,16457.6
7594.57,16467
7595.98,16476.6
7596.46,16486.2
7596.46,16978.3
7595.98,16988
7594.57,16997.5
7592.22,17006.9
7588.96,17016
7584.83,17024.7
7579.87,17033
7574.12,17040.8
7567.63,17047.9
7560.47,17054.4
7552.71,17060.2
7544.43,17065.1
7535.7,17069.3
7526.6,17072.5
7517.23,17074.9
7507.68,17076.3
7498.03,17076.8
7251.97,17076.8
7242.32,17076.3
7232.77,17074.9
7223.4,17072.5
7214.3,17069.3
7205.57,17065.1
7197.29,17060.2
7189.53,17054.4
7182.37,17047.9
7175.88,17040.8
7170.13,17033
7165.17,17024.7
7161.04,17016
7157.78,17006.9
7155.43,16997.5
7154.02,16988
7153.54,16978.3
7153.54,16486.2
7154.02,16476.6
7155.43,16467
7157.78,16457.6
7161.04,16448.6
7165.17,16439.8
7170.13,16431.5
7175.88,16423.8
7182.37,16416.6
7189.53,16410.1
7197.29,16404.4
7205.57,16399.4
7214.3,16395.3
7223.4,16392
7232.77,16389.7
7242.32,16388.3
7251.97,16387.8
7498.03,16387.8
Z" /> 
<path style="fill:#000000; fill-opacity:1.0; 
stroke:#000000; stroke-width:0; stroke-opacity:1; 
stroke-linecap:round; stroke-linejoin:round;fill-rule:evenodd;"
d="M 6356.1,16388.3
6365.66,16389.7
6375.03,16392
6384.12,16395.3
6392.85,16399.4
6401.14,16404.4
6408.9,16410.1
6416.05,16416.6
6422.54,16423.8
6428.29,16431.5
6433.26,16439.8
6437.39,16448.6
6440.64,16457.6
6442.99,16467
6444.41,16476.6
6444.88,16486.2
6444.88,16978.3
6444.41,16988
6442.99,16997.5
6440.64,17006.9
6437.39,17016
6433.26,17024.7
6428.29,17033
6422.54,17040.8
6416.05,17047.9
6408.9,17054.4
6401.14,17060.2
6392.85,17065.1
6384.12,17069.3
6375.03,17072.5
6365.66,17074.9
6356.1,17076.3
6346.46,17076.8
6100.39,17076.8
6090.75,17076.3
6081.19,17074.9
6071.82,17072.5
6062.73,17069.3
6054,17065.1
6045.71,17060.2
6037.95,17054.4
6030.8,17047.9
6024.31,17040.8
6018.56,17033
6013.59,17024.7
6009.46,17016
6006.21,17006.9
6003.86,16997.5
6002.44,16988
6001.97,16978.3
6001.97,16486.2
6002.44,16476.6
6003.86,16467
6006.21,16457.6
6009.46,16448.6
6013.59,16439.8
6018.56,16431.5
6024.31,16423.8
6030.8,16416.6
6037.95,16410.1
6045.71,16404.4
6054,16399.4
6062.73,16395.3
6071.82,16392
6081.19,16389.7
6090.75,16388.3
6100.39,16387.8
6346.46,16387.8
Z" /> 
</g>
<g >
</g>
<g style="fill:#000000; fill-opacity:1.0; 
stroke:#000000; stroke-width:0; stroke-opacity:1; 
stroke-linecap:round; stroke-linejoin:round;">
<path style="fill:#000000; fill-opacity:1.0; 
stroke:#000000; stroke-width:0; stroke-opacity:1; 
stroke-linecap:round; stroke-linejoin:round;fill-rule:evenodd;"
d="M 10696.9,15984.3
9614.17,15984.3
9614.17,14783.5
10696.9,14783.5
Z" /> 
<path style="fill:#000000; fill-opacity:1.0; 
stroke:#000000; stroke-width:0; stroke-opacity:1; 
stroke-linecap:round; stroke-linejoin:round;fill-rule:evenodd;"
d="M 9496.06,14665.4
8413.39,14665.4
8413.39,13464.6
9496.06,13464.6
Z" /> 
<path style="fill:#000000; fill-opacity:1.0; 
stroke:#000000; stroke-width:0; stroke-opacity:1; 
stroke-linecap:round; stroke-linejoin:round;fill-rule:evenodd;"
d="M 9496.06,15984.3
8413.39,15984.3
8413.39,14783.5
9496.06,14783.5
Z" /> 
<path style="fill:#000000; fill-opacity:1.0; 
stroke:#000000; stroke-width:0; stroke-opacity:1; 
stroke-linecap:round; stroke-linejoin:round;fill-rule:evenodd;"
d="M 10696.9,14665.4
9614.17,14665.4
9614.17,13464.6
10696.9,13464.6
Z" /> 
<path style="fill:#000000; fill-opacity:1.0; 
stroke:#000000; stroke-width:0; stroke-opacity:1; 
stroke-linecap:round; stroke-linejoin:round;fill-rule:evenodd;"
d="M 10689,17637.8
10216.5,17637.8
10216.5,16771.7
10689,16771.7
Z" /> 
<path style="fill:#000000; fill-opacity:1.0; 
stroke:#000000; stroke-width:0; stroke-opacity:1; 
stroke-linecap:round; stroke-linejoin:round;fill-rule:evenodd;"
d="M 9791.34,17637.8
9318.9,17637.8
9318.9,16771.7
9791.34,16771.7
Z" /> 
<path style="fill:#000000; fill-opacity:1.0; 
stroke:#000000; stroke-width:0; stroke-opacity:1; 
stroke-linecap:round; stroke-linejoin:round;fill-rule:evenodd;"
d="M 8893.7,17637.8
8421.26,17637.8
8421.26,16771.7
8893.7,16771.7
Z" /> 
</g>
<g >
</g>
<g style="fill:#000000; fill-opacity:1.0; 
stroke:#000000; stroke-width:0; stroke-opacity:1; 
stroke-linecap:round; stroke-linejoin:round;">
<path style="fill:#000000; fill-opacity:1.0; 
stroke:#000000; stroke-width:0; stroke-opacity:1; 
stroke-linecap:round; stroke-linejoin:round;fill-rule:evenodd;"
d="M 6582.68,14212.6
6582.68,14527.6
6228.35,14527.6
6228.35,14212.6
Z" /> 
<path style="fill:#000000; fill-opacity:1.0; 
stroke:#000000; stroke-width:0; stroke-opacity:1; 
stroke-linecap:round; stroke-linejoin:round;fill-rule:evenodd;"
d="M 7370.08,13838.6
7370.08,14153.5
7015.75,14153.5
7015.75,13838.6
Z" /> 
<path style="fill:#000000; fill-opacity:1.0; 
stroke:#000000; stroke-width:0; stroke-opacity:1; 
stroke-linecap:round; stroke-linejoin:round;fill-rule:evenodd;"
d="M 7370.08,14586.6
7370.08,14901.6
7015.75,14901.6
7015.75,14586.6
Z" /> 
</g>
<g >
</g>
<g >
</g>
<g >
</g>
<g style="fill:#000000; fill-opacity:1.0; 
stroke:#000000; stroke-width:0; stroke-opacity:1; 
stroke-linecap:round; stroke-linejoin:round;">
<path style="fill:#000000; fill-opacity:1.0; 
stroke:#000000; stroke-width:0; stroke-opacity:1; 
stroke-linecap:round; stroke-linejoin:round;fill-rule:evenodd;"
d="M 19832.5,14419.8
19842,14421.2
19851.4,14423.5
19860.5,14426.8
19869.2,14430.9
19877.5,14435.9
19885.3,14441.6
19892.4,14448.1
19898.9,14455.3
19904.7,14463
19909.6,14471.3
19913.8,14480.1
19917,14489.1
19919.4,14498.5
19920.8,14508.1
19921.3,14517.7
19921.3,15009.8
19920.8,15019.5
19919.4,15029
19917,15038.4
19913.8,15047.5
19909.6,15056.2
19904.7,15064.5
19898.9,15072.3
19892.4,15079.4
19885.3,15085.9
19877.5,15091.7
19869.2,15096.6
19860.5,15100.8
19851.4,15104
19842,15106.4
19832.5,15107.8
19822.8,15108.3
19576.8,15108.3
19567.1,15107.8
19557.6,15106.4
19548.2,15104
19539.1,15100.8
19530.4,15096.6
19522.1,15091.7
19514.3,15085.9
19507.2,15079.4
19500.7,15072.3
19494.9,15064.5
19490,15056.2
19485.8,15047.5
19482.6,15038.4
19480.2,15029
19478.8,15019.5
19478.3,15009.8
19478.3,14517.7
19478.8,14508.1
19480.2,14498.5
19482.6,14489.1
19485.8,14480.1
19490,14471.3
19494.9,14463
19500.7,14455.3
19507.2,14448.1
19514.3,14441.6
19522.1,14435.9
19530.4,14430.9
19539.1,14426.8
19548.2,14423.5
19557.6,14421.2
19567.1,14419.8
19576.8,14419.3
19822.8,14419.3
Z" /> 
<path style="fill:#000000; fill-opacity:1.0; 
stroke:#000000; stroke-width:0; stroke-opacity:1; 
stroke-linecap:round; stroke-linejoin:round;fill-rule:evenodd;"
d="M 20984.1,14419.8
20993.6,14421.2
21003,14423.5
21012.1,14426.8
21020.8,14430.9
21029.1,14435.9
21036.8,14441.6
21044,14448.1
21050.5,14455.3
21056.2,14463
21061.2,14471.3
21065.3,14480.1
21068.6,14489.1
21070.9,14498.5
21072.4,14508.1
21072.8,14517.7
21072.8,15009.8
21072.4,15019.5
21070.9,15029
21068.6,15038.4
21065.3,15047.5
21061.2,15056.2
21056.2,15064.5
21050.5,15072.3
21044,15079.4
21036.8,15085.9
21029.1,15091.7
21020.8,15096.6
21012.1,15100.8
21003,15104
20993.6,15106.4
20984.1,15107.8
20974.4,15108.3
20728.3,15108.3
20718.7,15107.8
20709.1,15106.4
20699.8,15104
20690.7,15100.8
20681.9,15096.6
20673.7,15091.7
20665.9,15085.9
20658.7,15079.4
20652.3,15072.3
20646.5,15064.5
20641.5,15056.2
20637.4,15047.5
20634.2,15038.4
20631.8,15029
20630.4,15019.5
20629.9,15009.8
20629.9,14517.7
20630.4,14508.1
20631.8,14498.5
20634.2,14489.1
20637.4,14480.1
20641.5,14471.3
20646.5,14463
20652.3,14455.3
20658.7,14448.1
20665.9,14441.6
20673.7,14435.9
20681.9,14430.9
20690.7,14426.8
20699.8,14423.5
20709.1,14421.2
20718.7,14419.8
20728.3,14419.3
20974.4,14419.3
Z" /> 
</g>
<g >
</g>
<g style="fill:#000000; fill-opacity:1.0; 
stroke:#000000; stroke-width:0; stroke-opacity:1; 
stroke-linecap:round; stroke-linejoin:round;">
<path style="fill:#000000; fill-opacity:1.0; 
stroke:#000000; stroke-width:0; stroke-opacity:1; 
stroke-linecap:round; stroke-linejoin:round;fill-rule:evenodd;"
d="M 9989.96,19537.9
9999.52,19539.3
10008.9,19541.6
10018,19544.9
10026.7,19549
10035,19554
10042.8,19559.7
10049.9,19566.2
10056.4,19573.4
10062.2,19581.1
10067.1,19589.4
10071.2,19598.2
10074.5,19607.3
10076.8,19616.6
10078.3,19626.2
10078.7,19635.8
10078.7,20128
10078.3,20137.6
10076.8,20147.2
10074.5,20156.5
10071.2,20165.6
10067.1,20174.4
10062.2,20182.6
10056.4,20190.4
10049.9,20197.5
10042.8,20204
10035,20209.8
10026.7,20214.8
10018,20218.9
10008.9,20222.1
9999.52,20224.5
9989.96,20225.9
9980.32,20226.4
9734.25,20226.4
9724.6,20225.9
9715.05,20224.5
9705.68,20222.1
9696.59,20218.9
9687.85,20214.8
9679.57,20209.8
9671.81,20204
9664.65,20197.5
9658.17,20190.4
9652.41,20182.6
9647.45,20174.4
9643.32,20165.6
9640.06,20156.5
9637.72,20147.2
9636.3,20137.6
9635.83,20128
9635.83,19635.8
9636.3,19626.2
9637.72,19616.6
9640.06,19607.3
9643.32,19598.2
9647.45,19589.4
9652.41,19581.1
9658.17,19573.4
9664.65,19566.2
9671.81,19559.7
9679.57,19554
9687.85,19549
9696.59,19544.9
9705.68,19541.6
9715.05,19539.3
9724.6,19537.9
9734.25,19537.4
9980.32,19537.4
Z" /> 
<path style="fill:#000000; fill-opacity:1.0; 
stroke:#000000; stroke-width:0; stroke-opacity:1; 
stroke-linecap:round; stroke-linejoin:round;fill-rule:evenodd;"
d="M 11141.5,19537.9
11151.1,19539.3
11160.5,19541.6
11169.6,19544.9
11178.3,19549
11186.6,19554
11194.3,19559.7
11201.5,19566.2
11208,19573.4
11213.7,19581.1
11218.7,19589.4
11222.8,19598.2
11226.1,19607.3
11228.4,19616.6
11229.8,19626.2
11230.3,19635.8
11230.3,20128
11229.8,20137.6
11228.4,20147.2
11226.1,20156.5
11222.8,20165.6
11218.7,20174.4
11213.7,20182.6
11208,20190.4
11201.5,20197.5
11194.3,20204
11186.6,20209.8
11178.3,20214.8
11169.6,20218.9
11160.5,20222.1
11151.1,20224.5
11141.5,20225.9
11131.9,20226.4
10885.8,20226.4
10876.2,20225.9
10866.6,20224.5
10857.3,20222.1
10848.2,20218.9
10839.4,20214.8
10831.1,20209.8
10823.4,20204
10816.2,20197.5
10809.7,20190.4
10804,20182.6
10799,20174.4
10794.9,20165.6
10791.6,20156.5
10789.3,20147.2
10787.9,20137.6
10787.4,20128
10787.4,19635.8
10787.9,19626.2
10789.3,19616.6
10791.6,19607.3
10794.9,19598.2
10799,19589.4
10804,19581.1
10809.7,19573.4
10816.2,19566.2
10823.4,19559.7
10831.1,19554
10839.4,19549
10848.2,19544.9
10857.3,19541.6
10866.6,19539.3
10876.2,19537.9
10885.8,19537.4
11131.9,19537.4
Z" /> 
</g>
<g >
</g>
<g style="fill:#000000; fill-opacity:1.0; 
stroke:#000000; stroke-width:0; stroke-opacity:1; 
stroke-linecap:round; stroke-linejoin:round;">
<path style="fill:#000000; fill-opacity:1.0; 
stroke:#000000; stroke-width:0; stroke-opacity:1; 
stroke-linecap:round; stroke-linejoin:round;fill-rule:evenodd;"
d="M 22982.1,14419.8
22991.6,14421.2
23001,14423.5
23010.1,14426.8
23018.8,14430.9
23027.1,14435.9
23034.9,14441.6
23042,14448.1
23048.5,14455.3
23054.3,14463
23059.2,14471.3
23063.4,14480.1
23066.6,14489.1
23069,14498.5
23070.4,14508.1
23070.9,14517.7
23070.9,15009.8
23070.4,15019.5
23069,15029
23066.6,15038.4
23063.4,15047.5
23059.2,15056.2
23054.3,15064.5
23048.5,15072.3
23042,15079.4
23034.9,15085.9
23027.1,15091.7
23018.8,15096.6
23010.1,15100.8
23001,15104
22991.6,15106.4
22982.1,15107.8
22972.4,15108.3
22726.4,15108.3
22716.7,15107.8
22707.2,15106.4
22697.8,15104
22688.7,15100.8
22680,15096.6
22671.7,15091.7
22663.9,15085.9
22656.8,15079.4
22650.3,15072.3
22644.5,15064.5
22639.6,15056.2
22635.4,15047.5
22632.2,15038.4
22629.8,15029
22628.4,15019.5
22628,15009.8
22628,14517.7
22628.4,14508.1
22629.8,14498.5
22632.2,14489.1
22635.4,14480.1
22639.6,14471.3
22644.5,14463
22650.3,14455.3
22656.8,14448.1
22663.9,14441.6
22671.7,14435.9
22680,14430.9
22688.7,14426.8
22697.8,14423.5
22707.2,14421.2
22716.7,14419.8
22726.4,14419.3
22972.4,14419.3
Z" /> 
<path style="fill:#000000; fill-opacity:1.0; 
stroke:#000000; stroke-width:0; stroke-opacity:1; 
stroke-linecap:round; stroke-linejoin:round;fill-rule:evenodd;"
d="M 24133.7,14419.8
24143.2,14421.2
24152.6,14423.5
24161.7,14426.8
24170.4,14430.9
24178.7,14435.9
24186.5,14441.6
24193.6,14448.1
24200.1,14455.3
24205.9,14463
24210.8,14471.3
24214.9,14480.1
24218.2,14489.1
24220.5,14498.5
24222,14508.1
24222.4,14517.7
24222.4,15009.8
24222,15019.5
24220.5,15029
24218.2,15038.4
24214.9,15047.5
24210.8,15056.2
24205.9,15064.5
24200.1,15072.3
24193.6,15079.4
24186.5,15085.9
24178.7,15091.7
24170.4,15096.6
24161.7,15100.8
24152.6,15104
24143.2,15106.4
24133.7,15107.8
24124,15108.3
23878,15108.3
23868.3,15107.8
23858.8,15106.4
23849.4,15104
23840.3,15100.8
23831.6,15096.6
23823.3,15091.7
23815.5,15085.9
23808.4,15079.4
23801.9,15072.3
23796.1,15064.5
23791.1,15056.2
23787,15047.5
23783.8,15038.4
23781.4,15029
23780,15019.5
23779.5,15009.8
23779.5,14517.7
23780,14508.1
23781.4,14498.5
23783.8,14489.1
23787,14480.1
23791.1,14471.3
23796.1,14463
23801.9,14455.3
23808.4,14448.1
23815.5,14441.6
23823.3,14435.9
23831.6,14430.9
23840.3,14426.8
23849.4,14423.5
23858.8,14421.2
23868.3,14419.8
23878,14419.3
24124,14419.3
Z" /> 
</g>
<g >
</g>
<g style="fill:#000000; fill-opacity:1.0; 
stroke:#000000; stroke-width:0; stroke-opacity:1; 
stroke-linecap:round; stroke-linejoin:round;">
<path style="fill:#000000; fill-opacity:1.0; 
stroke:#000000; stroke-width:0; stroke-opacity:1; 
stroke-linecap:round; stroke-linejoin:round;fill-rule:evenodd;"
d="M 23921.1,21703.2
23930.6,21704.6
23940,21707
23949.1,21710.2
23957.8,21714.4
23966.1,21719.3
23973.9,21725.1
23981,21731.6
23987.5,21738.7
23993.3,21746.5
23998.2,21754.8
24002.4,21763.5
24005.6,21772.6
24008,21782
24009.4,21791.5
24009.8,21801.2
24009.8,22293.3
24009.4,22303
24008,22312.5
24005.6,22321.9
24002.4,22331
23998.2,22339.7
23993.3,22348
23987.5,22355.7
23981,22362.9
23973.9,22369.4
23966.1,22375.1
23957.8,22380.1
23949.1,22384.2
23940,22387.5
23930.6,22389.8
23921.1,22391.3
23911.4,22391.7
23665.4,22391.7
23655.7,22391.3
23646.2,22389.8
23636.8,22387.5
23627.7,22384.2
23619,22380.1
23610.7,22375.1
23602.9,22369.4
23595.8,22362.9
23589.3,22355.7
23583.5,22348
23578.6,22339.7
23574.4,22331
23571.2,22321.9
23568.8,22312.5
23567.4,22303
23566.9,22293.3
23566.9,21801.2
23567.4,21791.5
23568.8,21782
23571.2,21772.6
23574.4,21763.5
23578.6,21754.8
23583.5,21746.5
23589.3,21738.7
23595.8,21731.6
23602.9,21725.1
23610.7,21719.3
23619,21714.4
23627.7,21710.2
23636.8,21707
23646.2,21704.6
23655.7,21703.2
23665.4,21702.8
23911.4,21702.8
Z" /> 
<path style="fill:#000000; fill-opacity:1.0; 
stroke:#000000; stroke-width:0; stroke-opacity:1; 
stroke-linecap:round; stroke-linejoin:round;fill-rule:evenodd;"
d="M 22769.5,21703.2
22779,21704.6
22788.4,21707
22797.5,21710.2
22806.2,21714.4
22814.5,21719.3
22822.3,21725.1
22829.4,21731.6
22835.9,21738.7
22841.7,21746.5
22846.6,21754.8
22850.8,21763.5
22854,21772.6
22856.4,21782
22857.8,21791.5
22858.3,21801.2
22858.3,22293.3
22857.8,22303
22856.4,22312.5
22854,22321.9
22850.8,22331
22846.6,22339.7
22841.7,22348
22835.9,22355.7
22829.4,22362.9
22822.3,22369.4
22814.5,22375.1
22806.2,22380.1
22797.5,22384.2
22788.4,22387.5
22779,22389.8
22769.5,22391.3
22759.8,22391.7
22513.8,22391.7
22504.1,22391.3
22494.6,22389.8
22485.2,22387.5
22476.1,22384.2
22467.4,22380.1
22459.1,22375.1
22451.3,22369.4
22444.2,22362.9
22437.7,22355.7
22431.9,22348
22427,22339.7
22422.8,22331
22419.6,22321.9
22417.2,22312.5
22415.8,22303
22415.4,22293.3
22415.4,21801.2
22415.8,21791.5
22417.2,21782
22419.6,21772.6
22422.8,21763.5
22427,21754.8
22431.9,21746.5
22437.7,21738.7
22444.2,21731.6
22451.3,21725.1
22459.1,21719.3
22467.4,21714.4
22476.1,21710.2
22485.2,21707
22494.6,21704.6
22504.1,21703.2
22513.8,21702.8
22759.8,21702.8
Z" /> 
</g>
<g >
</g>
<g style="fill:#000000; fill-opacity:1.0; 
stroke:#000000; stroke-width:0; stroke-opacity:1; 
stroke-linecap:round; stroke-linejoin:round;">
<path style="fill:#000000; fill-opacity:1.0; 
stroke:#000000; stroke-width:0; stroke-opacity:1; 
stroke-linecap:round; stroke-linejoin:round;fill-rule:evenodd;"
d="M 23921.1,19734.7
23930.6,19736.1
23940,19738.5
23949.1,19741.7
23957.8,19745.9
23966.1,19750.8
23973.9,19756.6
23981,19763.1
23987.5,19770.2
23993.3,19778
23998.2,19786.3
24002.4,19795
24005.6,19804.1
24008,19813.5
24009.4,19823
24009.8,19832.7
24009.8,20324.8
24009.4,20334.5
24008,20344
24005.6,20353.4
24002.4,20362.5
23998.2,20371.2
23993.3,20379.5
23987.5,20387.2
23981,20394.4
23973.9,20400.9
23966.1,20406.6
23957.8,20411.6
23949.1,20415.7
23940,20419
23930.6,20421.3
23921.1,20422.8
23911.4,20423.2
23665.4,20423.2
23655.7,20422.8
23646.2,20421.3
23636.8,20419
23627.7,20415.7
23619,20411.6
23610.7,20406.6
23602.9,20400.9
23595.8,20394.4
23589.3,20387.2
23583.5,20379.5
23578.6,20371.2
23574.4,20362.5
23571.2,20353.4
23568.8,20344
23567.4,20334.5
23566.9,20324.8
23566.9,19832.7
23567.4,19823
23568.8,19813.5
23571.2,19804.1
23574.4,19795
23578.6,19786.3
23583.5,19778
23589.3,19770.2
23595.8,19763.1
23602.9,19756.6
23610.7,19750.8
23619,19745.9
23627.7,19741.7
23636.8,19738.5
23646.2,19736.1
23655.7,19734.7
23665.4,19734.3
23911.4,19734.3
Z" /> 
<path style="fill:#000000; fill-opacity:1.0; 
stroke:#000000; stroke-width:0; stroke-opacity:1; 
stroke-linecap:round; stroke-linejoin:round;fill-rule:evenodd;"
d="M 22769.5,19734.7
22779,19736.1
22788.4,19738.5
22797.5,19741.7
22806.2,19745.9
22814.5,19750.8
22822.3,19756.6
22829.4,19763.1
22835.9,19770.2
22841.7,19778
22846.6,19786.3
22850.8,19795
22854,19804.1
22856.4,19813.5
22857.8,19823
22858.3,19832.7
22858.3,20324.8
22857.8,20334.5
22856.4,20344
22854,20353.4
22850.8,20362.5
22846.6,20371.2
22841.7,20379.5
22835.9,20387.2
22829.4,20394.4
22822.3,20400.9
22814.5,20406.6
22806.2,20411.6
22797.5,20415.7
22788.4,20419
22779,20421.3
22769.5,20422.8
22759.8,20423.2
22513.8,20423.2
22504.1,20422.8
22494.6,20421.3
22485.2,20419
22476.1,20415.7
22467.4,20411.6
22459.1,20406.6
22451.3,20400.9
22444.2,20394.4
22437.7,20387.2
22431.9,20379.5
22427,20371.2
22422.8,20362.5
22419.6,20353.4
22417.2,20344
22415.8,20334.5
22415.4,20324.8
22415.4,19832.7
22415.8,19823
22417.2,19813.5
22419.6,19804.1
22422.8,19795
22427,19786.3
22431.9,19778
22437.7,19770.2
22444.2,19763.1
22451.3,19756.6
22459.1,19750.8
22467.4,19745.9
22476.1,19741.7
22485.2,19738.5
22494.6,19736.1
22504.1,19734.7
22513.8,19734.3
22759.8,19734.3
Z" /> 
</g>
<g >
</g>
<g style="fill:#000000; fill-opacity:1.0; 
stroke:#000000; stroke-width:0; stroke-opacity:1; 
stroke-linecap:round; stroke-linejoin:round;">
<path style="fill:#000000; fill-opacity:1.0; 
stroke:#000000; stroke-width:0; stroke-opacity:1; 
stroke-linecap:round; stroke-linejoin:round;fill-rule:evenodd;"
d="M 25055.7,12454.8
25065.3,12456.2
25074.6,12458.6
25083.7,12461.8
25092.5,12466
25100.7,12470.9
25108.5,12476.7
25115.7,12483.2
25122.1,12490.3
25127.9,12498.1
25132.9,12506.4
25137,12515.1
25140.2,12524.2
25142.6,12533.6
25144,12543.1
25144.5,12552.8
25144.5,12798.8
25144,12808.5
25142.6,12818
25140.2,12827.4
25137,12836.5
25132.9,12845.2
25127.9,12853.5
25122.1,12861.3
25115.7,12868.4
25108.5,12874.9
25100.7,12880.7
25092.5,12885.6
25083.7,12889.8
25074.6,12893
25065.3,12895.4
25055.7,12896.8
25046.1,12897.2
24553.9,12897.2
24544.3,12896.8
24534.7,12895.4
24525.4,12893
24516.3,12889.8
24507.5,12885.6
24499.3,12880.7
24491.5,12874.9
24484.3,12868.4
24477.9,12861.3
24472.1,12853.5
24467.1,12845.2
24463,12836.5
24459.8,12827.4
24457.4,12818
24456,12808.5
24455.5,12798.8
24455.5,12552.8
24456,12543.1
24457.4,12533.6
24459.8,12524.2
24463,12515.1
24467.1,12506.4
24472.1,12498.1
24477.9,12490.3
24484.3,12483.2
24491.5,12476.7
24499.3,12470.9
24507.5,12466
24516.3,12461.8
24525.4,12458.6
24534.7,12456.2
24544.3,12454.8
24553.9,12454.3
25046.1,12454.3
Z" /> 
<path style="fill:#000000; fill-opacity:1.0; 
stroke:#000000; stroke-width:0; stroke-opacity:1; 
stroke-linecap:round; stroke-linejoin:round;fill-rule:evenodd;"
d="M 25055.7,11303.2
25065.3,11304.6
25074.6,11307
25083.7,11310.2
25092.5,11314.4
25100.7,11319.3
25108.5,11325.1
25115.7,11331.6
25122.1,11338.7
25127.9,11346.5
25132.9,11354.8
25137,11363.5
25140.2,11372.6
25142.6,11382
25144,11391.5
25144.5,11401.2
25144.5,11647.2
25144,11656.9
25142.6,11666.4
25140.2,11675.8
25137,11684.9
25132.9,11693.6
25127.9,11701.9
25122.1,11709.7
25115.7,11716.8
25108.5,11723.3
25100.7,11729.1
25092.5,11734
25083.7,11738.2
25074.6,11741.4
25065.3,11743.8
25055.7,11745.2
25046.1,11745.7
24553.9,11745.7
24544.3,11745.2
24534.7,11743.8
24525.4,11741.4
24516.3,11738.2
24507.5,11734
24499.3,11729.1
24491.5,11723.3
24484.3,11716.8
24477.9,11709.7
24472.1,11701.9
24467.1,11693.6
24463,11684.9
24459.8,11675.8
24457.4,11666.4
24456,11656.9
24455.5,11647.2
24455.5,11401.2
24456,11391.5
24457.4,11382
24459.8,11372.6
24463,11363.5
24467.1,11354.8
24472.1,11346.5
24477.9,11338.7
24484.3,11331.6
24491.5,11325.1
24499.3,11319.3
24507.5,11314.4
24516.3,11310.2
24525.4,11307
24534.7,11304.6
24544.3,11303.2
24553.9,11302.8
25046.1,11302.8
Z" /> 
</g>
<g >
</g>
<g style="fill:#000000; fill-opacity:1.0; 
stroke:#000000; stroke-width:0; stroke-opacity:1; 
stroke-linecap:round; stroke-linejoin:round;">
<path style="fill:#000000; fill-opacity:1.0; 
stroke:#000000; stroke-width:0; stroke-opacity:1; 
stroke-linecap:round; stroke-linejoin:round;fill-rule:evenodd;"
d="M 26055.7,11303.2
26065.3,11304.6
26074.6,11307
26083.7,11310.2
26092.5,11314.4
26100.7,11319.3
26108.5,11325.1
26115.7,11331.6
26122.1,11338.7
26127.9,11346.5
26132.9,11354.8
26137,11363.5
26140.2,11372.6
26142.6,11382
26144,11391.5
26144.5,11401.2
26144.5,11647.2
26144,11656.9
26142.6,11666.4
26140.2,11675.8
26137,11684.9
26132.9,11693.6
26127.9,11701.9
26122.1,11709.7
26115.7,11716.8
26108.5,11723.3
26100.7,11729.1
26092.5,11734
26083.7,11738.2
26074.6,11741.4
26065.3,11743.8
26055.7,11745.2
26046.1,11745.7
25553.9,11745.7
25544.3,11745.2
25534.7,11743.8
25525.4,11741.4
25516.3,11738.2
25507.5,11734
25499.3,11729.1
25491.5,11723.3
25484.3,11716.8
25477.9,11709.7
25472.1,11701.9
25467.1,11693.6
25463,11684.9
25459.8,11675.8
25457.4,11666.4
25456,11656.9
25455.5,11647.2
25455.5,11401.2
25456,11391.5
25457.4,11382
25459.8,11372.6
25463,11363.5
25467.1,11354.8
25472.1,11346.5
25477.9,11338.7
25484.3,11331.6
25491.5,11325.1
25499.3,11319.3
25507.5,11314.4
25516.3,11310.2
25525.4,11307
25534.7,11304.6
25544.3,11303.2
25553.9,11302.8
26046.1,11302.8
Z" /> 
<path style="fill:#000000; fill-opacity:1.0; 
stroke:#000000; stroke-width:0; stroke-opacity:1; 
stroke-linecap:round; stroke-linejoin:round;fill-rule:evenodd;"
d="M 26055.7,12454.8
26065.3,12456.2
26074.6,12458.6
26083.7,12461.8
26092.5,12466
26100.7,12470.9
26108.5,12476.7
26115.7,12483.2
26122.1,12490.3
26127.9,12498.1
26132.9,12506.4
26137,12515.1
26140.2,12524.2
26142.6,12533.6
26144,12543.1
26144.5,12552.8
26144.5,12798.8
26144,12808.5
26142.6,12818
26140.2,12827.4
26137,12836.5
26132.9,12845.2
26127.9,12853.5
26122.1,12861.3
26115.7,12868.4
26108.5,12874.9
26100.7,12880.7
26092.5,12885.6
26083.7,12889.8
26074.6,12893
26065.3,12895.4
26055.7,12896.8
26046.1,12897.2
25553.9,12897.2
25544.3,12896.8
25534.7,12895.4
25525.4,12893
25516.3,12889.8
25507.5,12885.6
25499.3,12880.7
25491.5,12874.9
25484.3,12868.4
25477.9,12861.3
25472.1,12853.5
25467.1,12845.2
25463,12836.5
25459.8,12827.4
25457.4,12818
25456,12808.5
25455.5,12798.8
25455.5,12552.8
25456,12543.1
25457.4,12533.6
25459.8,12524.2
25463,12515.1
25467.1,12506.4
25472.1,12498.1
25477.9,12490.3
25484.3,12483.2
25491.5,12476.7
25499.3,12470.9
25507.5,12466
25516.3,12461.8
25525.4,12458.6
25534.7,12456.2
25544.3,12454.8
25553.9,12454.3
26046.1,12454.3
Z" /> 
</g>
<g >
</g>
<g style="fill:#000000; fill-opacity:1.0; 
stroke:#000000; stroke-width:0; stroke-opacity:1; 
stroke-linecap:round; stroke-linejoin:round;">
<path style="fill:#000000; fill-opacity:1.0; 
stroke:#000000; stroke-width:0; stroke-opacity:1; 
stroke-linecap:round; stroke-linejoin:round;fill-rule:evenodd;"
d="M 23930.9,20709.1
23940.5,20710.6
23949.8,20712.9
23958.9,20716.2
23967.7,20720.3
23975.9,20725.2
23983.7,20731
23990.9,20737.5
23997.3,20744.6
24003.1,20752.4
24008.1,20760.7
24012.2,20769.4
24015.4,20778.5
24017.8,20787.9
24019.2,20797.4
24019.7,20807.1
24019.7,21318.9
24019.2,21328.5
24017.8,21338.1
24015.4,21347.5
24012.2,21356.6
24008.1,21365.3
24003.1,21373.6
23997.3,21381.3
23990.9,21388.5
23983.7,21395
23975.9,21400.7
23967.7,21405.7
23958.9,21409.8
23949.8,21413.1
23940.5,21415.4
23930.9,21416.8
23921.3,21417.3
23665.4,21417.3
23655.7,21416.8
23646.2,21415.4
23636.8,21413.1
23627.7,21409.8
23619,21405.7
23610.7,21400.7
23602.9,21395
23595.8,21388.5
23589.3,21381.3
23583.5,21373.6
23578.6,21365.3
23574.4,21356.6
23571.2,21347.5
23568.8,21338.1
23567.4,21328.5
23566.9,21318.9
23566.9,20807.1
23567.4,20797.4
23568.8,20787.9
23571.2,20778.5
23574.4,20769.4
23578.6,20760.7
23583.5,20752.4
23589.3,20744.6
23595.8,20737.5
23602.9,20731
23610.7,20725.2
23619,20720.3
23627.7,20716.2
23636.8,20712.9
23646.2,20710.6
23655.7,20709.1
23665.4,20708.7
23921.3,20708.7
Z" /> 
<path style="fill:#000000; fill-opacity:1.0; 
stroke:#000000; stroke-width:0; stroke-opacity:1; 
stroke-linecap:round; stroke-linejoin:round;fill-rule:evenodd;"
d="M 22769.5,20709.1
22779,20710.6
22788.4,20712.9
22797.5,20716.2
22806.2,20720.3
22814.5,20725.2
22822.3,20731
22829.4,20737.5
22835.9,20744.6
22841.7,20752.4
22846.6,20760.7
22850.8,20769.4
22854,20778.5
22856.4,20787.9
22857.8,20797.4
22858.3,20807.1
22858.3,21318.9
22857.8,21328.5
22856.4,21338.1
22854,21347.5
22850.8,21356.6
22846.6,21365.3
22841.7,21373.6
22835.9,21381.3
22829.4,21388.5
22822.3,21395
22814.5,21400.7
22806.2,21405.7
22797.5,21409.8
22788.4,21413.1
22779,21415.4
22769.5,21416.8
22759.8,21417.3
22503.9,21417.3
22494.3,21416.8
22484.7,21415.4
22475.4,21413.1
22466.3,21409.8
22457.5,21405.7
22449.3,21400.7
22441.5,21395
22434.3,21388.5
22427.9,21381.3
22422.1,21373.6
22417.1,21365.3
22413,21356.6
22409.8,21347.5
22407.4,21338.1
22406,21328.5
22405.5,21318.9
22405.5,20807.1
22406,20797.4
22407.4,20787.9
22409.8,20778.5
22413,20769.4
22417.1,20760.7
22422.1,20752.4
22427.9,20744.6
22434.3,20737.5
22441.5,20731
22449.3,20725.2
22457.5,20720.3
22466.3,20716.2
22475.4,20712.9
22484.7,20710.6
22494.3,20709.1
22503.9,20708.7
22759.8,20708.7
Z" /> 
</g>
<g >
</g>
<g style="fill:#000000; fill-opacity:1.0; 
stroke:#000000; stroke-width:0; stroke-opacity:1; 
stroke-linecap:round; stroke-linejoin:round;">
<path style="fill:#000000; fill-opacity:1.0; 
stroke:#000000; stroke-width:0; stroke-opacity:1; 
stroke-linecap:round; stroke-linejoin:round;fill-rule:evenodd;"
d="M 23930.9,22677.6
23940.5,22679.1
23949.8,22681.4
23958.9,22684.7
23967.7,22688.8
23975.9,22693.8
23983.7,22699.5
23990.9,22706
23997.3,22713.2
24003.1,22720.9
24008.1,22729.2
24012.2,22737.9
24015.4,22747
24017.8,22756.4
24019.2,22765.9
24019.7,22775.6
24019.7,23287.4
24019.2,23297
24017.8,23306.6
24015.4,23316
24012.2,23325.1
24008.1,23333.8
24003.1,23342.1
23997.3,23349.8
23990.9,23357
23983.7,23363.5
23975.9,23369.2
23967.7,23374.2
23958.9,23378.3
23949.8,23381.6
23940.5,23383.9
23930.9,23385.4
23921.3,23385.8
23665.4,23385.8
23655.7,23385.4
23646.2,23383.9
23636.8,23381.6
23627.7,23378.3
23619,23374.2
23610.7,23369.2
23602.9,23363.5
23595.8,23357
23589.3,23349.8
23583.5,23342.1
23578.6,23333.8
23574.4,23325.1
23571.2,23316
23568.8,23306.6
23567.4,23297
23566.9,23287.4
23566.9,22775.6
23567.4,22765.9
23568.8,22756.4
23571.2,22747
23574.4,22737.9
23578.6,22729.2
23583.5,22720.9
23589.3,22713.2
23595.8,22706
23602.9,22699.5
23610.7,22693.8
23619,22688.8
23627.7,22684.7
23636.8,22681.4
23646.2,22679.1
23655.7,22677.6
23665.4,22677.2
23921.3,22677.2
Z" /> 
<path style="fill:#000000; fill-opacity:1.0; 
stroke:#000000; stroke-width:0; stroke-opacity:1; 
stroke-linecap:round; stroke-linejoin:round;fill-rule:evenodd;"
d="M 22769.5,22677.6
22779,22679.1
22788.4,22681.4
22797.5,22684.7
22806.2,22688.8
22814.5,22693.8
22822.3,22699.5
22829.4,22706
22835.9,22713.2
22841.7,22720.9
22846.6,22729.2
22850.8,22737.9
22854,22747
22856.4,22756.4
22857.8,22765.9
22858.3,22775.6
22858.3,23287.4
22857.8,23297
22856.4,23306.6
22854,23316
22850.8,23325.1
22846.6,23333.8
22841.7,23342.1
22835.9,23349.8
22829.4,23357
22822.3,23363.5
22814.5,23369.2
22806.2,23374.2
22797.5,23378.3
22788.4,23381.6
22779,23383.9
22769.5,23385.4
22759.8,23385.8
22503.9,23385.8
22494.3,23385.4
22484.7,23383.9
22475.4,23381.6
22466.3,23378.3
22457.5,23374.2
22449.3,23369.2
22441.5,23363.5
22434.3,23357
22427.9,23349.8
22422.1,23342.1
22417.1,23333.8
22413,23325.1
22409.8,23316
22407.4,23306.6
22406,23297
22405.5,23287.4
22405.5,22775.6
22406,22765.9
22407.4,22756.4
22409.8,22747
22413,22737.9
22417.1,22729.2
22422.1,22720.9
22427.9,22713.2
22434.3,22706
22441.5,22699.5
22449.3,22693.8
22457.5,22688.8
22466.3,22684.7
22475.4,22681.4
22484.7,22679.1
22494.3,22677.6
22503.9,22677.2
22759.8,22677.2
Z" /> 
</g>
<g >
</g>
<g style="fill:#000000; fill-opacity:1.0; 
stroke:#000000; stroke-width:0; stroke-opacity:1; 
stroke-linecap:round; stroke-linejoin:round;">
<path style="fill:#000000; fill-opacity:1.0; 
stroke:#000000; stroke-width:0; stroke-opacity:1; 
stroke-linecap:round; stroke-linejoin:round;fill-rule:evenodd;"
d="M 20456.9,12746.1
20466.4,12747.6
20475.8,12749.9
20484.9,12753.2
20493.6,12757.3
20501.9,12762.3
20509.7,12768
20516.8,12774.5
20523.3,12781.7
20529.1,12789.4
20534,12797.7
20538.2,12806.4
20541.4,12815.5
20543.8,12824.9
20545.2,12834.4
20545.7,12844.1
20545.7,13355.9
20545.2,13365.6
20543.8,13375.1
20541.4,13384.5
20538.2,13393.6
20534,13402.3
20529.1,13410.6
20523.3,13418.3
20516.8,13425.5
20509.7,13432
20501.9,13437.7
20493.6,13442.7
20484.9,13446.8
20475.8,13450.1
20466.4,13452.4
20456.9,13453.9
20447.2,13454.3
20191.3,13454.3
20181.7,13453.9
20172.1,13452.4
20162.8,13450.1
20153.7,13446.8
20144.9,13442.7
20136.7,13437.7
20128.9,13432
20121.7,13425.5
20115.3,13418.3
20109.5,13410.6
20104.5,13402.3
20100.4,13393.6
20097.2,13384.5
20094.8,13375.1
20093.4,13365.6
20092.9,13355.9
20092.9,12844.1
20093.4,12834.4
20094.8,12824.9
20097.2,12815.5
20100.4,12806.4
20104.5,12797.7
20109.5,12789.4
20115.3,12781.7
20121.7,12774.5
20128.9,12768
20136.7,12762.3
20144.9,12757.3
20153.7,12753.2
20162.8,12749.9
20172.1,12747.6
20181.7,12746.1
20191.3,12745.7
20447.2,12745.7
Z" /> 
<path style="fill:#000000; fill-opacity:1.0; 
stroke:#000000; stroke-width:0; stroke-opacity:1; 
stroke-linecap:round; stroke-linejoin:round;fill-rule:evenodd;"
d="M 21618.3,12746.1
21627.9,12747.6
21637.2,12749.9
21646.3,12753.2
21655.1,12757.3
21663.3,12762.3
21671.1,12768
21678.3,12774.5
21684.7,12781.7
21690.5,12789.4
21695.5,12797.7
21699.6,12806.4
21702.8,12815.5
21705.2,12824.9
21706.6,12834.4
21707.1,12844.1
21707.1,13355.9
21706.6,13365.6
21705.2,13375.1
21702.8,13384.5
21699.6,13393.6
21695.5,13402.3
21690.5,13410.6
21684.7,13418.3
21678.3,13425.5
21671.1,13432
21663.3,13437.7
21655.1,13442.7
21646.3,13446.8
21637.2,13450.1
21627.9,13452.4
21618.3,13453.9
21608.7,13454.3
21352.8,13454.3
21343.1,13453.9
21333.6,13452.4
21324.2,13450.1
21315.1,13446.8
21306.4,13442.7
21298.1,13437.7
21290.3,13432
21283.2,13425.5
21276.7,13418.3
21270.9,13410.6
21266,13402.3
21261.8,13393.6
21258.6,13384.5
21256.2,13375.1
21254.8,13365.6
21254.3,13355.9
21254.3,12844.1
21254.8,12834.4
21256.2,12824.9
21258.6,12815.5
21261.8,12806.4
21266,12797.7
21270.9,12789.4
21276.7,12781.7
21283.2,12774.5
21290.3,12768
21298.1,12762.3
21306.4,12757.3
21315.1,12753.2
21324.2,12749.9
21333.6,12747.6
21343.1,12746.1
21352.8,12745.7
21608.7,12745.7
Z" /> 
</g>
<g >
</g>
<g style="fill:#000000; fill-opacity:1.0; 
stroke:#000000; stroke-width:0; stroke-opacity:1; 
stroke-linecap:round; stroke-linejoin:round;">
<path style="fill:#000000; fill-opacity:1.0; 
stroke:#000000; stroke-width:0; stroke-opacity:1; 
stroke-linecap:round; stroke-linejoin:round;fill-rule:evenodd;"
d="M 24065.6,11293.4
24075.1,11294.8
24084.5,11297.2
24093.6,11300.4
24102.3,11304.5
24110.6,11309.5
24118.3,11315.3
24125.5,11321.7
24132,11328.9
24137.7,11336.7
24142.7,11344.9
24146.8,11353.7
24150.1,11362.8
24152.4,11372.1
24153.9,11381.7
24154.3,11391.3
24154.3,11647.2
24153.9,11656.9
24152.4,11666.4
24150.1,11675.8
24146.8,11684.9
24142.7,11693.6
24137.7,11701.9
24132,11709.7
24125.5,11716.8
24118.3,11723.3
24110.6,11729.1
24102.3,11734
24093.6,11738.2
24084.5,11741.4
24075.1,11743.8
24065.6,11745.2
24055.9,11745.7
23544.1,11745.7
23534.4,11745.2
23524.9,11743.8
23515.5,11741.4
23506.4,11738.2
23497.7,11734
23489.4,11729.1
23481.7,11723.3
23474.5,11716.8
23468,11709.7
23462.3,11701.9
23457.3,11693.6
23453.2,11684.9
23449.9,11675.8
23447.6,11666.4
23446.1,11656.9
23445.7,11647.2
23445.7,11391.3
23446.1,11381.7
23447.6,11372.1
23449.9,11362.8
23453.2,11353.7
23457.3,11344.9
23462.3,11336.7
23468,11328.9
23474.5,11321.7
23481.7,11315.3
23489.4,11309.5
23497.7,11304.5
23506.4,11300.4
23515.5,11297.2
23524.9,11294.8
23534.4,11293.4
23544.1,11292.9
24055.9,11292.9
Z" /> 
<path style="fill:#000000; fill-opacity:1.0; 
stroke:#000000; stroke-width:0; stroke-opacity:1; 
stroke-linecap:round; stroke-linejoin:round;fill-rule:evenodd;"
d="M 24065.6,12454.8
24075.1,12456.2
24084.5,12458.6
24093.6,12461.8
24102.3,12466
24110.6,12470.9
24118.3,12476.7
24125.5,12483.2
24132,12490.3
24137.7,12498.1
24142.7,12506.4
24146.8,12515.1
24150.1,12524.2
24152.4,12533.6
24153.9,12543.1
24154.3,12552.8
24154.3,12808.7
24153.9,12818.3
24152.4,12827.9
24150.1,12837.2
24146.8,12846.3
24142.7,12855.1
24137.7,12863.3
24132,12871.1
24125.5,12878.3
24118.3,12884.7
24110.6,12890.5
24102.3,12895.5
24093.6,12899.6
24084.5,12902.8
24075.1,12905.2
24065.6,12906.6
24055.9,12907.1
23544.1,12907.1
23534.4,12906.6
23524.9,12905.2
23515.5,12902.8
23506.4,12899.6
23497.7,12895.5
23489.4,12890.5
23481.7,12884.7
23474.5,12878.3
23468,12871.1
23462.3,12863.3
23457.3,12855.1
23453.2,12846.3
23449.9,12837.2
23447.6,12827.9
23446.1,12818.3
23445.7,12808.7
23445.7,12552.8
23446.1,12543.1
23447.6,12533.6
23449.9,12524.2
23453.2,12515.1
23457.3,12506.4
23462.3,12498.1
23468,12490.3
23474.5,12483.2
23481.7,12476.7
23489.4,12470.9
23497.7,12466
23506.4,12461.8
23515.5,12458.6
23524.9,12456.2
23534.4,12454.8
23544.1,12454.3
24055.9,12454.3
Z" /> 
</g>
<g >
</g>
<g style="fill:#000000; fill-opacity:1.0; 
stroke:#000000; stroke-width:0; stroke-opacity:1; 
stroke-linecap:round; stroke-linejoin:round;">
<path style="fill:#000000; fill-opacity:1.0; 
stroke:#000000; stroke-width:0; stroke-opacity:1; 
stroke-linecap:round; stroke-linejoin:round;fill-rule:evenodd;"
d="M 20738,24980.8
20747.5,24982.2
20756.9,24984.6
20766,24987.8
20774.7,24991.9
20783,24996.9
20790.8,25002.7
20797.9,25009.1
20804.4,25016.3
20810.2,25024.1
20815.1,25032.3
20819.3,25041.1
20822.5,25050.2
20824.9,25059.5
20826.3,25069.1
20826.8,25078.7
20826.8,25334.6
20826.3,25344.3
20824.9,25353.8
20822.5,25363.2
20819.3,25372.3
20815.1,25381
20810.2,25389.3
20804.4,25397.1
20797.9,25404.2
20790.8,25410.7
20783,25416.5
20774.7,25421.4
20766,25425.6
20756.9,25428.8
20747.5,25431.2
20738,25432.6
20728.3,25433.1
20216.5,25433.1
20206.9,25432.6
20197.3,25431.2
20188,25428.8
20178.9,25425.6
20170.1,25421.4
20161.9,25416.5
20154.1,25410.7
20146.9,25404.2
20140.5,25397.1
20134.7,25389.3
20129.7,25381
20125.6,25372.3
20122.3,25363.2
20120,25353.8
20118.6,25344.3
20118.1,25334.6
20118.1,25078.7
20118.6,25069.1
20120,25059.5
20122.3,25050.2
20125.6,25041.1
20129.7,25032.3
20134.7,25024.1
20140.5,25016.3
20146.9,25009.1
20154.1,25002.7
20161.9,24996.9
20170.1,24991.9
20178.9,24987.8
20188,24984.6
20197.3,24982.2
20206.9,24980.8
20216.5,24980.3
20728.3,24980.3
Z" /> 
<path style="fill:#000000; fill-opacity:1.0; 
stroke:#000000; stroke-width:0; stroke-opacity:1; 
stroke-linecap:round; stroke-linejoin:round;fill-rule:evenodd;"
d="M 20738,26142.2
20747.5,26143.6
20756.9,26146
20766,26149.2
20774.7,26153.4
20783,26158.3
20790.8,26164.1
20797.9,26170.6
20804.4,26177.7
20810.2,26185.5
20815.1,26193.8
20819.3,26202.5
20822.5,26211.6
20824.9,26221
20826.3,26230.5
20826.8,26240.2
20826.8,26496.1
20826.3,26505.7
20824.9,26515.3
20822.5,26524.6
20819.3,26533.7
20815.1,26542.5
20810.2,26550.7
20804.4,26558.5
20797.9,26565.7
20790.8,26572.1
20783,26577.9
20774.7,26582.9
20766,26587
20756.9,26590.2
20747.5,26592.6
20738,26594
20728.3,26594.5
20216.5,26594.5
20206.9,26594
20197.3,26592.6
20188,26590.2
20178.9,26587
20170.1,26582.9
20161.9,26577.9
20154.1,26572.1
20146.9,26565.7
20140.5,26558.5
20134.7,26550.7
20129.7,26542.5
20125.6,26533.7
20122.3,26524.6
20120,26515.3
20118.6,26505.7
20118.1,26496.1
20118.1,26240.2
20118.6,26230.5
20120,26221
20122.3,26211.6
20125.6,26202.5
20129.7,26193.8
20134.7,26185.5
20140.5,26177.7
20146.9,26170.6
20154.1,26164.1
20161.9,26158.3
20170.1,26153.4
20178.9,26149.2
20188,26146
20197.3,26143.6
20206.9,26142.2
20216.5,26141.7
20728.3,26141.7
Z" /> 
</g>
<g >
</g>
<g style="fill:#000000; fill-opacity:1.0; 
stroke:#000000; stroke-width:0; stroke-opacity:1; 
stroke-linecap:round; stroke-linejoin:round;">
<path style="fill:#000000; fill-opacity:1.0; 
stroke:#000000; stroke-width:0; stroke-opacity:1; 
stroke-linecap:round; stroke-linejoin:round;fill-rule:evenodd;"
d="M 21919.1,26152
21928.7,26153.5
21938,26155.8
21947.1,26159.1
21955.8,26163.2
21964.1,26168.2
21971.9,26173.9
21979,26180.4
21985.5,26187.6
21991.3,26195.3
21996.3,26203.6
22000.4,26212.3
22003.6,26221.4
22006,26230.8
22007.4,26240.4
22007.9,26250
22007.9,26505.9
22007.4,26515.6
22006,26525.1
22003.6,26534.5
22000.4,26543.6
21996.3,26552.3
21991.3,26560.6
21985.5,26568.3
21979,26575.5
21971.9,26582
21964.1,26587.7
21955.8,26592.7
21947.1,26596.8
21938,26600.1
21928.7,26602.4
21919.1,26603.9
21909.4,26604.3
21397.6,26604.3
21388,26603.9
21378.4,26602.4
21369.1,26600.1
21360,26596.8
21351.2,26592.7
21343,26587.7
21335.2,26582
21328,26575.5
21321.6,26568.3
21315.8,26560.6
21310.8,26552.3
21306.7,26543.6
21303.5,26534.5
21301.1,26525.1
21299.7,26515.6
21299.2,26505.9
21299.2,26250
21299.7,26240.4
21301.1,26230.8
21303.5,26221.4
21306.7,26212.3
21310.8,26203.6
21315.8,26195.3
21321.6,26187.6
21328,26180.4
21335.2,26173.9
21343,26168.2
21351.2,26163.2
21360,26159.1
21369.1,26155.8
21378.4,26153.5
21388,26152
21397.6,26151.6
21909.4,26151.6
Z" /> 
<path style="fill:#000000; fill-opacity:1.0; 
stroke:#000000; stroke-width:0; stroke-opacity:1; 
stroke-linecap:round; stroke-linejoin:round;fill-rule:evenodd;"
d="M 21919.1,24990.6
21928.7,24992
21938,24994.4
21947.1,24997.6
21955.8,25001.8
21964.1,25006.7
21971.9,25012.5
21979,25019
21985.5,25026.1
21991.3,25033.9
21996.3,25042.2
22000.4,25050.9
22003.6,25060
22006,25069.4
22007.4,25078.9
22007.9,25088.6
22007.9,25344.5
22007.4,25354.1
22006,25363.7
22003.6,25373.1
22000.4,25382.2
21996.3,25390.9
21991.3,25399.2
21985.5,25406.9
21979,25414.1
21971.9,25420.6
21964.1,25426.3
21955.8,25431.3
21947.1,25435.4
21938,25438.7
21928.7,25441
21919.1,25442.4
21909.4,25442.9
21397.6,25442.9
21388,25442.4
21378.4,25441
21369.1,25438.7
21360,25435.4
21351.2,25431.3
21343,25426.3
21335.2,25420.6
21328,25414.1
21321.6,25406.9
21315.8,25399.2
21310.8,25390.9
21306.7,25382.2
21303.5,25373.1
21301.1,25363.7
21299.7,25354.1
21299.2,25344.5
21299.2,25088.6
21299.7,25078.9
21301.1,25069.4
21303.5,25060
21306.7,25050.9
21310.8,25042.2
21315.8,25033.9
21321.6,25026.1
21328,25019
21335.2,25012.5
21343,25006.7
21351.2,25001.8
21360,24997.6
21369.1,24994.4
21378.4,24992
21388,24990.6
21397.6,24990.2
21909.4,24990.2
Z" /> 
</g>
<g >
</g>
<g style="fill:#000000; fill-opacity:1.0; 
stroke:#000000; stroke-width:0; stroke-opacity:1; 
stroke-linecap:round; stroke-linejoin:round;">
<path style="fill:#000000; fill-opacity:1.0; 
stroke:#000000; stroke-width:0; stroke-opacity:1; 
stroke-linecap:round; stroke-linejoin:round;fill-rule:evenodd;"
d="M 8184.92,19604.6
8190.66,19605.5
8196.28,19606.9
8201.73,19608.8
8206.97,19611.3
8211.94,19614.3
8216.6,19617.7
8220.89,19621.6
8224.78,19625.9
8228.24,19630.6
8231.22,19635.5
8233.69,19640.8
8235.65,19646.2
8237.05,19651.9
8237.9,19657.6
8238.19,19663.4
8238.19,19781.5
8237.9,19787.3
8237.05,19793
8235.65,19798.6
8233.69,19804.1
8231.22,19809.3
8228.24,19814.3
8224.78,19819
8220.89,19823.3
8216.6,19827.1
8211.94,19830.6
8206.97,19833.6
8201.73,19836.1
8196.28,19838
8190.66,19839.4
8184.92,19840.3
8179.13,19840.6
7529.53,19840.6
7523.74,19840.3
7518.01,19839.4
7512.38,19838
7506.93,19836.1
7501.69,19833.6
7496.72,19830.6
7492.06,19827.1
7487.77,19823.3
7483.88,19819
7480.43,19814.3
7477.45,19809.3
7474.97,19804.1
7473.02,19798.6
7471.61,19793
7470.76,19787.3
7470.47,19781.5
7470.47,19663.4
7470.76,19657.6
7471.61,19651.9
7473.02,19646.2
7474.97,19640.8
7477.45,19635.5
7480.43,19630.6
7483.88,19625.9
7487.77,19621.6
7492.06,19617.7
7496.72,19614.3
7501.69,19611.3
7506.93,19608.8
7512.38,19606.9
7518.01,19605.5
7523.74,19604.6
7529.53,19604.3
8179.13,19604.3
Z" /> 
<path style="fill:#000000; fill-opacity:1.0; 
stroke:#000000; stroke-width:0; stroke-opacity:1; 
stroke-linecap:round; stroke-linejoin:round;fill-rule:evenodd;"
d="M 8184.92,20104.6
8190.66,20105.5
8196.28,20106.9
8201.73,20108.8
8206.97,20111.3
8211.94,20114.3
8216.6,20117.7
8220.89,20121.6
8224.78,20125.9
8228.24,20130.6
8231.22,20135.5
8233.69,20140.8
8235.65,20146.2
8237.05,20151.9
8237.9,20157.6
8238.19,20163.4
8238.19,20281.5
8237.9,20287.3
8237.05,20293
8235.65,20298.6
8233.69,20304.1
8231.22,20309.3
8228.24,20314.3
8224.78,20319
8220.89,20323.3
8216.6,20327.1
8211.94,20330.6
8206.97,20333.6
8201.73,20336.1
8196.28,20338
8190.66,20339.4
8184.92,20340.3
8179.13,20340.6
7529.53,20340.6
7523.74,20340.3
7518.01,20339.4
7512.38,20338
7506.93,20336.1
7501.69,20333.6
7496.72,20330.6
7492.06,20327.1
7487.77,20323.3
7483.88,20319
7480.43,20314.3
7477.45,20309.3
7474.97,20304.1
7473.02,20298.6
7471.61,20293
7470.76,20287.3
7470.47,20281.5
7470.47,20163.4
7470.76,20157.6
7471.61,20151.9
7473.02,20146.2
7474.97,20140.8
7477.45,20135.5
7480.43,20130.6
7483.88,20125.9
7487.77,20121.6
7492.06,20117.7
7496.72,20114.3
7501.69,20111.3
7506.93,20108.8
7512.38,20106.9
7518.01,20105.5
7523.74,20104.6
7529.53,20104.3
8179.13,20104.3
Z" /> 
<path style="fill:#000000; fill-opacity:1.0; 
stroke:#000000; stroke-width:0; stroke-opacity:1; 
stroke-linecap:round; stroke-linejoin:round;fill-rule:evenodd;"
d="M 8184.92,20604.6
8190.66,20605.5
8196.28,20606.9
8201.73,20608.8
8206.97,20611.3
8211.94,20614.3
8216.6,20617.7
8220.89,20621.6
8224.78,20625.9
8228.24,20630.6
8231.22,20635.5
8233.69,20640.8
8235.65,20646.2
8237.05,20651.9
8237.9,20657.6
8238.19,20663.4
8238.19,20781.5
8237.9,20787.3
8237.05,20793
8235.65,20798.6
8233.69,20804.1
8231.22,20809.3
8228.24,20814.3
8224.78,20819
8220.89,20823.3
8216.6,20827.1
8211.94,20830.6
8206.97,20833.6
8201.73,20836.1
8196.28,20838
8190.66,20839.4
8184.92,20840.3
8179.13,20840.6
7529.53,20840.6
7523.74,20840.3
7518.01,20839.4
7512.38,20838
7506.93,20836.1
7501.69,20833.6
7496.72,20830.6
7492.06,20827.1
7487.77,20823.3
7483.88,20819
7480.43,20814.3
7477.45,20809.3
7474.97,20804.1
7473.02,20798.6
7471.61,20793
7470.76,20787.3
7470.47,20781.5
7470.47,20663.4
7470.76,20657.6
7471.61,20651.9
7473.02,20646.2
7474.97,20640.8
7477.45,20635.5
7480.43,20630.6
7483.88,20625.9
7487.77,20621.6
7492.06,20617.7
7496.72,20614.3
7501.69,20611.3
7506.93,20608.8
7512.38,20606.9
7518.01,20605.5
7523.74,20604.6
7529.53,20604.3
8179.13,20604.3
Z" /> 
<path style="fill:#000000; fill-opacity:1.0; 
stroke:#000000; stroke-width:0; stroke-opacity:1; 
stroke-linecap:round; stroke-linejoin:round;fill-rule:evenodd;"
d="M 8184.92,21104.6
8190.66,21105.5
8196.28,21106.9
8201.73,21108.8
8206.97,21111.3
8211.94,21114.3
8216.6,21117.7
8220.89,21121.6
8224.78,21125.9
8228.24,21130.6
8231.22,21135.5
8233.69,21140.8
8235.65,21146.2
8237.05,21151.9
8237.9,21157.6
8238.19,21163.4
8238.19,21281.5
8237.9,21287.3
8237.05,21293
8235.65,21298.6
8233.69,21304.1
8231.22,21309.3
8228.24,21314.3
8224.78,21319
8220.89,21323.3
8216.6,21327.1
8211.94,21330.6
8206.97,21333.6
8201.73,21336.1
8196.28,21338
8190.66,21339.4
8184.92,21340.3
8179.13,21340.6
7529.53,21340.6
7523.74,21340.3
7518.01,21339.4
7512.38,21338
7506.93,21336.1
7501.69,21333.6
7496.72,21330.6
7492.06,21327.1
7487.77,21323.3
7483.88,21319
7480.43,21314.3
7477.45,21309.3
7474.97,21304.1
7473.02,21298.6
7471.61,21293
7470.76,21287.3
7470.47,21281.5
7470.47,21163.4
7470.76,21157.6
7471.61,21151.9
7473.02,21146.2
7474.97,21140.8
7477.45,21135.5
7480.43,21130.6
7483.88,21125.9
7487.77,21121.6
7492.06,21117.7
7496.72,21114.3
7501.69,21111.3
7506.93,21108.8
7512.38,21106.9
7518.01,21105.5
7523.74,21104.6
7529.53,21104.3
8179.13,21104.3
Z" /> 
<path style="fill:#000000; fill-opacity:1.0; 
stroke:#000000; stroke-width:0; stroke-opacity:1; 
stroke-linecap:round; stroke-linejoin:round;fill-rule:evenodd;"
d="M 6236.1,21104.6
6241.84,21105.5
6247.46,21106.9
6252.91,21108.8
6258.15,21111.3
6263.12,21114.3
6267.78,21117.7
6272.07,21121.6
6275.97,21125.9
6279.42,21130.6
6282.4,21135.5
6284.87,21140.8
6286.83,21146.2
6288.24,21151.9
6289.09,21157.6
6289.37,21163.4
6289.37,21281.5
6289.09,21287.3
6288.24,21293
6286.83,21298.6
6284.87,21304.1
6282.4,21309.3
6279.42,21314.3
6275.97,21319
6272.07,21323.3
6267.78,21327.1
6263.12,21330.6
6258.15,21333.6
6252.91,21336.1
6247.46,21338
6241.84,21339.4
6236.1,21340.3
6230.31,21340.6
5580.71,21340.6
5574.92,21340.3
5569.19,21339.4
5563.57,21338
5558.11,21336.1
5552.87,21333.6
5547.9,21330.6
5543.24,21327.1
5538.95,21323.3
5535.06,21319
5531.61,21314.3
5528.63,21309.3
5526.15,21304.1
5524.2,21298.6
5522.79,21293
5521.94,21287.3
5521.65,21281.5
5521.65,21163.4
5521.94,21157.6
5522.79,21151.9
5524.2,21146.2
5526.15,21140.8
5528.63,21135.5
5531.61,21130.6
5535.06,21125.9
5538.95,21121.6
5543.24,21117.7
5547.9,21114.3
5552.87,21111.3
5558.11,21108.8
5563.57,21106.9
5569.19,21105.5
5574.92,21104.6
5580.71,21104.3
6230.31,21104.3
Z" /> 
<path style="fill:#000000; fill-opacity:1.0; 
stroke:#000000; stroke-width:0; stroke-opacity:1; 
stroke-linecap:round; stroke-linejoin:round;fill-rule:evenodd;"
d="M 6236.1,20604.6
6241.84,20605.5
6247.46,20606.9
6252.91,20608.8
6258.15,20611.3
6263.12,20614.3
6267.78,20617.7
6272.07,20621.6
6275.97,20625.9
6279.42,20630.6
6282.4,20635.5
6284.87,20640.8
6286.83,20646.2
6288.24,20651.9
6289.09,20657.6
6289.37,20663.4
6289.37,20781.5
6289.09,20787.3
6288.24,20793
6286.83,20798.6
6284.87,20804.1
6282.4,20809.3
6279.42,20814.3
6275.97,20819
6272.07,20823.3
6267.78,20827.1
6263.12,20830.6
6258.15,20833.6
6252.91,20836.1
6247.46,20838
6241.84,20839.4
6236.1,20840.3
6230.31,20840.6
5580.71,20840.6
5574.92,20840.3
5569.19,20839.4
5563.57,20838
5558.11,20836.1
5552.87,20833.6
5547.9,20830.6
5543.24,20827.1
5538.95,20823.3
5535.06,20819
5531.61,20814.3
5528.63,20809.3
5526.15,20804.1
5524.2,20798.6
5522.79,20793
5521.94,20787.3
5521.65,20781.5
5521.65,20663.4
5521.94,20657.6
5522.79,20651.9
5524.2,20646.2
5526.15,20640.8
5528.63,20635.5
5531.61,20630.6
5535.06,20625.9
5538.95,20621.6
5543.24,20617.7
5547.9,20614.3
5552.87,20611.3
5558.11,20608.8
5563.57,20606.9
5569.19,20605.5
5574.92,20604.6
5580.71,20604.3
6230.31,20604.3
Z" /> 
<path style="fill:#000000; fill-opacity:1.0; 
stroke:#000000; stroke-width:0; stroke-opacity:1; 
stroke-linecap:round; stroke-linejoin:round;fill-rule:evenodd;"
d="M 6236.1,20104.6
6241.84,20105.5
6247.46,20106.9
6252.91,20108.8
6258.15,20111.3
6263.12,20114.3
6267.78,20117.7
6272.07,20121.6
6275.97,20125.9
6279.42,20130.6
6282.4,20135.5
6284.87,20140.8
6286.83,20146.2
6288.24,20151.9
6289.09,20157.6
6289.37,20163.4
6289.37,20281.5
6289.09,20287.3
6288.24,20293
6286.83,20298.6
6284.87,20304.1
6282.4,20309.3
6279.42,20314.3
6275.97,20319
6272.07,20323.3
6267.78,20327.1
6263.12,20330.6
6258.15,20333.6
6252.91,20336.1
6247.46,20338
6241.84,20339.4
6236.1,20340.3
6230.31,20340.6
5580.71,20340.6
5574.92,20340.3
5569.19,20339.4
5563.57,20338
5558.11,20336.1
5552.87,20333.6
5547.9,20330.6
5543.24,20327.1
5538.95,20323.3
5535.06,20319
5531.61,20314.3
5528.63,20309.3
5526.15,20304.1
5524.2,20298.6
5522.79,20293
5521.94,20287.3
5521.65,20281.5
5521.65,20163.4
5521.94,20157.6
5522.79,20151.9
5524.2,20146.2
5526.15,20140.8
5528.63,20135.5
5531.61,20130.6
5535.06,20125.9
5538.95,20121.6
5543.24,20117.7
5547.9,20114.3
5552.87,20111.3
5558.11,20108.8
5563.57,20106.9
5569.19,20105.5
5574.92,20104.6
5580.71,20104.3
6230.31,20104.3
Z" /> 
<path style="fill:#000000; fill-opacity:1.0; 
stroke:#000000; stroke-width:0; stroke-opacity:1; 
stroke-linecap:round; stroke-linejoin:round;fill-rule:evenodd;"
d="M 6236.1,19604.6
6241.84,19605.5
6247.46,19606.9
6252.91,19608.8
6258.15,19611.3
6263.12,19614.3
6267.78,19617.7
6272.07,19621.6
6275.97,19625.9
6279.42,19630.6
6282.4,19635.5
6284.87,19640.8
6286.83,19646.2
6288.24,19651.9
6289.09,19657.6
6289.37,19663.4
6289.37,19781.5
6289.09,19787.3
6288.24,19793
6286.83,19798.6
6284.87,19804.1
6282.4,19809.3
6279.42,19814.3
6275.97,19819
6272.07,19823.3
6267.78,19827.1
6263.12,19830.6
6258.15,19833.6
6252.91,19836.1
6247.46,19838
6241.84,19839.4
6236.1,19840.3
6230.31,19840.6
5580.71,19840.6
5574.92,19840.3
5569.19,19839.4
5563.57,19838
5558.11,19836.1
5552.87,19833.6
5547.9,19830.6
5543.24,19827.1
5538.95,19823.3
5535.06,19819
5531.61,19814.3
5528.63,19809.3
5526.15,19804.1
5524.2,19798.6
5522.79,19793
5521.94,19787.3
5521.65,19781.5
5521.65,19663.4
5521.94,19657.6
5522.79,19651.9
5524.2,19646.2
5526.15,19640.8
5528.63,19635.5
5531.61,19630.6
5535.06,19625.9
5538.95,19621.6
5543.24,19617.7
5547.9,19614.3
5552.87,19611.3
5558.11,19608.8
5563.57,19606.9
5569.19,19605.5
5574.92,19604.6
5580.71,19604.3
6230.31,19604.3
Z" /> 
</g>
<g >
</g>
<g style="fill:#000000; fill-opacity:1.0; 
stroke:#000000; stroke-width:0; stroke-opacity:1; 
stroke-linecap:round; stroke-linejoin:round;">
<path style="fill:#000000; fill-opacity:1.0; 
stroke:#000000; stroke-width:0; stroke-opacity:1; 
stroke-linecap:round; stroke-linejoin:round;fill-rule:evenodd;"
d="M 12795.3,26301.2
12795.3,26655.5
12007.9,26655.5
12007.9,26301.2
Z" /> 
<path style="fill:#000000; fill-opacity:1.0; 
stroke:#000000; stroke-width:0; stroke-opacity:1; 
stroke-linecap:round; stroke-linejoin:round;fill-rule:evenodd;"
d="M 12795.3,25801.2
12795.3,26155.5
12007.9,26155.5
12007.9,25801.2
Z" /> 
<path style="fill:#000000; fill-opacity:1.0; 
stroke:#000000; stroke-width:0; stroke-opacity:1; 
stroke-linecap:round; stroke-linejoin:round;fill-rule:evenodd;"
d="M 12795.3,25301.2
12795.3,25655.5
12007.9,25655.5
12007.9,25301.2
Z" /> 
<path style="fill:#000000; fill-opacity:1.0; 
stroke:#000000; stroke-width:0; stroke-opacity:1; 
stroke-linecap:round; stroke-linejoin:round;fill-rule:evenodd;"
d="M 12795.3,24801.2
12795.3,25155.5
12007.9,25155.5
12007.9,24801.2
Z" /> 
<path style="fill:#000000; fill-opacity:1.0; 
stroke:#000000; stroke-width:0; stroke-opacity:1; 
stroke-linecap:round; stroke-linejoin:round;fill-rule:evenodd;"
d="M 12795.3,24301.2
12795.3,24655.5
12007.9,24655.5
12007.9,24301.2
Z" /> 
<path style="fill:#000000; fill-opacity:1.0; 
stroke:#000000; stroke-width:0; stroke-opacity:1; 
stroke-linecap:round; stroke-linejoin:round;fill-rule:evenodd;"
d="M 12795.3,23801.2
12795.3,24155.5
12007.9,24155.5
12007.9,23801.2
Z" /> 
<path style="fill:#000000; fill-opacity:1.0; 
stroke:#000000; stroke-width:0; stroke-opacity:1; 
stroke-linecap:round; stroke-linejoin:round;fill-rule:evenodd;"
d="M 12795.3,23301.2
12795.3,23655.5
12007.9,23655.5
12007.9,23301.2
Z" /> 
<path style="fill:#000000; fill-opacity:1.0; 
stroke:#000000; stroke-width:0; stroke-opacity:1; 
stroke-linecap:round; stroke-linejoin:round;fill-rule:evenodd;"
d="M 12795.3,22801.2
12795.3,23155.5
12007.9,23155.5
12007.9,22801.2
Z" /> 
<path style="fill:#000000; fill-opacity:1.0; 
stroke:#000000; stroke-width:0; stroke-opacity:1; 
stroke-linecap:round; stroke-linejoin:round;fill-rule:evenodd;"
d="M 12795.3,22301.2
12795.3,22655.5
12007.9,22655.5
12007.9,22301.2
Z" /> 
<path style="fill:#000000; fill-opacity:1.0; 
stroke:#000000; stroke-width:0; stroke-opacity:1; 
stroke-linecap:round; stroke-linejoin:round;fill-rule:evenodd;"
d="M 12795.3,21801.2
12795.3,22155.5
12007.9,22155.5
12007.9,21801.2
Z" /> 
<path style="fill:#000000; fill-opacity:1.0; 
stroke:#000000; stroke-width:0; stroke-opacity:1; 
stroke-linecap:round; stroke-linejoin:round;fill-rule:evenodd;"
d="M 12795.3,21301.2
12795.3,21655.5
12007.9,21655.5
12007.9,21301.2
Z" /> 
<path style="fill:#000000; fill-opacity:1.0; 
stroke:#000000; stroke-width:0; stroke-opacity:1; 
stroke-linecap:round; stroke-linejoin:round;fill-rule:evenodd;"
d="M 12795.3,20801.2
12795.3,21155.5
12007.9,21155.5
12007.9,20801.2
Z" /> 
<path style="fill:#000000; fill-opacity:1.0; 
stroke:#000000; stroke-width:0; stroke-opacity:1; 
stroke-linecap:round; stroke-linejoin:round;fill-rule:evenodd;"
d="M 12795.3,20301.2
12795.3,20655.5
12007.9,20655.5
12007.9,20301.2
Z" /> 
<path style="fill:#000000; fill-opacity:1.0; 
stroke:#000000; stroke-width:0; stroke-opacity:1; 
stroke-linecap:round; stroke-linejoin:round;fill-rule:evenodd;"
d="M 12795.3,19801.2
12795.3,20155.5
12007.9,20155.5
12007.9,19801.2
Z" /> 
<path style="fill:#000000; fill-opacity:1.0; 
stroke:#000000; stroke-width:0; stroke-opacity:1; 
stroke-linecap:round; stroke-linejoin:round;fill-rule:evenodd;"
d="M 13320.9,19190.9
13675.2,19190.9
13675.2,19978.3
13320.9,19978.3
Z" /> 
<path style="fill:#000000; fill-opacity:1.0; 
stroke:#000000; stroke-width:0; stroke-opacity:1; 
stroke-linecap:round; stroke-linejoin:round;fill-rule:evenodd;"
d="M 13820.9,19190.9
14175.2,19190.9
14175.2,19978.3
13820.9,19978.3
Z" /> 
<path style="fill:#000000; fill-opacity:1.0; 
stroke:#000000; stroke-width:0; stroke-opacity:1; 
stroke-linecap:round; stroke-linejoin:round;fill-rule:evenodd;"
d="M 14320.9,19190.9
14675.2,19190.9
14675.2,19978.3
14320.9,19978.3
Z" /> 
<path style="fill:#000000; fill-opacity:1.0; 
stroke:#000000; stroke-width:0; stroke-opacity:1; 
stroke-linecap:round; stroke-linejoin:round;fill-rule:evenodd;"
d="M 14820.9,19190.9
15175.2,19190.9
15175.2,19978.3
14820.9,19978.3
Z" /> 
<path style="fill:#000000; fill-opacity:1.0; 
stroke:#000000; stroke-width:0; stroke-opacity:1; 
stroke-linecap:round; stroke-linejoin:round;fill-rule:evenodd;"
d="M 15320.9,19190.9
15675.2,19190.9
15675.2,19978.3
15320.9,19978.3
Z" /> 
<path style="fill:#000000; fill-opacity:1.0; 
stroke:#000000; stroke-width:0; stroke-opacity:1; 
stroke-linecap:round; stroke-linejoin:round;fill-rule:evenodd;"
d="M 15820.9,19190.9
16175.2,19190.9
16175.2,19978.3
15820.9,19978.3
Z" /> 
<path style="fill:#000000; fill-opacity:1.0; 
stroke:#000000; stroke-width:0; stroke-opacity:1; 
stroke-linecap:round; stroke-linejoin:round;fill-rule:evenodd;"
d="M 16320.9,19190.9
16675.2,19190.9
16675.2,19978.3
16320.9,19978.3
Z" /> 
<path style="fill:#000000; fill-opacity:1.0; 
stroke:#000000; stroke-width:0; stroke-opacity:1; 
stroke-linecap:round; stroke-linejoin:round;fill-rule:evenodd;"
d="M 16820.9,19190.9
17175.2,19190.9
17175.2,19978.3
16820.9,19978.3
Z" /> 
<path style="fill:#000000; fill-opacity:1.0; 
stroke:#000000; stroke-width:0; stroke-opacity:1; 
stroke-linecap:round; stroke-linejoin:round;fill-rule:evenodd;"
d="M 17320.9,19190.9
17675.2,19190.9
17675.2,19978.3
17320.9,19978.3
Z" /> 
<path style="fill:#000000; fill-opacity:1.0; 
stroke:#000000; stroke-width:0; stroke-opacity:1; 
stroke-linecap:round; stroke-linejoin:round;fill-rule:evenodd;"
d="M 17820.9,19190.9
18175.2,19190.9
18175.2,19978.3
17820.9,19978.3
Z" /> 
<path style="fill:#000000; fill-opacity:1.0; 
stroke:#000000; stroke-width:0; stroke-opacity:1; 
stroke-linecap:round; stroke-linejoin:round;fill-rule:evenodd;"
d="M 19488.2,19801.2
19488.2,20155.5
18700.8,20155.5
18700.8,19801.2
Z" /> 
<path style="fill:#000000; fill-opacity:1.0; 
stroke:#000000; stroke-width:0; stroke-opacity:1; 
stroke-linecap:round; stroke-linejoin:round;fill-rule:evenodd;"
d="M 19488.2,20301.2
19488.2,20655.5
18700.8,20655.5
18700.8,20301.2
Z" /> 
<path style="fill:#000000; fill-opacity:1.0; 
stroke:#000000; stroke-width:0; stroke-opacity:1; 
stroke-linecap:round; stroke-linejoin:round;fill-rule:evenodd;"
d="M 19488.2,20801.2
19488.2,21155.5
18700.8,21155.5
18700.8,20801.2
Z" /> 
<path style="fill:#000000; fill-opacity:1.0; 
stroke:#000000; stroke-width:0; stroke-opacity:1; 
stroke-linecap:round; stroke-linejoin:round;fill-rule:evenodd;"
d="M 19488.2,21301.2
19488.2,21655.5
18700.8,21655.5
18700.8,21301.2
Z" /> 
<path style="fill:#000000; fill-opacity:1.0; 
stroke:#000000; stroke-width:0; stroke-opacity:1; 
stroke-linecap:round; stroke-linejoin:round;fill-rule:evenodd;"
d="M 19488.2,21801.2
19488.2,22155.5
18700.8,22155.5
18700.8,21801.2
Z" /> 
<path style="fill:#000000; fill-opacity:1.0; 
stroke:#000000; stroke-width:0; stroke-opacity:1; 
stroke-linecap:round; stroke-linejoin:round;fill-rule:evenodd;"
d="M 19488.2,22301.2
19488.2,22655.5
18700.8,22655.5
18700.8,22301.2
Z" /> 
<path style="fill:#000000; fill-opacity:1.0; 
stroke:#000000; stroke-width:0; stroke-opacity:1; 
stroke-linecap:round; stroke-linejoin:round;fill-rule:evenodd;"
d="M 19488.2,22801.2
19488.2,23155.5
18700.8,23155.5
18700.8,22801.2
Z" /> 
<path style="fill:#000000; fill-opacity:1.0; 
stroke:#000000; stroke-width:0; stroke-opacity:1; 
stroke-linecap:round; stroke-linejoin:round;fill-rule:evenodd;"
d="M 19488.2,23301.2
19488.2,23655.5
18700.8,23655.5
18700.8,23301.2
Z" /> 
<path style="fill:#000000; fill-opacity:1.0; 
stroke:#000000; stroke-width:0; stroke-opacity:1; 
stroke-linecap:round; stroke-linejoin:round;fill-rule:evenodd;"
d="M 19488.2,23801.2
19488.2,24155.5
18700.8,24155.5
18700.8,23801.2
Z" /> 
<path style="fill:#000000; fill-opacity:1.0; 
stroke:#000000; stroke-width:0; stroke-opacity:1; 
stroke-linecap:round; stroke-linejoin:round;fill-rule:evenodd;"
d="M 19488.2,24301.2
19488.2,24655.5
18700.8,24655.5
18700.8,24301.2
Z" /> 
<path style="fill:#000000; fill-opacity:1.0; 
stroke:#000000; stroke-width:0; stroke-opacity:1; 
stroke-linecap:round; stroke-linejoin:round;fill-rule:evenodd;"
d="M 19488.2,24801.2
19488.2,25155.5
18700.8,25155.5
18700.8,24801.2
Z" /> 
<path style="fill:#000000; fill-opacity:1.0; 
stroke:#000000; stroke-width:0; stroke-opacity:1; 
stroke-linecap:round; stroke-linejoin:round;fill-rule:evenodd;"
d="M 19488.2,25301.2
19488.2,25655.5
18700.8,25655.5
18700.8,25301.2
Z" /> 
<path style="fill:#000000; fill-opacity:1.0; 
stroke:#000000; stroke-width:0; stroke-opacity:1; 
stroke-linecap:round; stroke-linejoin:round;fill-rule:evenodd;"
d="M 19488.2,25801.2
19488.2,26155.5
18700.8,26155.5
18700.8,25801.2
Z" /> 
<path style="fill:#000000; fill-opacity:1.0; 
stroke:#000000; stroke-width:0; stroke-opacity:1; 
stroke-linecap:round; stroke-linejoin:round;fill-rule:evenodd;"
d="M 19488.2,26301.2
19488.2,26655.5
18700.8,26655.5
18700.8,26301.2
Z" /> 
<path style="fill:#000000; fill-opacity:1.0; 
stroke:#000000; stroke-width:0; stroke-opacity:1; 
stroke-linecap:round; stroke-linejoin:round;fill-rule:evenodd;"
d="M 17126,22541.3
17126,24509.8
15157.5,24509.8
15157.5,22541.3
Z" /> 
</g>
<g >
</g>
<g style="fill:#000000; fill-opacity:1.0; 
stroke:#000000; stroke-width:0; stroke-opacity:1; 
stroke-linecap:round; stroke-linejoin:round;">
<path style="fill:#000000; fill-opacity:1.0; 
stroke:#000000; stroke-width:0; stroke-opacity:1; 
stroke-linecap:round; stroke-linejoin:round;fill-rule:evenodd;"
d="M 22714.8,11590.8
22720.6,11591.7
22726.2,11593.1
22731.7,11595
22736.9,11597.5
22741.9,11600.5
22746.5,11604
22750.8,11607.8
22754.7,11612.1
22758.2,11616.8
22761.1,11621.8
22763.6,11627
22765.6,11632.5
22767,11638.1
22767.8,11643.8
22768.1,11649.6
22768.1,12299.2
22767.8,12305
22767,12310.7
22765.6,12316.4
22763.6,12321.8
22761.1,12327.1
22758.2,12332
22754.7,12336.7
22750.8,12341
22746.5,12344.9
22741.9,12348.3
22736.9,12351.3
22731.7,12353.8
22726.2,12355.7
22720.6,12357.1
22714.8,12358
22709.1,12358.3
22590.9,12358.3
22585.2,12358
22579.4,12357.1
22573.8,12355.7
22568.3,12353.8
22563.1,12351.3
22558.1,12348.3
22553.5,12344.9
22549.2,12341
22545.3,12336.7
22541.8,12332
22538.9,12327.1
22536.4,12321.8
22534.4,12316.4
22533,12310.7
22532.2,12305
22531.9,12299.2
22531.9,11649.6
22532.2,11643.8
22533,11638.1
22534.4,11632.5
22536.4,11627
22538.9,11621.8
22541.8,11616.8
22545.3,11612.1
22549.2,11607.8
22553.5,11604
22558.1,11600.5
22563.1,11597.5
22568.3,11595
22573.8,11593.1
22579.4,11591.7
22585.2,11590.8
22590.9,11590.6
22709.1,11590.6
Z" /> 
<path style="fill:#000000; fill-opacity:1.0; 
stroke:#000000; stroke-width:0; stroke-opacity:1; 
stroke-linecap:round; stroke-linejoin:round;fill-rule:evenodd;"
d="M 22214.8,11590.8
22220.6,11591.7
22226.2,11593.1
22231.7,11595
22236.9,11597.5
22241.9,11600.5
22246.5,11604
22250.8,11607.8
22254.7,11612.1
22258.2,11616.8
22261.1,11621.8
22263.6,11627
22265.6,11632.5
22267,11638.1
22267.8,11643.8
22268.1,11649.6
22268.1,12299.2
22267.8,12305
22267,12310.7
22265.6,12316.4
22263.6,12321.8
22261.1,12327.1
22258.2,12332
22254.7,12336.7
22250.8,12341
22246.5,12344.9
22241.9,12348.3
22236.9,12351.3
22231.7,12353.8
22226.2,12355.7
22220.6,12357.1
22214.8,12358
22209.1,12358.3
22090.9,12358.3
22085.2,12358
22079.4,12357.1
22073.8,12355.7
22068.3,12353.8
22063.1,12351.3
22058.1,12348.3
22053.5,12344.9
22049.2,12341
22045.3,12336.7
22041.8,12332
22038.9,12327.1
22036.4,12321.8
22034.4,12316.4
22033,12310.7
22032.2,12305
22031.9,12299.2
22031.9,11649.6
22032.2,11643.8
22033,11638.1
22034.4,11632.5
22036.4,11627
22038.9,11621.8
22041.8,11616.8
22045.3,11612.1
22049.2,11607.8
22053.5,11604
22058.1,11600.5
22063.1,11597.5
22068.3,11595
22073.8,11593.1
22079.4,11591.7
22085.2,11590.8
22090.9,11590.6
22209.1,11590.6
Z" /> 
<path style="fill:#000000; fill-opacity:1.0; 
stroke:#000000; stroke-width:0; stroke-opacity:1; 
stroke-linecap:round; stroke-linejoin:round;fill-rule:evenodd;"
d="M 21714.8,11590.8
21720.6,11591.7
21726.2,11593.1
21731.7,11595
21736.9,11597.5
21741.9,11600.5
21746.5,11604
21750.8,11607.8
21754.7,11612.1
21758.2,11616.8
21761.1,11621.8
21763.6,11627
21765.6,11632.5
21767,11638.1
21767.8,11643.8
21768.1,11649.6
21768.1,12299.2
21767.8,12305
21767,12310.7
21765.6,12316.4
21763.6,12321.8
21761.1,12327.1
21758.2,12332
21754.7,12336.7
21750.8,12341
21746.5,12344.9
21741.9,12348.3
21736.9,12351.3
21731.7,12353.8
21726.2,12355.7
21720.6,12357.1
21714.8,12358
21709.1,12358.3
21590.9,12358.3
21585.2,12358
21579.4,12357.1
21573.8,12355.7
21568.3,12353.8
21563.1,12351.3
21558.1,12348.3
21553.5,12344.9
21549.2,12341
21545.3,12336.7
21541.8,12332
21538.9,12327.1
21536.4,12321.8
21534.4,12316.4
21533,12310.7
21532.2,12305
21531.9,12299.2
21531.9,11649.6
21532.2,11643.8
21533,11638.1
21534.4,11632.5
21536.4,11627
21538.9,11621.8
21541.8,11616.8
21545.3,11612.1
21549.2,11607.8
21553.5,11604
21558.1,11600.5
21563.1,11597.5
21568.3,11595
21573.8,11593.1
21579.4,11591.7
21585.2,11590.8
21590.9,11590.6
21709.1,11590.6
Z" /> 
<path style="fill:#000000; fill-opacity:1.0; 
stroke:#000000; stroke-width:0; stroke-opacity:1; 
stroke-linecap:round; stroke-linejoin:round;fill-rule:evenodd;"
d="M 21214.8,11590.8
21220.6,11591.7
21226.2,11593.1
21231.7,11595
21236.9,11597.5
21241.9,11600.5
21246.5,11604
21250.8,11607.8
21254.7,11612.1
21258.2,11616.8
21261.1,11621.8
21263.6,11627
21265.6,11632.5
21267,11638.1
21267.8,11643.8
21268.1,11649.6
21268.1,12299.2
21267.8,12305
21267,12310.7
21265.6,12316.4
21263.6,12321.8
21261.1,12327.1
21258.2,12332
21254.7,12336.7
21250.8,12341
21246.5,12344.9
21241.9,12348.3
21236.9,12351.3
21231.7,12353.8
21226.2,12355.7
21220.6,12357.1
21214.8,12358
21209.1,12358.3
21090.9,12358.3
21085.2,12358
21079.4,12357.1
21073.8,12355.7
21068.3,12353.8
21063.1,12351.3
21058.1,12348.3
21053.5,12344.9
21049.2,12341
21045.3,12336.7
21041.8,12332
21038.9,12327.1
21036.4,12321.8
21034.4,12316.4
21033,12310.7
21032.2,12305
21031.9,12299.2
21031.9,11649.6
21032.2,11643.8
21033,11638.1
21034.4,11632.5
21036.4,11627
21038.9,11621.8
21041.8,11616.8
21045.3,11612.1
21049.2,11607.8
21053.5,11604
21058.1,11600.5
21063.1,11597.5
21068.3,11595
21073.8,11593.1
21079.4,11591.7
21085.2,11590.8
21090.9,11590.6
21209.1,11590.6
Z" /> 
<path style="fill:#000000; fill-opacity:1.0; 
stroke:#000000; stroke-width:0; stroke-opacity:1; 
stroke-linecap:round; stroke-linejoin:round;fill-rule:evenodd;"
d="M 21214.8,9642.02
21220.6,9642.87
21226.2,9644.28
21231.7,9646.23
21236.9,9648.71
21241.9,9651.69
21246.5,9655.14
21250.8,9659.03
21254.7,9663.32
21258.2,9667.98
21261.1,9672.95
21263.6,9678.19
21265.6,9683.64
21267,9689.27
21267.8,9695
21268.1,9700.79
21268.1,10350.4
21267.8,10356.2
21267,10361.9
21265.6,10367.5
21263.6,10373
21261.1,10378.2
21258.2,10383.2
21254.7,10387.9
21250.8,10392.2
21246.5,10396
21241.9,10399.5
21236.9,10402.5
21231.7,10405
21226.2,10406.9
21220.6,10408.3
21214.8,10409.2
21209.1,10409.4
21090.9,10409.4
21085.2,10409.2
21079.4,10408.3
21073.8,10406.9
21068.3,10405
21063.1,10402.5
21058.1,10399.5
21053.5,10396
21049.2,10392.2
21045.3,10387.9
21041.8,10383.2
21038.9,10378.2
21036.4,10373
21034.4,10367.5
21033,10361.9
21032.2,10356.2
21031.9,10350.4
21031.9,9700.79
21032.2,9695
21033,9689.27
21034.4,9683.64
21036.4,9678.19
21038.9,9672.95
21041.8,9667.98
21045.3,9663.32
21049.2,9659.03
21053.5,9655.14
21058.1,9651.69
21063.1,9648.71
21068.3,9646.23
21073.8,9644.28
21079.4,9642.87
21085.2,9642.02
21090.9,9641.73
21209.1,9641.73
Z" /> 
<path style="fill:#000000; fill-opacity:1.0; 
stroke:#000000; stroke-width:0; stroke-opacity:1; 
stroke-linecap:round; stroke-linejoin:round;fill-rule:evenodd;"
d="M 21714.8,9642.02
21720.6,9642.87
21726.2,9644.28
21731.7,9646.23
21736.9,9648.71
21741.9,9651.69
21746.5,9655.14
21750.8,9659.03
21754.7,9663.32
21758.2,9667.98
21761.1,9672.95
21763.6,9678.19
21765.6,9683.64
21767,9689.27
21767.8,9695
21768.1,9700.79
21768.1,10350.4
21767.8,10356.2
21767,10361.9
21765.6,10367.5
21763.6,10373
21761.1,10378.2
21758.2,10383.2
21754.7,10387.9
21750.8,10392.2
21746.5,10396
21741.9,10399.5
21736.9,10402.5
21731.7,10405
21726.2,10406.9
21720.6,10408.3
21714.8,10409.2
21709.1,10409.4
21590.9,10409.4
21585.2,10409.2
21579.4,10408.3
21573.8,10406.9
21568.3,10405
21563.1,10402.5
21558.1,10399.5
21553.5,10396
21549.2,10392.2
21545.3,10387.9
21541.8,10383.2
21538.9,10378.2
21536.4,10373
21534.4,10367.5
21533,10361.9
21532.2,10356.2
21531.9,10350.4
21531.9,9700.79
21532.2,9695
21533,9689.27
21534.4,9683.64
21536.4,9678.19
21538.9,9672.95
21541.8,9667.98
21545.3,9663.32
21549.2,9659.03
21553.5,9655.14
21558.1,9651.69
21563.1,9648.71
21568.3,9646.23
21573.8,9644.28
21579.4,9642.87
21585.2,9642.02
21590.9,9641.73
21709.1,9641.73
Z" /> 
<path style="fill:#000000; fill-opacity:1.0; 
stroke:#000000; stroke-width:0; stroke-opacity:1; 
stroke-linecap:round; stroke-linejoin:round;fill-rule:evenodd;"
d="M 22214.8,9642.02
22220.6,9642.87
22226.2,9644.28
22231.7,9646.23
22236.9,9648.71
22241.9,9651.69
22246.5,9655.14
22250.8,9659.03
22254.7,9663.32
22258.2,9667.98
22261.1,9672.95
22263.6,9678.19
22265.6,9683.64
22267,9689.27
22267.8,9695
22268.1,9700.79
22268.1,10350.4
22267.8,10356.2
22267,10361.9
22265.6,10367.5
22263.6,10373
22261.1,10378.2
22258.2,10383.2
22254.7,10387.9
22250.8,10392.2
22246.5,10396
22241.9,10399.5
22236.9,10402.5
22231.7,10405
22226.2,10406.9
22220.6,10408.3
22214.8,10409.2
22209.1,10409.4
22090.9,10409.4
22085.2,10409.2
22079.4,10408.3
22073.8,10406.9
22068.3,10405
22063.1,10402.5
22058.1,10399.5
22053.5,10396
22049.2,10392.2
22045.3,10387.9
22041.8,10383.2
22038.9,10378.2
22036.4,10373
22034.4,10367.5
22033,10361.9
22032.2,10356.2
22031.9,10350.4
22031.9,9700.79
22032.2,9695
22033,9689.27
22034.4,9683.64
22036.4,9678.19
22038.9,9672.95
22041.8,9667.98
22045.3,9663.32
22049.2,9659.03
22053.5,9655.14
22058.1,9651.69
22063.1,9648.71
22068.3,9646.23
22073.8,9644.28
22079.4,9642.87
22085.2,9642.02
22090.9,9641.73
22209.1,9641.73
Z" /> 
<path style="fill:#000000; fill-opacity:1.0; 
stroke:#000000; stroke-width:0; stroke-opacity:1; 
stroke-linecap:round; stroke-linejoin:round;fill-rule:evenodd;"
d="M 22714.8,9642.02
22720.6,9642.87
22726.2,9644.28
22731.7,9646.23
22736.9,9648.71
22741.9,9651.69
22746.5,9655.14
22750.8,9659.03
22754.7,9663.32
22758.2,9667.98
22761.1,9672.95
22763.6,9678.19
22765.6,9683.64
22767,9689.27
22767.8,9695
22768.1,9700.79
22768.1,10350.4
22767.8,10356.2
22767,10361.9
22765.6,10367.5
22763.6,10373
22761.1,10378.2
22758.2,10383.2
22754.7,10387.9
22750.8,10392.2
22746.5,10396
22741.9,10399.5
22736.9,10402.5
22731.7,10405
22726.2,10406.9
22720.6,10408.3
22714.8,10409.2
22709.1,10409.4
22590.9,10409.4
22585.2,10409.2
22579.4,10408.3
22573.8,10406.9
22568.3,10405
22563.1,10402.5
22558.1,10399.5
22553.5,10396
22549.2,10392.2
22545.3,10387.9
22541.8,10383.2
22538.9,10378.2
22536.4,10373
22534.4,10367.5
22533,10361.9
22532.2,10356.2
22531.9,10350.4
22531.9,9700.79
22532.2,9695
22533,9689.27
22534.4,9683.64
22536.4,9678.19
22538.9,9672.95
22541.8,9667.98
22545.3,9663.32
22549.2,9659.03
22553.5,9655.14
22558.1,9651.69
22563.1,9648.71
22568.3,9646.23
22573.8,9644.28
22579.4,9642.87
22585.2,9642.02
22590.9,9641.73
22709.1,9641.73
Z" /> 
</g>
<g >
</g>
<g style="fill:#000000; fill-opacity:1.0; 
stroke:#000000; stroke-width:0; stroke-opacity:1; 
stroke-linecap:round; stroke-linejoin:round;">
<path style="fill:#000000; fill-opacity:1.0; 
stroke:#000000; stroke-width:0; stroke-opacity:1; 
stroke-linecap:round; stroke-linejoin:round;fill-rule:evenodd;"
d="M 14940.9,16633.9
14350.4,16633.9
14350.4,15846.5
14940.9,15846.5
Z" /> 
<path style="fill:#000000; fill-opacity:1.0; 
stroke:#000000; stroke-width:0; stroke-opacity:1; 
stroke-linecap:round; stroke-linejoin:round;fill-rule:evenodd;"
d="M 16752,16633.9
16161.4,16633.9
16161.4,15846.5
16752,15846.5
Z" /> 
<path style="fill:#000000; fill-opacity:1.0; 
stroke:#000000; stroke-width:0; stroke-opacity:1; 
stroke-linecap:round; stroke-linejoin:round;fill-rule:evenodd;"
d="M 15846.5,16633.9
15255.9,16633.9
15255.9,15846.5
15846.5,15846.5
Z" /> 
<path style="fill:#000000; fill-opacity:1.0; 
stroke:#000000; stroke-width:0; stroke-opacity:1; 
stroke-linecap:round; stroke-linejoin:round;fill-rule:evenodd;"
d="M 16299.2,14153.5
14803.1,14153.5
14803.1,13366.1
16299.2,13366.1
Z" /> 
</g>
<g >
</g>
<g >
</g>
<g style="fill:#000000; fill-opacity:1.0; 
stroke:#000000; stroke-width:0; stroke-opacity:1; 
stroke-linecap:round; stroke-linejoin:round;">
<path style="fill:#000000; fill-opacity:1.0; 
stroke:#000000; stroke-width:0; stroke-opacity:1; 
stroke-linecap:round; stroke-linejoin:round;fill-rule:evenodd;"
d="M 13265.6,15354.8
13275.1,15356.2
13284.5,15358.6
13293.6,15361.8
13302.3,15366
13310.6,15370.9
13318.3,15376.7
13325.5,15383.2
13332,15390.3
13337.7,15398.1
13342.7,15406.4
13346.8,15415.1
13350.1,15424.2
13352.4,15433.6
13353.9,15443.1
13354.3,15452.8
13354.3,15777.6
13353.9,15787.2
13352.4,15796.8
13350.1,15806.1
13346.8,15815.2
13342.7,15824
13337.7,15832.2
13332,15840
13325.5,15847.2
13318.3,15853.6
13310.6,15859.4
13302.3,15864.4
13293.6,15868.5
13284.5,15871.7
13275.1,15874.1
13265.6,15875.5
13255.9,15876
12744.1,15876
12734.4,15875.5
12724.9,15874.1
12715.5,15871.7
12706.4,15868.5
12697.7,15864.4
12689.4,15859.4
12681.7,15853.6
12674.5,15847.2
12668,15840
12662.3,15832.2
12657.3,15824
12653.2,15815.2
12649.9,15806.1
12647.6,15796.8
12646.1,15787.2
12645.7,15777.6
12645.7,15452.8
12646.1,15443.1
12647.6,15433.6
12649.9,15424.2
12653.2,15415.1
12657.3,15406.4
12662.3,15398.1
12668,15390.3
12674.5,15383.2
12681.7,15376.7
12689.4,15370.9
12697.7,15366
12706.4,15361.8
12715.5,15358.6
12724.9,15356.2
12734.4,15354.8
12744.1,15354.3
13255.9,15354.3
Z" /> 
<path style="fill:#000000; fill-opacity:1.0; 
stroke:#000000; stroke-width:0; stroke-opacity:1; 
stroke-linecap:round; stroke-linejoin:round;fill-rule:evenodd;"
d="M 13265.6,14124.5
13275.1,14125.9
13284.5,14128.3
13293.6,14131.5
13302.3,14135.6
13310.6,14140.6
13318.3,14146.4
13325.5,14152.8
13332,14160
13337.7,14167.8
13342.7,14176
13346.8,14184.8
13350.1,14193.9
13352.4,14203.2
13353.9,14212.8
13354.3,14222.4
13354.3,14547.2
13353.9,14556.9
13352.4,14566.4
13350.1,14575.8
13346.8,14584.9
13342.7,14593.6
13337.7,14601.9
13332,14609.7
13325.5,14616.8
13318.3,14623.3
13310.6,14629.1
13302.3,14634
13293.6,14638.2
13284.5,14641.4
13275.1,14643.8
13265.6,14645.2
13255.9,14645.7
12744.1,14645.7
12734.4,14645.2
12724.9,14643.8
12715.5,14641.4
12706.4,14638.2
12697.7,14634
12689.4,14629.1
12681.7,14623.3
12674.5,14616.8
12668,14609.7
12662.3,14601.9
12657.3,14593.6
12653.2,14584.9
12649.9,14575.8
12647.6,14566.4
12646.1,14556.9
12645.7,14547.2
12645.7,14222.4
12646.1,14212.8
12647.6,14203.2
12649.9,14193.9
12653.2,14184.8
12657.3,14176
12662.3,14167.8
12668,14160
12674.5,14152.8
12681.7,14146.4
12689.4,14140.6
12697.7,14135.6
12706.4,14131.5
12715.5,14128.3
12724.9,14125.9
12734.4,14124.5
12744.1,14124
13255.9,14124
Z" /> 
</g>
<g >
</g>
<g style="fill:#000000; fill-opacity:1.0; 
stroke:#000000; stroke-width:0; stroke-opacity:1; 
stroke-linecap:round; stroke-linejoin:round;">
<path style="fill:#000000; fill-opacity:1.0; 
stroke:#000000; stroke-width:0; stroke-opacity:1; 
stroke-linecap:round; stroke-linejoin:round;fill-rule:evenodd;"
d="M 18265.6,14124.5
18275.1,14125.9
18284.5,14128.3
18293.6,14131.5
18302.3,14135.6
18310.6,14140.6
18318.3,14146.4
18325.5,14152.8
18332,14160
18337.7,14167.8
18342.7,14176
18346.8,14184.8
18350.1,14193.9
18352.4,14203.2
18353.9,14212.8
18354.3,14222.4
18354.3,14547.2
18353.9,14556.9
18352.4,14566.4
18350.1,14575.8
18346.8,14584.9
18342.7,14593.6
18337.7,14601.9
18332,14609.7
18325.5,14616.8
18318.3,14623.3
18310.6,14629.1
18302.3,14634
18293.6,14638.2
18284.5,14641.4
18275.1,14643.8
18265.6,14645.2
18255.9,14645.7
17744.1,14645.7
17734.4,14645.2
17724.9,14643.8
17715.5,14641.4
17706.4,14638.2
17697.7,14634
17689.4,14629.1
17681.7,14623.3
17674.5,14616.8
17668,14609.7
17662.3,14601.9
17657.3,14593.6
17653.2,14584.9
17649.9,14575.8
17647.6,14566.4
17646.1,14556.9
17645.7,14547.2
17645.7,14222.4
17646.1,14212.8
17647.6,14203.2
17649.9,14193.9
17653.2,14184.8
17657.3,14176
17662.3,14167.8
17668,14160
17674.5,14152.8
17681.7,14146.4
17689.4,14140.6
17697.7,14135.6
17706.4,14131.5
17715.5,14128.3
17724.9,14125.9
17734.4,14124.5
17744.1,14124
18255.9,14124
Z" /> 
<path style="fill:#000000; fill-opacity:1.0; 
stroke:#000000; stroke-width:0; stroke-opacity:1; 
stroke-linecap:round; stroke-linejoin:round;fill-rule:evenodd;"
d="M 18265.6,15354.8
18275.1,15356.2
18284.5,15358.6
18293.6,15361.8
18302.3,15366
18310.6,15370.9
18318.3,15376.7
18325.5,15383.2
18332,15390.3
18337.7,15398.1
18342.7,15406.4
18346.8,15415.1
18350.1,15424.2
18352.4,15433.6
18353.9,15443.1
18354.3,15452.8
18354.3,15777.6
18353.9,15787.2
18352.4,15796.8
18350.1,15806.1
18346.8,15815.2
18342.7,15824
18337.7,15832.2
18332,15840
18325.5,15847.2
18318.3,15853.6
18310.6,15859.4
18302.3,15864.4
18293.6,15868.5
18284.5,15871.7
18275.1,15874.1
18265.6,15875.5
18255.9,15876
17744.1,15876
17734.4,15875.5
17724.9,15874.1
17715.5,15871.7
17706.4,15868.5
17697.7,15864.4
17689.4,15859.4
17681.7,15853.6
17674.5,15847.2
17668,15840
17662.3,15832.2
17657.3,15824
17653.2,15815.2
17649.9,15806.1
17647.6,15796.8
17646.1,15787.2
17645.7,15777.6
17645.7,15452.8
17646.1,15443.1
17647.6,15433.6
17649.9,15424.2
17653.2,15415.1
17657.3,15406.4
17662.3,15398.1
17668,15390.3
17674.5,15383.2
17681.7,15376.7
17689.4,15370.9
17697.7,15366
17706.4,15361.8
17715.5,15358.6
17724.9,15356.2
17734.4,15354.8
17744.1,15354.3
18255.9,15354.3
Z" /> 
</g>
<g >
</g>
<g >
</g>
<g >
</g>
</g> 
</svg>
