M48
; DRILL file {KiCad (5.1.7)-1} date 01/13/21 20:34:30
; FORMAT={-:-/ absolute / metric / decimal}
; #@! TF.CreationDate,2021-01-13T20:34:30+01:00
; #@! TF.GenerationSoftware,Kicad,Pcbnew,(5.1.7)-1
; #@! TF.FileFunction,Plated,1,2,PTH
FMAT,2
METRIC
T1C0.400
T2C1.000
T3C1.300
%
G90
G05
T1
X11.43Y-11.938
X11.43Y-12.954
X11.43Y-13.97
X12.446Y-11.938
X12.446Y-12.954
X12.446Y-13.97
X13.462Y-11.938
X13.462Y-12.954
X13.462Y-13.97
X14.478Y-48.514
X21.082Y-56.388
X24.892Y-55.118
X28.448Y-42.926
X29.21Y-67.31
X34.798Y-41.402
X34.798Y-64.389
X36.195Y-66.548
X37.338Y-56.134
X44.45Y-46.482
X45.72Y-34.29
X45.847Y-51.943
X48.006Y-39.116
X48.006Y-47.244
X49.276Y-43.18
X49.784Y-34.798
X51.816Y-46.736
X53.594Y-62.23
X53.848Y-53.34
X54.61Y-59.69
X54.864Y-42.926
X55.372Y-45.72
X55.626Y-57.15
X56.642Y-35.814
X57.15Y-62.23
X58.42Y-32.512
X62.865Y-56.007
X63.754Y-60.96
X64.008Y-12.954
X64.516Y-11.176
X64.516Y-14.478
X66.04Y-10.668
X66.04Y-14.986
X66.294Y-48.006
X67.564Y-11.176
X67.564Y-14.478
X67.818Y-60.872
X68.072Y-12.954
X73.152Y-50.165
T2
X68.0Y-37.0
X68.0Y-39.54
X68.0Y-42.08
X68.0Y-44.62
X70.54Y-37.0
X70.54Y-39.54
X70.54Y-42.08
X70.54Y-44.62
X17.0Y-14.0
X17.0Y-19.0
X46.4Y-8.8
X46.4Y-24.2
T3
X8.5Y-36.5
X8.5Y-41.5
X8.5Y-49.5
X8.5Y-54.5
X9.0Y-18.08
X9.0Y-23.16
X9.1Y-12.9
X65.9Y-23.1
X66.0Y-12.84
X66.0Y-17.92
T0
M30
