<?xml version="1.0" standalone="no"?>
 <!DOCTYPE svg PUBLIC "-//W3C//DTD SVG 1.1//EN" 
 "http://www.w3.org/Graphics/SVG/1.1/DTD/svg11.dtd"> 
<svg
  xmlns:svg="http://www.w3.org/2000/svg"
  xmlns="http://www.w3.org/2000/svg"
  xmlns:xlink="http://www.w3.org/1999/xlink"
  version="1.1"
  width="29.700220cm" height="21.000720cm" viewBox="0 0 116930 82680">
<title>SVG Picture created as HotPlateController-B_Cu.svg date 2021/02/21 19:33:28 </title>
  <desc>Picture generated by PCBNEW </desc>
<g style="fill:#000000; fill-opacity:1;stroke:#000000; stroke-opacity:1;
stroke-linecap:round; stroke-linejoin:round;"
 transform="translate(0 0) scale(1 1)">
</g>
<g style="fill:#000000; fill-opacity:0.0; 
stroke:#000000; stroke-width:-0.000393701; stroke-opacity:1; 
stroke-linecap:round; stroke-linejoin:round;">
<g >
</g>
<g >
</g>
<g >
</g>
<g >
</g>
<g >
</g>
<g >
</g>
<g style="fill:#000000; fill-opacity:0.0; 
stroke:#000000; stroke-width:-0.000393701; stroke-opacity:1; 
stroke-linecap:round; stroke-linejoin:round;">
</g>
<g style="fill:#000000; fill-opacity:0.0; 
stroke:#000000; stroke-width:0; stroke-opacity:1; 
stroke-linecap:round; stroke-linejoin:round;">
</g>
<g style="fill:#000000; fill-opacity:1.0; 
stroke:#000000; stroke-width:0; stroke-opacity:1; 
stroke-linecap:round; stroke-linejoin:round;">
<path style="fill:#000000; fill-opacity:1.0; 
stroke:#000000; stroke-width:0; stroke-opacity:1; 
stroke-linecap:round; stroke-linejoin:round;fill-rule:evenodd;"
d="M 3858.27,16850.4
2834.65,16850.4
2834.65,15826.8
3858.27,15826.8
Z" /> 
<circle cx="3346.46" cy="14370.1" r="511.811" /> 
</g>
<g style="fill:#000000; fill-opacity:1.0; 
stroke:#000000; stroke-width:39.3701; stroke-opacity:1; 
stroke-linecap:round; stroke-linejoin:round;">
</g>
<g >
</g>
<g style="fill:#000000; fill-opacity:1.0; 
stroke:#000000; stroke-width:39.3701; stroke-opacity:1; 
stroke-linecap:round; stroke-linejoin:round;">
</g>
<g style="fill:#000000; fill-opacity:1.0; 
stroke:#000000; stroke-width:0; stroke-opacity:1; 
stroke-linecap:round; stroke-linejoin:round;">
<path style="fill:#000000; fill-opacity:1.0; 
stroke:#000000; stroke-width:0; stroke-opacity:1; 
stroke-linecap:round; stroke-linejoin:round;fill-rule:evenodd;"
d="M 3858.27,21968.5
2834.65,21968.5
2834.65,20944.9
3858.27,20944.9
Z" /> 
<circle cx="3346.46" cy="19488.2" r="511.811" /> 
</g>
<g style="fill:#000000; fill-opacity:1.0; 
stroke:#000000; stroke-width:39.3701; stroke-opacity:1; 
stroke-linecap:round; stroke-linejoin:round;">
</g>
<g >
</g>
<g >
</g>
<g >
</g>
<g >
</g>
<g >
</g>
<g >
</g>
<g style="fill:#000000; fill-opacity:1.0; 
stroke:#000000; stroke-width:39.3701; stroke-opacity:1; 
stroke-linecap:round; stroke-linejoin:round;">
</g>
<g style="fill:#000000; fill-opacity:1.0; 
stroke:#000000; stroke-width:0; stroke-opacity:1; 
stroke-linecap:round; stroke-linejoin:round;">
<circle cx="18267.7" cy="9527.56" r="452.756" /> 
</g>
<g style="fill:#000000; fill-opacity:1.0; 
stroke:#000000; stroke-width:39.3701; stroke-opacity:1; 
stroke-linecap:round; stroke-linejoin:round;">
</g>
<g style="fill:#000000; fill-opacity:1.0; 
stroke:#000000; stroke-width:0; stroke-opacity:1; 
stroke-linecap:round; stroke-linejoin:round;">
<circle cx="6692.91" cy="7480.31" r="452.756" /> 
</g>
<g style="fill:#000000; fill-opacity:1.0; 
stroke:#000000; stroke-width:39.3701; stroke-opacity:1; 
stroke-linecap:round; stroke-linejoin:round;">
</g>
<g style="fill:#000000; fill-opacity:1.0; 
stroke:#000000; stroke-width:0; stroke-opacity:1; 
stroke-linecap:round; stroke-linejoin:round;">
<path style="fill:#000000; fill-opacity:1.0; 
stroke:#000000; stroke-width:0; stroke-opacity:1; 
stroke-linecap:round; stroke-linejoin:round;fill-rule:evenodd;"
d="M 6240.16,5905.51
6240.16,5118.11
7145.67,5118.11
7145.67,5905.51
Z" /> 
<circle cx="18267.7" cy="3464.57" r="452.756" /> 
</g>
<g style="fill:#000000; fill-opacity:1.0; 
stroke:#000000; stroke-width:39.3701; stroke-opacity:1; 
stroke-linecap:round; stroke-linejoin:round;">
</g>
<g >
</g>
<g >
</g>
<g >
</g>
<g >
</g>
<g >
</g>
<g style="fill:#000000; fill-opacity:1.0; 
stroke:#000000; stroke-width:39.3701; stroke-opacity:1; 
stroke-linecap:round; stroke-linejoin:round;">
</g>
<g style="fill:#000000; fill-opacity:1.0; 
stroke:#000000; stroke-width:0; stroke-opacity:1; 
stroke-linecap:round; stroke-linejoin:round;">
<circle cx="25984.3" cy="5055.12" r="590.551" /> 
</g>
<g style="fill:#000000; fill-opacity:1.0; 
stroke:#000000; stroke-width:39.3701; stroke-opacity:1; 
stroke-linecap:round; stroke-linejoin:round;">
</g>
<g style="fill:#000000; fill-opacity:1.0; 
stroke:#000000; stroke-width:0; stroke-opacity:1; 
stroke-linecap:round; stroke-linejoin:round;">
<circle cx="25984.3" cy="7055.12" r="590.551" /> 
</g>
<g style="fill:#000000; fill-opacity:1.0; 
stroke:#000000; stroke-width:39.3701; stroke-opacity:1; 
stroke-linecap:round; stroke-linejoin:round;">
</g>
<g style="fill:#000000; fill-opacity:1.0; 
stroke:#000000; stroke-width:0; stroke-opacity:1; 
stroke-linecap:round; stroke-linejoin:round;">
<circle cx="25944.9" cy="9094.49" r="590.551" /> 
</g>
<g style="fill:#000000; fill-opacity:1.0; 
stroke:#000000; stroke-width:39.3701; stroke-opacity:1; 
stroke-linecap:round; stroke-linejoin:round;">
</g>
<g >
</g>
<g style="fill:#000000; fill-opacity:1.0; 
stroke:#000000; stroke-width:39.3701; stroke-opacity:1; 
stroke-linecap:round; stroke-linejoin:round;">
</g>
<g style="fill:#000000; fill-opacity:1.0; 
stroke:#000000; stroke-width:0; stroke-opacity:1; 
stroke-linecap:round; stroke-linejoin:round;">
<circle cx="3543.31" cy="9118.11" r="590.551" /> 
</g>
<g style="fill:#000000; fill-opacity:1.0; 
stroke:#000000; stroke-width:39.3701; stroke-opacity:1; 
stroke-linecap:round; stroke-linejoin:round;">
</g>
<g style="fill:#000000; fill-opacity:1.0; 
stroke:#000000; stroke-width:0; stroke-opacity:1; 
stroke-linecap:round; stroke-linejoin:round;">
<circle cx="3543.31" cy="7118.11" r="590.551" /> 
</g>
<g style="fill:#000000; fill-opacity:1.0; 
stroke:#000000; stroke-width:39.3701; stroke-opacity:1; 
stroke-linecap:round; stroke-linejoin:round;">
</g>
<g style="fill:#000000; fill-opacity:1.0; 
stroke:#000000; stroke-width:0; stroke-opacity:1; 
stroke-linecap:round; stroke-linejoin:round;">
<circle cx="3582.68" cy="5078.74" r="590.551" /> 
</g>
<g style="fill:#000000; fill-opacity:1.0; 
stroke:#000000; stroke-width:39.3701; stroke-opacity:1; 
stroke-linecap:round; stroke-linejoin:round;">
</g>
<g >
</g>
<g >
</g>
<g >
</g>
<g >
</g>
<g >
</g>
<g >
</g>
<g >
</g>
<g >
</g>
<g >
</g>
<g >
</g>
<g >
</g>
<g >
</g>
<g >
</g>
<g >
</g>
<g >
</g>
<g >
</g>
<g >
</g>
<g >
</g>
<g >
</g>
<g >
</g>
<g >
</g>
<g >
</g>
<g >
</g>
<g >
</g>
<g style="fill:#000000; fill-opacity:1.0; 
stroke:#000000; stroke-width:39.3701; stroke-opacity:1; 
stroke-linecap:round; stroke-linejoin:round;">
</g>
<g style="fill:#000000; fill-opacity:1.0; 
stroke:#000000; stroke-width:0; stroke-opacity:1; 
stroke-linecap:round; stroke-linejoin:round;">
<circle cx="27771.7" cy="17566.9" r="334.646" /> 
<circle cx="26771.7" cy="17566.9" r="334.646" /> 
<circle cx="27771.7" cy="16566.9" r="334.646" /> 
<circle cx="26771.7" cy="16566.9" r="334.646" /> 
<circle cx="27771.7" cy="15566.9" r="334.646" /> 
<circle cx="26771.7" cy="15566.9" r="334.646" /> 
<circle cx="27771.7" cy="14566.9" r="334.646" /> 
<path style="fill:#000000; fill-opacity:1.0; 
stroke:#000000; stroke-width:0; stroke-opacity:1; 
stroke-linecap:round; stroke-linejoin:round;fill-rule:evenodd;"
d="M 26437,14901.6
26437,14232.3
27106.3,14232.3
27106.3,14901.6
Z" /> 
</g>
<g >
</g>
<g >
</g>
<g >
</g>
<g style="fill:#000000; fill-opacity:1.0; 
stroke:#000000; stroke-width:0; stroke-opacity:1; 
stroke-linecap:round; stroke-linejoin:round;">
<circle cx="18900" cy="15400" r="157.48" /> 
</g>
<g style="fill:#000000; fill-opacity:1.0; 
stroke:#000000; stroke-width:39.3701; stroke-opacity:1; 
stroke-linecap:round; stroke-linejoin:round;">
</g>
<g style="fill:#000000; fill-opacity:1.0; 
stroke:#000000; stroke-width:0; stroke-opacity:1; 
stroke-linecap:round; stroke-linejoin:round;">
<circle cx="23000" cy="12800" r="157.48" /> 
</g>
<g style="fill:#000000; fill-opacity:1.0; 
stroke:#000000; stroke-width:39.3701; stroke-opacity:1; 
stroke-linecap:round; stroke-linejoin:round;">
</g>
<g style="fill:#000000; fill-opacity:1.0; 
stroke:#000000; stroke-width:0; stroke-opacity:1; 
stroke-linecap:round; stroke-linejoin:round;">
<circle cx="22300" cy="14100" r="157.48" /> 
</g>
<g style="fill:#000000; fill-opacity:1.0; 
stroke:#000000; stroke-width:39.3701; stroke-opacity:1; 
stroke-linecap:round; stroke-linejoin:round;">
</g>
<g style="fill:#000000; fill-opacity:1.0; 
stroke:#000000; stroke-width:0; stroke-opacity:1; 
stroke-linecap:round; stroke-linejoin:round;">
<circle cx="19600" cy="13700" r="157.48" /> 
</g>
<g style="fill:#000000; fill-opacity:1.0; 
stroke:#000000; stroke-width:39.3701; stroke-opacity:1; 
stroke-linecap:round; stroke-linejoin:round;">
</g>
<g style="fill:#000000; fill-opacity:1.0; 
stroke:#000000; stroke-width:0; stroke-opacity:1; 
stroke-linecap:round; stroke-linejoin:round;">
<circle cx="18000" cy="13500" r="157.48" /> 
</g>
<g style="fill:#000000; fill-opacity:1.0; 
stroke:#000000; stroke-width:39.3701; stroke-opacity:1; 
stroke-linecap:round; stroke-linejoin:round;">
</g>
<g style="fill:#000000; fill-opacity:1.0; 
stroke:#000000; stroke-width:0; stroke-opacity:1; 
stroke-linecap:round; stroke-linejoin:round;">
<circle cx="13700" cy="16300" r="157.48" /> 
</g>
<g style="fill:#000000; fill-opacity:1.0; 
stroke:#000000; stroke-width:39.3701; stroke-opacity:1; 
stroke-linecap:round; stroke-linejoin:round;">
</g>
<g style="fill:#000000; fill-opacity:1.0; 
stroke:#000000; stroke-width:0; stroke-opacity:1; 
stroke-linecap:round; stroke-linejoin:round;">
<circle cx="9350.39" cy="23129.9" r="157.48" /> 
</g>
<g style="fill:#000000; fill-opacity:1.0; 
stroke:#000000; stroke-width:39.3701; stroke-opacity:1; 
stroke-linecap:round; stroke-linejoin:round;">
</g>
<g style="fill:#000000; fill-opacity:1.0; 
stroke:#000000; stroke-width:0; stroke-opacity:1; 
stroke-linecap:round; stroke-linejoin:round;">
<circle cx="7677.17" cy="19100" r="157.48" /> 
</g>
<g style="fill:#000000; fill-opacity:1.0; 
stroke:#000000; stroke-width:39.3701; stroke-opacity:1; 
stroke-linecap:round; stroke-linejoin:round;">
</g>
<g style="fill:#000000; fill-opacity:1.0; 
stroke:#000000; stroke-width:0; stroke-opacity:1; 
stroke-linecap:round; stroke-linejoin:round;">
<circle cx="11500" cy="26500" r="157.48" /> 
</g>
<g style="fill:#000000; fill-opacity:1.0; 
stroke:#000000; stroke-width:39.3701; stroke-opacity:1; 
stroke-linecap:round; stroke-linejoin:round;">
</g>
<g style="fill:#000000; fill-opacity:1.0; 
stroke:#000000; stroke-width:0; stroke-opacity:1; 
stroke-linecap:round; stroke-linejoin:round;">
<circle cx="21100" cy="24500" r="157.48" /> 
</g>
<g style="fill:#000000; fill-opacity:1.0; 
stroke:#000000; stroke-width:39.3701; stroke-opacity:1; 
stroke-linecap:round; stroke-linejoin:round;">
</g>
<g style="fill:#000000; fill-opacity:1.0; 
stroke:#000000; stroke-width:0; stroke-opacity:1; 
stroke-linecap:round; stroke-linejoin:round;">
<circle cx="26100" cy="18900" r="157.48" /> 
</g>
<g style="fill:#000000; fill-opacity:1.0; 
stroke:#000000; stroke-width:39.3701; stroke-opacity:1; 
stroke-linecap:round; stroke-linejoin:round;">
</g>
<g style="fill:#000000; fill-opacity:1.0; 
stroke:#000000; stroke-width:0; stroke-opacity:1; 
stroke-linecap:round; stroke-linejoin:round;">
<circle cx="23212.6" cy="21063" r="157.48" /> 
</g>
<g style="fill:#000000; fill-opacity:1.0; 
stroke:#000000; stroke-width:39.3701; stroke-opacity:1; 
stroke-linecap:round; stroke-linejoin:round;">
</g>
<g style="fill:#000000; fill-opacity:1.0; 
stroke:#000000; stroke-width:0; stroke-opacity:1; 
stroke-linecap:round; stroke-linejoin:round;">
<circle cx="21900" cy="22500" r="157.48" /> 
</g>
<g style="fill:#000000; fill-opacity:1.0; 
stroke:#000000; stroke-width:39.3701; stroke-opacity:1; 
stroke-linecap:round; stroke-linejoin:round;">
</g>
<g style="fill:#000000; fill-opacity:1.0; 
stroke:#000000; stroke-width:0; stroke-opacity:1; 
stroke-linecap:round; stroke-linejoin:round;">
<circle cx="18602.4" cy="19389.8" r="157.48" /> 
</g>
<g style="fill:#000000; fill-opacity:1.0; 
stroke:#000000; stroke-width:39.3701; stroke-opacity:1; 
stroke-linecap:round; stroke-linejoin:round;">
</g>
<g style="fill:#000000; fill-opacity:1.0; 
stroke:#000000; stroke-width:0; stroke-opacity:1; 
stroke-linecap:round; stroke-linejoin:round;">
<circle cx="22500" cy="24500" r="157.48" /> 
</g>
<g style="fill:#000000; fill-opacity:1.0; 
stroke:#000000; stroke-width:39.3701; stroke-opacity:1; 
stroke-linecap:round; stroke-linejoin:round;">
</g>
<g style="fill:#000000; fill-opacity:1.0; 
stroke:#000000; stroke-width:0; stroke-opacity:1; 
stroke-linecap:round; stroke-linejoin:round;">
<circle cx="21500" cy="23500" r="157.48" /> 
</g>
<g style="fill:#000000; fill-opacity:1.0; 
stroke:#000000; stroke-width:39.3701; stroke-opacity:1; 
stroke-linecap:round; stroke-linejoin:round;">
</g>
<g style="fill:#000000; fill-opacity:1.0; 
stroke:#000000; stroke-width:0; stroke-opacity:1; 
stroke-linecap:round; stroke-linejoin:round;">
<circle cx="12106.3" cy="14074.8" r="157.48" /> 
</g>
<g style="fill:#000000; fill-opacity:1.0; 
stroke:#000000; stroke-width:39.3701; stroke-opacity:1; 
stroke-linecap:round; stroke-linejoin:round;">
</g>
<g style="fill:#000000; fill-opacity:1.0; 
stroke:#000000; stroke-width:0; stroke-opacity:1; 
stroke-linecap:round; stroke-linejoin:round;">
<circle cx="9350.39" cy="21948.8" r="157.48" /> 
</g>
<g style="fill:#000000; fill-opacity:1.0; 
stroke:#000000; stroke-width:39.3701; stroke-opacity:1; 
stroke-linecap:round; stroke-linejoin:round;">
</g>
<g style="fill:#000000; fill-opacity:1.0; 
stroke:#000000; stroke-width:0; stroke-opacity:1; 
stroke-linecap:round; stroke-linejoin:round;">
<circle cx="21600" cy="16900" r="157.48" /> 
</g>
<g style="fill:#000000; fill-opacity:1.0; 
stroke:#000000; stroke-width:39.3701; stroke-opacity:1; 
stroke-linecap:round; stroke-linejoin:round;">
</g>
<g style="fill:#000000; fill-opacity:1.0; 
stroke:#000000; stroke-width:0; stroke-opacity:1; 
stroke-linecap:round; stroke-linejoin:round;">
<circle cx="19488.2" cy="18799.2" r="157.48" /> 
</g>
<g style="fill:#000000; fill-opacity:1.0; 
stroke:#000000; stroke-width:39.3701; stroke-opacity:1; 
stroke-linecap:round; stroke-linejoin:round;">
</g>
<g style="fill:#000000; fill-opacity:1.0; 
stroke:#000000; stroke-width:0; stroke-opacity:1; 
stroke-linecap:round; stroke-linejoin:round;">
<circle cx="18900" cy="18600" r="157.48" /> 
</g>
<g style="fill:#000000; fill-opacity:1.0; 
stroke:#000000; stroke-width:39.3701; stroke-opacity:1; 
stroke-linecap:round; stroke-linejoin:round;">
</g>
<g style="fill:#000000; fill-opacity:1.0; 
stroke:#000000; stroke-width:0; stroke-opacity:1; 
stroke-linecap:round; stroke-linejoin:round;">
<circle cx="18996.1" cy="16929.1" r="157.48" /> 
</g>
<g style="fill:#000000; fill-opacity:1.0; 
stroke:#000000; stroke-width:39.3701; stroke-opacity:1; 
stroke-linecap:round; stroke-linejoin:round;">
</g>
<g style="fill:#000000; fill-opacity:1.0; 
stroke:#000000; stroke-width:0; stroke-opacity:1; 
stroke-linecap:round; stroke-linejoin:round;">
<circle cx="21800" cy="18000" r="157.48" /> 
</g>
<g style="fill:#000000; fill-opacity:1.0; 
stroke:#000000; stroke-width:39.3701; stroke-opacity:1; 
stroke-linecap:round; stroke-linejoin:round;">
</g>
<g style="fill:#000000; fill-opacity:1.0; 
stroke:#000000; stroke-width:0; stroke-opacity:1; 
stroke-linecap:round; stroke-linejoin:round;">
<circle cx="20400" cy="18400" r="157.48" /> 
</g>
<g style="fill:#000000; fill-opacity:1.0; 
stroke:#000000; stroke-width:39.3701; stroke-opacity:1; 
stroke-linecap:round; stroke-linejoin:round;">
</g>
<g style="fill:#000000; fill-opacity:1.0; 
stroke:#000000; stroke-width:0; stroke-opacity:1; 
stroke-linecap:round; stroke-linejoin:round;">
<circle cx="25800" cy="12100" r="157.48" /> 
</g>
<g style="fill:#000000; fill-opacity:1.0; 
stroke:#000000; stroke-width:39.3701; stroke-opacity:1; 
stroke-linecap:round; stroke-linejoin:round;">
</g>
<g style="fill:#000000; fill-opacity:1.0; 
stroke:#000000; stroke-width:0; stroke-opacity:1; 
stroke-linecap:round; stroke-linejoin:round;">
<circle cx="26000" cy="15500" r="157.48" /> 
</g>
<g style="fill:#000000; fill-opacity:1.0; 
stroke:#000000; stroke-width:39.3701; stroke-opacity:1; 
stroke-linecap:round; stroke-linejoin:round;">
</g>
<g style="fill:#000000; fill-opacity:1.0; 
stroke:#000000; stroke-width:0; stroke-opacity:1; 
stroke-linecap:round; stroke-linejoin:round;">
<circle cx="5300" cy="5500" r="157.48" /> 
</g>
<g style="fill:#000000; fill-opacity:1.0; 
stroke:#000000; stroke-width:39.3701; stroke-opacity:1; 
stroke-linecap:round; stroke-linejoin:round;">
</g>
<g style="fill:#000000; fill-opacity:1.0; 
stroke:#000000; stroke-width:0; stroke-opacity:1; 
stroke-linecap:round; stroke-linejoin:round;">
<circle cx="4900" cy="5500" r="157.48" /> 
</g>
<g style="fill:#000000; fill-opacity:1.0; 
stroke:#000000; stroke-width:39.3701; stroke-opacity:1; 
stroke-linecap:round; stroke-linejoin:round;">
</g>
<g style="fill:#000000; fill-opacity:1.0; 
stroke:#000000; stroke-width:0; stroke-opacity:1; 
stroke-linecap:round; stroke-linejoin:round;">
<circle cx="4500" cy="5500" r="157.48" /> 
</g>
<g style="fill:#000000; fill-opacity:1.0; 
stroke:#000000; stroke-width:39.3701; stroke-opacity:1; 
stroke-linecap:round; stroke-linejoin:round;">
</g>
<g style="fill:#000000; fill-opacity:1.0; 
stroke:#000000; stroke-width:0; stroke-opacity:1; 
stroke-linecap:round; stroke-linejoin:round;">
<circle cx="5300" cy="5100" r="157.48" /> 
</g>
<g style="fill:#000000; fill-opacity:1.0; 
stroke:#000000; stroke-width:39.3701; stroke-opacity:1; 
stroke-linecap:round; stroke-linejoin:round;">
</g>
<g style="fill:#000000; fill-opacity:1.0; 
stroke:#000000; stroke-width:0; stroke-opacity:1; 
stroke-linecap:round; stroke-linejoin:round;">
<circle cx="4900" cy="5100" r="157.48" /> 
</g>
<g style="fill:#000000; fill-opacity:1.0; 
stroke:#000000; stroke-width:39.3701; stroke-opacity:1; 
stroke-linecap:round; stroke-linejoin:round;">
</g>
<g style="fill:#000000; fill-opacity:1.0; 
stroke:#000000; stroke-width:0; stroke-opacity:1; 
stroke-linecap:round; stroke-linejoin:round;">
<circle cx="4500" cy="5100" r="157.48" /> 
</g>
<g style="fill:#000000; fill-opacity:1.0; 
stroke:#000000; stroke-width:39.3701; stroke-opacity:1; 
stroke-linecap:round; stroke-linejoin:round;">
</g>
<g style="fill:#000000; fill-opacity:1.0; 
stroke:#000000; stroke-width:0; stroke-opacity:1; 
stroke-linecap:round; stroke-linejoin:round;">
<circle cx="5300" cy="4700" r="157.48" /> 
</g>
<g style="fill:#000000; fill-opacity:1.0; 
stroke:#000000; stroke-width:39.3701; stroke-opacity:1; 
stroke-linecap:round; stroke-linejoin:round;">
</g>
<g style="fill:#000000; fill-opacity:1.0; 
stroke:#000000; stroke-width:0; stroke-opacity:1; 
stroke-linecap:round; stroke-linejoin:round;">
<circle cx="4900" cy="4700" r="157.48" /> 
</g>
<g style="fill:#000000; fill-opacity:1.0; 
stroke:#000000; stroke-width:39.3701; stroke-opacity:1; 
stroke-linecap:round; stroke-linejoin:round;">
</g>
<g style="fill:#000000; fill-opacity:1.0; 
stroke:#000000; stroke-width:0; stroke-opacity:1; 
stroke-linecap:round; stroke-linejoin:round;">
<circle cx="4500" cy="4700" r="157.48" /> 
</g>
<g style="fill:#000000; fill-opacity:1.0; 
stroke:#000000; stroke-width:39.3701; stroke-opacity:1; 
stroke-linecap:round; stroke-linejoin:round;">
</g>
<g style="fill:#000000; fill-opacity:1.0; 
stroke:#000000; stroke-width:0; stroke-opacity:1; 
stroke-linecap:round; stroke-linejoin:round;">
<circle cx="26000" cy="4200" r="157.48" /> 
</g>
<g style="fill:#000000; fill-opacity:1.0; 
stroke:#000000; stroke-width:39.3701; stroke-opacity:1; 
stroke-linecap:round; stroke-linejoin:round;">
</g>
<g style="fill:#000000; fill-opacity:1.0; 
stroke:#000000; stroke-width:0; stroke-opacity:1; 
stroke-linecap:round; stroke-linejoin:round;">
<circle cx="26800" cy="5100" r="157.48" /> 
</g>
<g style="fill:#000000; fill-opacity:1.0; 
stroke:#000000; stroke-width:39.3701; stroke-opacity:1; 
stroke-linecap:round; stroke-linejoin:round;">
</g>
<g style="fill:#000000; fill-opacity:1.0; 
stroke:#000000; stroke-width:0; stroke-opacity:1; 
stroke-linecap:round; stroke-linejoin:round;">
<circle cx="26000" cy="5900" r="157.48" /> 
</g>
<g style="fill:#000000; fill-opacity:1.0; 
stroke:#000000; stroke-width:39.3701; stroke-opacity:1; 
stroke-linecap:round; stroke-linejoin:round;">
</g>
<g style="fill:#000000; fill-opacity:1.0; 
stroke:#000000; stroke-width:0; stroke-opacity:1; 
stroke-linecap:round; stroke-linejoin:round;">
<circle cx="25200" cy="5100" r="157.48" /> 
</g>
<g style="fill:#000000; fill-opacity:1.0; 
stroke:#000000; stroke-width:39.3701; stroke-opacity:1; 
stroke-linecap:round; stroke-linejoin:round;">
</g>
<g style="fill:#000000; fill-opacity:1.0; 
stroke:#000000; stroke-width:0; stroke-opacity:1; 
stroke-linecap:round; stroke-linejoin:round;">
<circle cx="25400" cy="4400" r="157.48" /> 
</g>
<g style="fill:#000000; fill-opacity:1.0; 
stroke:#000000; stroke-width:39.3701; stroke-opacity:1; 
stroke-linecap:round; stroke-linejoin:round;">
</g>
<g style="fill:#000000; fill-opacity:1.0; 
stroke:#000000; stroke-width:0; stroke-opacity:1; 
stroke-linecap:round; stroke-linejoin:round;">
<circle cx="26600" cy="4400" r="157.48" /> 
</g>
<g style="fill:#000000; fill-opacity:1.0; 
stroke:#000000; stroke-width:39.3701; stroke-opacity:1; 
stroke-linecap:round; stroke-linejoin:round;">
</g>
<g style="fill:#000000; fill-opacity:1.0; 
stroke:#000000; stroke-width:0; stroke-opacity:1; 
stroke-linecap:round; stroke-linejoin:round;">
<circle cx="26600" cy="5700" r="157.48" /> 
</g>
<g style="fill:#000000; fill-opacity:1.0; 
stroke:#000000; stroke-width:39.3701; stroke-opacity:1; 
stroke-linecap:round; stroke-linejoin:round;">
</g>
<g style="fill:#000000; fill-opacity:1.0; 
stroke:#000000; stroke-width:0; stroke-opacity:1; 
stroke-linecap:round; stroke-linejoin:round;">
<circle cx="25400" cy="5700" r="157.48" /> 
</g>
<g style="fill:#000000; fill-opacity:1.0; 
stroke:#000000; stroke-width:39.3701; stroke-opacity:1; 
stroke-linecap:round; stroke-linejoin:round;">
</g>
<g style="fill:#000000; fill-opacity:1.0; 
stroke:#000000; stroke-width:0; stroke-opacity:1; 
stroke-linecap:round; stroke-linejoin:round;">
<circle cx="28800" cy="19750" r="157.48" /> 
</g>
<g style="fill:#000000; fill-opacity:1.0; 
stroke:#000000; stroke-width:39.3701; stroke-opacity:1; 
stroke-linecap:round; stroke-linejoin:round;">
</g>
<g style="fill:#000000; fill-opacity:1.0; 
stroke:#000000; stroke-width:0; stroke-opacity:1; 
stroke-linecap:round; stroke-linejoin:round;">
<circle cx="24750" cy="22050" r="157.48" /> 
</g>
<g style="fill:#000000; fill-opacity:1.0; 
stroke:#000000; stroke-width:39.3701; stroke-opacity:1; 
stroke-linecap:round; stroke-linejoin:round;">
</g>
<g style="fill:#000000; fill-opacity:1.0; 
stroke:#000000; stroke-width:0; stroke-opacity:1; 
stroke-linecap:round; stroke-linejoin:round;">
<circle cx="11417.3" cy="19685" r="157.48" /> 
</g>
<g style="fill:#000000; fill-opacity:1.0; 
stroke:#000000; stroke-width:39.3701; stroke-opacity:1; 
stroke-linecap:round; stroke-linejoin:round;">
</g>
<g style="fill:#000000; fill-opacity:1.0; 
stroke:#000000; stroke-width:0; stroke-opacity:1; 
stroke-linecap:round; stroke-linejoin:round;">
<circle cx="13700" cy="25350" r="157.48" /> 
</g>
<g style="fill:#000000; fill-opacity:1.0; 
stroke:#000000; stroke-width:39.3701; stroke-opacity:1; 
stroke-linecap:round; stroke-linejoin:round;">
</g>
<g style="fill:#000000; fill-opacity:1.0; 
stroke:#000000; stroke-width:0; stroke-opacity:1; 
stroke-linecap:round; stroke-linejoin:round;">
<circle cx="14250" cy="26200" r="157.48" /> 
</g>
<g style="fill:#000000; fill-opacity:1.0; 
stroke:#000000; stroke-width:39.3701; stroke-opacity:1; 
stroke-linecap:round; stroke-linejoin:round;">
</g>
<g style="fill:#000000; fill-opacity:1.0; 
stroke:#000000; stroke-width:0; stroke-opacity:1; 
stroke-linecap:round; stroke-linejoin:round;">
<circle cx="10236.2" cy="21948.8" r="157.48" /> 
</g>
<g style="fill:#000000; fill-opacity:1.0; 
stroke:#000000; stroke-width:39.3701; stroke-opacity:1; 
stroke-linecap:round; stroke-linejoin:round;">
</g>
<g style="fill:#000000; fill-opacity:1.0; 
stroke:#000000; stroke-width:0; stroke-opacity:1; 
stroke-linecap:round; stroke-linejoin:round;">
<circle cx="13582.7" cy="21948.8" r="157.48" /> 
</g>
<g style="fill:#000000; fill-opacity:1.0; 
stroke:#000000; stroke-width:39.3701; stroke-opacity:1; 
stroke-linecap:round; stroke-linejoin:round;">
</g>
<g style="fill:#000000; fill-opacity:1.0; 
stroke:#000000; stroke-width:0; stroke-opacity:1; 
stroke-linecap:round; stroke-linejoin:round;">
<circle cx="25100" cy="24000" r="157.48" /> 
</g>
<g style="fill:#000000; fill-opacity:1.0; 
stroke:#000000; stroke-width:39.3701; stroke-opacity:1; 
stroke-linecap:round; stroke-linejoin:round;">
</g>
<g style="fill:#000000; fill-opacity:1.0; 
stroke:#000000; stroke-width:0; stroke-opacity:1; 
stroke-linecap:round; stroke-linejoin:round;">
<circle cx="26700" cy="23965.4" r="157.48" /> 
</g>
<g style="fill:#000000; fill-opacity:1.0; 
stroke:#000000; stroke-width:39.3701; stroke-opacity:1; 
stroke-linecap:round; stroke-linejoin:round;">
</g>
<g style="fill:#000000; fill-opacity:1.0; 
stroke:#000000; stroke-width:0; stroke-opacity:1; 
stroke-linecap:round; stroke-linejoin:round;">
<circle cx="24000" cy="16850" r="157.48" /> 
</g>
<g style="fill:#000000; fill-opacity:1.0; 
stroke:#000000; stroke-width:39.3701; stroke-opacity:1; 
stroke-linecap:round; stroke-linejoin:round;">
</g>
<g style="fill:#000000; fill-opacity:1.0; 
stroke:#000000; stroke-width:0; stroke-opacity:1; 
stroke-linecap:round; stroke-linejoin:round;">
<circle cx="24500" cy="19150" r="157.48" /> 
</g>
<g style="fill:#000000; fill-opacity:1.0; 
stroke:#000000; stroke-width:39.3701; stroke-opacity:1; 
stroke-linecap:round; stroke-linejoin:round;">
</g>
<g style="fill:#000000; fill-opacity:1.0; 
stroke:#000000; stroke-width:0; stroke-opacity:1; 
stroke-linecap:round; stroke-linejoin:round;">
<circle cx="20900" cy="22800" r="157.48" /> 
</g>
<g style="fill:#000000; fill-opacity:1.0; 
stroke:#000000; stroke-width:39.3701; stroke-opacity:1; 
stroke-linecap:round; stroke-linejoin:round;">
</g>
<g >
</g>
<g style="fill:#000000; fill-opacity:1.0; 
stroke:#000000; stroke-width:39.3701; stroke-opacity:1; 
stroke-linecap:round; stroke-linejoin:round;">
</g>
<g style="fill:#000000; fill-opacity:1.0; 
stroke:#000000; stroke-width:1181.1; stroke-opacity:1; 
stroke-linecap:round; stroke-linejoin:round;">
</g>
<g style="fill:#000000; fill-opacity:0.0; 
stroke:#000000; stroke-width:1181.1; stroke-opacity:1; 
stroke-linecap:round; stroke-linejoin:round;">
<path d="M14381 9118
L3543 9118
" />
<path d="M15800 7700
L14381 9118
" />
<path d="M19400 7700
L15800 7700
" />
<path d="M20800 9100
L19400 7700
" />
<path d="M25939 9100
L20800 9100
" />
<path d="M25944 9094
L25939 9100
" />
</g>
<g style="fill:#000000; fill-opacity:0.0; 
stroke:#000000; stroke-width:196.85; stroke-opacity:1; 
stroke-linecap:round; stroke-linejoin:round;">
<path d="M18900 15400
L23372 15400
" />
<path d="M25539 17566
L26771 17566
" />
<path d="M23372 15400
L25539 17566
" />
<path d="M22500 24500
L21500 23500
" />
</g>
<g style="fill:#000000; fill-opacity:0.0; 
stroke:#000000; stroke-width:295.276; stroke-opacity:1; 
stroke-linecap:round; stroke-linejoin:round;">
<path d="M12106 14074
L9350 16830
" />
<path d="M9350 16830
L9350 21948
" />
</g>
<g style="fill:#000000; fill-opacity:0.0; 
stroke:#000000; stroke-width:196.85; stroke-opacity:1; 
stroke-linecap:round; stroke-linejoin:round;">
<path d="M19488 18799
L19488 18011
" />
<path d="M20600 16900
L21600 16900
" />
<path d="M19488 18011
L20600 16900
" />
<path d="M18996 16929
L18996 17421
" />
<path d="M18900 17517
L18900 18600
" />
<path d="M18996 17421
L18900 17517
" />
<path d="M21800 18000
L21100 18000
" />
<path d="M21100 18000
L20800 18000
" />
<path d="M20800 18000
L20400 18400
" />
</g>
<g style="fill:#000000; fill-opacity:0.0; 
stroke:#000000; stroke-width:98.4252; stroke-opacity:1; 
stroke-linecap:round; stroke-linejoin:round;">
<path d="M25800 15300
L26000 15500
" />
<path d="M25800 12100
L25800 15300
" />
</g>
<g style="fill:#000000; fill-opacity:0.0; 
stroke:#000000; stroke-width:1181.1; stroke-opacity:1; 
stroke-linecap:round; stroke-linejoin:round;">
<path d="M6259 5078
L6692 5511
" />
<path d="M3582 5078
L6259 5078
" />
<path d="M12119 7480
L6692 7480
" />
<path d="M14100 5500
L12119 7480
" />
<path d="M22400 5500
L14100 5500
" />
<path d="M23955 7055
L22400 5500
" />
<path d="M25984 7055
L23955 7055
" />
<path d="M3905 7480
L6692 7480
" />
<path d="M3543 7118
L3905 7480
" />
</g>
<g style="fill:#000000; fill-opacity:0.0; 
stroke:#000000; stroke-width:196.85; stroke-opacity:1; 
stroke-linecap:round; stroke-linejoin:round;">
<path d="M28800 19750
L28800 15950
" />
<path d="M28416 15566
L28800 15950
" />
<path d="M27771 15566
L28416 15566
" />
<path d="M12182 20450
L11417 19685
" />
<path d="M23150 20450
L12182 20450
" />
<path d="M24750 22050
L23150 20450
" />
<path d="M13700 25350
L13950 25600
" />
<path d="M13950 25600
L26650 25600
" />
<path d="M27771 24478
L27771 17566
" />
<path d="M26650 25600
L27771 24478
" />
<path d="M14268 26181
L14250 26200
" />
<path d="M28400 24946
L27165 26181
" />
<path d="M28400 16800
L28400 24946
" />
<path d="M27165 26181
L14268 26181
" />
<path d="M28166 16566
L28400 16800
" />
<path d="M27771 16566
L28166 16566
" />
<path d="M10236 21948
L13582 21948
" />
<path d="M25100 24000
L26700 24000
" />
<path d="M26700 24000
L26700 23965
" />
</g>
<g style="fill:#000000; fill-opacity:0.0; 
stroke:#000000; stroke-width:98.4252; stroke-opacity:1; 
stroke-linecap:round; stroke-linejoin:round;">
<path d="M24500 17350
L24500 19150
" />
<path d="M24000 16850
L24500 17350
" />
<path d="M21222 22800
L21422 23000
" />
<path d="M20900 22800
L21222 22800
" />
<path d="M21422 23000
L25000 23000
" />
<path d="M25000 23000
L25300 22700
" />
<path d="M25300 19950
L24500 19150
" />
<path d="M25300 22700
L25300 19950
" />
</g>
<g >
</g>
<g style="fill:#000000; fill-opacity:0.0; 
stroke:#000000; stroke-width:98.4252; stroke-opacity:1; 
stroke-linecap:round; stroke-linejoin:round;">
<g >
</g>
<g style="fill:#000000; fill-opacity:1.0; 
stroke:#000000; stroke-width:78.7402; stroke-opacity:1; 
stroke-linecap:round; stroke-linejoin:round;">
<path style="fill:#000000; fill-opacity:1.0; 
stroke:#000000; stroke-width:78.7402; stroke-opacity:1; 
stroke-linecap:round; stroke-linejoin:round;fill-rule:evenodd;"
d="M 26960.6,4516.31
26960.6,5583.69
26483.7,6060.63
25516.3,6060.63
25039.4,5583.69
25039.4,4516.31
25516.3,4039.37
26483.7,4039.37
Z" /> 
</g>
</g>
<g style="fill:#000000; fill-opacity:1.0; 
stroke:#000000; stroke-width:78.7402; stroke-opacity:1; 
stroke-linecap:round; stroke-linejoin:round;">
<g >
<path style="fill:#000000; fill-opacity:1.0; 
stroke:#000000; stroke-width:78.7402; stroke-opacity:1; 
stroke-linecap:round; stroke-linejoin:round;fill-rule:evenodd;"
d="M 29399.6,28293.5
28293.5,29399.6
24462.4,29399.6
22548.2,27485.4
26811,27485.4
26811,27632.7
26839.8,27777.2
26896.2,27913.4
26978,28035.9
27082.2,28140.1
27204.7,28222
27340.9,28278.3
27485.4,28307.1
27632.7,28307.1
27777.2,28278.3
27913.4,28222
28035.9,28140.1
28140.1,28035.9
28222,27913.4
28278.3,27777.2
28307.1,27632.7
28307.1,27485.4
28278.3,27340.9
28222,27204.7
28140.1,27082.2
28035.9,26978
27913.4,26896.2
27777.2,26839.8
27632.7,26811
27485.4,26811
27340.9,26839.8
27204.7,26896.2
27082.2,26978
26978,27082.2
26896.2,27204.7
26839.8,27340.9
26811,27485.4
22548.2,27485.4
22142.2,27079.3
22138.2,27074.4
22118.7,27058.5
22096.4,27046.6
22072.3,27039.3
22053.5,27037.4
22053.5,27037.4
22047.2,27036.8
22041,27037.4
7486.6,27037.4
7480.31,27036.8
7474.03,27037.4
7474.03,27037.4
7455.23,27039.3
7431.11,27046.6
7408.88,27058.5
7400.67,27065.2
7394.28,27070.4
7394.28,27070.4
7389.4,27074.4
7385.4,27079.3
7000.58,27464.1
7000.58,27464.1
5065.11,29399.6
1234.1,29399.6
127.953,28293.5
127.953,27485.4
1220.47,27485.4
1220.47,27632.7
1249.22,27777.2
1305.61,27913.4
1387.47,28035.9
1491.66,28140.1
1614.18,28222
1750.31,28278.3
1894.83,28307.1
2042.18,28307.1
2186.7,28278.3
2322.83,28222
2445.35,28140.1
2549.54,28035.9
2631.4,27913.4
2687.79,27777.2
2716.54,27632.7
2716.54,27485.4
2687.79,27340.9
2631.4,27204.7
2549.54,27082.2
2445.35,26978
2322.83,26896.2
2186.7,26839.8
2042.18,26811
1894.83,26811
1750.31,26839.8
1614.18,26896.2
1491.66,26978
1387.47,27082.2
1305.61,27204.7
1249.22,27340.9
1220.47,27485.4
127.953,27485.4
127.953,25322.9
13424.4,25322.9
13424.4,25377.1
13435,25430.4
13455.8,25480.5
13485.9,25525.7
13524.3,25564.1
13569.5,25594.2
13619.6,25615
13668.5,25624.7
13789.4,25745.6
13796.1,25753.9
13829.1,25780.9
13866.7,25801
13907.6,25813.4
13939.4,25816.5
13939.4,25816.5
13950,25817.6
13960.6,25816.5
26639.4,25816.5
26650,25817.6
26660.6,25816.5
26660.6,25816.5
26692.4,25813.4
26733.3,25801
26770.9,25780.9
26803.9,25753.9
26810.6,25745.6
27917.2,24639
27925.5,24632.2
27932.3,24623.9
27932.3,24623.9
27952.6,24599.2
27952.6,24599.2
27972.7,24561.6
27985.1,24520.8
27988.2,24489
27988.2,24489
27989.2,24478.3
27988.2,24467.7
27988.2,17966.8
28060.3,17918.6
28123.3,17855.5
28172.9,17781.4
28183.5,17755.8
28183.5,24856.8
27075.7,25964.6
14393.7,25964.6
14380.5,25955.8
14330.4,25935
14277.1,25924.4
14222.9,25924.4
14169.6,25935
14119.5,25955.8
14074.3,25985.9
14035.9,26024.3
14005.8,26069.5
13985,26119.6
13974.4,26172.9
13974.4,26227.1
13985,26280.4
14005.8,26330.5
14035.9,26375.7
14074.3,26414.1
14119.5,26444.2
14169.6,26465
14222.9,26475.6
14277.1,26475.6
14330.4,26465
14380.5,26444.2
14425.7,26414.1
14442.1,26397.6
27154.7,26397.6
27165.4,26398.7
27176,26397.6
27176,26397.6
27207.8,26394.5
27248.6,26382.1
27286.2,26362
27319.2,26335
27326,26326.7
28545.6,25107.1
28553.9,25100.3
28580.9,25067.3
28601,25029.7
28613.4,24988.9
28616.5,24957.1
28616.5,24957.1
28617.6,24946.5
28616.5,24935.8
28616.5,19956.3
28624.3,19964.1
28669.5,19994.2
28719.6,20015
28772.9,20025.6
28827.1,20025.6
28880.4,20015
28930.5,19994.2
28975.7,19964.1
29014.1,19925.7
29044.2,19880.5
29065,19830.4
29075.6,19777.1
29075.6,19722.9
29065,19669.6
29044.2,19619.5
29016.5,19578
29016.5,15960.6
29017.6,15950
29016.5,15939.4
29016.5,15939.4
29013.4,15907.6
29001,15866.7
29001,15866.7
28980.9,15829.1
28960.6,15804.4
28953.9,15796.1
28945.6,15789.4
28577.6,15421.3
28570.8,15413.1
28537.8,15386
28500.2,15365.9
28459.4,15353.5
28427.6,15350.4
28427.6,15350.4
28416.9,15349.3
28406.3,15350.4
28171.5,15350.4
28123.3,15278.3
28060.3,15215.3
27986.1,15165.7
27903.7,15131.6
27816.2,15114.2
27727.1,15114.2
27639.6,15131.6
27557.2,15165.7
27483,15215.3
27420,15278.3
27370.4,15352.5
27336.3,15434.9
27318.9,15522.3
27318.9,15611.5
27336.3,15699
27370.4,15781.4
27420,15855.5
27483,15918.6
27557.2,15968.2
27639.6,16002.3
27727.1,16019.7
27816.2,16019.7
27903.7,16002.3
27986.1,15968.2
28060.3,15918.6
28123.3,15855.5
28171.5,15783.5
28327.2,15783.5
28583.5,16039.7
28583.5,16683.9
28580.9,16679.1
28577,16674.3
28560.6,16654.4
28560.6,16654.4
28553.9,16646.1
28545.6,16639.4
28327.6,16421.3
28320.8,16413.1
28287.8,16386
28250.2,16365.9
28209.4,16353.5
28177.6,16350.4
28177.6,16350.4
28171.1,16349.8
28123.3,16278.3
28060.3,16215.3
27986.1,16165.7
27903.7,16131.6
27816.2,16114.2
27727.1,16114.2
27639.6,16131.6
27557.2,16165.7
27483,16215.3
27420,16278.3
27370.4,16352.5
27336.3,16434.9
27318.9,16522.3
27318.9,16611.5
27336.3,16699
27370.4,16781.4
27420,16855.5
27483,16918.6
27557.2,16968.2
27639.6,17002.3
27727.1,17019.7
27816.2,17019.7
27903.7,17002.3
27986.1,16968.2
28060.3,16918.6
28123.3,16855.5
28133.7,16840
28183.5,16889.7
28183.5,17378
28172.9,17352.5
28123.3,17278.3
28060.3,17215.3
27986.1,17165.7
27903.7,17131.6
27816.2,17114.2
27727.1,17114.2
27639.6,17131.6
27557.2,17165.7
27483,17215.3
27420,17278.3
27370.4,17352.5
27336.3,17434.9
27318.9,17522.3
27318.9,17611.5
27336.3,17699
27370.4,17781.4
27420,17855.5
27483,17918.6
27555.1,17966.8
27555.1,24388.7
26560.3,25383.5
14039.7,25383.5
13974.7,25318.5
13965,25269.6
13944.2,25219.5
13914.1,25174.3
13875.7,25135.9
13830.5,25105.8
13780.4,25085
13727.1,25074.4
13672.9,25074.4
13619.6,25085
13569.5,25105.8
13524.3,25135.9
13485.9,25174.3
13455.8,25219.5
13435,25269.6
13424.4,25322.9
127.953,25322.9
127.953,23472.9
21224.4,23472.9
21224.4,23527.1
21235,23580.4
21255.8,23630.5
21285.9,23675.7
21324.3,23714.1
21369.5,23744.2
21419.6,23765
21468.5,23774.7
22225.3,24531.5
22235,24580.4
22255.8,24630.5
22285.9,24675.7
22324.3,24714.1
22369.5,24744.2
22419.6,24765
22472.9,24775.6
22527.1,24775.6
22580.4,24765
22630.5,24744.2
22675.7,24714.1
22714.1,24675.7
22744.2,24630.5
22765,24580.4
22775.6,24527.1
22775.6,24472.9
22765,24419.6
22744.2,24369.5
22714.1,24324.3
22675.7,24285.9
22630.5,24255.8
22580.4,24235
22531.5,24225.3
22279.1,23972.9
24824.4,23972.9
24824.4,24027.1
24835,24080.4
24855.8,24130.5
24885.9,24175.7
24924.3,24214.1
24969.5,24244.2
25019.6,24265
25072.9,24275.6
25127.1,24275.6
25180.4,24265
25230.5,24244.2
25272,24216.5
26586.3,24216.5
26619.6,24230.4
26672.9,24240.9
26727.1,24240.9
26780.4,24230.4
26830.5,24209.6
26875.7,24179.4
26914.1,24141
26944.2,24095.9
26965,24045.7
26975.6,23992.5
26975.6,23938.2
26965,23885
26944.2,23834.8
26914.1,23789.7
26875.7,23751.3
26830.5,23721.1
26780.4,23700.4
26727.1,23689.8
26672.9,23689.8
26619.6,23700.4
26569.5,23721.1
26524.3,23751.3
26492.1,23783.5
25272,23783.5
25230.5,23755.8
25180.4,23735
25127.1,23724.4
25072.9,23724.4
25019.6,23735
24969.5,23755.8
24924.3,23785.9
24885.9,23824.3
24855.8,23869.5
24835,23919.6
24824.4,23972.9
22279.1,23972.9
21774.7,23468.5
21765,23419.6
21744.2,23369.5
21714.1,23324.3
21675.7,23285.9
21630.5,23255.8
21580.4,23235
21527.1,23224.4
21472.9,23224.4
21419.6,23235
21369.5,23255.8
21324.3,23285.9
21285.9,23324.3
21255.8,23369.5
21235,23419.6
21224.4,23472.9
127.953,23472.9
127.953,22772.9
20624.4,22772.9
20624.4,22827.1
20635,22880.4
20655.8,22930.5
20685.9,22975.7
20724.3,23014.1
20769.5,23044.2
20819.6,23065
20872.9,23075.6
20927.1,23075.6
20980.4,23065
21030.5,23044.2
21075.7,23014.1
21114.1,22975.7
21119.6,22967.3
21153.1,22967.3
21298.3,23112.5
21303.6,23118.9
21329,23139.8
21358.1,23155.3
21380.1,23162
21389.6,23164.9
21393,23165.2
21414.2,23167.3
21414.2,23167.3
21422.4,23168.1
21430.7,23167.3
24991.8,23167.3
25000,23168.1
25008.2,23167.3
25008.2,23167.3
25032.8,23164.9
25064.3,23155.3
25093.4,23139.8
25118.9,23118.9
25124.1,23112.5
25412.5,22824.1
25418.9,22818.9
25439.8,22793.4
25453.8,22767.2
25455.3,22764.3
25464.9,22732.8
25466.2,22719.6
25467.3,22708.2
25467.3,22708.2
25468.1,22700
25467.3,22691.8
25467.3,19958.2
25468.1,19950
25467.3,19941.8
25467.3,19941.8
25464.9,19917.2
25455.3,19885.7
25439.8,19856.6
25418.9,19831.1
25412.5,19825.9
24773.6,19187
24775.6,19177.1
24775.6,19122.9
24765,19069.6
24744.2,19019.5
24714.1,18974.3
24675.7,18935.9
24667.3,18930.4
24667.3,17358.2
24668.1,17350
24667.3,17341.8
24667.3,17341.8
24664.9,17317.2
24655.3,17285.7
24639.8,17256.6
24618.9,17231.1
24612.5,17225.9
24273.6,16887
24275.6,16877.1
24275.6,16822.9
24265,16769.6
24244.2,16719.5
24214.1,16674.3
24175.7,16635.9
24130.5,16605.8
24080.4,16585
24027.1,16574.4
23972.9,16574.4
23919.6,16585
23869.5,16605.8
23824.3,16635.9
23785.9,16674.3
23755.8,16719.5
23735,16769.6
23724.4,16822.9
23724.4,16877.1
23735,16930.4
23755.8,16980.5
23785.9,17025.7
23824.3,17064.1
23869.5,17094.2
23919.6,17115
23972.9,17125.6
24027.1,17125.6
24037,17123.6
24332.7,17419.3
24332.7,18930.4
24324.3,18935.9
24285.9,18974.3
24255.8,19019.5
24235,19069.6
24224.4,19122.9
24224.4,19177.1
24235,19230.4
24255.8,19280.5
24285.9,19325.7
24324.3,19364.1
24369.5,19394.2
24419.6,19415
24472.9,19425.6
24527.1,19425.6
24537,19423.6
25132.7,20019.3
25132.7,22630.7
24930.7,22832.7
21491.7,22832.7
21346.6,22687.5
21341.3,22681.1
21315.9,22660.2
21286.8,22644.7
21255.2,22635.1
21230.7,22632.7
21230.7,22632.7
21222.4,22631.9
21214.2,22632.7
21119.6,22632.7
21114.1,22624.3
21075.7,22585.9
21030.5,22555.8
20980.4,22535
20927.1,22524.4
20872.9,22524.4
20819.6,22535
20769.5,22555.8
20724.3,22585.9
20685.9,22624.3
20655.8,22669.5
20635,22719.6
20624.4,22772.9
127.953,22772.9
127.953,20944.9
2715.96,20944.9
2715.96,21968.5
2718.24,21991.7
2725,22013.9
2735.97,22034.4
2750.73,22052.4
2768.71,22067.2
2789.23,22078.2
2811.49,22084.9
2834.65,22087.2
3858.27,22087.2
3881.42,22084.9
3903.69,22078.2
3924.2,22067.2
3942.19,22052.4
3956.95,22034.4
3967.91,22013.9
3974.67,21991.7
3976.95,21968.5
3976.95,21921.7
9074.8,21921.7
9074.8,21976
9085.39,22029.2
9106.17,22079.4
9136.33,22124.5
9174.71,22162.9
9219.85,22193
9270.01,22213.8
9323.25,22224.4
9377.54,22224.4
9430.78,22213.8
9480.93,22193
9526.07,22162.9
9564.46,22124.5
9594.62,22079.4
9615.39,22029.2
9625.98,21976
9625.98,21921.7
9960.63,21921.7
9960.63,21976
9971.22,22029.2
9992,22079.4
10022.2,22124.5
10060.5,22162.9
10105.7,22193
10155.8,22213.8
10209.1,22224.4
10263.4,22224.4
10316.6,22213.8
10366.8,22193
10408.2,22165.4
13410.7,22165.4
13452.1,22193
13502.3,22213.8
13555.5,22224.4
13609.8,22224.4
13663.1,22213.8
13713.2,22193
13758.4,22162.9
13796.7,22124.5
13826.9,22079.4
13847.7,22029.2
13858.3,21976
13858.3,21921.7
13847.7,21868.4
13826.9,21818.3
13796.7,21773.1
13758.4,21734.8
13713.2,21704.6
13663.1,21683.8
13609.8,21673.2
13555.5,21673.2
13502.3,21683.8
13452.1,21704.6
13410.7,21732.3
10408.2,21732.3
10366.8,21704.6
10316.6,21683.8
10263.4,21673.2
10209.1,21673.2
10155.8,21683.8
10105.7,21704.6
10060.5,21734.8
10022.2,21773.1
9992,21818.3
9971.22,21868.4
9960.63,21921.7
9625.98,21921.7
9616.14,21872.2
9616.14,19657.9
11141.7,19657.9
11141.7,19712.2
11152.3,19765.4
11173.1,19815.6
11203.3,19860.7
11241.6,19899.1
11286.8,19929.3
11336.9,19950
11385.8,19959.8
12021.7,20595.6
12028.4,20603.9
12036.7,20610.6
12036.7,20610.6
12061.4,20630.9
12099,20651
12139.8,20663.4
12171.6,20666.5
12171.7,20666.5
12182.3,20667.6
12192.9,20666.5
23060.3,20666.5
24475.3,22081.5
24485,22130.4
24505.8,22180.5
24535.9,22225.7
24574.3,22264.1
24619.5,22294.2
24669.6,22315
24722.9,22325.6
24777.1,22325.6
24830.4,22315
24880.5,22294.2
24925.7,22264.1
24964.1,22225.7
24994.2,22180.5
25015,22130.4
25025.6,22077.1
25025.6,22022.9
25015,21969.6
24994.2,21919.5
24964.1,21874.3
24925.7,21835.9
24880.5,21805.8
24830.4,21785
24781.5,21775.3
23310.6,20304.4
23303.9,20296.1
23270.9,20269.1
23233.3,20249
23192.4,20236.6
23160.6,20233.5
23160.6,20233.5
23150,20232.4
23139.4,20233.5
12272,20233.5
11692,19653.5
11682.3,19604.7
11661.5,19554.5
11631.4,19509.4
11593,19471
11547.9,19440.8
11497.7,19420
11444.5,19409.4
11390.2,19409.4
11336.9,19420
11286.8,19440.8
11241.6,19471
11203.3,19509.4
11173.1,19554.5
11152.3,19604.7
11141.7,19657.9
9616.14,19657.9
9616.14,18572.9
18624.4,18572.9
18624.4,18627.1
18635,18680.4
18655.8,18730.5
18685.9,18775.7
18724.3,18814.1
18769.5,18844.2
18819.6,18865
18872.9,18875.6
18927.1,18875.6
18980.4,18865
19030.5,18844.2
19075.7,18814.1
19114.1,18775.7
19116.5,18772.1
19212.6,18772.1
19212.6,18826.4
19223.2,18879.6
19244,18929.8
19274.1,18974.9
19312.5,19013.3
19357.6,19043.4
19407.8,19064.2
19461,19074.8
19515.3,19074.8
19568.6,19064.2
19618.7,19043.4
19663.9,19013.3
19702.3,18974.9
19732.4,18929.8
19753.2,18879.6
19763.8,18826.4
19763.8,18772.1
19753.2,18718.8
19732.4,18668.7
19704.7,18627.2
19704.7,18372.9
20124.4,18372.9
20124.4,18427.1
20135,18480.4
20155.8,18530.5
20185.9,18575.7
20224.3,18614.1
20269.5,18644.2
20319.6,18665
20372.9,18675.6
20427.1,18675.6
20480.4,18665
20530.5,18644.2
20575.7,18614.1
20614.1,18575.7
20644.2,18530.5
20665,18480.4
20674.7,18431.5
20889.7,18216.5
21628,18216.5
21669.5,18244.2
21719.6,18265
21772.9,18275.6
21827.1,18275.6
21880.4,18265
21930.5,18244.2
21975.7,18214.1
22014.1,18175.7
22044.2,18130.5
22065,18080.4
22075.6,18027.1
22075.6,17972.9
22065,17919.6
22044.2,17869.5
22014.1,17824.3
21975.7,17785.9
21930.5,17755.8
21880.4,17735
21827.1,17724.4
21772.9,17724.4
21719.6,17735
21669.5,17755.8
21628,17783.5
20810.6,17783.5
20800,17782.4
20789.4,17783.5
20789.4,17783.5
20757.6,17786.6
20716.7,17799
20699.2,17808.3
20679.1,17819.1
20654.4,17839.4
20654.4,17839.4
20646.1,17846.1
20639.4,17854.4
20368.5,18125.3
20319.6,18135
20269.5,18155.8
20224.3,18185.9
20185.9,18224.3
20155.8,18269.5
20135,18319.6
20124.4,18372.9
19704.7,18372.9
19704.7,18101.5
20689.7,17116.5
21428,17116.5
21469.5,17144.2
21519.6,17165
21572.9,17175.6
21627.1,17175.6
21680.4,17165
21730.5,17144.2
21775.7,17114.1
21814.1,17075.7
21844.2,17030.5
21865,16980.4
21875.6,16927.1
21875.6,16872.9
21865,16819.6
21844.2,16769.5
21814.1,16724.3
21775.7,16685.9
21730.5,16655.8
21680.4,16635
21627.1,16624.4
21572.9,16624.4
21519.6,16635
21469.5,16655.8
21428,16683.5
20610.6,16683.5
20600,16682.4
20589.4,16683.5
20589.4,16683.5
20557.6,16686.6
20516.7,16699
20516.7,16699
20479.1,16719.1
20454.4,16739.4
20454.4,16739.4
20446.1,16746.1
20439.4,16754.4
19342.6,17851.2
19334.3,17858
19327.6,17866.2
19327.6,17866.2
19307.3,17890.9
19287.2,17928.5
19274.8,17969.4
19270.6,18011.8
19271.7,18022.4
19271.7,18627.2
19244,18668.7
19223.2,18718.8
19212.6,18772.1
19116.5,18772.1
19144.2,18730.5
19165,18680.4
19175.6,18627.1
19175.6,18572.9
19165,18519.6
19144.2,18469.5
19116.5,18428
19116.5,17607
19141.7,17581.9
19149.9,17575.1
19177,17542.1
19197.1,17504.5
19209.5,17463.7
19212.6,17431.9
19212.6,17431.9
19213.6,17421.3
19212.6,17410.6
19212.6,17101.1
19240.3,17059.7
19261.1,17009.5
19271.7,16956.3
19271.7,16902
19261.1,16848.7
19240.3,16798.6
19210.1,16753.5
19171.7,16715.1
19126.6,16684.9
19076.4,16664.1
19023.2,16653.5
18968.9,16653.5
18915.7,16664.1
18865.5,16684.9
18820.4,16715.1
18782,16753.5
18751.8,16798.6
18731.1,16848.7
18720.5,16902
18720.5,16956.3
18731.1,17009.5
18751.8,17059.7
18779.5,17101.1
18779.5,17331.6
18754.4,17356.7
18746.1,17363.5
18719.1,17396.4
18699,17434.1
18686.6,17474.9
18683.5,17506.7
18683.5,17506.7
18682.4,17517.3
18683.5,17528
18683.5,18428
18655.8,18469.5
18635,18519.6
18624.4,18572.9
9616.14,18572.9
9616.14,16940.8
11184.1,15372.9
18624.4,15372.9
18624.4,15427.1
18635,15480.4
18655.8,15530.5
18685.9,15575.7
18724.3,15614.1
18769.5,15644.2
18819.6,15665
18872.9,15675.6
18927.1,15675.6
18980.4,15665
19030.5,15644.2
19072,15616.5
23282.7,15616.5
25378.7,17712.5
25385.5,17720.8
25393.8,17727.6
25393.8,17727.6
25414.2,17744.3
25418.5,17747.8
25456.1,17767.9
25496.9,17780.3
25528.7,17783.5
25528.7,17783.5
25539.4,17784.5
25550,17783.5
26371.8,17783.5
26420,17855.5
26483,17918.6
26557.2,17968.2
26639.6,18002.3
26727.1,18019.7
26816.2,18019.7
26903.7,18002.3
26986.1,17968.2
27060.3,17918.6
27123.3,17855.5
27172.9,17781.4
27207,17699
27224.4,17611.5
27224.4,17522.3
27207,17434.9
27172.9,17352.5
27123.3,17278.3
27060.3,17215.3
26986.1,17165.7
26903.7,17131.6
26816.2,17114.2
26727.1,17114.2
26639.6,17131.6
26557.2,17165.7
26483,17215.3
26420,17278.3
26371.8,17350.4
25629.1,17350.4
24926.1,16647.5
26326.1,16647.5
26329.2,16663
26356.5,16747.5
26399.7,16825
26457.2,16892.6
26526.8,16947.7
26605.8,16988.2
26691.1,17012.5
26761.8,16990.1
26761.8,16576.8
26781.5,16576.8
26781.5,16990.1
26852.2,17012.5
26937.6,16988.2
27016.6,16947.7
27086.1,16892.6
27143.6,16825
27186.8,16747.5
27214.1,16663
27217.2,16647.5
27194.8,16576.8
26781.5,16576.8
26761.8,16576.8
26348.5,16576.8
26326.1,16647.5
24926.1,16647.5
24765.1,16486.4
26326.1,16486.4
26348.5,16557.1
26761.8,16557.1
26761.8,16143.8
26781.5,16143.8
26781.5,16557.1
27194.8,16557.1
27217.2,16486.4
27214.1,16470.8
27186.8,16386.4
27143.6,16308.8
27086.1,16241.2
27016.6,16186.1
26937.6,16145.7
26852.2,16121.4
26781.5,16143.8
26761.8,16143.8
26691.1,16121.4
26605.8,16145.7
26526.8,16186.1
26457.2,16241.2
26399.7,16308.8
26356.5,16386.4
26329.2,16470.8
26326.1,16486.4
24765.1,16486.4
23533.1,15254.4
23526.3,15246.1
23493.3,15219.1
23455.7,15199
23414.9,15186.6
23383.1,15183.5
23383.1,15183.5
23372.4,15182.4
23361.8,15183.5
19072,15183.5
19030.5,15155.8
18980.4,15135
18927.1,15124.4
18872.9,15124.4
18819.6,15135
18769.5,15155.8
18724.3,15185.9
18685.9,15224.3
18655.8,15269.5
18635,15319.6
18624.4,15372.9
11184.1,15372.9
12240,14316.9
12282,14288.9
12320.4,14250.5
12350.5,14205.3
12371.3,14155.2
12381.9,14101.9
12381.9,14047.7
12371.3,13994.4
12350.5,13944.3
12320.4,13899.1
12282,13860.7
12236.8,13830.6
12186.7,13809.8
12133.4,13799.2
12079.2,13799.2
12025.9,13809.8
11975.8,13830.6
11930.6,13860.7
11892.2,13899.1
11864.2,13941.1
9171.71,16633.6
9161.57,16641.9
9153.25,16652
9153.25,16652
9144.22,16663
9128.36,16682.4
9103.69,16728.5
9095.17,16756.6
9088.49,16778.6
9088.01,16783.5
9084.65,16817.7
9084.65,16817.7
9083.36,16830.7
9084.65,16843.8
9084.65,21872.2
9074.8,21921.7
3976.95,21921.7
3976.95,20944.9
3974.67,20921.7
3967.91,20899.5
3956.95,20878.9
3942.19,20861
3924.2,20846.2
3903.69,20835.2
3881.42,20828.5
3858.27,20826.2
2834.65,20826.2
2811.49,20828.5
2789.23,20835.2
2768.71,20846.2
2750.73,20861
2735.97,20878.9
2725,20899.5
2718.24,20921.7
2715.96,20944.9
127.953,20944.9
127.953,19426.1
2716.54,19426.1
2716.54,19550.2
2740.74,19671.9
2788.23,19786.6
2857.16,19889.7
2944.91,19977.5
3048.08,20046.4
3162.72,20093.9
3284.41,20118.1
3408.5,20118.1
3530.2,20093.9
3644.84,20046.4
3748.01,19977.5
3835.75,19889.7
3904.69,19786.6
3952.17,19671.9
3976.38,19550.2
3976.38,19426.1
3952.17,19304.4
3904.69,19189.8
3835.75,19086.6
3748.01,18998.9
3644.84,18930
3530.2,18882.5
3408.5,18858.3
3284.41,18858.3
3162.72,18882.5
3048.08,18930
2944.91,18998.9
2857.16,19086.6
2788.23,19189.8
2740.74,19304.4
2716.54,19426.1
127.953,19426.1
127.953,15826.8
2715.96,15826.8
2715.96,16850.4
2718.24,16873.5
2725,16895.8
2735.97,16916.3
2750.73,16934.3
2768.71,16949.1
2789.23,16960
2811.49,16966.8
2834.65,16969.1
3858.27,16969.1
3881.42,16966.8
3903.69,16960
3924.2,16949.1
3942.19,16934.3
3956.95,16916.3
3967.91,16895.8
3974.67,16873.5
3976.95,16850.4
3976.95,15826.8
3974.67,15803.6
3967.91,15781.4
3956.95,15760.8
3942.19,15742.9
3924.2,15728.1
3903.69,15717.1
3881.42,15710.4
3858.27,15708.1
2834.65,15708.1
2811.49,15710.4
2789.23,15717.1
2768.71,15728.1
2750.73,15742.9
2735.97,15760.8
2725,15781.4
2718.24,15803.6
2715.96,15826.8
127.953,15826.8
127.953,14308
2716.54,14308
2716.54,14432.1
2740.74,14553.8
2788.23,14668.5
2857.16,14771.6
2944.91,14859.4
3048.08,14928.3
3162.72,14975.8
3284.41,15000
3408.5,15000
3530.2,14975.8
3644.84,14928.3
3748.01,14859.4
3835.75,14771.6
3904.69,14668.5
3952.17,14553.8
3976.38,14432.1
3976.38,14308
3952.17,14186.3
3904.69,14071.7
3835.75,13968.5
3748.01,13880.8
3644.84,13811.8
3530.2,13764.4
3408.5,13740.2
3284.41,13740.2
3162.72,13764.4
3048.08,13811.8
2944.91,13880.8
2857.16,13968.5
2788.23,14071.7
2740.74,14186.3
2716.54,14308
127.953,14308
127.953,12072.9
25524.4,12072.9
25524.4,12127.1
25535,12180.4
25555.8,12230.5
25585.9,12275.7
25624.3,12314.1
25632.7,12319.6
25632.7,15291.8
25631.9,15300
25635.1,15332.8
25642.6,15357.6
25644.7,15364.3
25660.2,15393.4
25681.1,15418.9
25687.5,15424.1
25726.4,15463
25724.4,15472.9
25724.4,15527.1
25735,15580.4
25755.8,15630.5
25785.9,15675.7
25824.3,15714.1
25869.5,15744.2
25919.6,15765
25972.9,15775.6
26027.1,15775.6
26080.4,15765
26130.5,15744.2
26175.7,15714.1
26214.1,15675.7
26232.9,15647.5
26326.1,15647.5
26329.2,15663
26356.5,15747.5
26399.7,15825
26457.2,15892.6
26526.8,15947.7
26605.8,15988.2
26691.1,16012.5
26761.8,15990.1
26761.8,15576.8
26781.5,15576.8
26781.5,15990.1
26852.2,16012.5
26937.6,15988.2
27016.6,15947.7
27086.1,15892.6
27143.6,15825
27186.8,15747.5
27214.1,15663
27217.2,15647.5
27194.8,15576.8
26781.5,15576.8
26761.8,15576.8
26348.5,15576.8
26326.1,15647.5
26232.9,15647.5
26244.2,15630.5
26265,15580.4
26275.6,15527.1
26275.6,15486.4
26326.1,15486.4
26348.5,15557.1
26761.8,15557.1
26761.8,15143.8
26781.5,15143.8
26781.5,15557.1
27194.8,15557.1
27217.2,15486.4
27214.1,15470.8
27186.8,15386.4
27143.6,15308.8
27086.1,15241.2
27016.6,15186.1
26937.6,15145.7
26852.2,15121.4
26781.5,15143.8
26761.8,15143.8
26691.1,15121.4
26605.8,15145.7
26526.8,15186.1
26457.2,15241.2
26399.7,15308.8
26356.5,15386.4
26329.2,15470.8
26326.1,15486.4
26275.6,15486.4
26275.6,15472.9
26265,15419.6
26244.2,15369.5
26214.1,15324.3
26175.7,15285.9
26130.5,15255.8
26080.4,15235
26027.1,15224.4
25972.9,15224.4
25967.3,15225.5
25967.3,14901.6
26318.3,14901.6
26320.6,14924.7
26327.4,14947
26338.3,14967.5
26353.1,14985.5
26371.1,15000.3
26391.6,15011.2
26413.9,15018
26437,15020.3
26732.3,15019.7
26761.8,14990.2
26761.8,14576.8
26781.5,14576.8
26781.5,14990.2
26811,15019.7
27106.3,15020.3
27129.5,15018
27151.7,15011.2
27172.2,15000.3
27190.2,14985.5
27205,14967.5
27215.9,14947
27222.7,14924.7
27225,14901.6
27224.4,14606.3
27194.9,14576.8
26781.5,14576.8
26761.8,14576.8
26348.4,14576.8
26318.9,14606.3
26318.3,14901.6
25967.3,14901.6
25967.3,14232.3
26318.3,14232.3
26318.9,14527.6
26348.4,14557.1
26761.8,14557.1
26761.8,14143.7
26781.5,14143.7
26781.5,14557.1
27194.9,14557.1
27224.4,14527.6
27224.4,14522.3
27318.9,14522.3
27318.9,14611.5
27336.3,14699
27370.4,14781.4
27420,14855.5
27483,14918.6
27557.2,14968.2
27639.6,15002.3
27727.1,15019.7
27816.2,15019.7
27903.7,15002.3
27986.1,14968.2
28060.3,14918.6
28123.3,14855.5
28172.9,14781.4
28207,14699
28224.4,14611.5
28224.4,14522.3
28207,14434.9
28172.9,14352.5
28123.3,14278.3
28060.3,14215.3
27986.1,14165.7
27903.7,14131.6
27816.2,14114.2
27727.1,14114.2
27639.6,14131.6
27557.2,14165.7
27483,14215.3
27420,14278.3
27370.4,14352.5
27336.3,14434.9
27318.9,14522.3
27224.4,14522.3
27225,14232.3
27222.7,14209.1
27215.9,14186.9
27205,14166.3
27190.2,14148.4
27172.2,14133.6
27151.7,14122.6
27129.5,14115.9
27106.3,14113.6
26811,14114.2
26781.5,14143.7
26761.8,14143.7
26732.3,14114.2
26437,14113.6
26413.9,14115.9
26391.6,14122.6
26371.1,14133.6
26353.1,14148.4
26338.3,14166.3
26327.4,14186.9
26320.6,14209.1
26318.3,14232.3
25967.3,14232.3
25967.3,12319.6
25975.7,12314.1
26014.1,12275.7
26044.2,12230.5
26065,12180.4
26075.6,12127.1
26075.6,12072.9
26065,12019.6
26044.2,11969.5
26014.1,11924.3
25975.7,11885.9
25930.5,11855.8
25880.4,11835
25827.1,11824.4
25772.9,11824.4
25719.6,11835
25669.5,11855.8
25624.3,11885.9
25585.9,11924.3
25555.8,11969.5
25535,12019.6
25524.4,12072.9
127.953,12072.9
127.953,11039.4
29399.6,11039.4
Z" /> 
</g>
</g>
</g> 
</svg>
