<?xml version="1.0" standalone="no"?>
 <!DOCTYPE svg PUBLIC "-//W3C//DTD SVG 1.1//EN" 
 "http://www.w3.org/Graphics/SVG/1.1/DTD/svg11.dtd"> 
<svg
  xmlns:svg="http://www.w3.org/2000/svg"
  xmlns="http://www.w3.org/2000/svg"
  xmlns:xlink="http://www.w3.org/1999/xlink"
  version="1.1"
  width="29.700220cm" height="21.000720cm" viewBox="0 0 116930 82680">
<title>SVG Picture created as HotPlateController-F_SilkS.svg date 2021/02/21 19:33:28 </title>
  <desc>Picture generated by PCBNEW </desc>
<g style="fill:#000000; fill-opacity:1;stroke:#000000; stroke-opacity:1;
stroke-linecap:round; stroke-linejoin:round;"
 transform="translate(0 0) scale(1 1)">
</g>
<g style="fill:#000000; fill-opacity:0.0; 
stroke:#000000; stroke-width:-0.000393701; stroke-opacity:1; 
stroke-linecap:round; stroke-linejoin:round;">
</g>
<g style="fill:#000000; fill-opacity:0.0; 
stroke:#000000; stroke-width:47.2441; stroke-opacity:1; 
stroke-linecap:round; stroke-linejoin:round;">
<path d="M590 25393
L5118 25393
" />
<path d="M590 26377
L590 25393
" />
</g>
<g style="fill:#000000; fill-opacity:0.0; 
stroke:#000000; stroke-width:39.3701; stroke-opacity:1; 
stroke-linecap:round; stroke-linejoin:round;">
<text x="1574.8" y="25295.3"
textLength="2139.01" font-size="262.467" lengthAdjust="spacingAndGlyphs"
text-anchor="middle" opacity="0">Order Number</text>
<path d="M628 25089
L665 25089
L684 25098
L703 25117
L712 25154
L712 25220
L703 25257
L684 25276
L665 25285
L628 25285
L609 25276
L590 25257
L581 25220
L581 25154
L590 25117
L609 25098
L628 25089
" />
<path d="M796 25285
L796 25154
" />
<path d="M796 25192
L806 25173
L815 25164
L834 25154
L853 25154
" />
<path d="M1002 25285
L1002 25089
" />
<path d="M1002 25276
L984 25285
L946 25285
L928 25276
L918 25267
L909 25248
L909 25192
L918 25173
L928 25164
L946 25154
L984 25154
L1002 25164
" />
<path d="M1171 25276
L1152 25285
L1115 25285
L1096 25276
L1087 25257
L1087 25182
L1096 25164
L1115 25154
L1152 25154
L1171 25164
L1181 25182
L1181 25201
L1087 25220
" />
<path d="M1265 25285
L1265 25154
" />
<path d="M1265 25192
L1274 25173
L1284 25164
L1302 25154
L1321 25154
" />
<path d="M1537 25285
L1537 25089
L1649 25285
L1649 25089
" />
<path d="M1827 25154
L1827 25285
" />
<path d="M1743 25154
L1743 25257
L1752 25276
L1771 25285
L1799 25285
L1818 25276
L1827 25267
" />
<path d="M1921 25285
L1921 25154
" />
<path d="M1921 25173
L1931 25164
L1949 25154
L1977 25154
L1996 25164
L2005 25182
L2005 25285
" />
<path d="M2005 25182
L2015 25164
L2034 25154
L2062 25154
L2080 25164
L2090 25182
L2090 25285
" />
<path d="M2184 25285
L2184 25089
" />
<path d="M2184 25164
L2202 25154
L2240 25154
L2259 25164
L2268 25173
L2277 25192
L2277 25248
L2268 25267
L2259 25276
L2240 25285
L2202 25285
L2184 25276
" />
<path d="M2437 25276
L2418 25285
L2380 25285
L2362 25276
L2352 25257
L2352 25182
L2362 25164
L2380 25154
L2418 25154
L2437 25164
L2446 25182
L2446 25201
L2352 25220
" />
<path d="M2530 25285
L2530 25154
" />
<path d="M2530 25192
L2540 25173
L2549 25164
L2568 25154
L2587 25154
" />
</g>
<g style="fill:#000000; fill-opacity:0.0; 
stroke:#000000; stroke-width:59.0551; stroke-opacity:1; 
stroke-linecap:round; stroke-linejoin:round;">
<text x="2755.91" y="26181.1"
textLength="4100.67" font-size="524.934" lengthAdjust="spacingAndGlyphs"
text-anchor="middle" opacity="0">JLCJLCJLCJLC</text>
<path d="M937 25768
L937 26049
L918 26106
L881 26143
L824 26162
L787 26162
" />
<path d="M1312 26162
L1124 26162
L1124 25768
" />
<path d="M1668 26124
L1649 26143
L1593 26162
L1556 26162
L1499 26143
L1462 26106
L1443 26068
L1424 25993
L1424 25937
L1443 25862
L1462 25824
L1499 25787
L1556 25768
L1593 25768
L1649 25787
L1668 25806
" />
<path d="M1949 25768
L1949 26049
L1931 26106
L1893 26143
L1837 26162
L1799 26162
" />
<path d="M2324 26162
L2137 26162
L2137 25768
" />
<path d="M2680 26124
L2662 26143
L2605 26162
L2568 26162
L2512 26143
L2474 26106
L2455 26068
L2437 25993
L2437 25937
L2455 25862
L2474 25824
L2512 25787
L2568 25768
L2605 25768
L2662 25787
L2680 25806
" />
<path d="M2962 25768
L2962 26049
L2943 26106
L2905 26143
L2849 26162
L2812 26162
" />
<path d="M3337 26162
L3149 26162
L3149 25768
" />
<path d="M3693 26124
L3674 26143
L3618 26162
L3580 26162
L3524 26143
L3487 26106
L3468 26068
L3449 25993
L3449 25937
L3468 25862
L3487 25824
L3524 25787
L3580 25768
L3618 25768
L3674 25787
L3693 25806
" />
<path d="M3974 25768
L3974 26049
L3955 26106
L3918 26143
L3862 26162
L3824 26162
" />
<path d="M4349 26162
L4161 26162
L4161 25768
" />
<path d="M4705 26124
L4686 26143
L4630 26162
L4593 26162
L4536 26143
L4499 26106
L4480 26068
L4461 25993
L4461 25937
L4480 25862
L4499 25824
L4536 25787
L4593 25768
L4630 25768
L4686 25787
L4705 25806
" />
</g>
<g style="fill:#000000; fill-opacity:0.0; 
stroke:#000000; stroke-width:98.4252; stroke-opacity:1; 
stroke-linecap:round; stroke-linejoin:round;">
<path d="M27460 28543
L28149 29232
" />
<path d="M28248 28248
L28838 28838
" />
<path d="M28248 26870
L29232 27854
" />
<path d="M26870 28248
L27854 29232
" />
<path d="M27952 28444
L28543 29035
" />
<path d="M28444 28051
L29035 28641
" />
<path d="M28543 27559
L29330 28346
" />
<path d="M28543 2066
L29232 1377
" />
<path d="M28248 1279
L28838 688
" />
<path d="M26870 1279
L27854 295
" />
<path d="M28248 2657
L29232 1673
" />
<path d="M28444 1574
L29035 984
" />
<path d="M28051 1082
L28641 492
" />
<path d="M27559 984
L28346 196
" />
<path d="M2066 984
L1377 295
" />
<path d="M1279 1279
L688 688
" />
<path d="M1279 2657
L295 1673
" />
<path d="M2657 1279
L1673 295
" />
<path d="M1574 1082
L984 492
" />
<path d="M1082 1476
L492 885
" />
<path d="M984 1968
L196 1181
" />
<path d="M1279 26870
L295 27854
" />
<path d="M984 27460
L295 28149
" />
<path d="M1082 27952
L492 28543
" />
<path d="M1279 28248
L688 28838
" />
<path d="M1476 28444
L885 29035
" />
<path d="M1968 28543
L1181 29330
" />
<path d="M2657 28248
L1673 29232
" />
</g>
<g style="fill:#000000; fill-opacity:0.0; 
stroke:#000000; stroke-width:196.85; stroke-opacity:1; 
stroke-linecap:round; stroke-linejoin:round;">
<path d="M26870.1 28248 A974.36 974.36 0.0 0 0 28248 26870.1" />
<path d="M28248 2657.48 A974.36 974.36 0.0 0 0 26870.1 1279.53" />
<path d="M2657.48 1279.53 A974.36 974.36 0.0 0 0 1279.53 2657.48" />
<path d="M1279.53 26870.1 A974.36 974.36 0.0 0 0 2657.48 28248" />
</g>
<g style="fill:#000000; fill-opacity:0.0; 
stroke:#000000; stroke-width:47.2441; stroke-opacity:1; 
stroke-linecap:round; stroke-linejoin:round;">
<path d="M29527 28740
L28740 29527
" />
<path d="M29527 29527
L29527 28740
" />
<path d="M28740 29527
L29527 29527
" />
<path d="M29527 787
L28740 0
" />
<path d="M29527 0
L29527 787
" />
<path d="M28740 0
L29527 0
" />
<path d="M393 0
L0 0
" />
<path d="M0 393
L393 0
" />
<path d="M0 0
L0 393
" />
<path d="M0 29133
L0 29527
" />
<path d="M393 29527
L0 29133
" />
<path d="M0 29527
L393 29527
" />
<path d="M23486 18791
L22913 18791
" />
<path d="M23486 19508
L22913 19508
" />
<path d="M23736 13491
L23163 13491
" />
<path d="M23736 14208
L23163 14208
" />
<path d="M28441 11813
L28441 12386
" />
<path d="M29158 11813
L29158 12386
" />
<path d="M28158 12386
L28158 11813
" />
<path d="M27441 12386
L27441 11813
" />
<path d="M26441 11813
L26441 12386
" />
<path d="M27158 11813
L27158 12386
" />
<path d="M4980 17322
L1712 17322
" />
<path d="M1712 17322
L1712 13385
" />
<path d="M1712 13385
L4980 13385
" />
<path d="M4980 13385
L4980 17322
" />
<path d="M1712 17322
L2106 16929
" />
<path d="M2106 16929
L2559 16929
" />
<path d="M2559 16929
L2559 15748
" />
<path d="M2559 15748
L2106 15748
" />
<path d="M2106 15748
L1712 15374
" />
<path d="M2106 14960
L1712 15334
" />
<path d="M2559 13779
L2559 14960
" />
<path d="M2559 14960
L2106 14960
" />
<path d="M2106 13779
L2559 13779
" />
<path d="M1712 13385
L2106 13779
" />
<path d="M2559 15748
L3346 15354
" />
<path d="M3346 15354
L2559 14960
" />
<path d="M3346 15354
L4980 15354
" />
<path d="M4980 22440
L1712 22440
" />
<path d="M1712 22440
L1712 18503
" />
<path d="M1712 18503
L4980 18503
" />
<path d="M4980 18503
L4980 22440
" />
<path d="M1712 22440
L2106 22047
" />
<path d="M2106 22047
L2559 22047
" />
<path d="M2559 22047
L2559 20866
" />
<path d="M2559 20866
L2106 20866
" />
<path d="M2106 20866
L1712 20492
" />
<path d="M2106 20078
L1712 20452
" />
<path d="M2559 18897
L2559 20078
" />
<path d="M2559 20078
L2106 20078
" />
<path d="M2106 18897
L2559 18897
" />
<path d="M1712 18503
L2106 18897
" />
<path d="M2559 20866
L3346 20472
" />
<path d="M3346 20472
L2559 20078
" />
<path d="M3346 20472
L4980 20472
" />
<path d="M7909 22259
L7909 22819
" />
<path d="M8625 22259
L8625 22819
" />
<path d="M6137 18706
L6137 18134
" />
<path d="M6854 18706
L6854 18134
" />
<path d="M6137 20752
L6137 20192
" />
<path d="M6854 20752
L6854 20192
" />
<path d="M19338 26946
L19488 26946
" />
<path d="M19338 29474
L19338 26946
" />
<path d="M12157 29474
L12157 26946
" />
<path d="M19338 29474
L12157 29474
" />
<path d="M12157 19338
L12551 19338
" />
<path d="M12157 19645
L12157 19338
" />
<path d="M19338 19338
L18944 19338
" />
<path d="M19338 19645
L19338 19338
" />
<path d="M21342 5673
L23057 5673
" />
<path d="M21342 4326
L23057 4326
" />
<path d="M5594 5118
L5594 5909
" />
<path d="M19212 2519
L5748 2519
" />
<path d="M19212 10472
L19212 2519
" />
<path d="M5748 10472
L19212 10472
" />
<path d="M5748 2519
L5748 10472
" />
<path d="M27169 21464
L27169 20263
" />
<path d="M28625 20263
L28625 22665
" />
<path d="M27169 20263
L28625 20263
" />
<path d="M27169 22665
L27169 20263
" />
<path d="M28625 22665
L27169 22665
" />
<path d="M25271 21464
L25271 20263
" />
<path d="M26728 20263
L26728 22665
" />
<path d="M25271 20263
L26728 20263
" />
<path d="M25271 22665
L25271 20263
" />
<path d="M26728 22665
L25271 22665
" />
<path d="M21244 15301
L19645 15301
" />
<path d="M21244 16194
L21244 15301
" />
<path d="M19645 16194
L21244 16194
" />
<path d="M24393 15301
L22795 15301
" />
<path d="M24393 16194
L24393 15301
" />
<path d="M22795 16194
L24393 16194
" />
<path d="M26884 7055
L26884 7355
" />
<path d="M26878 5055
L26878 5355
" />
<path d="M26878 4749
L26878 5055
" />
<path d="M27278 4055
L27578 4055
" />
<path d="M26878 4749
L27578 4055
" />
<path d="M27573 6055
L26878 5355
" />
<path d="M26884 6749
L26884 7055
" />
<path d="M27284 6055
L27584 6055
" />
<path d="M26884 6749
L27584 6055
" />
<path d="M27578 8055
L26884 7355
" />
<path d="M27284 8055
L27584 8055
" />
<path d="M26884 8749
L26884 9055
" />
<path d="M26884 8749
L27584 8055
" />
<path d="M26884 9355
L26884 9055
" />
<path d="M27578 10055
L26884 9355
" />
</g>
<g style="fill:#000000; fill-opacity:1.0; 
stroke:#000000; stroke-width:39.3701; stroke-opacity:1; 
stroke-linecap:round; stroke-linejoin:round;">
<path style="fill:#000000; fill-opacity:1.0; 
stroke:#000000; stroke-width:39.3701; stroke-opacity:1; 
stroke-linecap:round; stroke-linejoin:round;fill-rule:evenodd;"
d="M 27284.3,4155.12
26884.3,4555.12
26884.3,4155.12
" /> 
<path style="fill:#000000; fill-opacity:1.0; 
stroke:#000000; stroke-width:39.3701; stroke-opacity:1; 
stroke-linecap:round; stroke-linejoin:round;fill-rule:evenodd;"
d="M 27284.3,9955.12
26884.3,9955.12
26884.3,9555.12
" /> 
<path style="fill:#000000; fill-opacity:1.0; 
stroke:#000000; stroke-width:39.3701; stroke-opacity:1; 
stroke-linecap:round; stroke-linejoin:round;fill-rule:evenodd;"
d="M 24589.8,4255.12
24389.8,4855.12
24389.8,4060.63
25189.8,4055.12
" /> 
<path style="fill:#000000; fill-opacity:1.0; 
stroke:#000000; stroke-width:39.3701; stroke-opacity:1; 
stroke-linecap:round; stroke-linejoin:round;fill-rule:evenodd;"
d="M 24584.3,9855.12
25184.3,10055.1
24389.8,10055.1
24384.3,9255.12
" /> 
<path style="fill:#000000; fill-opacity:1.0; 
stroke:#000000; stroke-width:39.3701; stroke-opacity:1; 
stroke-linecap:round; stroke-linejoin:round;fill-rule:evenodd;"
d="M 24984.3,8055.12
24384.3,8555.12
24384.3,7555.12
" /> 
<path style="fill:#000000; fill-opacity:1.0; 
stroke:#000000; stroke-width:39.3701; stroke-opacity:1; 
stroke-linecap:round; stroke-linejoin:round;fill-rule:evenodd;"
d="M 24984.3,6055.12
24384.3,6555.12
24384.3,5555.12
" /> 
</g>
<g style="fill:#000000; fill-opacity:1.0; 
stroke:#000000; stroke-width:47.2441; stroke-opacity:1; 
stroke-linecap:round; stroke-linejoin:round;">
</g>
<g style="fill:#000000; fill-opacity:0.0; 
stroke:#000000; stroke-width:47.2441; stroke-opacity:1; 
stroke-linecap:round; stroke-linejoin:round;">
<path d="M26984 6055
L27284 6055
" />
<path d="M26984 8055
L27284 8055
" />
<path d="M24984 6055
L26984 6055
" />
<path d="M24984 8055
L26984 8055
" />
<path d="M24389 10055
L27578 10055
" />
<path d="M24389 4055
L27578 4055
" />
<path d="M24389 4055
L24389 10055
" />
<path d="M27578 10055
L27578 4055
" />
<path d="M27578 9055
L27578 10055
" />
<path d="M2643 7118
L2643 6818
" />
<path d="M2648 9118
L2648 8818
" />
<path d="M2648 9423
L2648 9118
" />
<path d="M2248 10118
L1948 10118
" />
<path d="M2648 9423
L1948 10118
" />
<path d="M1954 8118
L2648 8818
" />
<path d="M2643 7423
L2643 7118
" />
<path d="M2243 8118
L1943 8118
" />
<path d="M2643 7423
L1943 8118
" />
<path d="M1948 6118
L2643 6818
" />
<path d="M2243 6118
L1943 6118
" />
<path d="M2643 5423
L2643 5118
" />
<path d="M2643 5423
L1943 6118
" />
<path d="M2643 4818
L2643 5118
" />
<path d="M1948 4118
L2643 4818
" />
</g>
<g style="fill:#000000; fill-opacity:1.0; 
stroke:#000000; stroke-width:39.3701; stroke-opacity:1; 
stroke-linecap:round; stroke-linejoin:round;">
<path style="fill:#000000; fill-opacity:1.0; 
stroke:#000000; stroke-width:39.3701; stroke-opacity:1; 
stroke-linecap:round; stroke-linejoin:round;fill-rule:evenodd;"
d="M 2243.31,10018.1
2643.31,9618.11
2643.31,10018.1
" /> 
<path style="fill:#000000; fill-opacity:1.0; 
stroke:#000000; stroke-width:39.3701; stroke-opacity:1; 
stroke-linecap:round; stroke-linejoin:round;fill-rule:evenodd;"
d="M 2243.31,4218.11
2643.31,4218.11
2643.31,4618.11
" /> 
<path style="fill:#000000; fill-opacity:1.0; 
stroke:#000000; stroke-width:39.3701; stroke-opacity:1; 
stroke-linecap:round; stroke-linejoin:round;fill-rule:evenodd;"
d="M 4937.8,9918.11
5137.8,9318.11
5137.8,10112.6
4337.8,10118.1
" /> 
<path style="fill:#000000; fill-opacity:1.0; 
stroke:#000000; stroke-width:39.3701; stroke-opacity:1; 
stroke-linecap:round; stroke-linejoin:round;fill-rule:evenodd;"
d="M 4943.31,4318.11
4343.31,4118.11
5137.8,4118.11
5143.31,4918.11
" /> 
<path style="fill:#000000; fill-opacity:1.0; 
stroke:#000000; stroke-width:39.3701; stroke-opacity:1; 
stroke-linecap:round; stroke-linejoin:round;fill-rule:evenodd;"
d="M 4543.31,6118.11
5143.31,5618.11
5143.31,6618.11
" /> 
<path style="fill:#000000; fill-opacity:1.0; 
stroke:#000000; stroke-width:39.3701; stroke-opacity:1; 
stroke-linecap:round; stroke-linejoin:round;fill-rule:evenodd;"
d="M 4543.31,8118.11
5143.31,7618.11
5143.31,8618.11
" /> 
</g>
<g style="fill:#000000; fill-opacity:1.0; 
stroke:#000000; stroke-width:47.2441; stroke-opacity:1; 
stroke-linecap:round; stroke-linejoin:round;">
</g>
<g style="fill:#000000; fill-opacity:0.0; 
stroke:#000000; stroke-width:47.2441; stroke-opacity:1; 
stroke-linecap:round; stroke-linejoin:round;">
<path d="M2543 8118
L2243 8118
" />
<path d="M2543 6118
L2243 6118
" />
<path d="M4543 8118
L2543 8118
" />
<path d="M4543 6118
L2543 6118
" />
<path d="M5137 4118
L1948 4118
" />
<path d="M5137 10118
L1948 10118
" />
<path d="M5137 10118
L5137 4118
" />
<path d="M1948 4118
L1948 10118
" />
<path d="M1948 5118
L1948 4118
" />
<path d="M12312 18370
L12884 18370
" />
<path d="M12312 17653
L12884 17653
" />
<path d="M9141 13314
L9574 13314
" />
<path d="M9141 13208
L9141 13314
" />
<path d="M8551 13208
L9141 13208
" />
<path d="M9141 15818
L10255 15818
" />
<path d="M9141 15925
L9141 15818
" />
<path d="M8551 15925
L9141 15925
" />
<path d="M9543 16700
L10118 16700
" />
<path d="M9543 17944
L10393 17944
" />
<path d="M9543 17944
L9543 17578
" />
<path d="M9543 16700
L9543 17066
" />
<path d="M20561 14405
L19989 14405
" />
<path d="M20561 15122
L19989 15122
" />
<path d="M14280 18370
L14853 18370
" />
<path d="M14280 17653
L14853 17653
" />
<path d="M23711 14405
L23138 14405
" />
<path d="M23711 15122
L23138 15122
" />
<path d="M22926 22405
L23498 22405
" />
<path d="M22926 21688
L23498 21688
" />
<path d="M22926 20437
L23498 20437
" />
<path d="M22926 19720
L23498 19720
" />
<path d="M24441 11813
L24441 12386
" />
<path d="M25158 11813
L25158 12386
" />
<path d="M26158 12386
L26158 11813
" />
<path d="M25441 12386
L25441 11813
" />
<path d="M22932 21421
L23492 21421
" />
<path d="M22932 20704
L23492 20704
" />
<path d="M22932 23389
L23492 23389
" />
<path d="M22932 22673
L23492 22673
" />
<path d="M21180 12741
L20619 12741
" />
<path d="M21180 13458
L20619 13458
" />
<path d="M24158 12380
L24158 11819
" />
<path d="M23441 12380
L23441 11819
" />
<path d="M20830 26067
L20830 25507
" />
<path d="M20114 26067
L20114 25507
" />
<path d="M21295 25517
L21295 26077
" />
<path d="M22011 25517
L22011 26077
" />
<path d="M9242 19464
L7883 19464
" />
<path d="M9242 19464
L10009 19464
" />
<path d="M9242 21480
L8474 21480
" />
<path d="M9242 21480
L10009 21480
" />
<path d="M22907 11000
L22907 9641
" />
<path d="M22907 11000
L22907 11767
" />
<path d="M20892 11000
L20892 10232
" />
<path d="M20892 11000
L20892 11767
" />
<path d="M14208 16614
L14208 14248
" />
<path d="M16893 15728
L16893 14248
" />
<path d="M14208 14248
L14704 14248
" />
<path d="M16893 14248
L16397 14248
" />
<path d="M26248 14043
L26771 14043
" />
<path d="M26248 14566
L26248 14043
" />
<path d="M27271 14043
L28295 14043
" />
<path d="M27271 15066
L27271 14043
" />
<path d="M26248 15066
L27271 15066
" />
<path d="M28295 14043
L28295 18090
" />
<path d="M26248 15066
L26248 18090
" />
<path d="M26248 18090
L28295 18090
" />
<path d="M15861 12956
L16421 12956
" />
<path d="M15861 12240
L16421 12240
" />
<path d="M18358 15280
L18358 14719
" />
<path d="M17641 15280
L17641 14719
" />
</g>
<g style="fill:#000000; fill-opacity:0.0; 
stroke:#000000; stroke-width:59.0551; stroke-opacity:1; 
stroke-linecap:round; stroke-linejoin:round;">
<text x="21650" y="19396.9"
textLength="1220.38" font-size="524.934" lengthAdjust="spacingAndGlyphs"
text-anchor="middle" opacity="0">R15</text>
<path d="M21396 19378
L21265 19190
" />
<path d="M21171 19378
L21171 18984
L21321 18984
L21359 19003
L21378 19021
L21396 19059
L21396 19115
L21378 19153
L21359 19171
L21321 19190
L21171 19190
" />
<path d="M21771 19378
L21546 19378
" />
<path d="M21659 19378
L21659 18984
L21621 19040
L21584 19078
L21546 19096
" />
<path d="M22128 18984
L21940 18984
L21921 19171
L21940 19153
L21978 19134
L22071 19134
L22109 19153
L22128 19171
L22146 19209
L22146 19303
L22128 19340
L22109 19359
L22071 19378
L21978 19378
L21940 19359
L21921 19340
" />
<text x="25050" y="14046.9"
textLength="1220.38" font-size="524.934" lengthAdjust="spacingAndGlyphs"
text-anchor="middle" opacity="0">R14</text>
<path d="M24796 14028
L24665 13840
" />
<path d="M24571 14028
L24571 13634
L24721 13634
L24759 13653
L24778 13671
L24796 13709
L24796 13765
L24778 13803
L24759 13821
L24721 13840
L24571 13840
" />
<path d="M25171 14028
L24946 14028
" />
<path d="M25059 14028
L25059 13634
L25021 13690
L24984 13728
L24946 13746
" />
<path d="M25509 13765
L25509 14028
" />
<path d="M25415 13615
L25321 13896
L25565 13896
" />
<g transform="rotate(-90 28800 10700)">
<text x="28800" y="10867.3"
textLength="1048.84" font-size="446.194" lengthAdjust="spacingAndGlyphs"
text-anchor="middle" opacity="0">R13</text>
</g>
<path d="M28951 10915
L28792 11026
" />
<path d="M28951 11106
L28616 11106
L28616 10978
L28632 10947
L28648 10931
L28680 10915
L28728 10915
L28760 10931
L28776 10947
L28792 10978
L28792 11106
" />
<path d="M28951 10596
L28951 10787
" />
<path d="M28951 10692
L28616 10692
L28664 10723
L28696 10755
L28712 10787
" />
<path d="M28616 10484
L28616 10277
L28744 10389
L28744 10341
L28760 10309
L28776 10293
L28807 10277
L28887 10277
L28919 10293
L28935 10309
L28951 10341
L28951 10437
L28935 10468
L28919 10484
" />
<g transform="rotate(-90 27800 10700)">
<text x="27800" y="10867.3"
textLength="1048.84" font-size="446.194" lengthAdjust="spacingAndGlyphs"
text-anchor="middle" opacity="0">R12</text>
</g>
<path d="M27951 10915
L27792 11026
" />
<path d="M27951 11106
L27616 11106
L27616 10978
L27632 10947
L27648 10931
L27680 10915
L27728 10915
L27760 10931
L27776 10947
L27792 10978
L27792 11106
" />
<path d="M27951 10596
L27951 10787
" />
<path d="M27951 10692
L27616 10692
L27664 10723
L27696 10755
L27712 10787
" />
<path d="M27648 10468
L27632 10452
L27616 10421
L27616 10341
L27632 10309
L27648 10293
L27680 10277
L27712 10277
L27760 10293
L27951 10484
L27951 10277
" />
<g transform="rotate(-90 26800 10700)">
<text x="26800" y="10867.3"
textLength="1048.84" font-size="446.194" lengthAdjust="spacingAndGlyphs"
text-anchor="middle" opacity="0">R11</text>
</g>
<path d="M26951 10915
L26792 11026
" />
<path d="M26951 11106
L26616 11106
L26616 10978
L26632 10947
L26648 10931
L26680 10915
L26728 10915
L26760 10931
L26776 10947
L26792 10978
L26792 11106
" />
<path d="M26951 10596
L26951 10787
" />
<path d="M26951 10692
L26616 10692
L26664 10723
L26696 10755
L26712 10787
" />
<path d="M26951 10277
L26951 10468
" />
<path d="M26951 10373
L26616 10373
L26664 10405
L26696 10437
L26712 10468
" />
<g transform="rotate(-90 7517.72 22539.4)">
<text x="7517.72" y="22736.2"
textLength="845.426" font-size="524.934" lengthAdjust="spacingAndGlyphs"
text-anchor="middle" opacity="0">C9</text>
</g>
<path d="M7658 22604
L7677 22623
L7695 22679
L7695 22717
L7677 22773
L7639 22811
L7602 22829
L7527 22848
L7470 22848
L7395 22829
L7358 22811
L7320 22773
L7302 22717
L7302 22679
L7320 22623
L7339 22604
" />
<path d="M7695 22417
L7695 22342
L7677 22305
L7658 22286
L7602 22248
L7527 22230
L7377 22230
L7339 22248
L7320 22267
L7302 22305
L7302 22380
L7320 22417
L7339 22436
L7377 22455
L7470 22455
L7508 22436
L7527 22417
L7545 22380
L7545 22305
L7527 22267
L7508 22248
L7470 22230
" />
<g transform="rotate(-90 6496.06 16830.7)">
<text x="6496.06" y="17027.6"
textLength="1220.38" font-size="524.934" lengthAdjust="spacingAndGlyphs"
text-anchor="middle" opacity="0">R10</text>
</g>
<path d="M6674 17083
L6486 17215
" />
<path d="M6674 17308
L6280 17308
L6280 17158
L6299 17121
L6317 17102
L6355 17083
L6411 17083
L6449 17102
L6467 17121
L6486 17158
L6486 17308
" />
<path d="M6674 16708
L6674 16933
" />
<path d="M6674 16821
L6280 16821
L6336 16858
L6374 16896
L6392 16933
" />
<path d="M6280 16465
L6280 16427
L6299 16390
L6317 16371
L6355 16352
L6430 16333
L6524 16333
L6599 16352
L6636 16371
L6655 16390
L6674 16427
L6674 16465
L6655 16502
L6636 16521
L6599 16540
L6524 16558
L6430 16558
L6355 16540
L6317 16521
L6299 16502
L6280 16465
" />
<g transform="rotate(-90 6496.06 22047.2)">
<text x="6496.06" y="22244.1"
textLength="1220.38" font-size="524.934" lengthAdjust="spacingAndGlyphs"
text-anchor="middle" opacity="0">C10</text>
</g>
<path d="M6636 22300
L6655 22319
L6674 22375
L6674 22412
L6655 22469
L6617 22506
L6580 22525
L6505 22544
L6449 22544
L6374 22525
L6336 22506
L6299 22469
L6280 22412
L6280 22375
L6299 22319
L6317 22300
" />
<path d="M6674 21925
L6674 22150
" />
<path d="M6674 22037
L6280 22037
L6336 22075
L6374 22112
L6392 22150
" />
<path d="M6280 21681
L6280 21644
L6299 21606
L6317 21587
L6355 21569
L6430 21550
L6524 21550
L6599 21569
L6636 21587
L6655 21606
L6674 21644
L6674 21681
L6655 21719
L6636 21737
L6599 21756
L6524 21775
L6430 21775
L6355 21756
L6317 21737
L6299 21719
L6280 21681
" />
<g transform="rotate(-90 19925.2 19909.4)">
<text x="19925.2" y="20106.3"
textLength="864.173" font-size="524.934" lengthAdjust="spacingAndGlyphs"
text-anchor="middle" opacity="0">U3</text>
</g>
<path d="M19709 20209
L20028 20209
L20065 20190
L20084 20171
L20103 20134
L20103 20059
L20084 20021
L20065 20003
L20028 19984
L19709 19984
" />
<path d="M19709 19834
L19709 19590
L19859 19721
L19859 19665
L19878 19628
L19897 19609
L19934 19590
L20028 19590
L20065 19609
L20084 19628
L20103 19665
L20103 19778
L20084 19815
L20065 19834
" />
<text x="22200" y="4165.35"
textLength="845.426" font-size="524.934" lengthAdjust="spacingAndGlyphs"
text-anchor="middle" opacity="0">R9</text>
<path d="M22134 4146
L22003 3959
" />
<path d="M21909 4146
L21909 3752
L22059 3752
L22096 3771
L22115 3790
L22134 3827
L22134 3884
L22115 3921
L22096 3940
L22059 3959
L21909 3959
" />
<path d="M22321 4146
L22396 4146
L22434 4127
L22453 4109
L22490 4052
L22509 3977
L22509 3827
L22490 3790
L22471 3771
L22434 3752
L22359 3752
L22321 3771
L22303 3790
L22284 3827
L22284 3921
L22303 3959
L22321 3977
L22359 3996
L22434 3996
L22471 3977
L22490 3959
L22509 3921
" />
<text x="6500" y="2296.85"
textLength="1220.38" font-size="524.934" lengthAdjust="spacingAndGlyphs"
text-anchor="middle" opacity="0">PS1</text>
<path d="M6021 2278
L6021 1884
L6171 1884
L6209 1903
L6228 1921
L6246 1959
L6246 2015
L6228 2053
L6209 2071
L6171 2090
L6021 2090
" />
<path d="M6396 2259
L6453 2278
L6546 2278
L6584 2259
L6603 2240
L6621 2203
L6621 2165
L6603 2128
L6584 2109
L6546 2090
L6471 2071
L6434 2053
L6415 2034
L6396 1996
L6396 1959
L6415 1921
L6434 1903
L6471 1884
L6565 1884
L6621 1903
" />
<path d="M6996 2278
L6771 2278
" />
<path d="M6884 2278
L6884 1884
L6846 1940
L6809 1978
L6771 1996
" />
<g transform="rotate(-90 28000 21464.6)">
<text x="28000" y="21661.4"
textLength="1276.62" font-size="524.934" lengthAdjust="spacingAndGlyphs"
text-anchor="middle" opacity="0">SW2</text>
</g>
<path d="M28159 21989
L28178 21933
L28178 21839
L28159 21802
L28140 21783
L28103 21764
L28065 21764
L28028 21783
L28009 21802
L27990 21839
L27971 21914
L27953 21952
L27934 21970
L27896 21989
L27859 21989
L27821 21970
L27803 21952
L27784 21914
L27784 21820
L27803 21764
" />
<path d="M27784 21633
L28178 21539
L27896 21464
L28178 21389
L27784 21295
" />
<path d="M27821 21164
L27803 21145
L27784 21108
L27784 21014
L27803 20977
L27821 20958
L27859 20939
L27896 20939
L27953 20958
L28178 21183
L28178 20939
" />
<g transform="rotate(-90 26000 21464.6)">
<text x="26000" y="21661.4"
textLength="1276.62" font-size="524.934" lengthAdjust="spacingAndGlyphs"
text-anchor="middle" opacity="0">SW1</text>
</g>
<path d="M26159 21989
L26178 21933
L26178 21839
L26159 21802
L26140 21783
L26103 21764
L26065 21764
L26028 21783
L26009 21802
L25990 21839
L25971 21914
L25953 21952
L25934 21970
L25896 21989
L25859 21989
L25821 21970
L25803 21952
L25784 21914
L25784 21820
L25803 21764
" />
<path d="M25784 21633
L26178 21539
L25896 21464
L26178 21389
L25784 21295
" />
<path d="M26178 20939
L26178 21164
" />
<path d="M26178 21052
L25784 21052
L25840 21089
L25878 21127
L25896 21164
" />
<text x="21800" y="15996.9"
textLength="845.426" font-size="524.934" lengthAdjust="spacingAndGlyphs"
text-anchor="middle" opacity="0">D2</text>
<path d="M21509 15978
L21509 15584
L21603 15584
L21659 15603
L21696 15640
L21715 15678
L21734 15753
L21734 15809
L21715 15884
L21696 15921
L21659 15959
L21603 15978
L21509 15978
" />
<path d="M21884 15621
L21903 15603
L21940 15584
L22034 15584
L22071 15603
L22090 15621
L22109 15659
L22109 15696
L22090 15753
L21865 15978
L22109 15978
" />
<text x="24950" y="15996.9"
textLength="845.426" font-size="524.934" lengthAdjust="spacingAndGlyphs"
text-anchor="middle" opacity="0">D1</text>
<path d="M24659 15978
L24659 15584
L24753 15584
L24809 15603
L24846 15640
L24865 15678
L24884 15753
L24884 15809
L24865 15884
L24846 15921
L24809 15959
L24753 15978
L24659 15978
" />
<path d="M25259 15978
L25034 15978
" />
<path d="M25146 15978
L25146 15584
L25109 15640
L25071 15678
L25034 15696
" />
<text x="11259.8" y="18228.3"
textLength="845.426" font-size="524.934" lengthAdjust="spacingAndGlyphs"
text-anchor="middle" opacity="0">R1</text>
<path d="M11194 18209
L11062 18022
" />
<path d="M10969 18209
L10969 17815
L11119 17815
L11156 17834
L11175 17853
L11194 17890
L11194 17947
L11175 17984
L11156 18003
L11119 18022
L10969 18022
" />
<path d="M11569 18209
L11344 18209
" />
<path d="M11456 18209
L11456 17815
L11419 17872
L11381 17909
L11344 17928
" />
<text x="8858.27" y="12996.9"
textLength="864.173" font-size="524.934" lengthAdjust="spacingAndGlyphs"
text-anchor="middle" opacity="0">Q2</text>
<path d="M8820 13015
L8783 12996
L8745 12959
L8689 12903
L8652 12884
L8614 12884
" />
<path d="M8633 12978
L8595 12959
L8558 12921
L8539 12846
L8539 12715
L8558 12640
L8595 12603
L8633 12584
L8708 12584
L8745 12603
L8783 12640
L8802 12715
L8802 12846
L8783 12921
L8745 12959
L8708 12978
L8633 12978
" />
<path d="M8952 12621
L8970 12603
L9008 12584
L9101 12584
L9139 12603
L9158 12621
L9176 12659
L9176 12696
L9158 12753
L8933 12978
L9176 12978
" />
<text x="9050" y="16696.9"
textLength="864.173" font-size="524.934" lengthAdjust="spacingAndGlyphs"
text-anchor="middle" opacity="0">Q1</text>
<path d="M9012 16715
L8975 16696
L8937 16659
L8881 16603
L8843 16584
L8806 16584
" />
<path d="M8825 16678
L8787 16659
L8750 16621
L8731 16546
L8731 16415
L8750 16340
L8787 16303
L8825 16284
L8900 16284
L8937 16303
L8975 16340
L8993 16415
L8993 16546
L8975 16621
L8937 16659
L8900 16678
L8825 16678
" />
<path d="M9368 16678
L9143 16678
" />
<path d="M9256 16678
L9256 16284
L9218 16340
L9181 16378
L9143 16396
" />
<text x="21800" y="14996.9"
textLength="845.426" font-size="524.934" lengthAdjust="spacingAndGlyphs"
text-anchor="middle" opacity="0">R8</text>
<path d="M21734 14978
L21603 14790
" />
<path d="M21509 14978
L21509 14584
L21659 14584
L21696 14603
L21715 14621
L21734 14659
L21734 14715
L21715 14753
L21696 14771
L21659 14790
L21509 14790
" />
<path d="M21959 14753
L21921 14734
L21903 14715
L21884 14678
L21884 14659
L21903 14621
L21921 14603
L21959 14584
L22034 14584
L22071 14603
L22090 14621
L22109 14659
L22109 14678
L22090 14715
L22071 14734
L22034 14753
L21959 14753
L21921 14771
L21903 14790
L21884 14828
L21884 14903
L21903 14940
L21921 14959
L21959 14978
L22034 14978
L22071 14959
L22090 14940
L22109 14903
L22109 14828
L22090 14790
L22071 14771
L22034 14753
" />
<text x="15944.9" y="18208.7"
textLength="845.426" font-size="524.934" lengthAdjust="spacingAndGlyphs"
text-anchor="middle" opacity="0">R7</text>
<path d="M15879 18189
L15748 18002
" />
<path d="M15654 18189
L15654 17796
L15804 17796
L15841 17814
L15860 17833
L15879 17871
L15879 17927
L15860 17964
L15841 17983
L15804 18002
L15654 18002
" />
<path d="M16010 17796
L16272 17796
L16104 18189
" />
<text x="24950" y="14996.9"
textLength="845.426" font-size="524.934" lengthAdjust="spacingAndGlyphs"
text-anchor="middle" opacity="0">R6</text>
<path d="M24884 14978
L24753 14790
" />
<path d="M24659 14978
L24659 14584
L24809 14584
L24846 14603
L24865 14621
L24884 14659
L24884 14715
L24865 14753
L24846 14771
L24809 14790
L24659 14790
" />
<path d="M25221 14584
L25146 14584
L25109 14603
L25090 14621
L25053 14678
L25034 14753
L25034 14903
L25053 14940
L25071 14959
L25109 14978
L25184 14978
L25221 14959
L25240 14940
L25259 14903
L25259 14809
L25240 14771
L25221 14753
L25184 14734
L25109 14734
L25071 14753
L25053 14771
L25034 14809
" />
<text x="21819.9" y="22244.1"
textLength="845.426" font-size="524.934" lengthAdjust="spacingAndGlyphs"
text-anchor="middle" opacity="0">R5</text>
<path d="M21754 22225
L21623 22037
" />
<path d="M21529 22225
L21529 21831
L21679 21831
L21716 21850
L21735 21869
L21754 21906
L21754 21962
L21735 22000
L21716 22019
L21679 22037
L21529 22037
" />
<path d="M22110 21831
L21922 21831
L21904 22019
L21922 22000
L21960 21981
L22054 21981
L22091 22000
L22110 22019
L22129 22056
L22129 22150
L22110 22187
L22091 22206
L22054 22225
L21960 22225
L21922 22206
L21904 22187
" />
<text x="21834.6" y="20275.6"
textLength="845.426" font-size="524.934" lengthAdjust="spacingAndGlyphs"
text-anchor="middle" opacity="0">R4</text>
<path d="M21769 20256
L21637 20069
" />
<path d="M21544 20256
L21544 19863
L21694 19863
L21731 19881
L21750 19900
L21769 19938
L21769 19994
L21750 20031
L21731 20050
L21694 20069
L21544 20069
" />
<path d="M22106 19994
L22106 20256
" />
<path d="M22012 19844
L21919 20125
L22162 20125
" />
<g transform="rotate(-90 24800 10722)">
<text x="24800" y="10918.9"
textLength="845.426" font-size="524.934" lengthAdjust="spacingAndGlyphs"
text-anchor="middle" opacity="0">R3</text>
</g>
<path d="M24978 10787
L24790 10918
" />
<path d="M24978 11012
L24584 11012
L24584 10862
L24603 10825
L24621 10806
L24659 10787
L24715 10787
L24753 10806
L24771 10825
L24790 10862
L24790 11012
" />
<path d="M24584 10656
L24584 10412
L24734 10543
L24734 10487
L24753 10450
L24771 10431
L24809 10412
L24903 10412
L24940 10431
L24959 10450
L24978 10487
L24978 10600
L24959 10637
L24940 10656
" />
<g transform="rotate(-90 25800 10722)">
<text x="25800" y="10918.9"
textLength="845.426" font-size="524.934" lengthAdjust="spacingAndGlyphs"
text-anchor="middle" opacity="0">R2</text>
</g>
<path d="M25978 10787
L25790 10918
" />
<path d="M25978 11012
L25584 11012
L25584 10862
L25603 10825
L25621 10806
L25659 10787
L25715 10787
L25753 10806
L25771 10825
L25790 10862
L25790 11012
" />
<path d="M25621 10637
L25603 10618
L25584 10581
L25584 10487
L25603 10450
L25621 10431
L25659 10412
L25696 10412
L25753 10431
L25978 10656
L25978 10412
" />
<text x="21834.6" y="21259.8"
textLength="845.426" font-size="524.934" lengthAdjust="spacingAndGlyphs"
text-anchor="middle" opacity="0">C8</text>
<path d="M21769 21203
L21750 21222
L21694 21241
L21656 21241
L21600 21222
L21562 21184
L21544 21147
L21525 21072
L21525 21016
L21544 20941
L21562 20903
L21600 20866
L21656 20847
L21694 20847
L21750 20866
L21769 20884
" />
<path d="M21994 21016
L21956 20997
L21937 20978
L21919 20941
L21919 20922
L21937 20884
L21956 20866
L21994 20847
L22068 20847
L22106 20866
L22125 20884
L22143 20922
L22143 20941
L22125 20978
L22106 20997
L22068 21016
L21994 21016
L21956 21034
L21937 21053
L21919 21091
L21919 21166
L21937 21203
L21956 21222
L21994 21241
L22068 21241
L22106 21222
L22125 21203
L22143 21166
L22143 21091
L22125 21053
L22106 21034
L22068 21016
" />
<text x="21844.5" y="23228.3"
textLength="845.426" font-size="524.934" lengthAdjust="spacingAndGlyphs"
text-anchor="middle" opacity="0">C7</text>
<path d="M21778 23172
L21760 23190
L21703 23209
L21666 23209
L21610 23190
L21572 23153
L21553 23115
L21535 23040
L21535 22984
L21553 22909
L21572 22872
L21610 22834
L21666 22815
L21703 22815
L21760 22834
L21778 22853
" />
<path d="M21910 22815
L22172 22815
L22003 23209
" />
<text x="19522" y="13296.9"
textLength="845.426" font-size="524.934" lengthAdjust="spacingAndGlyphs"
text-anchor="middle" opacity="0">C6</text>
<path d="M19456 13240
L19437 13259
L19381 13278
L19343 13278
L19287 13259
L19250 13221
L19231 13184
L19212 13109
L19212 13053
L19231 12978
L19250 12940
L19287 12903
L19343 12884
L19381 12884
L19437 12903
L19456 12921
" />
<path d="M19793 12884
L19718 12884
L19681 12903
L19662 12921
L19625 12978
L19606 13053
L19606 13203
L19625 13240
L19643 13259
L19681 13278
L19756 13278
L19793 13259
L19812 13240
L19831 13203
L19831 13109
L19812 13071
L19793 13053
L19756 13034
L19681 13034
L19643 13053
L19625 13071
L19606 13109
" />
<g transform="rotate(-90 23818.9 10728.3)">
<text x="23818.9" y="10925.2"
textLength="845.426" font-size="524.934" lengthAdjust="spacingAndGlyphs"
text-anchor="middle" opacity="0">C5</text>
</g>
<path d="M23959 10793
L23978 10812
L23997 10868
L23997 10906
L23978 10962
L23940 11000
L23903 11018
L23828 11037
L23772 11037
L23697 11018
L23659 11000
L23622 10962
L23603 10906
L23603 10868
L23622 10812
L23640 10793
" />
<path d="M23603 10437
L23603 10625
L23790 10643
L23772 10625
L23753 10587
L23753 10494
L23772 10456
L23790 10437
L23828 10419
L23922 10419
L23959 10437
L23978 10456
L23997 10494
L23997 10587
L23978 10625
L23959 10643
" />
<g transform="rotate(-90 20472.4 24409.4)">
<text x="20472.4" y="24606.3"
textLength="845.426" font-size="524.934" lengthAdjust="spacingAndGlyphs"
text-anchor="middle" opacity="0">C4</text>
</g>
<path d="M20613 24475
L20631 24493
L20650 24550
L20650 24587
L20631 24643
L20594 24681
L20556 24700
L20481 24718
L20425 24718
L20350 24700
L20313 24681
L20275 24643
L20256 24587
L20256 24550
L20275 24493
L20294 24475
" />
<path d="M20388 24137
L20650 24137
" />
<path d="M20238 24231
L20519 24325
L20519 24081
" />
<g transform="rotate(-90 21653.5 24409.4)">
<text x="21653.5" y="24606.3"
textLength="845.426" font-size="524.934" lengthAdjust="spacingAndGlyphs"
text-anchor="middle" opacity="0">C3</text>
</g>
<path d="M21794 24475
L21812 24493
L21831 24550
L21831 24587
L21812 24643
L21775 24681
L21737 24700
L21662 24718
L21606 24718
L21531 24700
L21494 24681
L21456 24643
L21437 24587
L21437 24550
L21456 24493
L21475 24475
" />
<path d="M21437 24343
L21437 24100
L21587 24231
L21587 24175
L21606 24137
L21625 24118
L21662 24100
L21756 24100
L21794 24118
L21812 24137
L21831 24175
L21831 24287
L21812 24325
L21794 24343
" />
<text x="8759.84" y="19094.5"
textLength="864.173" font-size="524.934" lengthAdjust="spacingAndGlyphs"
text-anchor="middle" opacity="0">U4</text>
<path d="M8459 18682
L8459 19000
L8478 19038
L8497 19056
L8534 19075
L8609 19075
L8647 19056
L8666 19038
L8684 19000
L8684 18682
" />
<path d="M9041 18813
L9041 19075
" />
<path d="M8947 18663
L8853 18944
L9097 18944
" />
<text x="20393.7" y="10708.7"
textLength="864.173" font-size="524.934" lengthAdjust="spacingAndGlyphs"
text-anchor="middle" opacity="0">U2</text>
<path d="M20093 10296
L20093 10614
L20112 10652
L20131 10671
L20168 10689
L20243 10689
L20281 10671
L20299 10652
L20318 10614
L20318 10296
" />
<path d="M20487 10333
L20506 10314
L20543 10296
L20637 10296
L20674 10314
L20693 10333
L20712 10371
L20712 10408
L20693 10464
L20468 10689
L20712 10689
" />
<text x="13700.8" y="14645.7"
textLength="864.173" font-size="524.934" lengthAdjust="spacingAndGlyphs"
text-anchor="middle" opacity="0">U1</text>
<path d="M13400 14233
L13400 14551
L13419 14589
L13438 14608
L13475 14626
L13550 14626
L13588 14608
L13607 14589
L13625 14551
L13625 14233
" />
<path d="M14019 14626
L13794 14626
" />
<path d="M13907 14626
L13907 14233
L13869 14289
L13832 14326
L13794 14345
" />
<text x="27992.1" y="18740.2"
textLength="751.687" font-size="524.934" lengthAdjust="spacingAndGlyphs"
text-anchor="middle" opacity="0">J2</text>
<path d="M27860 18327
L27860 18608
L27842 18665
L27804 18702
L27748 18721
L27710 18721
" />
<path d="M28029 18365
L28048 18346
L28085 18327
L28179 18327
L28217 18346
L28235 18365
L28254 18402
L28254 18440
L28235 18496
L28010 18721
L28254 18721
" />
<text x="14606.3" y="12795.3"
textLength="845.426" font-size="524.934" lengthAdjust="spacingAndGlyphs"
text-anchor="middle" opacity="0">C2</text>
<path d="M14540 12739
L14521 12757
L14465 12776
L14428 12776
L14371 12757
L14334 12720
L14315 12682
L14296 12607
L14296 12551
L14315 12476
L14334 12439
L14371 12401
L14428 12382
L14465 12382
L14521 12401
L14540 12420
" />
<path d="M14690 12420
L14709 12401
L14746 12382
L14840 12382
L14878 12401
L14896 12420
L14915 12457
L14915 12495
L14896 12551
L14671 12776
L14915 12776
" />
<g transform="rotate(-90 18000 16500)">
<text x="18000" y="16696.9"
textLength="845.426" font-size="524.934" lengthAdjust="spacingAndGlyphs"
text-anchor="middle" opacity="0">C1</text>
</g>
<path d="M18140 16565
L18159 16584
L18178 16640
L18178 16678
L18159 16734
L18121 16771
L18084 16790
L18009 16809
L17953 16809
L17878 16790
L17840 16771
L17803 16734
L17784 16678
L17784 16640
L17803 16584
L17821 16565
" />
<path d="M18178 16190
L18178 16415
" />
<path d="M18178 16303
L17784 16303
L17840 16340
L17878 16378
L17896 16415
" />
<g >
</g>
</g> 
</svg>
