<?xml version="1.0" standalone="no"?>
 <!DOCTYPE svg PUBLIC "-//W3C//DTD SVG 1.1//EN" 
 "http://www.w3.org/Graphics/SVG/1.1/DTD/svg11.dtd"> 
<svg
  xmlns:svg="http://www.w3.org/2000/svg"
  xmlns="http://www.w3.org/2000/svg"
  xmlns:xlink="http://www.w3.org/1999/xlink"
  version="1.1"
  width="29.700220cm" height="21.000720cm" viewBox="0 0 116930 82680">
<title>SVG Picture created as HotPlateController-B_Mask.svg date 2021/02/21 19:33:28 </title>
  <desc>Picture generated by PCBNEW </desc>
<g style="fill:#000000; fill-opacity:1;stroke:#000000; stroke-opacity:1;
stroke-linecap:round; stroke-linejoin:round;"
 transform="translate(0 0) scale(1 1)">
</g>
<g style="fill:#000000; fill-opacity:0.0; 
stroke:#000000; stroke-width:-0.000393701; stroke-opacity:1; 
stroke-linecap:round; stroke-linejoin:round;">
<g >
</g>
<g >
</g>
<g >
</g>
<g >
</g>
<g >
</g>
<g >
</g>
<g style="fill:#000000; fill-opacity:0.0; 
stroke:#000000; stroke-width:-0.000393701; stroke-opacity:1; 
stroke-linecap:round; stroke-linejoin:round;">
</g>
<g style="fill:#000000; fill-opacity:0.0; 
stroke:#000000; stroke-width:0; stroke-opacity:1; 
stroke-linecap:round; stroke-linejoin:round;">
</g>
<g style="fill:#000000; fill-opacity:1.0; 
stroke:#000000; stroke-width:0; stroke-opacity:1; 
stroke-linecap:round; stroke-linejoin:round;">
<path style="fill:#000000; fill-opacity:1.0; 
stroke:#000000; stroke-width:0; stroke-opacity:1; 
stroke-linecap:round; stroke-linejoin:round;fill-rule:evenodd;"
d="M 3860.2,15807.2
3862.11,15807.5
3863.98,15807.9
3865.8,15808.6
3867.55,15809.4
3869.2,15810.4
3870.76,15811.6
3872.19,15812.9
3873.48,15814.3
3874.64,15815.8
3875.63,15817.5
3876.45,15819.2
3877.11,15821.1
3877.57,15822.9
3877.86,15824.8
3877.95,15826.8
3877.95,16850.4
3877.86,16852.3
3877.57,16854.2
3877.11,16856.1
3876.45,16857.9
3875.63,16859.7
3874.64,16861.3
3873.48,16862.9
3872.19,16864.3
3870.76,16865.6
3869.2,16866.8
3867.55,16867.8
3865.8,16868.6
3863.98,16869.2
3862.11,16869.7
3860.2,16870
3858.27,16870.1
2834.65,16870.1
2832.72,16870
2830.81,16869.7
2828.93,16869.2
2827.11,16868.6
2825.37,16867.8
2823.71,16866.8
2822.16,16865.6
2820.73,16864.3
2819.43,16862.9
2818.28,16861.3
2817.29,16859.7
2816.46,16857.9
2815.81,16856.1
2815.34,16854.2
2815.06,16852.3
2814.96,16850.4
2814.96,15826.8
2815.06,15824.8
2815.34,15822.9
2815.81,15821.1
2816.46,15819.2
2817.29,15817.5
2818.28,15815.8
2819.43,15814.3
2820.73,15812.9
2822.16,15811.6
2823.71,15810.4
2825.37,15809.4
2827.11,15808.6
2828.93,15807.9
2830.81,15807.5
2832.72,15807.2
2834.65,15807.1
3858.27,15807.1
Z" /> 
<circle cx="3346.46" cy="14370.1" r="531.496" /> 
</g>
<g style="fill:#000000; fill-opacity:1.0; 
stroke:#000000; stroke-width:39.3701; stroke-opacity:1; 
stroke-linecap:round; stroke-linejoin:round;">
</g>
<g >
</g>
<g style="fill:#000000; fill-opacity:1.0; 
stroke:#000000; stroke-width:39.3701; stroke-opacity:1; 
stroke-linecap:round; stroke-linejoin:round;">
</g>
<g style="fill:#000000; fill-opacity:1.0; 
stroke:#000000; stroke-width:0; stroke-opacity:1; 
stroke-linecap:round; stroke-linejoin:round;">
<path style="fill:#000000; fill-opacity:1.0; 
stroke:#000000; stroke-width:0; stroke-opacity:1; 
stroke-linecap:round; stroke-linejoin:round;fill-rule:evenodd;"
d="M 3860.2,20925.3
3862.11,20925.6
3863.98,20926
3865.8,20926.7
3867.55,20927.5
3869.2,20928.5
3870.76,20929.7
3872.19,20931
3873.48,20932.4
3874.64,20933.9
3875.63,20935.6
3876.45,20937.3
3877.11,20939.2
3877.57,20941
3877.86,20943
3877.95,20944.9
3877.95,21968.5
3877.86,21970.4
3877.57,21972.3
3877.11,21974.2
3876.45,21976
3875.63,21977.8
3874.64,21979.4
3873.48,21981
3872.19,21982.4
3870.76,21983.7
3869.2,21984.9
3867.55,21985.9
3865.8,21986.7
3863.98,21987.3
3862.11,21987.8
3860.2,21988.1
3858.27,21988.2
2834.65,21988.2
2832.72,21988.1
2830.81,21987.8
2828.93,21987.3
2827.11,21986.7
2825.37,21985.9
2823.71,21984.9
2822.16,21983.7
2820.73,21982.4
2819.43,21981
2818.28,21979.4
2817.29,21977.8
2816.46,21976
2815.81,21974.2
2815.34,21972.3
2815.06,21970.4
2814.96,21968.5
2814.96,20944.9
2815.06,20943
2815.34,20941
2815.81,20939.2
2816.46,20937.3
2817.29,20935.6
2818.28,20933.9
2819.43,20932.4
2820.73,20931
2822.16,20929.7
2823.71,20928.5
2825.37,20927.5
2827.11,20926.7
2828.93,20926
2830.81,20925.6
2832.72,20925.3
2834.65,20925.2
3858.27,20925.2
Z" /> 
<circle cx="3346.46" cy="19488.2" r="531.496" /> 
</g>
<g style="fill:#000000; fill-opacity:1.0; 
stroke:#000000; stroke-width:39.3701; stroke-opacity:1; 
stroke-linecap:round; stroke-linejoin:round;">
</g>
<g >
</g>
<g >
</g>
<g >
</g>
<g >
</g>
<g >
</g>
<g >
</g>
<g style="fill:#000000; fill-opacity:1.0; 
stroke:#000000; stroke-width:39.3701; stroke-opacity:1; 
stroke-linecap:round; stroke-linejoin:round;">
</g>
<g style="fill:#000000; fill-opacity:1.0; 
stroke:#000000; stroke-width:0; stroke-opacity:1; 
stroke-linecap:round; stroke-linejoin:round;">
<circle cx="18267.7" cy="9527.56" r="472.441" /> 
</g>
<g style="fill:#000000; fill-opacity:1.0; 
stroke:#000000; stroke-width:39.3701; stroke-opacity:1; 
stroke-linecap:round; stroke-linejoin:round;">
</g>
<g style="fill:#000000; fill-opacity:1.0; 
stroke:#000000; stroke-width:0; stroke-opacity:1; 
stroke-linecap:round; stroke-linejoin:round;">
<circle cx="6692.91" cy="7480.31" r="472.441" /> 
</g>
<g style="fill:#000000; fill-opacity:1.0; 
stroke:#000000; stroke-width:39.3701; stroke-opacity:1; 
stroke-linecap:round; stroke-linejoin:round;">
</g>
<g style="fill:#000000; fill-opacity:1.0; 
stroke:#000000; stroke-width:0; stroke-opacity:1; 
stroke-linecap:round; stroke-linejoin:round;">
<path style="fill:#000000; fill-opacity:1.0; 
stroke:#000000; stroke-width:0; stroke-opacity:1; 
stroke-linecap:round; stroke-linejoin:round;fill-rule:evenodd;"
d="M 7147.6,5098.52
7149.51,5098.8
7151.38,5099.27
7153.2,5099.92
7154.95,5100.75
7156.61,5101.74
7158.16,5102.89
7159.59,5104.19
7160.89,5105.62
7162.04,5107.17
7163.03,5108.83
7163.86,5110.58
7164.51,5112.4
7164.98,5114.27
7165.26,5116.18
7165.35,5118.11
7165.35,5905.51
7165.26,5907.44
7164.98,5909.35
7164.51,5911.23
7163.86,5913.04
7163.03,5914.79
7162.04,5916.45
7160.89,5918
7159.59,5919.43
7158.16,5920.73
7156.61,5921.88
7154.95,5922.87
7153.2,5923.7
7151.38,5924.35
7149.51,5924.82
7147.6,5925.1
7145.67,5925.2
6240.16,5925.2
6238.23,5925.1
6236.32,5924.82
6234.44,5924.35
6232.62,5923.7
6230.88,5922.87
6229.22,5921.88
6227.67,5920.73
6226.24,5919.43
6224.94,5918
6223.79,5916.45
6222.8,5914.79
6221.97,5913.04
6221.32,5911.23
6220.85,5909.35
6220.57,5907.44
6220.47,5905.51
6220.47,5118.11
6220.57,5116.18
6220.85,5114.27
6221.32,5112.4
6221.97,5110.58
6222.8,5108.83
6223.79,5107.17
6224.94,5105.62
6226.24,5104.19
6227.67,5102.89
6229.22,5101.74
6230.88,5100.75
6232.62,5099.92
6234.44,5099.27
6236.32,5098.8
6238.23,5098.52
6240.16,5098.43
7145.67,5098.43
Z" /> 
<circle cx="18267.7" cy="3464.57" r="472.441" /> 
</g>
<g style="fill:#000000; fill-opacity:1.0; 
stroke:#000000; stroke-width:39.3701; stroke-opacity:1; 
stroke-linecap:round; stroke-linejoin:round;">
</g>
<g >
</g>
<g >
</g>
<g >
</g>
<g >
</g>
<g >
</g>
<g style="fill:#000000; fill-opacity:1.0; 
stroke:#000000; stroke-width:39.3701; stroke-opacity:1; 
stroke-linecap:round; stroke-linejoin:round;">
</g>
<g style="fill:#000000; fill-opacity:1.0; 
stroke:#000000; stroke-width:0; stroke-opacity:1; 
stroke-linecap:round; stroke-linejoin:round;">
<circle cx="25984.3" cy="5055.12" r="610.236" /> 
</g>
<g style="fill:#000000; fill-opacity:1.0; 
stroke:#000000; stroke-width:39.3701; stroke-opacity:1; 
stroke-linecap:round; stroke-linejoin:round;">
</g>
<g style="fill:#000000; fill-opacity:1.0; 
stroke:#000000; stroke-width:0; stroke-opacity:1; 
stroke-linecap:round; stroke-linejoin:round;">
<circle cx="25984.3" cy="7055.12" r="610.236" /> 
</g>
<g style="fill:#000000; fill-opacity:1.0; 
stroke:#000000; stroke-width:39.3701; stroke-opacity:1; 
stroke-linecap:round; stroke-linejoin:round;">
</g>
<g style="fill:#000000; fill-opacity:1.0; 
stroke:#000000; stroke-width:0; stroke-opacity:1; 
stroke-linecap:round; stroke-linejoin:round;">
<circle cx="25944.9" cy="9094.49" r="610.236" /> 
</g>
<g style="fill:#000000; fill-opacity:1.0; 
stroke:#000000; stroke-width:39.3701; stroke-opacity:1; 
stroke-linecap:round; stroke-linejoin:round;">
</g>
<g >
</g>
<g style="fill:#000000; fill-opacity:1.0; 
stroke:#000000; stroke-width:39.3701; stroke-opacity:1; 
stroke-linecap:round; stroke-linejoin:round;">
</g>
<g style="fill:#000000; fill-opacity:1.0; 
stroke:#000000; stroke-width:0; stroke-opacity:1; 
stroke-linecap:round; stroke-linejoin:round;">
<circle cx="3543.31" cy="9118.11" r="610.236" /> 
</g>
<g style="fill:#000000; fill-opacity:1.0; 
stroke:#000000; stroke-width:39.3701; stroke-opacity:1; 
stroke-linecap:round; stroke-linejoin:round;">
</g>
<g style="fill:#000000; fill-opacity:1.0; 
stroke:#000000; stroke-width:0; stroke-opacity:1; 
stroke-linecap:round; stroke-linejoin:round;">
<circle cx="3543.31" cy="7118.11" r="610.236" /> 
</g>
<g style="fill:#000000; fill-opacity:1.0; 
stroke:#000000; stroke-width:39.3701; stroke-opacity:1; 
stroke-linecap:round; stroke-linejoin:round;">
</g>
<g style="fill:#000000; fill-opacity:1.0; 
stroke:#000000; stroke-width:0; stroke-opacity:1; 
stroke-linecap:round; stroke-linejoin:round;">
<circle cx="3582.68" cy="5078.74" r="610.236" /> 
</g>
<g style="fill:#000000; fill-opacity:1.0; 
stroke:#000000; stroke-width:39.3701; stroke-opacity:1; 
stroke-linecap:round; stroke-linejoin:round;">
</g>
<g >
</g>
<g style="fill:#000000; fill-opacity:1.0; 
stroke:#000000; stroke-width:39.3701; stroke-opacity:1; 
stroke-linecap:round; stroke-linejoin:round;">
</g>
<g style="fill:#000000; fill-opacity:1.0; 
stroke:#000000; stroke-width:0; stroke-opacity:1; 
stroke-linecap:round; stroke-linejoin:round;">
<circle cx="27559.1" cy="27559.1" r="649.606" /> 
</g>
<g style="fill:#000000; fill-opacity:1.0; 
stroke:#000000; stroke-width:39.3701; stroke-opacity:1; 
stroke-linecap:round; stroke-linejoin:round;">
</g>
<g >
</g>
<g style="fill:#000000; fill-opacity:1.0; 
stroke:#000000; stroke-width:39.3701; stroke-opacity:1; 
stroke-linecap:round; stroke-linejoin:round;">
</g>
<g style="fill:#000000; fill-opacity:1.0; 
stroke:#000000; stroke-width:0; stroke-opacity:1; 
stroke-linecap:round; stroke-linejoin:round;">
<circle cx="27559.1" cy="1968.5" r="649.606" /> 
</g>
<g style="fill:#000000; fill-opacity:1.0; 
stroke:#000000; stroke-width:39.3701; stroke-opacity:1; 
stroke-linecap:round; stroke-linejoin:round;">
</g>
<g >
</g>
<g style="fill:#000000; fill-opacity:1.0; 
stroke:#000000; stroke-width:39.3701; stroke-opacity:1; 
stroke-linecap:round; stroke-linejoin:round;">
</g>
<g style="fill:#000000; fill-opacity:1.0; 
stroke:#000000; stroke-width:0; stroke-opacity:1; 
stroke-linecap:round; stroke-linejoin:round;">
<circle cx="1968.5" cy="27559.1" r="649.606" /> 
</g>
<g style="fill:#000000; fill-opacity:1.0; 
stroke:#000000; stroke-width:39.3701; stroke-opacity:1; 
stroke-linecap:round; stroke-linejoin:round;">
</g>
<g >
</g>
<g style="fill:#000000; fill-opacity:1.0; 
stroke:#000000; stroke-width:39.3701; stroke-opacity:1; 
stroke-linecap:round; stroke-linejoin:round;">
</g>
<g style="fill:#000000; fill-opacity:1.0; 
stroke:#000000; stroke-width:0; stroke-opacity:1; 
stroke-linecap:round; stroke-linejoin:round;">
<circle cx="1968.5" cy="1968.5" r="649.606" /> 
</g>
<g style="fill:#000000; fill-opacity:1.0; 
stroke:#000000; stroke-width:39.3701; stroke-opacity:1; 
stroke-linecap:round; stroke-linejoin:round;">
</g>
<g >
</g>
<g >
</g>
<g >
</g>
<g >
</g>
<g >
</g>
<g >
</g>
<g >
</g>
<g >
</g>
<g >
</g>
<g >
</g>
<g >
</g>
<g >
</g>
<g >
</g>
<g >
</g>
<g >
</g>
<g >
</g>
<g >
</g>
<g >
</g>
<g >
</g>
<g >
</g>
<g style="fill:#000000; fill-opacity:1.0; 
stroke:#000000; stroke-width:39.3701; stroke-opacity:1; 
stroke-linecap:round; stroke-linejoin:round;">
</g>
<g style="fill:#000000; fill-opacity:1.0; 
stroke:#000000; stroke-width:0; stroke-opacity:1; 
stroke-linecap:round; stroke-linejoin:round;">
<circle cx="27771.7" cy="17566.9" r="354.331" /> 
<circle cx="26771.7" cy="17566.9" r="354.331" /> 
<circle cx="27771.7" cy="16566.9" r="354.331" /> 
<circle cx="26771.7" cy="16566.9" r="354.331" /> 
<circle cx="27771.7" cy="15566.9" r="354.331" /> 
<circle cx="26771.7" cy="15566.9" r="354.331" /> 
<circle cx="27771.7" cy="14566.9" r="354.331" /> 
<path style="fill:#000000; fill-opacity:1.0; 
stroke:#000000; stroke-width:0; stroke-opacity:1; 
stroke-linecap:round; stroke-linejoin:round;fill-rule:evenodd;"
d="M 27108.2,14212.7
27110.1,14213
27112,14213.4
27113.8,14214.1
27115.6,14214.9
27117.2,14215.9
27118.8,14217.1
27120.2,14218.4
27121.5,14219.8
27122.7,14221.3
27123.7,14223
27124.5,14224.8
27125.1,14226.6
27125.6,14228.4
27125.9,14230.4
27126,14232.3
27126,14901.6
27125.9,14903.5
27125.6,14905.4
27125.1,14907.3
27124.5,14909.1
27123.7,14910.9
27122.7,14912.5
27121.5,14914.1
27120.2,14915.5
27118.8,14916.8
27117.2,14917.9
27115.6,14918.9
27113.8,14919.8
27112,14920.4
27110.1,14920.9
27108.2,14921.2
27106.3,14921.3
26437,14921.3
26435.1,14921.2
26433.2,14920.9
26431.3,14920.4
26429.5,14919.8
26427.7,14918.9
26426.1,14917.9
26424.5,14916.8
26423.1,14915.5
26421.8,14914.1
26420.6,14912.5
26419.6,14910.9
26418.8,14909.1
26418.2,14907.3
26417.7,14905.4
26417.4,14903.5
26417.3,14901.6
26417.3,14232.3
26417.4,14230.4
26417.7,14228.4
26418.2,14226.6
26418.8,14224.8
26419.6,14223
26420.6,14221.3
26421.8,14219.8
26423.1,14218.4
26424.5,14217.1
26426.1,14215.9
26427.7,14214.9
26429.5,14214.1
26431.3,14213.4
26433.2,14213
26435.1,14212.7
26437,14212.6
27106.3,14212.6
Z" /> 
</g>
<g >
</g>
<g >
</g>
<g >
</g>
<g >
</g>
<g >
</g>
</g> 
</svg>
